<?xml version="1.0" encoding="UTF-8"?>
<svg width="341px" height="165px" viewBox="0 0 341 165" version="1.1" xmlns="http://www.w3.org/2000/svg" xmlns:xlink="http://www.w3.org/1999/xlink">
    <title>Group 6</title>
    <g id="website" stroke="none" stroke-width="1" fill="none" fill-rule="evenodd">
        <g id="Artboard-Copy-14" transform="translate(-234, -1375)" fill="#99421C" stroke="#361100">
            <g id="Group-6" transform="translate(234, 1370)">
                <path d="M163.948301,13.5202793 C178.760157,7.71896895 195.3583,8.6147813 209.459736,15.9765603 L259.063335,41.8725566 C258.038406,37.4102989 260.13959,33.9345754 263.201557,32.4764959 C264.974262,31.6323507 267.068997,31.4644697 269.065586,32.1729368 C271.712834,33.1122828 273.674066,35.4411833 274.093938,38.3048834 L297.658338,46.1257758 L300.253928,56.5081351 C300.790537,58.6545703 302.310315,60.4209646 304.352618,61.2719241 L333.423077,73.3846154 C334.354694,73.7727893 335.123925,74.4220094 335.660251,75.226499 C336.196578,76.0309887 336.5,76.9907479 336.5,78 C336.5,80.5513751 335.322058,82.959842 333.308124,84.5262348 L298.854696,111.323346 L261.576578,106.61002 C259.658849,106.367549 257.824391,106.925345 256.408746,108.023192 C254.993102,109.121038 253.996272,110.758935 253.753801,112.676664 C253.631239,113.64602 253.712967,114.630299 253.993727,115.566166 L261.396151,140.240913 C261.810012,141.620449 262.639337,142.838745 263.771018,143.729643 L285,160.44182 L285,165.5 L257.119391,165.5 L213.031844,122.804692 C211.64326,121.459958 209.841072,120.805365 208.049846,120.834101 C206.227046,120.863344 204.415598,121.600219 203.062919,123.037549 L186.732691,141.404926 C185.578693,142.703173 184.988064,144.326383 184.965241,145.957537 C184.942417,147.588691 185.487399,149.227791 186.604622,150.557817 L194.5,159.957077 L194.5,165.5 L165.793232,165.5 L157.899825,125.155919 C157.578418,123.513174 156.697927,122.099195 155.479314,121.095901 C154.260701,120.092608 152.703967,119.5 151.030076,119.5 L131.205528,119.5 C128.737931,119.5 126.452614,120.799224 125.190478,122.919613 L114.688409,140.563089 C113.906823,141.876153 113.596334,143.366853 113.735672,144.81425 C113.875009,146.261646 114.464174,147.665738 115.481895,148.805587 L125.5,160.025864 L125.5,165.5 L102.166793,165.5 L74.91912,123.720235 C73.8956838,122.150966 72.3451239,121.123799 70.6472983,120.727418 C68.9494726,120.331037 67.1043813,120.565441 65.4918822,121.519313 L35.7300823,139.124885 C34.0663809,140.109047 32.9590922,141.674386 32.5137692,143.40961 C32.0684462,145.144834 32.2850888,147.049943 33.2692502,148.713645 C33.5464075,149.182172 33.8772719,149.616771 34.2551359,150.00863 L44,160.114415 L44,165.5 L24.2814496,165.5 L4.59183409,143.622649 L15.0907902,115.321116 C15.3374299,114.656261 15.4816124,113.957788 15.5184006,113.249615 L17.400501,77.0191823 C17.4680083,75.7196664 17.172254,74.4550643 16.5797553,73.3494939 C15.9872567,72.2439234 15.0980137,71.2973845 13.9785437,70.6339949 L5.59923819,65.6684805 L14.3271538,52.0045033 L63.8530875,24.451343 C76.047072,17.6673657 90.4876114,16.1741446 103.811734,20.3194271 L105.539118,20.8568357 C119.853179,25.310099 135.256825,24.7577739 149.215176,19.290753 Z" id="Rectangle" stroke-width="8"></path>
                <path d="M163.948301,13.5202793 C178.760157,7.71896895 195.3583,8.6147813 209.459736,15.9765603 L259.063335,41.8725566 C258.038406,37.4102989 260.13959,33.9345754 263.201557,32.4764959 C264.974262,31.6323507 267.068997,31.4644697 269.065586,32.1729368 C271.712834,33.1122828 273.674066,35.4411833 274.093938,38.3048834 L297.658338,46.1257758 L300.253928,56.5081351 C300.790537,58.6545703 302.310315,60.4209646 304.352618,61.2719241 L333.423077,73.3846154 C334.354694,73.7727893 335.123925,74.4220094 335.660251,75.226499 C336.196578,76.0309887 336.5,76.9907479 336.5,78 C336.5,80.5513751 335.322058,82.959842 333.308124,84.5262348 L298.854696,111.323346 L261.576578,106.61002 C259.658849,106.367549 257.824391,106.925345 256.408746,108.023192 C254.993102,109.121038 253.996272,110.758935 253.753801,112.676664 C253.631239,113.64602 253.712967,114.630299 253.993727,115.566166 L261.396151,140.240913 C261.810012,141.620449 262.639337,142.838745 263.771018,143.729643 L285,160.44182 L285,165.5 L257.119391,165.5 L213.031844,122.804692 C211.64326,121.459958 209.841072,120.805365 208.049846,120.834101 C206.227046,120.863344 204.415598,121.600219 203.062919,123.037549 L186.732691,141.404926 C185.578693,142.703173 184.988064,144.326383 184.965241,145.957537 C184.942417,147.588691 185.487399,149.227791 186.604622,150.557817 L194.5,159.957077 L194.5,165.5 L165.793232,165.5 L157.899825,125.155919 C157.578418,123.513174 156.697927,122.099195 155.479314,121.095901 C154.260701,120.092608 152.703967,119.5 151.030076,119.5 L131.205528,119.5 C128.737931,119.5 126.452614,120.799224 125.190478,122.919613 L114.688409,140.563089 C113.906823,141.876153 113.596334,143.366853 113.735672,144.81425 C113.875009,146.261646 114.464174,147.665738 115.481895,148.805587 L125.5,160.025864 L125.5,165.5 L102.166793,165.5 L73.3266538,121.278453 L34.1875284,71.4158589 C30.2650549,66.420572 28.7386616,60.308292 29.4417084,54.4642153 C30.1447552,48.6201387 33.0772422,43.0442653 38.072529,39.1217918 C39.0255985,38.3734083 40.0363217,37.7015155 41.0952591,37.1123883 L64.2339633,24.2394473 C76.1847156,17.5907893 90.337211,16.1273534 103.395559,20.1899504 L105.539118,20.8568357 C119.853179,25.310099 135.256825,24.7577739 149.215176,19.290753 Z" id="Rectangle-Copy-5" stroke-width="8"></path>
                <path d="M163.948301,13.5202793 C178.760157,7.71896895 195.3583,8.6147813 209.459736,15.9765603 L259.063335,41.8725566 C258.038406,37.4102989 260.13959,33.9345754 263.201557,32.4764959 C264.974262,31.6323507 267.068997,31.4644697 269.065586,32.1729368 C271.712834,33.1122828 273.674066,35.4411833 274.093938,38.3048834 L297.658338,46.1257758 L300.253928,56.5081351 C300.790537,58.6545703 302.310315,60.4209646 304.352618,61.2719241 L333.423077,73.3846154 C334.354694,73.7727893 335.123925,74.4220094 335.660251,75.226499 C336.196578,76.0309887 336.5,76.9907479 336.5,78 C336.5,80.5513751 335.322058,82.959842 333.308124,84.5262348 L298.854696,111.323346 L261.576578,106.61002 C259.658849,106.367549 257.824391,106.925345 256.408746,108.023192 C254.993102,109.121038 253.996272,110.758935 253.753801,112.676664 C253.631239,113.64602 253.712967,114.630299 253.993727,115.566166 L261.396151,140.240913 C261.810012,141.620449 262.639337,142.838745 263.771018,143.729643 L285,160.44182 L285,165.5 L257.119391,165.5 L213.031844,122.804692 C211.64326,121.459958 209.841072,120.805365 208.049846,120.834101 C206.227046,120.863344 204.415598,121.600219 203.062919,123.037549 L186.732691,141.404926 C185.578693,142.703173 184.988064,144.326383 184.965241,145.957537 C184.942417,147.588691 185.487399,149.227791 186.604622,150.557817 L194.5,159.957077 L194.5,165.5 L165.793232,165.5 L157.899825,125.155919 C157.578418,123.513174 156.697927,122.099195 155.479314,121.095901 C154.260701,120.092608 152.703967,119.5 151.030076,119.5 L132.177493,119.5 L95.1795414,29.760287 C94.4357723,27.9562515 94.4936457,26.0215318 95.1884703,24.3518788 C95.8832948,22.6822257 97.2150705,21.2776393 99.0191061,20.5338703 C100.542763,19.9056961 102.238064,19.8298409 103.811734,20.3194271 L105.539118,20.8568357 C119.853179,25.310099 135.256825,24.7577739 149.215176,19.290753 Z" id="Rectangle-Copy-7" stroke-width="8"></path>
                <path d="M163.948301,13.5202793 C178.760157,7.71896895 195.3583,8.6147813 209.459736,15.9765603 L259.063335,41.8725566 C258.038406,37.4102989 260.13959,33.9345754 263.201557,32.4764959 C264.974262,31.6323507 267.068997,31.4644697 269.065586,32.1729368 C271.712834,33.1122828 273.674066,35.4411833 274.093938,38.3048834 L297.658338,46.1257758 L300.253928,56.5081351 C300.790537,58.6545703 302.310315,60.4209646 304.352618,61.2719241 L333.423077,73.3846154 C334.354694,73.7727893 335.123925,74.4220094 335.660251,75.226499 C336.196578,76.0309887 336.5,76.9907479 336.5,78 C336.5,80.5513751 335.322058,82.959842 333.308124,84.5262348 L298.854696,111.323346 L261.576578,106.61002 C259.658849,106.367549 257.824391,106.925345 256.408746,108.023192 C254.993102,109.121038 253.996272,110.758935 253.753801,112.676664 C253.631239,113.64602 253.712967,114.630299 253.993727,115.566166 L261.396151,140.240913 C261.810012,141.620449 262.639337,142.838745 263.771018,143.729643 L285,160.44182 L285,165.5 L257.119391,165.5 L213.031844,122.804692 C211.64326,121.459958 209.841072,120.805365 208.049846,120.834101 C206.227046,120.863344 204.415598,121.600219 203.062919,123.037549 L186.732691,141.404926 C185.578693,142.703173 184.988064,144.326383 184.965241,145.957537 C184.942417,147.588691 185.487399,149.227791 186.604622,150.557817 L194.5,159.957077 L194.5,165.5 L165.793232,165.5 L157.419728,122.70209 L139.478675,53.675716 C137.420873,45.7610898 138.483621,37.7019716 141.964458,30.8759187 C145.445294,24.0498657 151.344218,18.4568781 158.958768,15.474513 Z" id="Rectangle-Copy-6" stroke-width="8"></path>
                <path d="M224.086498,29.7917835 C229.914917,28.824313 235.899876,29.7798684 241.137283,32.514103 L259.063335,41.8725566 C258.038406,37.4102989 260.13959,33.9345754 263.201557,32.4764959 C264.974262,31.6323507 267.068997,31.4644697 269.065586,32.1729368 C271.712834,33.1122828 273.674066,35.4411833 274.093938,38.3048834 L297.658338,46.1257758 L300.253928,56.5081351 C300.790537,58.6545703 302.310315,60.4209646 304.352618,61.2719241 L333.423077,73.3846154 C334.354694,73.7727893 335.123925,74.4220094 335.660251,75.226499 C336.196578,76.0309887 336.5,76.9907479 336.5,78 C336.5,80.5513751 335.322058,82.959842 333.308124,84.5262348 L298.854696,111.323346 L261.576578,106.61002 C259.658849,106.367549 257.824391,106.925345 256.408746,108.023192 C254.993102,109.121038 253.996272,110.758935 253.753801,112.676664 C253.631239,113.64602 253.712967,114.630299 253.993727,115.566166 L261.396151,140.240913 C261.810012,141.620449 262.639337,142.838745 263.771018,143.729643 L285,160.44182 L285,165.5 L257.119391,165.5 L211.730054,121.544011 L201.696007,61.0949949 C200.465417,53.6814415 202.356263,46.4709336 206.408145,40.8061665 C210.460027,35.1413995 216.672945,31.0223733 224.086498,29.7917835 Z" id="Rectangle-Copy-11" stroke-width="8"></path>
            </g>
        </g>
    </g>
</svg>