<?xml version="1.0" encoding="UTF-8"?>
<svg width="87px" height="87px" viewBox="0 0 87 87" version="1.1" xmlns="http://www.w3.org/2000/svg" xmlns:xlink="http://www.w3.org/1999/xlink">
    <title>flattened copy 2</title>
    <g id="flattened-copy-2" stroke="none" fill="none" fill-rule="evenodd" stroke-width="1">
        <g id="Group" transform="translate(10.75, 2)">
            <polygon id="Rectangle" fill="#CA0012" points="33.1252223 6 60.1252223 43 33.1252223 75 4.62522228 44.5"></polygon>
            <polygon id="Rectangle-Copy-7" fill="#FFC400" points="32.8208745 34 48.8643527 55.9855072 32.8208745 75 15.8860918 56.8768116"></polygon>
            <path d="M37.0666783,1.92186589 L65.1904114,37.9218659 C65.9675573,38.9166574 66.3087797,40.1133449 66.2423385,41.2818542 L66.2251324,41.4998765 C66.3496976,42.7367258 66.0160407,44.0215989 65.190277,45.0785287 L55.486,57.499 L62.8466614,66.9218659 C64.5466679,69.0979723 64.1607128,72.2401826 61.9846064,73.9401891 C59.8085,75.6401957 56.6662897,75.2542405 54.9662831,73.0781341 L49.14,65.621 L37.0640102,81.0785287 C35.0621003,83.640858 31.1855644,83.6407733 29.1837665,81.0783565 L17.109,65.622 L11.2840269,73.0783063 C9.63249959,75.192166 6.62007664,75.6166481 4.45449303,74.0806761 L4.26566597,73.9400546 C2.0896339,72.239953 1.70381605,69.0977258 3.40391768,66.9216937 L10.764,57.5 L1.0600333,45.0783565 C0.234315841,44.0213906 -0.0992849338,42.736503 0.0253343636,41.4996591 L0.00809376796,41.2816361 C-0.0582963528,40.1131238 0.282978361,38.9164512 1.06016768,37.9216937 L29.1864345,1.92169369 C31.1883445,-0.640635618 35.0648803,-0.640550907 37.0666783,1.92186589 Z M33.1252223,45.122 L23.454,57.501 L33.1242224,69.8792224 L42.795,57.5 L33.1252223,45.122 Z M33.1262223,13.121 L10.954,41.5 L17.109,49.379 L29.1863289,33.9216937 C31.1882389,31.3593644 35.0647747,31.3594491 37.0665727,33.9218659 L49.141,49.378 L55.296,41.499 L33.1262223,13.121 Z" id="Shape" fill="#361100"></path>
        </g>
    </g>
</svg>