<?xml version="1.0" encoding="UTF-8"?>
<svg width="36px" height="35px" viewBox="0 0 36 35" version="1.1" xmlns="http://www.w3.org/2000/svg" xmlns:xlink="http://www.w3.org/1999/xlink">
    <title>heart</title>
    <g id="website" stroke="none" stroke-width="1" fill="none" fill-rule="evenodd" stroke-linejoin="round">
        <g id="Artboard-Copy-14" transform="translate(-370, -750)" fill="#CA0012" stroke="#361100">
            <g id="Group-5" transform="translate(139, 723)">
                <g id="heart" transform="translate(231, 27)" stroke-width="5">
                    <path d="M33.1761603,10.5131125 C33.1761603,12.7265076 32.2462352,15.382754 30.7549563,16.7949475 L17.8998713,32.2368421 L4.50427693,16.1159675 C4.49600501,16.1060127 4.49736926,16.091237 4.50732407,16.0829651 C4.51155571,16.0794488 4.51688959,16.0775335 4.52239145,16.0775545 L4.52239145,16.0775545 L4.52239145,16.0775545 C3.42664529,14.741543 2.76923077,12.3741478 2.76923077,10.5131125 C2.76923077,6.23293075 6.2466295,2.76315789 10.5362182,2.76315789 C14.043987,2.76315789 17.0086452,5.08339116 17.9727983,8.2696592 C18.9367459,5.08339116 21.9014041,2.76315789 25.4091729,2.76315789 C29.6987616,2.76315789 33.1761603,6.23293075 33.1761603,10.5131125 Z" id="Path"></path>
                </g>
            </g>
        </g>
    </g>
</svg>