<?xml version="1.0" encoding="UTF-8"?>
<svg width="410px" height="414px" viewBox="0 0 410 414" version="1.1" xmlns="http://www.w3.org/2000/svg" xmlns:xlink="http://www.w3.org/1999/xlink">
    <title>flattened</title>
    <g id="flattened" stroke="none" fill="none" fill-rule="evenodd">
        <polygon id="Rectangle" fill="#FFBB72" points="-2.84217094e-13 299.5 55 240.5 105 298.5 155 240.5 205 298.5 254.5 240.5 305 298.5 355 240.5 405 298.5 405 370 355 315.5 305 372 254.5 315.5 205 372 155 310.5 105 370 54 318.5 5 370"></polygon>
        <polygon id="Rectangle-Copy-5" fill="#00AEE7" points="6 66.5 56 3 106 65 156 3 206 73.5 255.5 3 306 73.5 356 3 406 63 406 127 356 65 306 122.5 255.5 60.5 206 117 156 63 106 124.5 56 66.5 6 122.5"></polygon>
        <polygon id="Rectangle-Copy-6" fill="#61276A" points="5 103 55 44 105 103 155 44 191.5 89 255.5 5 318.5 89 355 44 405 103 405 185 355 114.5 305 179.883065 254.5 109.383065 205 185 155 112.225806 105 182.157258 55 116.205645 5 179.883065"></polygon>
        <polygon id="Line-2-Copy-33" fill="#FFFFFF" points="293.554726 54.2760009 255.151766 5 213.921969 54.2857143 235.5 74 255 55 276.012231 74"></polygon>
        <polygon id="Path" fill="#039016" points="355 90.5 405 148.5 405 294 355 239.5 305 296 254.5 239.5 205 296 155 234.5 105 294 105 247 55 185.5 5 245 5 148.5 55 90.5 105 148.5 155 90.5 205 148.5 254.5 90.5 305 148.5"></polygon>
        <polygon id="Rectangle-Copy-2" fill="#FF6408" points="255.5 236 305 299 206 299"></polygon>
        <polygon id="Rectangle" fill="#CA0012" points="355 236 382 273 355 305 326.5 274.5"></polygon>
        <polygon id="Rectangle-Copy-7" fill="#FFC400" points="354.695652 264 370.73913 285.985507 354.695652 305 337.76087 286.876812"></polygon>
        <polygon id="Rectangle-Copy" fill="#00AEE7" points="5 368.64532 55 310.5 105 362.785714 155 310.5 205 362.785714 254.5 310.5 305 362.785714 355 310.5 405 362.785714 405 402 355 351.066502 305 402 254.5 351.066502 205 402 155 346.559113 105 402 55 346.559113 5 400.197044"></polygon>
        <polygon id="Path" fill="#99421C" points="105 300 5.379 298.008 5 298.5 5 247 55 185.5 105 247"></polygon>
        <path d="M405,414 L404.937778,413.999 L404.923778,413.999 L404.895778,413.998 L404.902778,413.998 L404.923778,413.999 L404.902778,413.998 L404.877153,413.99852 C404.836324,413.997536 404.795615,413.996062 404.755034,413.994104 C404.718804,413.992286 404.682462,413.990092 404.646152,413.987504 C404.603046,413.984659 404.560117,413.981101 404.517345,413.977004 C404.496374,413.974623 404.475381,413.97245 404.454403,413.970146 L404.517345,413.977004 C404.451299,413.970678 404.385627,413.963067 404.320356,413.954197 L404.23251,413.940761 C404.109408,413.922488 403.988176,413.899114 403.868588,413.871451 C403.854156,413.867142 403.838787,413.863508 403.823435,413.859802 C403.764419,413.846538 403.70672,413.831499 403.649436,413.815467 C403.638572,413.811449 403.627229,413.808235 403.615897,413.80498 C403.419694,413.74953 403.228851,413.681593 403.043732,413.602815 C403.028021,413.595749 403.012044,413.588877 402.996098,413.58192 C402.958006,413.565564 402.92057,413.548607 402.883384,413.531207 C402.787905,413.48657 402.693348,413.438792 402.600177,413.387894 C402.579369,413.376104 402.558547,413.364497 402.537817,413.352745 C402.391234,413.270406 402.24838,413.179867 402.109739,413.081612 C402.097952,413.072129 402.086337,413.063811 402.074759,413.055445 C401.917986,412.94344 401.766605,412.820216 401.621708,412.687133 L401.586844,412.65384 C401.55015,412.620449 401.514045,412.585613 401.478379,412.550145 L401.415877,412.486272 L401.34473,412.412039 L401.213982,412.266021 L401.200626,412.250488 C401.150303,412.191734 401.101072,412.131479 401.053242,412.070079 L355.002,353.121 L308.940055,412.078306 L308.900288,412.130338 L308.725092,412.336491 L308.537301,412.53449 C308.493548,412.578168 308.44884,412.621181 308.403181,412.6635 C308.184313,412.867901 307.950358,413.04898 307.704691,413.206931 L307.668272,413.228956 C307.619602,413.260832 307.569791,413.291043 307.519545,413.320325 C307.498414,413.331825 307.477777,413.343696 307.457082,413.355406 C307.28373,413.453846 307.104673,413.540951 306.921694,413.616915 C306.284324,413.88295 305.608654,414.008599 304.937515,413.99979 C304.903207,413.999421 304.877276,413.998872 304.851344,413.998122 C304.803886,413.996482 304.75649,413.994374 304.709142,413.991596 C304.571275,413.984092 304.432946,413.970406 304.295126,413.950916 C304.290015,413.949345 304.284362,413.948532 304.27871,413.947709 C304.145214,413.929218 304.01281,413.904555 303.881235,413.874448 C303.866821,413.870095 303.852172,413.866673 303.837538,413.863185 C303.645706,413.818511 303.455985,413.761261 303.269165,413.692298 L303.187771,413.660851 C303.151462,413.647311 303.114748,413.63252 303.078162,413.617267 L302.975945,413.573074 C302.94236,413.558408 302.908664,413.543015 302.875093,413.52722 C302.837854,413.50975 302.801193,413.492024 302.764724,413.473835 C302.730972,413.456717 302.696913,413.439164 302.663,413.421187 L302.54167,413.355419 C302.524564,413.345016 302.507242,413.335073 302.489963,413.325016 C302.300353,413.215888 302.117302,413.09303 301.941811,412.957205 L301.921694,412.940055 C301.750185,412.806864 301.593054,412.666779 301.443819,412.515439 L301.374296,412.443976 C301.357827,412.426135 301.341182,412.408313 301.324644,412.390345 C301.222346,412.280412 301.126563,412.1669 301.036514,412.050056 L255.002,353.121 L208.940055,412.078306 L208.900288,412.130338 C208.776216,412.284655 208.64189,412.432827 208.497435,412.573845 L208.472421,412.598378 L208.456778,412.612 L208.43359,412.635081 L208.395235,412.6715 C208.178644,412.872283 207.947383,413.050893 207.704691,413.206931 C207.682318,413.220117 207.660394,413.234009 207.638395,413.24771 C207.597212,413.274396 207.555057,413.299714 207.512592,413.324369 C207.49105,413.336078 207.470115,413.348072 207.44912,413.359901 C207.343361,413.419962 207.235087,413.475581 207.125197,413.527061 L207.093389,413.541914 C206.406821,413.859072 205.669473,414.009398 204.937515,413.99979 C204.903207,413.999421 204.877276,413.998872 204.851344,413.998122 C204.803886,413.996482 204.75649,413.994374 204.709142,413.991596 C204.571275,413.984092 204.432946,413.970406 204.295126,413.950916 C204.290015,413.949345 204.284362,413.948532 204.27871,413.947709 C204.145214,413.929218 204.01281,413.904555 203.881235,413.874448 C203.866821,413.870095 203.852172,413.866673 203.837538,413.863185 C203.645706,413.818511 203.455985,413.761261 203.269165,413.692298 L203.187771,413.660851 C203.151462,413.647311 203.114748,413.63252 203.078162,413.617267 L202.975945,413.573074 C202.94236,413.558408 202.908664,413.543015 202.875093,413.52722 C202.837854,413.50975 202.801193,413.492024 202.764724,413.473835 C202.734015,413.458241 202.702975,413.442285 202.672056,413.425976 C202.628176,413.403351 202.584769,413.379723 202.54167,413.355419 C202.52591,413.345778 202.509929,413.336614 202.493984,413.327353 C202.302932,413.217619 202.118539,413.093987 201.941811,412.957205 L201.921694,412.940055 C201.750185,412.806864 201.593054,412.666779 201.443819,412.515439 L201.374296,412.443976 L201.338328,412.405152 C201.231103,412.290768 201.130673,412.172234 201.036514,412.050056 L155.002,353.121 L108.940055,412.078306 L108.900288,412.130338 L108.725092,412.336491 L108.537301,412.53449 C108.493548,412.578168 108.44884,412.621181 108.403181,412.6635 C108.184313,412.867901 107.950358,413.04898 107.704691,413.206931 L107.668272,413.228956 C107.619602,413.260832 107.569791,413.291043 107.519545,413.320325 C107.498414,413.331825 107.477777,413.343696 107.457082,413.355406 C107.28373,413.453846 107.104673,413.540951 106.921694,413.616915 C106.284324,413.88295 105.608654,414.008599 104.937515,413.99979 C104.903207,413.999421 104.877276,413.998872 104.851344,413.998122 C104.803886,413.996482 104.75649,413.994374 104.709142,413.991596 C104.571275,413.984092 104.432946,413.970406 104.295126,413.950916 C104.290015,413.949345 104.284362,413.948532 104.27871,413.947709 C104.145214,413.929218 104.01281,413.904555 103.881235,413.874448 C103.866821,413.870095 103.852172,413.866673 103.837538,413.863185 C103.645706,413.818511 103.455985,413.761261 103.269165,413.692298 L103.187771,413.660851 C103.151462,413.647311 103.114748,413.63252 103.078162,413.617267 L102.975945,413.573074 C102.94236,413.558408 102.908664,413.543015 102.875093,413.52722 C102.837854,413.50975 102.801193,413.492024 102.764724,413.473835 C102.730972,413.456717 102.696913,413.439164 102.663,413.421187 L102.54167,413.355419 C102.524564,413.345016 102.507242,413.335073 102.489963,413.325016 C102.300353,413.215888 102.117302,413.09303 101.941811,412.957205 L101.921694,412.940055 C101.750185,412.806864 101.593054,412.666779 101.443819,412.515439 L101.374296,412.443976 C101.357827,412.426135 101.341182,412.408313 101.324644,412.390345 C101.222346,412.280412 101.126563,412.1669 101.036514,412.050056 L55.002,353.121 L8.9400546,412.078306 L8.89821322,412.131406 L8.84911657,412.191491 L8.81577772,412.23 L8.82177772,412.222 L8.73634161,412.322873 C8.71000012,412.352296 8.68303804,412.381879 8.65572894,412.411134 L8.57535497,412.495887 C8.55051572,412.520668 8.52533423,412.545882 8.49988723,412.570827 C8.4738114,412.597242 8.44754511,412.622485 8.42105503,412.647393 C8.39831789,412.667775 8.37600977,412.68833 8.35351563,412.708682 C8.17864051,412.868258 7.9936958,413.013085 7.80108471,413.143358 L7.74547498,413.179471 C7.72746016,413.192261 7.70916822,413.204106 7.69081146,413.215823 C7.6460479,413.243579 7.60087822,413.271473 7.55523893,413.298661 C7.53248169,413.312845 7.50914811,413.326452 7.48572201,413.339858 C7.45173473,413.358829 7.41739046,413.378011 7.38279971,413.396797 C7.34074863,413.419906 7.29874557,413.441863 7.25648238,413.463195 L7.19037328,413.495953 C7.15833769,413.511529 7.12599132,413.52683 7.09350658,413.541771 C7.04502798,413.564331 6.99607919,413.585983 6.94672537,413.606864 C6.93215893,413.612584 6.9174755,413.618691 6.90276703,413.624727 C6.50237392,413.790097 6.07601134,413.904483 5.63147325,413.960505 C5.59225553,413.964954 5.5532617,413.969452 5.51421897,413.973493 C5.47809583,413.977574 5.44134873,413.980925 5.40448889,413.983876 L5.32228256,413.989654 L5.17409304,413.997026 C5.15472626,413.99777 5.13505133,413.998351 5.11537151,413.998817 L5.05770846,413.999689 L5,414 L4.94916907,413.999999 L4.93777772,413.999 L5,414 L4.93577772,413.999 L4.92277772,413.999 L4.90777772,413.998 L4.90877772,413.998 L4.92277772,413.999 L4.91322357,413.999531 L4.90877772,413.998 L4.87211309,413.998396 C4.82961371,413.997329 4.78724605,413.995732 4.74501647,413.993611 C4.70195707,413.99176 4.6582936,413.989001 4.61465169,413.985668 C4.59128986,413.983589 4.56835081,413.98168 4.54545627,413.979617 C4.49011797,413.974905 4.43467032,413.968964 4.37929227,413.96209 C4.36376548,413.959928 4.34808537,413.957911 4.33242819,413.955822 C4.28409371,413.949581 4.23606026,413.942441 4.18810075,413.934594 L4.09800364,413.918854 C4.05622805,413.911382 4.01425368,413.903166 3.97235503,413.894402 C3.93158922,413.885768 3.89147313,413.876861 3.8515416,413.867476 C3.82887855,413.862229 3.80553294,413.856562 3.78221627,413.850722 C3.74168392,413.840506 3.70196932,413.830035 3.6624513,413.81909 L3.60268752,413.802164 L3.54280367,413.784355 C3.50396246,413.772516 3.46526859,413.760224 3.42678199,413.747477 C3.40413797,413.739983 3.38126895,413.732222 3.35844033,413.724287 C3.21814692,413.675542 3.08084809,413.620791 2.94669765,413.560294 C2.90367101,413.540809 2.86023814,413.520459 2.81701904,413.499437 L2.79023732,413.486422 L2.76387591,413.473331 C2.72963565,413.456037 2.69523739,413.438296 2.66098793,413.42012 C2.62042464,413.398784 2.58046144,413.376882 2.54083475,413.354455 C2.5205361,413.342729 2.50019767,413.33102 2.4799179,413.319153 C2.42952264,413.289941 2.37987529,413.259733 2.33080549,413.228695 L2.29955065,413.208428 C2.1897795,413.138163 2.08349985,413.063804 1.98035196,412.985532 L1.92169369,412.940055 L1.85856609,412.890126 L1.80252747,412.844144 L1.77277772,412.819 L1.69769475,412.754498 C1.66021669,412.721394 1.62327532,412.687886 1.58684357,412.65384 C1.56577703,412.634597 1.54493862,412.61484 1.52430393,412.594938 C1.49348363,412.564579 1.46270278,412.534034 1.43232123,412.503096 L1.35268102,412.421134 C1.3369202,412.40333 1.32024167,412.385299 1.30369508,412.367145 C1.04705189,412.087133 0.828155114,411.783206 0.646743599,411.462161 C0.636612137,411.443409 0.626087458,411.424559 0.61568174,411.405635 L0.603188276,411.383425 L0.581244862,411.341915 C0.524968402,411.235953 0.472391873,411.127725 0.423687532,411.017404 C0.40916071,410.983686 0.394540115,410.949414 0.38031316,410.915004 C0.365134191,410.879547 0.350944741,410.844205 0.337149878,410.808666 C0.330301831,410.789368 0.322826913,410.769681 0.31547873,410.749953 C0.268361046,410.625705 0.226757661,410.499189 0.190174939,410.37056 C0.18962774,410.365201 0.188027255,410.359531 0.186436839,410.353859 C0.0755095108,409.961974 0.0121335935,409.550941 0.00157635114,409.126795 L0.000744707255,409.094395 L-2.84217013e-13,70 C-2.84217013e-13,69.8546619 0.00620104225,69.7107721 0.018352984,69.5685809 L0.0250900605,69.5003459 C-0.0994751811,68.2634966 0.234181749,66.9786236 1.0599454,65.9216937 L51.0621975,1.92169369 C53.0641075,-0.640635618 56.9406433,-0.640550907 58.9424413,1.92186589 L104.999778,60.878 L151.062198,1.92169369 C153.064107,-0.640635618 156.940643,-0.640550907 158.942441,1.92186589 L205.000778,60.879 L251.063605,1.92169369 C253.065515,-0.640635618 256.942051,-0.640550907 258.943849,1.92186589 L305.000778,60.877 L351.062198,1.92169369 C353.064107,-0.640635618 356.940643,-0.640550907 358.942441,1.92186589 L408.940189,65.9218659 C409.767021,66.9802579 410.100407,68.2671869 409.974381,69.5055692 C409.991819,69.6680444 410,69.8330669 410,70 L409.99979,409.062485 C409.99932,409.098247 409.998469,409.133997 409.997237,409.169727 L409.997778,409.126 L409.994391,409.238953 C409.992107,409.28587 409.989176,409.332876 409.985585,409.379826 C409.983868,409.405412 409.981748,409.43101 409.979435,409.456553 C409.975989,409.490696 409.972517,409.524667 409.968701,409.558598 C409.956311,409.674044 409.939567,409.788177 409.919037,409.900991 C409.913316,409.92775 409.908149,409.954767 409.90276,409.981742 C409.850978,410.246182 409.777612,410.502667 409.68524,410.749882 L409.667406,410.795231 C409.622483,410.913581 409.572788,411.029267 409.518954,411.142607 L409.491164,411.200187 C409.467716,411.247929 409.443596,411.295143 409.418755,411.341915 C409.194693,411.765833 408.906392,412.162197 408.556054,412.515669 C408.538112,412.533046 408.520062,412.551029 408.501877,412.568876 C408.473377,412.597403 408.443896,412.62557 408.414004,412.653439 C408.198315,412.854631 407.965563,413.036818 407.717668,413.197642 C407.701,413.208118 407.684657,413.21859 407.668272,413.228956 C407.624751,413.2568 407.58034,413.283925 407.535479,413.31037 L407.459071,413.354279 C407.421527,413.375765 407.382874,413.396979 407.343915,413.417693 C407.321116,413.429641 407.299084,413.441147 407.276992,413.452476 C407.166359,413.509337 407.052654,413.562331 406.936726,413.611082 C406.913278,413.620894 406.890186,413.630402 406.867045,413.639727 C406.834409,413.652912 406.801217,413.665872 406.767854,413.678485 C406.731532,413.692197 406.695776,413.705245 406.659919,413.717866 C406.646635,413.722546 406.632698,413.727382 406.618733,413.732157 C406.550948,413.75534 406.483395,413.77683 406.415548,413.796831 C406.298337,413.831332 406.179461,413.861657 406.058971,413.887639 L406.032474,413.893389 C405.837941,413.934283 405.641766,413.963359 405.445043,413.980751 L405.425438,413.982155 C405.377375,413.9865 405.32972,413.989833 405.282049,413.992484 L405.18007,413.996818 C405.157874,413.997896 405.135567,413.998533 405.11326,413.999021 C405.075585,413.99958 405.037841,414 405,414 L404.95149,413.999954 L404.942778,413.999 L405,414 Z M355.002,313.121 L308.940055,372.078306 L308.900288,372.130338 C308.776216,372.284655 308.64189,372.432827 308.497435,372.573845 L308.472421,372.598378 L308.456778,372.612 L308.470778,372.598 L308.44677,372.622616 C308.429745,372.638776 308.412584,372.654837 308.395288,372.6708 C308.178644,372.872283 307.947383,373.050893 307.704691,373.206931 C307.682318,373.220117 307.660394,373.234009 307.638395,373.24771 C307.597212,373.274396 307.555057,373.299714 307.512592,373.324369 C307.49369,373.33454 307.475409,373.345036 307.457082,373.355406 C307.31626,373.435508 307.171433,373.508005 307.023878,373.573153 C306.356959,373.869056 305.644721,374.009073 304.937515,373.99979 C304.903207,373.999421 304.877276,373.998872 304.851344,373.998122 C304.803886,373.996482 304.75649,373.994374 304.709142,373.991596 C304.571275,373.984092 304.432946,373.970406 304.295126,373.950916 C304.290015,373.949345 304.284362,373.948532 304.27871,373.947709 C304.145214,373.929218 304.01281,373.904555 303.881235,373.874448 C303.866821,373.870095 303.852172,373.866673 303.837538,373.863185 C303.645706,373.818511 303.455985,373.761261 303.269165,373.692298 L303.187771,373.660851 C303.151462,373.647311 303.114748,373.63252 303.078162,373.617267 L302.975945,373.573074 C302.94236,373.558408 302.908664,373.543015 302.875093,373.52722 C302.837854,373.50975 302.801193,373.492024 302.764724,373.473835 C302.734015,373.458241 302.702975,373.442285 302.672056,373.425976 C302.628176,373.403351 302.584769,373.379723 302.54167,373.355419 C302.523891,373.344635 302.505899,373.334301 302.487953,373.323845 C302.299063,373.215022 302.116684,373.092552 301.941811,372.957205 L301.921694,372.940055 C301.750185,372.806864 301.593054,372.666779 301.443819,372.515439 L301.374296,372.443976 L301.338328,372.405152 C301.231103,372.290768 301.130673,372.172234 301.036514,372.050056 L255.002,313.121 L208.940055,372.078306 L208.900288,372.130338 C208.776216,372.284655 208.64189,372.432827 208.497435,372.573845 L208.472421,372.598378 L208.456778,372.612 L208.470778,372.598 L208.44677,372.622616 C208.429745,372.638776 208.412584,372.654837 208.395288,372.6708 C208.178644,372.872283 207.947383,373.050893 207.704691,373.206931 C207.682318,373.220117 207.660394,373.234009 207.638395,373.24771 C207.597212,373.274396 207.555057,373.299714 207.512592,373.324369 C207.49105,373.336078 207.470115,373.348072 207.44912,373.359901 C207.343361,373.419962 207.235087,373.475581 207.125197,373.527061 L207.093389,373.541914 C206.406821,373.859072 205.669473,374.009398 204.937515,373.99979 C204.903207,373.999421 204.877276,373.998872 204.851344,373.998122 C204.803886,373.996482 204.75649,373.994374 204.709142,373.991596 C204.571275,373.984092 204.432946,373.970406 204.295126,373.950916 C204.290015,373.949345 204.284362,373.948532 204.27871,373.947709 C204.145214,373.929218 204.01281,373.904555 203.881235,373.874448 C203.866821,373.870095 203.852172,373.866673 203.837538,373.863185 C203.645706,373.818511 203.455985,373.761261 203.269165,373.692298 L203.187771,373.660851 C203.151462,373.647311 203.114748,373.63252 203.078162,373.617267 L202.975945,373.573074 C202.94236,373.558408 202.908664,373.543015 202.875093,373.52722 C202.837854,373.50975 202.801193,373.492024 202.764724,373.473835 C202.734015,373.458241 202.702975,373.442285 202.672056,373.425976 C202.628176,373.403351 202.584769,373.379723 202.54167,373.355419 C202.52591,373.345778 202.509929,373.336614 202.493984,373.327353 C202.302932,373.217619 202.118539,373.093987 201.941811,372.957205 L201.921694,372.940055 C201.750185,372.806864 201.593054,372.666779 201.443819,372.515439 L201.374296,372.443976 L201.338328,372.405152 C201.231103,372.290768 201.130673,372.172234 201.036514,372.050056 L155.002,313.121 L108.940055,372.078306 L108.900288,372.130338 C108.776216,372.284655 108.64189,372.432827 108.497435,372.573845 L108.472421,372.598378 L108.456778,372.612 L108.470778,372.598 L108.403181,372.6635 C108.184313,372.867901 107.950358,373.04898 107.704691,373.206931 C107.682318,373.220117 107.660394,373.234009 107.638395,373.24771 C107.597212,373.274396 107.555057,373.299714 107.512592,373.324369 C107.49303,373.334924 107.474086,373.345796 107.455092,373.356531 C107.282359,373.454513 107.103973,373.541242 106.921694,373.616915 C106.284324,373.88295 105.608654,374.008599 104.937515,373.99979 C104.903207,373.999421 104.877276,373.998872 104.851344,373.998122 C104.803886,373.996482 104.75649,373.994374 104.709142,373.991596 C104.571275,373.984092 104.432946,373.970406 104.295126,373.950916 C104.290015,373.949345 104.284362,373.948532 104.27871,373.947709 C104.145214,373.929218 104.01281,373.904555 103.881235,373.874448 C103.866821,373.870095 103.852172,373.866673 103.837538,373.863185 C103.645706,373.818511 103.455985,373.761261 103.269165,373.692298 L103.187771,373.660851 C103.151462,373.647311 103.114748,373.63252 103.078162,373.617267 L102.975945,373.573074 C102.94236,373.558408 102.908664,373.543015 102.875093,373.52722 C102.837854,373.50975 102.801193,373.492024 102.764724,373.473835 C102.734015,373.458241 102.702975,373.442285 102.672056,373.425976 C102.628176,373.403351 102.584769,373.379723 102.54167,373.355419 C102.523891,373.344635 102.505899,373.334301 102.487953,373.323845 C102.299063,373.215022 102.116684,373.092552 101.941811,372.957205 L101.921694,372.940055 C101.750185,372.806864 101.593054,372.666779 101.443819,372.515439 L101.374296,372.443976 L101.338328,372.405152 C101.231103,372.290768 101.130673,372.172234 101.036514,372.050056 L55.002,313.121 L9.99977772,370.721 L9.99977772,394.478 L51.0621975,341.921694 C53.0641075,339.359364 56.9406433,339.359449 58.9424413,341.921866 L104.999778,400.878 L151.062198,341.921694 C153.064107,339.359364 156.940643,339.359449 158.942441,341.921866 L204.999778,400.878 L251.062198,341.921694 C253.064107,339.359364 256.940643,339.359449 258.942441,341.921866 L304.999778,400.878 L351.062198,341.921694 C353.064107,339.359364 356.940643,339.359449 358.942441,341.921866 L399.999778,394.477 L399.999778,370.721 L355.002,313.121 Z M326.484778,279.622 L309.00193,302.001248 C308.189464,303.094781 306.930843,303.87143 305.394092,303.985488 L305.294032,303.991803 C305.258472,303.993915 305.222135,303.995545 305.185651,303.996805 C305.159206,303.997873 305.133236,303.998612 305.107267,303.999149 C305.071925,303.999641 305.036031,304 305,304 L260.566778,304.001 L304.999778,360.878 L347.483778,306.5 L338.984778,295.621 L333.158805,303.078306 C331.507277,305.192166 328.494854,305.616648 326.329271,304.080676 L326.140444,303.940055 C323.964412,302.239953 323.578594,299.097726 325.278695,296.921694 L332.638778,287.499 L326.484778,279.622 Z M155.778778,244.115 L154.224778,244.115 L108.973778,302.034 C108.888551,302.147787 108.801703,302.252 108.7101,302.353115 C108.698461,302.364817 108.68744,302.376885 108.676361,302.388898 C108.643492,302.425555 108.6094,302.461373 108.57469,302.496766 L108.495819,302.57481 C108.467717,302.60284 108.438602,302.630573 108.409089,302.658015 L108.345189,302.717264 C108.143732,302.898986 107.93005,303.061887 107.706672,303.205657 C107.685965,303.217772 107.666695,303.230014 107.647368,303.242109 L107.514947,303.322408 L107.472272,303.346806 L107.430187,303.370513 C107.407047,303.383562 107.383367,303.396554 107.359442,303.409396 C107.344241,303.417834 107.329181,303.425781 107.314086,303.433648 L107.285254,303.44825 L107.243262,303.469611 C107.21008,303.486402 107.176508,303.502842 107.142681,303.518916 L107.107428,303.535495 C107.089511,303.543747 107.071538,303.551987 107.053532,303.560113 C107.011791,303.57902 106.969466,303.597409 106.926842,303.615226 C106.887709,303.631536 106.849018,303.647139 106.810194,303.66223 C106.781336,303.673472 106.751903,303.684591 106.722338,303.695439 C106.680586,303.710749 106.638979,303.72539 106.597241,303.739457 L106.511478,303.767479 L106.413557,303.797418 C106.367327,303.810988 106.32068,303.823976 106.273764,303.836299 C106.251143,303.842301 106.228486,303.848085 106.205802,303.853707 C106.164414,303.863887 106.122712,303.873645 106.080814,303.882877 C106.037649,303.892498 105.994553,303.901405 105.951385,303.909733 C105.92736,303.914228 105.902981,303.918737 105.878541,303.923069 C105.816615,303.934218 105.754939,303.943971 105.693162,303.952558 L105.675733,303.954726 C105.615579,303.963089 105.555885,303.970069 105.496131,303.97597 C105.475288,303.977749 105.454234,303.97969 105.433143,303.981499 C105.379066,303.986438 105.325074,303.990198 105.271065,303.993083 L105.203418,303.995937 C105.166532,303.997707 105.129906,303.998763 105.093284,303.999419 C105.06236,303.999714 105.031214,304 105,304 L60.5657777,304 L104.999778,360.878 L151.062198,301.921694 C153.064107,299.359364 156.940643,299.359449 158.942441,301.921866 L204.999778,360.878 L249.436778,304.001 L206,304 C205.827373,304 205.657888,303.991768 205.491763,303.975753 L205.376888,303.986307 C205.347946,303.988468 205.318994,303.990377 205.290038,303.992033 L205.326778,303.989 L205.194403,303.996336 C205.160538,303.997877 205.12691,303.998817 205.093284,303.999419 C205.046028,304.00022 204.998677,304.000466 204.951315,304.000041 C204.903044,303.999453 204.85462,303.998251 204.806234,303.99635 C204.782995,303.99576 204.759371,303.994698 204.735749,303.993469 L204.597203,303.983776 C204.501221,303.976674 204.404996,303.966188 204.30901,303.952887 C204.299312,303.950676 204.289009,303.949208 204.27871,303.947709 C204.151838,303.930201 204.026136,303.907047 203.901163,303.878987 L203.80934,303.856378 C203.766185,303.846899 203.723497,303.835855 203.680916,303.82423 L203.586874,303.796551 C203.538956,303.783462 203.490964,303.768549 203.443137,303.752885 L203.367108,303.726475 C203.320961,303.711354 203.275266,303.69481 203.229747,303.677566 C203.085171,303.622349 202.942668,303.560897 202.802904,303.492674 L202.722991,303.45247 C202.672374,303.426927 202.622435,303.400346 202.572895,303.372879 C202.559859,303.364974 202.546825,303.35764 202.533814,303.350243 C202.328772,303.234854 202.130903,303.103557 201.941811,302.957205 L201.921694,302.940055 C201.750185,302.806864 201.593054,302.666779 201.443819,302.515439 L201.374296,302.443976 L201.338328,302.405152 C201.231103,302.290768 201.130673,302.172234 201.036514,302.050056 L155.778778,244.115 Z M49.4377777,304 L9.99977772,304 L9.99977772,354.478 L49.4377777,304 Z M383.515778,279.62 L377.360778,287.499 L384.721439,296.921866 C386.421446,299.097972 386.03549,302.240183 383.859384,303.940189 C381.683278,305.640196 378.541067,305.25424 376.841061,303.078134 L371.015778,295.622 L362.517778,306.499 L399.999778,354.477 L399.999778,300.721 L383.515778,279.62 Z M204.569239,326.326797 L208.940189,331.921866 C210.640196,334.097972 210.25424,337.240183 208.078134,338.940189 C205.902028,340.640196 202.759817,340.25424 201.059811,338.078134 L196.68886,332.483066 C194.988854,330.306959 195.374809,327.164749 197.550916,325.464742 C199.727022,323.764736 202.869232,324.150691 204.569239,326.326797 Z M104.569239,326.326797 L108.940189,331.921866 C110.640196,334.097972 110.25424,337.240183 108.078134,338.940189 C105.902028,340.640196 102.759817,340.25424 101.059811,338.078134 L96.6888605,332.483066 C94.988854,330.306959 95.3748091,327.164749 97.5509155,325.464742 C99.7270219,323.764736 102.869232,324.150691 104.569239,326.326797 Z M124.659003,309.83761 C126.835035,311.537712 127.220853,314.679939 125.520751,316.855971 L121.149556,322.450848 C119.449454,324.62688 116.307227,325.012698 114.131195,323.312597 C111.955163,321.612495 111.569345,318.470268 113.269447,316.294236 L117.640642,310.699358 C119.340743,308.523326 122.482971,308.137508 124.659003,309.83761 Z M224.711718,309.770137 C226.88775,311.470239 227.273568,314.612466 225.573466,316.788498 L221.202272,322.383376 C219.50217,324.559408 216.359943,324.945225 214.183911,323.245124 C212.007879,321.545022 211.622061,318.402795 213.322162,316.226763 L217.693357,310.631885 C219.393459,308.455853 222.535686,308.070036 224.711718,309.770137 Z M89.7326324,307.335086 L94.1035828,312.930154 C95.8035893,315.106261 95.4176341,318.248471 93.2415278,319.948478 C91.0654214,321.648484 87.9232111,321.262529 86.2232045,319.086423 L81.8522542,313.491354 C80.1522476,311.315248 80.5382028,308.173037 82.7143092,306.473031 C84.8904156,304.773024 88.0326259,305.158979 89.7326324,307.335086 Z M187.885752,304.970972 L192.256702,310.566041 C193.956709,312.742147 193.570754,315.884358 191.394647,317.584364 C189.218541,319.284371 186.076331,318.898415 184.376324,316.722309 L180.005374,311.127241 C178.305367,308.951134 178.691322,305.808924 180.867429,304.108917 C183.043535,302.408911 186.185745,302.794866 187.885752,304.970972 Z M141.343423,288.482514 C143.519455,290.182616 143.905273,293.324843 142.205171,295.500875 L137.833976,301.095752 C136.133875,303.271785 132.991647,303.657602 130.815615,301.957501 C128.639583,300.257399 128.253765,297.115172 129.953867,294.93914 L134.325062,289.344262 C136.025164,287.16823 139.167391,286.782412 141.343423,288.482514 Z M355,275.122 L345.329778,287.5 L355.001,299.879222 L364.670778,287.501 L355,275.122 Z M171.202265,283.615147 L175.573216,289.210216 C177.273222,291.386322 176.887267,294.528533 174.711161,296.228539 C172.535054,297.928546 169.392844,297.54259 167.692837,295.366484 L163.321887,289.771416 C161.62188,287.595309 162.007836,284.453099 164.183942,282.753092 C166.360048,281.053086 169.502259,281.439041 171.202265,283.615147 Z M249.999778,251.093 L216.287,294 L233.088351,294.001075 C237.318845,291.302571 240.456062,288.135546 242.5,284.5 C243.524177,282.678299 244.571043,279.943204 245.640596,276.294713 C245.681332,275.590718 245.871913,274.890389 246.217489,274.243561 C247.449227,269.701976 248.709999,263.967665 250.000381,257.041284 L249.999778,251.093 Z M55.002,243.121 L15.2507777,294 L44.9997777,294 L45,269 C45,267.895431 45.8954305,267 47,267 L63,267 C64.1045695,267 65,267.895431 65,269 L64.9997777,294 L94.7487777,294 L55.002,243.121 Z M259.999778,249.82 L260.001021,270.882597 C260.003223,270.974137 260.002925,271.065784 260.000112,271.157427 L259.999778,294 L294.712,294 L259.999778,249.82 Z M159.999778,199.519 L159.999778,233.276 L204.999778,290.878 L249.999778,233.28 L249.999778,199.523 L208.940055,252.078306 L208.900288,252.130338 C208.776216,252.284655 208.64189,252.432827 208.497435,252.573845 L208.472421,252.598378 L208.456778,252.612 L208.43359,252.635081 L208.403195,252.664105 C208.184313,252.867901 207.950358,253.04898 207.704691,253.206931 C207.682318,253.220117 207.660394,253.234009 207.638395,253.24771 C207.597212,253.274396 207.555057,253.299714 207.512592,253.324369 C207.49303,253.334924 207.474086,253.345796 207.455092,253.356531 C207.282359,253.454513 207.103973,253.541242 206.921694,253.616915 C206.284324,253.88295 205.608654,254.008599 204.937515,253.99979 C204.903207,253.999421 204.877276,253.998872 204.851344,253.998122 C204.803886,253.996482 204.75649,253.994374 204.709142,253.991596 C204.571275,253.984092 204.432946,253.970406 204.295126,253.950916 C204.290015,253.949345 204.284362,253.948532 204.27871,253.947709 C204.145214,253.929218 204.01281,253.904555 203.881235,253.874448 C203.866821,253.870095 203.852172,253.866673 203.837538,253.863185 C203.645706,253.818511 203.455985,253.761261 203.269165,253.692298 L203.187771,253.660851 C203.151462,253.647311 203.114748,253.63252 203.078162,253.617267 L202.975945,253.573074 C202.94236,253.558408 202.908664,253.543015 202.875093,253.52722 C202.837854,253.50975 202.801193,253.492024 202.764724,253.473835 C202.734015,253.458241 202.702975,253.442285 202.672056,253.425976 C202.628176,253.403351 202.584769,253.379723 202.54167,253.355419 C202.524564,253.345016 202.507242,253.335073 202.489963,253.325016 C202.300353,253.215888 202.117302,253.09303 201.941811,252.957205 L201.921694,252.940055 C201.750185,252.806864 201.593054,252.666779 201.443819,252.515439 L201.374296,252.443976 L201.338328,252.405152 C201.231103,252.290768 201.130673,252.172234 201.036514,252.050056 L159.999778,199.519 Z M259.999778,199.519 L259.999778,233.276 L304.999778,290.878 L349.999778,233.28 L349.999778,199.523 L308.940055,252.078306 L308.900288,252.130338 C308.776216,252.284655 308.64189,252.432827 308.497435,252.573845 L308.472421,252.598378 L308.456778,252.612 L308.470778,252.598 L308.44677,252.622616 C308.429745,252.638776 308.412584,252.654837 308.395288,252.6708 C308.178644,252.872283 307.947383,253.050893 307.704691,253.206931 C307.682318,253.220117 307.660394,253.234009 307.638395,253.24771 C307.597212,253.274396 307.555057,253.299714 307.512592,253.324369 C307.49105,253.336078 307.470115,253.348072 307.44912,253.359901 C307.343361,253.419962 307.235087,253.475581 307.125197,253.527061 L307.093389,253.541914 C306.406821,253.859072 305.669473,254.009398 304.937515,253.99979 C304.903207,253.999421 304.877276,253.998872 304.851344,253.998122 C304.803886,253.996482 304.75649,253.994374 304.709142,253.991596 C304.571275,253.984092 304.432946,253.970406 304.295126,253.950916 C304.290015,253.949345 304.284362,253.948532 304.27871,253.947709 C304.145214,253.929218 304.01281,253.904555 303.881235,253.874448 C303.866821,253.870095 303.852172,253.866673 303.837538,253.863185 C303.645706,253.818511 303.455985,253.761261 303.269165,253.692298 L303.187771,253.660851 C303.151462,253.647311 303.114748,253.63252 303.078162,253.617267 L302.975945,253.573074 C302.94236,253.558408 302.908664,253.543015 302.875093,253.52722 C302.837854,253.50975 302.801193,253.492024 302.764724,253.473835 C302.734015,253.458241 302.702975,253.442285 302.672056,253.425976 C302.628176,253.403351 302.584769,253.379723 302.54167,253.355419 C302.52591,253.345778 302.509929,253.336614 302.493984,253.327353 C302.302932,253.217619 302.118539,253.093987 301.941811,252.957205 L301.921694,252.940055 C301.750185,252.806864 301.593054,252.666779 301.443819,252.515439 L301.374296,252.443976 L301.338328,252.405152 C301.231103,252.290768 301.130673,252.172234 301.036514,252.050056 L259.999778,199.519 Z M149.999778,199.523 L109.999778,250.721 L109.999778,284.478 L149.999778,233.28 L149.999778,199.523 Z M49.9997777,199.523 L9.99977772,250.721 L9.99977772,284.478 L49.9997777,233.28 L49.9997777,199.523 Z M59.9997777,199.519 L59.9997777,233.275 L99.9997777,284.477 L99.9997777,250.721 L59.9997777,199.519 Z M359.999778,199.519 L359.999778,233.276 L399.999778,284.477 L399.999778,250.721 L359.999778,199.519 Z M158.027843,267.127418 C160.203875,268.82752 160.589693,271.969747 158.889591,274.145779 L154.518396,279.740657 C152.818295,281.916689 149.676068,282.302506 147.500035,280.602405 C145.324003,278.902303 144.938186,275.760076 146.638287,273.584044 L151.009482,267.989166 C152.709584,265.813134 155.851811,265.427317 158.027843,267.127418 Z M355.002,243.121 L332.829778,271.5 L338.983778,279.378 L351.061107,263.921694 C353.063017,261.359364 356.939552,261.359449 358.94135,263.921866 L371.015778,279.378 L377.170778,271.499 L355.002,243.121 Z M59.9997777,149.519 L59.9997777,183.276 L74.9997777,202.477 L75,191.5 L85,191.5 L84.9997777,215.277 L104.999778,240.878 L149.999778,183.28 L149.999778,149.523 L108.940055,202.078306 L108.900288,202.130338 C108.776216,202.284655 108.64189,202.432827 108.497435,202.573845 L108.472421,202.598378 L108.456778,202.612 L108.470778,202.598 L108.44677,202.622616 C108.429745,202.638776 108.412584,202.654837 108.395288,202.6708 C108.178644,202.872283 107.947383,203.050893 107.704691,203.206931 C107.682318,203.220117 107.660394,203.234009 107.638395,203.24771 C107.597212,203.274396 107.555057,203.299714 107.512592,203.324369 C107.49303,203.334924 107.474086,203.345796 107.455092,203.356531 C107.282359,203.454513 107.103973,203.541242 106.921694,203.616915 C106.284324,203.88295 105.608654,204.008599 104.937515,203.99979 C104.903207,203.999421 104.877276,203.998872 104.851344,203.998122 C104.803886,203.996482 104.75649,203.994374 104.709142,203.991596 C104.571275,203.984092 104.432946,203.970406 104.295126,203.950916 C104.290015,203.949345 104.284362,203.948532 104.27871,203.947709 C104.145214,203.929218 104.01281,203.904555 103.881235,203.874448 C103.866821,203.870095 103.852172,203.866673 103.837538,203.863185 C103.645706,203.818511 103.455985,203.761261 103.269165,203.692298 L103.187771,203.660851 C103.151462,203.647311 103.114748,203.63252 103.078162,203.617267 L102.975945,203.573074 C102.94236,203.558408 102.908664,203.543015 102.875093,203.52722 C102.837854,203.50975 102.801193,203.492024 102.764724,203.473835 C102.734015,203.458241 102.702975,203.442285 102.672056,203.425976 C102.628176,203.403351 102.584769,203.379723 102.54167,203.355419 C102.52591,203.345778 102.509929,203.336614 102.493984,203.327353 C102.302932,203.217619 102.118539,203.093987 101.941811,202.957205 L101.921694,202.940055 C101.750185,202.806864 101.593054,202.666779 101.443819,202.515439 L101.374296,202.443976 L101.338328,202.405152 C101.231103,202.290768 101.130673,202.172234 101.036514,202.050056 L59.9997777,149.519 Z M259.999778,149.519 L259.999778,183.276 L304.999778,240.878 L349.999778,183.28 L349.999778,149.523 L308.940055,202.078306 L308.900288,202.130338 C308.776216,202.284655 308.64189,202.432827 308.497435,202.573845 L308.472421,202.598378 L308.456778,202.612 L308.470778,202.598 L308.44677,202.622616 C308.429745,202.638776 308.412584,202.654837 308.395288,202.6708 C308.178644,202.872283 307.947383,203.050893 307.704691,203.206931 C307.682318,203.220117 307.660394,203.234009 307.638395,203.24771 C307.597212,203.274396 307.555057,203.299714 307.512592,203.324369 C307.49105,203.336078 307.470115,203.348072 307.44912,203.359901 C307.343361,203.419962 307.235087,203.475581 307.125197,203.527061 L307.093389,203.541914 C306.406821,203.859072 305.669473,204.009398 304.937515,203.99979 C304.903207,203.999421 304.877276,203.998872 304.851344,203.998122 C304.803886,203.996482 304.75649,203.994374 304.709142,203.991596 C304.571275,203.984092 304.432946,203.970406 304.295126,203.950916 C304.290015,203.949345 304.284362,203.948532 304.27871,203.947709 C304.145214,203.929218 304.01281,203.904555 303.881235,203.874448 C303.866821,203.870095 303.852172,203.866673 303.837538,203.863185 C303.645706,203.818511 303.455985,203.761261 303.269165,203.692298 L303.187771,203.660851 C303.151462,203.647311 303.114748,203.63252 303.078162,203.617267 L302.975945,203.573074 C302.94236,203.558408 302.908664,203.543015 302.875093,203.52722 C302.837854,203.50975 302.801193,203.492024 302.764724,203.473835 C302.734015,203.458241 302.702975,203.442285 302.672056,203.425976 C302.628176,203.403351 302.584769,203.379723 302.54167,203.355419 C302.52591,203.345778 302.509929,203.336614 302.493984,203.327353 C302.302932,203.217619 302.118539,203.093987 301.941811,202.957205 L301.921694,202.940055 C301.750185,202.806864 301.593054,202.666779 301.443819,202.515439 L301.374296,202.443976 L301.338328,202.405152 C301.231103,202.290768 301.130673,202.172234 301.036514,202.050056 L259.999778,149.519 Z M159.999778,149.519 L159.999778,183.276 L204.999778,240.878 L249.999778,183.28 L249.999778,149.523 L208.940055,202.078306 L208.900288,202.130338 C208.776216,202.284655 208.64189,202.432827 208.497435,202.573845 L208.472421,202.598378 L208.456778,202.612 L208.43359,202.635081 L208.403195,202.664105 C208.184313,202.867901 207.950358,203.04898 207.704691,203.206931 C207.682318,203.220117 207.660394,203.234009 207.638395,203.24771 C207.597212,203.274396 207.555057,203.299714 207.512592,203.324369 C207.49303,203.334924 207.474086,203.345796 207.455092,203.356531 C207.282359,203.454513 207.103973,203.541242 206.921694,203.616915 C206.284324,203.88295 205.608654,204.008599 204.937515,203.99979 C204.903207,203.999421 204.877276,203.998872 204.851344,203.998122 C204.803886,203.996482 204.75649,203.994374 204.709142,203.991596 C204.571275,203.984092 204.432946,203.970406 204.295126,203.950916 C204.290015,203.949345 204.284362,203.948532 204.27871,203.947709 C204.145214,203.929218 204.01281,203.904555 203.881235,203.874448 C203.866821,203.870095 203.852172,203.866673 203.837538,203.863185 C203.645706,203.818511 203.455985,203.761261 203.269165,203.692298 L203.187771,203.660851 C203.151462,203.647311 203.114748,203.63252 203.078162,203.617267 L202.975945,203.573074 C202.94236,203.558408 202.908664,203.543015 202.875093,203.52722 C202.837854,203.50975 202.801193,203.492024 202.764724,203.473835 C202.734015,203.458241 202.702975,203.442285 202.672056,203.425976 C202.628176,203.403351 202.584769,203.379723 202.54167,203.355419 C202.524564,203.345016 202.507242,203.335073 202.489963,203.325016 C202.300353,203.215888 202.117302,203.09303 201.941811,202.957205 L201.921694,202.940055 C201.750185,202.806864 201.593054,202.666779 201.443819,202.515439 L201.374296,202.443976 L201.338328,202.405152 C201.231103,202.290768 201.130673,202.172234 201.036514,202.050056 L159.999778,149.519 Z M49.9997777,149.523 L9.99977772,200.721 L9.99977772,234.478 L49.9997777,183.28 L49.9997777,149.523 Z M359.999778,149.519 L359.999778,183.276 L399.999778,234.477 L399.999778,200.721 L359.999778,149.519 Z M259.999778,99.519 L259.999778,133.276 L304.999778,190.878 L349.999778,133.28 L349.999778,99.523 L308.940055,152.078306 L308.900288,152.130338 C308.776216,152.284655 308.64189,152.432827 308.497435,152.573845 L308.472421,152.598378 L308.456778,152.612 L308.470778,152.598 L308.44677,152.622616 C308.429745,152.638776 308.412584,152.654837 308.395288,152.6708 C308.178644,152.872283 307.947383,153.050893 307.704691,153.206931 C307.682318,153.220117 307.660394,153.234009 307.638395,153.24771 C307.597212,153.274396 307.555057,153.299714 307.512592,153.324369 C307.49105,153.336078 307.470115,153.348072 307.44912,153.359901 C307.343361,153.419962 307.235087,153.475581 307.125197,153.527061 L307.093389,153.541914 C306.406821,153.859072 305.669473,154.009398 304.937515,153.99979 C304.903207,153.999421 304.877276,153.998872 304.851344,153.998122 C304.803886,153.996482 304.75649,153.994374 304.709142,153.991596 C304.571275,153.984092 304.432946,153.970406 304.295126,153.950916 C304.290015,153.949345 304.284362,153.948532 304.27871,153.947709 C304.145214,153.929218 304.01281,153.904555 303.881235,153.874448 C303.866821,153.870095 303.852172,153.866673 303.837538,153.863185 C303.645706,153.818511 303.455985,153.761261 303.269165,153.692298 L303.187771,153.660851 C303.151462,153.647311 303.114748,153.63252 303.078162,153.617267 L302.975945,153.573074 C302.94236,153.558408 302.908664,153.543015 302.875093,153.52722 C302.837854,153.50975 302.801193,153.492024 302.764724,153.473835 C302.734015,153.458241 302.702975,153.442285 302.672056,153.425976 C302.628176,153.403351 302.584769,153.379723 302.54167,153.355419 C302.52591,153.345778 302.509929,153.336614 302.493984,153.327353 C302.302932,153.217619 302.118539,153.093987 301.941811,152.957205 L301.921694,152.940055 C301.750185,152.806864 301.593054,152.666779 301.443819,152.515439 L301.374296,152.443976 L301.338328,152.405152 C301.231103,152.290768 301.130673,152.172234 301.036514,152.050056 L259.999778,99.519 Z M159.999778,99.519 L159.999778,133.276 L204.999778,190.878 L249.999778,133.28 L249.999778,99.523 L208.940055,152.078306 L208.900288,152.130338 C208.776216,152.284655 208.64189,152.432827 208.497435,152.573845 L208.472421,152.598378 L208.456778,152.612 L208.470778,152.598 L208.403181,152.6635 C208.184313,152.867901 207.950358,153.04898 207.704691,153.206931 C207.682318,153.220117 207.660394,153.234009 207.638395,153.24771 C207.597212,153.274396 207.555057,153.299714 207.512592,153.324369 C207.49369,153.33454 207.475409,153.345036 207.457082,153.355406 C207.28373,153.453846 207.104673,153.540951 206.921694,153.616915 C206.284324,153.88295 205.608654,154.008599 204.937515,153.99979 C204.903207,153.999421 204.877276,153.998872 204.851344,153.998122 C204.803886,153.996482 204.75649,153.994374 204.709142,153.991596 C204.571275,153.984092 204.432946,153.970406 204.295126,153.950916 C204.290015,153.949345 204.284362,153.948532 204.27871,153.947709 C204.145214,153.929218 204.01281,153.904555 203.881235,153.874448 C203.866821,153.870095 203.852172,153.866673 203.837538,153.863185 C203.645706,153.818511 203.455985,153.761261 203.269165,153.692298 L203.187771,153.660851 C203.151462,153.647311 203.114748,153.63252 203.078162,153.617267 L202.975945,153.573074 C202.94236,153.558408 202.908664,153.543015 202.875093,153.52722 C202.837854,153.50975 202.801193,153.492024 202.764724,153.473835 C202.734015,153.458241 202.702975,153.442285 202.672056,153.425976 C202.628176,153.403351 202.584769,153.379723 202.54167,153.355419 C202.523891,153.344635 202.505899,153.334301 202.487953,153.323845 C202.299063,153.215022 202.116684,153.092552 201.941811,152.957205 L201.921694,152.940055 C201.750185,152.806864 201.593054,152.666779 201.443819,152.515439 L201.374296,152.443976 L201.338328,152.405152 C201.231103,152.290768 201.130673,152.172234 201.036514,152.050056 L169.887471,112.176726 C169.835658,112.113849 169.785574,112.049917 169.737226,111.985002 L159.999778,99.519 Z M59.9997777,99.519 L59.9997777,133.276 L104.999778,190.878 L149.999778,133.28 L149.999778,99.523 L108.940055,152.078306 L108.900288,152.130338 C108.776216,152.284655 108.64189,152.432827 108.497435,152.573845 L108.472421,152.598378 L108.456778,152.612 L108.470778,152.598 L108.44677,152.622616 C108.429745,152.638776 108.412584,152.654837 108.395288,152.6708 C108.178644,152.872283 107.947383,153.050893 107.704691,153.206931 C107.682318,153.220117 107.660394,153.234009 107.638395,153.24771 C107.597212,153.274396 107.555057,153.299714 107.512592,153.324369 C107.49105,153.336078 107.470115,153.348072 107.44912,153.359901 C107.343361,153.419962 107.235087,153.475581 107.125197,153.527061 L107.093389,153.541914 C106.406821,153.859072 105.669473,154.009398 104.937515,153.99979 C104.903207,153.999421 104.877276,153.998872 104.851344,153.998122 C104.803886,153.996482 104.75649,153.994374 104.709142,153.991596 C104.571275,153.984092 104.432946,153.970406 104.295126,153.950916 C104.290015,153.949345 104.284362,153.948532 104.27871,153.947709 C104.145214,153.929218 104.01281,153.904555 103.881235,153.874448 C103.866821,153.870095 103.852172,153.866673 103.837538,153.863185 C103.645706,153.818511 103.455985,153.761261 103.269165,153.692298 L103.187771,153.660851 C103.151462,153.647311 103.114748,153.63252 103.078162,153.617267 L102.975945,153.573074 C102.94236,153.558408 102.908664,153.543015 102.875093,153.52722 C102.837854,153.50975 102.801193,153.492024 102.764724,153.473835 C102.734015,153.458241 102.702975,153.442285 102.672056,153.425976 C102.628176,153.403351 102.584769,153.379723 102.54167,153.355419 C102.52591,153.345778 102.509929,153.336614 102.493984,153.327353 C102.302932,153.217619 102.118539,153.093987 101.941811,152.957205 L101.921694,152.940055 C101.750185,152.806864 101.593054,152.666779 101.443819,152.515439 L101.374296,152.443976 L101.338328,152.405152 C101.231103,152.290768 101.130673,152.172234 101.036514,152.050056 L59.9997777,99.519 Z M49.9997777,99.523 L9.99977772,150.721 L9.99977772,184.478 L49.9997777,133.28 L49.9997777,99.523 Z M359.999778,99.519 L359.999778,133.276 L399.999778,184.477 L399.999778,150.721 L359.999778,99.519 Z M155.002,53.121 L108.940055,112.078306 L108.900288,112.130338 C108.776216,112.284655 108.64189,112.432827 108.497435,112.573845 C108.480556,112.590588 108.464181,112.606428 108.447719,112.622137 L108.470778,112.598 L108.44677,112.622616 C108.429745,112.638776 108.412584,112.654837 108.395288,112.6708 C108.178644,112.872283 107.947383,113.050893 107.704691,113.206931 C107.682318,113.220117 107.660394,113.234009 107.638395,113.24771 C107.597212,113.274396 107.555057,113.299714 107.512592,113.324369 C107.49105,113.336078 107.470115,113.348072 107.44912,113.359901 C107.343361,113.419962 107.235087,113.475581 107.125197,113.527061 L107.093389,113.541914 C106.406821,113.859072 105.669473,114.009398 104.937515,113.99979 C104.903207,113.999421 104.877276,113.998872 104.851344,113.998122 C104.803886,113.996482 104.75649,113.994374 104.709142,113.991596 C104.571275,113.984092 104.432946,113.970406 104.295126,113.950916 C104.290015,113.949345 104.284362,113.948532 104.27871,113.947709 C104.145214,113.929218 104.01281,113.904555 103.881235,113.874448 C103.866821,113.870095 103.852172,113.866673 103.837538,113.863185 C103.645706,113.818511 103.455985,113.761261 103.269165,113.692298 L103.187771,113.660851 C103.151462,113.647311 103.114748,113.63252 103.078162,113.617267 L102.975945,113.573074 C102.94236,113.558408 102.908664,113.543015 102.875093,113.52722 C102.837854,113.50975 102.801193,113.492024 102.764724,113.473835 C102.734015,113.458241 102.702975,113.442285 102.672056,113.425976 C102.628176,113.403351 102.584769,113.379723 102.54167,113.355419 C102.52591,113.345778 102.509929,113.336614 102.493984,113.327353 C102.302932,113.217619 102.118539,113.093987 101.941811,112.957205 L101.921694,112.940055 C101.750185,112.806864 101.593054,112.666779 101.443819,112.515439 L101.374296,112.443976 L101.338328,112.405152 C101.231103,112.290768 101.130673,112.172234 101.036514,112.050056 L55.002,53.121 L9.99977772,110.721 L9.99977772,134.478 L51.0621975,81.9216937 C53.0641075,79.3593644 56.9406433,79.3594491 58.9424413,81.9218659 L104.999778,140.878 L151.062198,81.9216937 C153.064107,79.3593644 156.940643,79.3594491 158.942441,81.9218659 L173.750778,100.877 L183.029778,89 L155.002,53.121 Z M291.539778,59.89 L275.955593,80.0575648 C273.953902,82.6478711 270.04432,82.6477859 268.042743,80.0573923 L254.998778,63.177 L241.955593,80.0575648 C239.953902,82.6478711 236.04432,82.6477859 234.042743,80.0573923 L218.460778,59.893 L180.095778,108.999 L204.999778,140.878 L249.999778,83.28 L250,83 L250.218778,83 L251.062198,81.9216937 C253.064107,79.3593644 256.940643,79.3594491 258.942441,81.9218659 L259.784778,83 L260,83 L259.999778,83.275 L304.999778,140.878 L329.905778,109 L301.140796,72.1807567 C301.078687,72.1055458 301.019055,72.0288227 300.961912,71.950707 L291.539778,59.89 Z M355.002,53.121 L327.312887,88.5621396 C327.198877,88.7080668 327.07838,88.8459431 326.952125,88.9756792 L336.250778,100.879 L349.999778,83.28 L350,83 L350.218778,83 L351.062198,81.9216937 C353.064107,79.3593644 356.940643,79.3594491 358.942441,81.9218659 L359.784778,83 L360,83 L359.999778,83.275 L399.999778,134.477 L399.999778,110.721 L355.002,53.121 Z M155.002,13.121 L108.940055,72.0783063 L108.900288,72.130338 C108.776216,72.2846548 108.64189,72.4328265 108.497435,72.573845 L108.472421,72.5983784 L108.456778,72.612 L108.43359,72.6350811 L108.395235,72.6714995 C108.178644,72.8722834 107.947383,73.0508933 107.704691,73.2069313 C107.682318,73.2201172 107.660394,73.2340088 107.638395,73.2477102 C107.597212,73.2743961 107.555057,73.2997139 107.512592,73.3243691 C107.49105,73.3360777 107.470115,73.3480725 107.44912,73.3599007 C107.343361,73.4199622 107.235087,73.4755806 107.125197,73.5270606 L107.093389,73.5419138 C106.406821,73.8590722 105.669473,74.0093977 104.937515,73.9997897 C104.903207,73.9994215 104.877276,73.9988723 104.851344,73.9981218 C104.803886,73.9964816 104.75649,73.9943736 104.709142,73.9915962 C104.571275,73.9840921 104.432946,73.9704061 104.295126,73.9509155 C104.290015,73.9493452 104.284362,73.9485317 104.27871,73.9477085 C104.145214,73.9292181 104.01281,73.9045551 103.881235,73.8744482 C103.866821,73.8700954 103.852172,73.8666733 103.837538,73.8631851 C103.645706,73.8185111 103.455985,73.7612611 103.269165,73.6922983 L103.187771,73.6608512 C103.151462,73.6473112 103.114748,73.6325195 103.078162,73.6172665 L102.975945,73.5730744 C102.94236,73.5584081 102.908664,73.5430147 102.875093,73.5272203 C102.837854,73.5097498 102.801193,73.4920242 102.764724,73.4738345 C102.734015,73.4582407 102.702975,73.4422847 102.672056,73.425976 C102.628176,73.4033513 102.584769,73.3797226 102.54167,73.3554188 C102.52591,73.3457779 102.509929,73.3366142 102.493984,73.3273533 C102.302932,73.2176187 102.118539,73.0939875 101.941811,72.9572051 L101.921694,72.9400546 C101.750185,72.806864 101.593054,72.6667792 101.443819,72.515439 L101.374296,72.4439761 L101.338328,72.4051518 C101.231103,72.2907683 101.130673,72.1722339 101.036514,72.0500557 L55.002,13.121 L9.99977772,70.721 L9.99977772,94.478 L51.0621975,41.9216937 C53.0641075,39.3593644 56.9406433,39.3594491 58.9424413,41.9218659 L104.999778,100.878 L151.062198,41.9216937 C153.064107,39.3593644 156.940643,39.3594491 158.942441,41.9218659 L189.375778,80.878 L198.655778,69 L155.002,13.121 Z M355.002,13.121 L311.345778,68.999 L320.625778,80.878 L351.062198,41.9216937 C353.064107,39.3593644 356.940643,39.3594491 358.942441,41.9218659 L399.999778,94.477 L399.999778,70.721 L355.002,13.121 Z M255.003,13.121 L224.812412,51.7650485 C224.861526,51.8230145 224.909569,51.8823638 224.956492,51.9430898 L238,68.823241 L251.043642,51.9429173 L251.060819,51.9188745 C251.098636,51.870602 251.13744,51.8229125 251.177228,51.775836 L251.131778,51.831 L251.213119,51.7351514 C251.248525,51.6928564 251.285773,51.6511714 251.323819,51.6100157 C251.34443,51.5883551 251.36437,51.5670651 251.384462,51.5459845 L251.470603,51.4578312 C251.498731,51.4297039 251.52716,51.4019786 251.555858,51.3746497 C251.579389,51.3527903 251.602953,51.3308842 251.62677,51.3091658 C251.901986,51.0563482 252.200653,50.8396848 252.516126,50.6593374 C252.524158,50.6555321 252.532128,50.6509871 252.540106,50.6464662 C252.595621,50.6143877 252.651681,50.5841607 252.708219,50.5550588 C252.724067,50.5472172 252.740413,50.5388776 252.756791,50.5306355 C252.802916,50.5072909 252.848943,50.4851195 252.895254,50.4636802 C252.934241,50.4454877 252.973246,50.4279604 253.012405,50.4109671 C253.034981,50.4015083 253.058314,50.3916332 253.081712,50.3819401 C253.134766,50.3594502 253.187351,50.3386332 253.240173,50.3187568 C253.256426,50.3133431 253.272801,50.3073015 253.289204,50.301347 C253.338548,50.2826238 253.388161,50.2654386 253.437953,50.2490688 C253.462815,50.2418294 253.487844,50.2338413 253.512927,50.2260523 C253.787996,50.1394594 254.068133,50.0785216 254.350159,50.0418291 C254.360507,50.0412946 254.370521,50.0400135 254.380539,50.0387625 C254.424493,50.0325229 254.468875,50.0276254 254.513288,50.0233246 C254.551586,50.0202194 254.589903,50.0169078 254.628258,50.0140358 C254.66752,50.0106397 254.706499,50.008231 254.745485,50.0062785 L254.833054,50.0028949 L254.927251,50.000507 L255.089054,50.000854 L255.227637,50.0050049 L255.283678,50.0078244 C255.315388,50.0100315 255.347382,50.0121686 255.379349,50.0146111 C255.898118,50.0530822 256.413968,50.1731359 256.906965,50.3768183 C257.090326,50.4526751 257.270324,50.5395462 257.445279,50.6375014 C257.460695,50.6468822 257.476393,50.6558185 257.492056,50.6648484 C257.683249,50.7738306 257.867854,50.8967073 258.044819,51.0327019 L258.057324,51.0438827 L258.069803,51.0520278 C258.183131,51.1402712 258.293272,51.233935 258.399838,51.3329694 L258.426704,51.3586409 C258.468035,51.3971052 258.508783,51.4368703 258.54896,51.4774475 C258.574662,51.5032144 258.59968,51.5289086 258.624375,51.5548217 L258.67595,51.610498 C258.717407,51.6546253 258.757211,51.6992913 258.796097,51.7445365 L258.82068,51.7748312 C258.8681,51.8294312 258.913157,51.8851185 258.956872,51.9415911 L272,68.823241 L285.043642,51.9429173 L285.189778,51.762 L255.003,13.121 Z" id="Combined-Shape" fill="#361100"></path>
    </g>
</svg>