<?xml version="1.0" encoding="UTF-8"?>
<svg width="410px" height="414px" viewBox="0 0 410 414" version="1.1" xmlns="http://www.w3.org/2000/svg" xmlns:xlink="http://www.w3.org/1999/xlink">
    <title>flattened copy 4</title>
    <g id="flattened-copy-4" stroke="none" fill="none" fill-rule="evenodd">
        <path d="M155.778778,244.115 L201.036514,302.050056 L201.182521,302.230527 L201.374296,302.443976 L201.443819,302.515439 C201.543309,302.616332 201.646309,302.712224 201.754738,302.804404 L201.941811,302.957205 C202.067872,303.054773 202.197834,303.14565 202.331222,303.229583 L202.572895,303.372879 L202.722991,303.45247 L202.802904,303.492674 C202.942668,303.560897 203.085171,303.622349 203.229747,303.677566 L203.514971,303.775684 L203.744913,303.841109 L203.901163,303.878987 L204.089224,303.917305 L204.30901,303.952887 L204.453108,303.970656 L204.771135,303.995149 L205.022339,304.00019 L205.194403,303.996336 L205.491763,303.975753 C205.657888,303.991768 205.827373,304 206,304 L249.436778,304.001 L204.999778,360.878 L158.942441,301.921866 C156.940643,299.359449 153.064107,299.359364 151.062198,301.921694 L104.999778,360.878 L60.5657777,304 L105.148252,303.998096 L105.352079,303.988061 L105.585782,303.966271 L105.951385,303.909733 L106.273764,303.836299 L106.413557,303.797418 L106.597241,303.739457 L106.810194,303.66223 L106.990518,303.588078 L107.395109,303.390032 L107.514947,303.322408 L107.706672,303.205657 C107.93005,303.061887 108.143732,302.898986 108.345189,302.717264 L108.57469,302.496766 L108.7101,302.353115 L108.84433,302.198309 L154.224778,244.115 L155.778778,244.115 Z M326.484778,279.622 L332.638778,287.499 L325.278695,296.921694 C323.578594,299.097726 323.964412,302.239953 326.140444,303.940055 L326.329271,304.080676 C328.494854,305.616648 331.507277,305.192166 333.158805,303.078306 L338.984778,295.621 L347.483778,306.5 L304.999778,360.878 L260.566778,304.001 L305.146281,303.998176 L305.394092,303.985488 C306.840446,303.878139 308.040429,303.183858 308.853957,302.190864 L326.484778,279.622 Z M49.4377777,304 L9.99977772,354.478 L9.99977772,304 L49.4377777,304 Z M383.515778,279.62 L399.999778,300.721 L399.999778,354.477 L362.517778,306.499 L371.015778,295.622 L376.841061,303.078134 C378.541067,305.25424 381.683278,305.640196 383.859384,303.940189 C386.03549,302.240183 386.421446,299.097972 384.721439,296.921866 L377.360778,287.499 L383.515778,279.62 Z M55.002,313.121 L78.6437777,343.386 L54,318.5 L36.1007777,337.312 L55.002,313.121 Z M204.569239,326.326797 C202.869232,324.150691 199.727022,323.764736 197.550916,325.464742 C195.374809,327.164749 194.988854,330.306959 196.68886,332.483066 L201.059811,338.078134 C202.759817,340.25424 205.902028,340.640196 208.078134,338.940189 C210.25424,337.240183 210.640196,334.097972 208.940189,331.921866 L204.569239,326.326797 Z M104.569239,326.326797 C102.869232,324.150691 99.7270219,323.764736 97.5509155,325.464742 C95.3748091,327.164749 94.988854,330.306959 96.6888605,332.483066 L101.059811,338.078134 C102.759817,340.25424 105.902028,340.640196 108.078134,338.940189 C110.25424,337.240183 110.640196,334.097972 108.940189,331.921866 L104.569239,326.326797 Z M255.002,313.121 L273.231778,336.458 L254.5,315.5 L241.964778,329.807 L255.002,313.121 Z M355.002,313.121 L367.529778,329.158 L355,315.5 L339.151778,333.409 L355.002,313.121 Z M124.659003,309.83761 C122.482971,308.137508 119.340743,308.523326 117.640642,310.699358 L113.269447,316.294236 C111.569345,318.470268 111.955163,321.612495 114.131195,323.312597 C116.307227,325.012698 119.449454,324.62688 121.149556,322.450848 L125.520751,316.855971 C127.220853,314.679939 126.835035,311.537712 124.659003,309.83761 Z M224.711718,309.770137 C222.535686,308.070036 219.393459,308.455853 217.693357,310.631885 L213.322162,316.226763 C211.622061,318.402795 212.007879,321.545022 214.183911,323.245124 C216.359943,324.945225 219.50217,324.559408 221.202272,322.383376 L225.573466,316.788498 C227.273568,314.612466 226.88775,311.470239 224.711718,309.770137 Z M89.7326324,307.335086 C88.0326259,305.158979 84.8904156,304.773024 82.7143092,306.473031 C80.5382028,308.173037 80.1522476,311.315248 81.8522542,313.491354 L86.2232045,319.086423 C87.9232111,321.262529 91.0654214,321.648484 93.2415278,319.948478 C95.4176341,318.248471 95.8035893,315.106261 94.1035828,312.930154 L89.7326324,307.335086 Z M187.885752,304.970972 C186.185745,302.794866 183.043535,302.408911 180.867429,304.108917 C178.691322,305.808924 178.305367,308.951134 180.005374,311.127241 L184.376324,316.722309 C186.076331,318.898415 189.218541,319.284371 191.394647,317.584364 C193.570754,315.884358 193.956709,312.742147 192.256702,310.566041 L187.885752,304.970972 Z M141.343423,288.482514 C139.167391,286.782412 136.025164,287.16823 134.325062,289.344262 L129.953867,294.93914 C128.253765,297.115172 128.639583,300.257399 130.815615,301.957501 C132.991647,303.657602 136.133875,303.271785 137.833976,301.095752 L142.205171,295.500875 C143.905273,293.324843 143.519455,290.182616 141.343423,288.482514 Z M355,275.122 L364.670778,287.501 L355.001,299.879222 L345.329778,287.5 L355,275.122 Z M171.202265,283.615147 C169.502259,281.439041 166.360048,281.053086 164.183942,282.753092 C162.007836,284.453099 161.62188,287.595309 163.321887,289.771416 L167.692837,295.366484 C169.392844,297.54259 172.535054,297.928546 174.711161,296.228539 C176.887267,294.528533 177.273222,291.386322 175.573216,289.210216 L171.202265,283.615147 Z M249.999778,251.093 L250.000381,257.041284 L249.691258,258.680727 C248.508462,264.877522 247.350688,270.065303 246.217489,274.243561 C245.871913,274.890389 245.681332,275.590718 245.640596,276.294713 L245.335627,277.312285 C244.371846,280.455889 243.426637,282.851794 242.5,284.5 C240.456062,288.135546 237.318845,291.302571 233.088351,294.001075 L216.287,294 L249.999778,251.093 Z M259.999778,249.82 L294.712,294 L259.999778,294 L259.999778,271.157427 L260.002447,271.019974 L259.999778,249.82 Z M55.002,243.121 L94.7487777,294 L64.9997777,294 L65,269 C65,267.895431 64.1045695,267 63,267 L47,267 C45.8954305,267 45,267.895431 45,269 L44.9997777,294 L15.2507777,294 L55.002,243.121 Z M158.027843,267.127418 C155.851811,265.427317 152.709584,265.813134 151.009482,267.989166 L146.638287,273.584044 C144.938186,275.760076 145.324003,278.902303 147.500035,280.602405 C149.676068,282.302506 152.818295,281.916689 154.518396,279.740657 L158.889591,274.145779 C160.589693,271.969747 160.203875,268.82752 158.027843,267.127418 Z M355.002,243.121 L377.170778,271.499 L371.015778,279.378 L358.94135,263.921866 C356.939552,261.359449 353.063017,261.359364 351.061107,263.921694 L338.983778,279.378 L332.829778,271.5 L355.002,243.121 Z" id="Shape" fill="#FFBB72"></path>
        <path d="M155.002,53.121 L183.029778,89 L181.675778,90.73 L156,63 L106,124.5 L56,66.5 L9.99877772,118.021 L9.99877772,110.721 L55.002,53.121 L101.036514,112.050056 L101.182521,112.230527 L101.374296,112.443976 L101.443819,112.515439 C101.543309,112.616332 101.646309,112.712224 101.754738,112.804404 L101.941811,112.957205 C102.059629,113.048393 102.180855,113.133737 102.305189,113.213014 L102.54167,113.355419 L102.764724,113.473835 L102.975945,113.573074 L103.269165,113.692298 C103.393712,113.738274 103.519548,113.779043 103.646439,113.814351 L103.881235,113.874448 L104.079252,113.915435 L104.295126,113.950916 L104.502116,113.975751 L104.780202,113.995285 L104.937515,113.99979 C105.577979,114.008197 106.222569,113.894155 106.833656,113.653041 L107.125197,113.527061 L107.288707,113.446699 L107.512592,113.324369 L107.704691,113.206931 C107.866486,113.102906 108.0232,112.988849 108.17389,112.86467 L108.472421,112.598378 L108.497435,112.573845 C108.64189,112.432827 108.776216,112.284655 108.900288,112.130338 L155.002,53.121 Z M291.539778,59.89 L300.961912,71.950707 C301.019055,72.0288227 301.078687,72.1055458 301.140796,72.1807567 L324.147778,101.63 L306,122.5 L272.940698,81.911767 C274.086014,81.6943637 275.168354,81.0762979 275.955593,80.0575648 L291.539778,59.89 Z M355.002,53.121 L399.999778,110.721 L399.998778,119.559 L356,65 L330.831778,93.943 L326.952125,88.9756792 L327.137098,88.774981 L327.312887,88.5621396 L355.002,53.121 Z M218.460778,59.893 L234.042743,80.0573923 C234.768989,80.9972829 235.746426,81.5961577 236.792775,81.8540126 L206,117 L188.558778,98.164 L218.460778,59.893 Z M155.002,13.121 L198.655778,69 L189.375778,80.878 L158.942441,41.9218659 C156.940643,39.3594491 153.064107,39.3593644 151.062198,41.9216937 L104.999778,100.878 L58.9424413,41.9218659 C56.9406433,39.3594491 53.0641075,39.3593644 51.0621975,41.9216937 L9.99977772,94.478 L9.99977772,70.721 L55.002,13.121 L101.036514,72.0500557 L101.182521,72.2305268 L101.374296,72.4439761 L101.443819,72.515439 C101.543309,72.6163325 101.646309,72.7122235 101.754738,72.8044044 L101.941811,72.9572051 C102.059629,73.0483933 102.180855,73.1337367 102.305189,73.2130141 L102.54167,73.3554188 L102.764724,73.4738345 L102.975945,73.5730744 L103.269165,73.6922983 C103.393712,73.7382735 103.519548,73.779043 103.646439,73.8143511 L103.881235,73.8744482 L104.079252,73.9154346 L104.295126,73.9509155 L104.502116,73.9757508 L104.780202,73.9952854 L104.937515,73.9997897 C105.577979,74.0081967 106.222569,73.8941547 106.833656,73.6530414 L107.125197,73.5270606 L107.288707,73.4466987 L107.512592,73.3243691 L107.704691,73.2069313 C107.947383,73.0508933 108.178644,72.8722834 108.395235,72.6714995 L108.497435,72.573845 C108.64189,72.4328265 108.776216,72.2846548 108.900288,72.130338 L155.002,13.121 Z M355.002,13.121 L399.999778,70.721 L399.999778,94.477 L358.942441,41.9218659 C356.940643,39.3594491 353.064107,39.3593644 351.062198,41.9216937 L320.625778,80.878 L311.345778,68.999 L355.002,13.121 Z M255.003,13.121 L285.189778,51.762 L285.043642,51.9429173 L272,68.823241 L258.890165,51.8575089 L258.796097,51.7445365 L258.624375,51.5548217 L258.488265,51.4172519 L258.399838,51.3329694 L258.237356,51.188452 L258.044819,51.0327019 C257.926842,50.9420388 257.80547,50.8572059 257.681014,50.7784333 L257.445279,50.6375014 C257.270324,50.5395462 257.090326,50.4526751 256.906965,50.3768183 C256.413968,50.1731359 255.898118,50.0530822 255.379349,50.0146111 L255.227637,50.0050049 L255.089054,50.000854 L254.833054,50.0028949 L254.686975,50.0096158 L254.446741,50.0303165 L254.350159,50.0418291 C254.162142,50.0662908 253.974964,50.1015281 253.789568,50.1479589 L253.437953,50.2490688 L253.240173,50.3187568 L253.012405,50.4109671 L252.825953,50.4964434 L252.623779,50.5996462 L252.516126,50.6593374 C252.279521,50.794598 252.05237,50.9502863 251.837475,51.1263341 L251.555858,51.3746497 L251.323819,51.6100157 L251.118284,51.8469067 L238,68.823241 L224.956492,51.9430898 C224.909569,51.8823638 224.861526,51.8230145 224.812412,51.7650485 L255.003,13.121 Z" id="Shape" fill="#00AEE7"></path>
        <path d="M159.998778,119.501 L159.999778,99.519 L201.036514,152.050056 L201.182521,152.230527 L201.374296,152.443976 L201.443819,152.515439 C201.543309,152.616332 201.646309,152.712224 201.754738,152.804404 L201.941811,152.957205 C202.058393,153.047436 202.178311,153.131945 202.30127,153.210502 L202.54167,153.355419 L202.764724,153.473835 L202.975945,153.573074 L203.269165,153.692298 C203.393712,153.738274 203.519548,153.779043 203.646439,153.814351 L203.881235,153.874448 L204.079252,153.915435 L204.295126,153.950916 L204.502116,153.975751 L204.780202,153.995285 L204.937515,153.99979 C205.608654,154.008599 206.284324,153.88295 206.921694,153.616915 C207.04368,153.566272 207.163923,153.510678 207.281894,153.450075 L207.512592,153.324369 L207.704691,153.206931 C207.950358,153.04898 208.184313,152.867901 208.403181,152.6635 L208.497435,152.573845 C208.64189,152.432827 208.776216,152.284655 208.900288,152.130338 L249.999778,99.523 L249.998778,116.259 L205,185 L159.998778,119.501 Z M59.9997777,99.519 L101.036514,152.050056 L101.182521,152.230527 L101.374296,152.443976 L101.443819,152.515439 C101.543309,152.616332 101.646309,152.712224 101.754738,152.804404 L101.941811,152.957205 C102.059629,153.048393 102.180855,153.133737 102.305189,153.213014 L102.54167,153.355419 L102.764724,153.473835 L102.975945,153.573074 L103.269165,153.692298 C103.393712,153.738274 103.519548,153.779043 103.646439,153.814351 L103.881235,153.874448 L104.079252,153.915435 L104.295126,153.950916 L104.502116,153.975751 L104.780202,153.995285 L104.937515,153.99979 C105.577979,154.008197 106.222569,153.894155 106.833656,153.653041 L107.125197,153.527061 L107.288707,153.446699 L107.512592,153.324369 L107.704691,153.206931 C107.866486,153.102906 108.0232,152.988849 108.17389,152.86467 L108.44677,152.622616 L108.458778,152.609 L108.472421,152.598378 L108.497435,152.573845 C108.64189,152.432827 108.776216,152.284655 108.900288,152.130338 L149.999778,99.523 L149.998778,119.22 L105,182.157258 L59.9987777,122.799 L59.9997777,99.519 Z M259.999778,99.519 L301.036514,152.050056 L301.182521,152.230527 L301.374296,152.443976 L301.443819,152.515439 C301.543309,152.616332 301.646309,152.712224 301.754738,152.804404 L301.941811,152.957205 C302.059629,153.048393 302.180855,153.133737 302.305189,153.213014 L302.54167,153.355419 L302.764724,153.473835 L302.975945,153.573074 L303.269165,153.692298 C303.393712,153.738274 303.519548,153.779043 303.646439,153.814351 L303.881235,153.874448 L304.079252,153.915435 L304.295126,153.950916 L304.502116,153.975751 L304.780202,153.995285 L304.937515,153.99979 C305.577979,154.008197 306.222569,153.894155 306.833656,153.653041 L307.125197,153.527061 L307.288707,153.446699 L307.512592,153.324369 L307.704691,153.206931 C307.866486,153.102906 308.0232,152.988849 308.17389,152.86467 L308.44677,152.622616 L308.458778,152.609 L308.472421,152.598378 L308.497435,152.573845 C308.64189,152.432827 308.776216,152.284655 308.900288,152.130338 L349.999778,99.523 L349.998778,121.04 L305,179.883065 L259.998778,117.06 L259.999778,99.519 Z M359.999778,99.519 L399.999778,150.721 L399.998778,177.949 L359.998778,121.549 L359.999778,99.519 Z M49.9997777,99.523 L49.9987777,122.574 L9.99877772,173.516 L9.99977772,150.721 L49.9997777,99.523 Z M155.002,53.121 L183.029778,89 L173.750778,100.877 L158.942441,81.9218659 C156.940643,79.3594491 153.064107,79.3593644 151.062198,81.9216937 L104.999778,140.878 L58.9424413,81.9218659 C56.9406433,79.3594491 53.0641075,79.3593644 51.0621975,81.9216937 L9.99977772,134.478 L9.99977772,110.721 L55.002,53.121 L101.036514,112.050056 L101.182521,112.230527 L101.374296,112.443976 L101.443819,112.515439 C101.543309,112.616332 101.646309,112.712224 101.754738,112.804404 L101.941811,112.957205 C102.059629,113.048393 102.180855,113.133737 102.305189,113.213014 L102.54167,113.355419 L102.764724,113.473835 L102.975945,113.573074 L103.269165,113.692298 C103.393712,113.738274 103.519548,113.779043 103.646439,113.814351 L103.881235,113.874448 L104.079252,113.915435 L104.295126,113.950916 L104.502116,113.975751 L104.780202,113.995285 L104.937515,113.99979 C105.577979,114.008197 106.222569,113.894155 106.833656,113.653041 L107.125197,113.527061 L107.288707,113.446699 L107.512592,113.324369 L107.704691,113.206931 C107.866486,113.102906 108.0232,112.988849 108.17389,112.86467 L108.472421,112.598378 L108.497435,112.573845 C108.64189,112.432827 108.776216,112.284655 108.900288,112.130338 L155.002,53.121 Z M291.539778,59.89 L300.961912,71.950707 C301.019055,72.0288227 301.078687,72.1055458 301.140796,72.1807567 L329.905778,109 L304.999778,140.878 L259.999778,83.275 L260,83 L259.784778,83 L258.942441,81.9218659 C256.940643,79.3594491 253.064107,79.3593644 251.062198,81.9216937 L250.218778,83 L250,83 L249.999778,83.28 L204.999778,140.878 L180.095778,108.999 L218.460778,59.893 L234.042743,80.0573923 C236.04432,82.6477859 239.953902,82.6478711 241.955593,80.0575648 L254.998778,63.177 L268.042743,80.0573923 C270.04432,82.6477859 273.953902,82.6478711 275.955593,80.0575648 L291.539778,59.89 Z M355.002,53.121 L399.999778,110.721 L399.999778,134.477 L359.999778,83.275 L360,83 L359.784778,83 L358.942441,81.9218659 C356.940643,79.3594491 353.064107,79.3593644 351.062198,81.9216937 L350.218778,83 L350,83 L349.999778,83.28 L336.250778,100.879 L326.952125,88.9756792 C327.07838,88.8459431 327.198877,88.7080668 327.312887,88.5621396 L355.002,53.121 Z M255.003,13.121 L285.189778,51.762 L285.043642,51.9429173 L272,68.823241 L258.890165,51.8575089 L258.796097,51.7445365 L258.624375,51.5548217 L258.488265,51.4172519 L258.399838,51.3329694 L258.237356,51.188452 L258.044819,51.0327019 C257.926842,50.9420388 257.80547,50.8572059 257.681014,50.7784333 L257.445279,50.6375014 C257.270324,50.5395462 257.090326,50.4526751 256.906965,50.3768183 C256.413968,50.1731359 255.898118,50.0530822 255.379349,50.0146111 L255.227637,50.0050049 L255.089054,50.000854 L254.833054,50.0028949 L254.686975,50.0096158 L254.446741,50.0303165 L254.350159,50.0418291 C254.162142,50.0662908 253.974964,50.1015281 253.789568,50.1479589 L253.437953,50.2490688 L253.240173,50.3187568 L253.012405,50.4109671 L252.825953,50.4964434 L252.623779,50.5996462 L252.516126,50.6593374 C252.279521,50.794598 252.05237,50.9502863 251.837475,51.1263341 L251.555858,51.3746497 L251.323819,51.6100157 L251.118284,51.8469067 L238,68.823241 L224.956492,51.9430898 C224.909569,51.8823638 224.861526,51.8230145 224.812412,51.7650485 L255.003,13.121 Z" id="Shape" fill="#61276A"></path>
        <path d="M255.003,13.121 L285.189778,51.762 L285.043642,51.9429173 L272,68.823241 L258.890165,51.8575089 L258.796097,51.7445365 L258.624375,51.5548217 L258.488265,51.4172519 L258.399838,51.3329694 L258.237356,51.188452 L258.044819,51.0327019 C257.926842,50.9420388 257.80547,50.8572059 257.681014,50.7784333 L257.445279,50.6375014 C257.270324,50.5395462 257.090326,50.4526751 256.906965,50.3768183 C256.413968,50.1731359 255.898118,50.0530822 255.379349,50.0146111 L255.227637,50.0050049 L255.089054,50.000854 L254.833054,50.0028949 L254.686975,50.0096158 L254.446741,50.0303165 L254.350159,50.0418291 C254.162142,50.0662908 253.974964,50.1015281 253.789568,50.1479589 L253.437953,50.2490688 L253.240173,50.3187568 L253.012405,50.4109671 L252.825953,50.4964434 L252.623779,50.5996462 L252.516126,50.6593374 C252.279521,50.794598 252.05237,50.9502863 251.837475,51.1263341 L251.555858,51.3746497 L251.323819,51.6100157 L251.118284,51.8469067 L238,68.823241 L224.956492,51.9430898 C224.909569,51.8823638 224.861526,51.8230145 224.812412,51.7650485 L255.003,13.121 Z" id="Path" fill="#FFFFFF"></path>
        <path d="M259.999778,199.519 L301.036514,252.050056 L301.182521,252.230527 L301.374296,252.443976 L301.443819,252.515439 C301.543309,252.616332 301.646309,252.712224 301.754738,252.804404 L301.941811,252.957205 C302.059629,253.048393 302.180855,253.133737 302.305189,253.213014 L302.54167,253.355419 L302.764724,253.473835 L302.975945,253.573074 L303.269165,253.692298 C303.393712,253.738274 303.519548,253.779043 303.646439,253.814351 L303.881235,253.874448 L304.079252,253.915435 L304.295126,253.950916 L304.502116,253.975751 L304.780202,253.995285 L304.937515,253.99979 C305.577979,254.008197 306.222569,253.894155 306.833656,253.653041 L307.125197,253.527061 L307.288707,253.446699 L307.512592,253.324369 L307.704691,253.206931 C307.866486,253.102906 308.0232,252.988849 308.17389,252.86467 L308.44677,252.622616 L308.458778,252.609 L308.472421,252.598378 L308.497435,252.573845 C308.64189,252.432827 308.776216,252.284655 308.900288,252.130338 L349.999778,199.523 L349.999778,233.28 L304.999778,290.878 L259.999778,233.276 L259.999778,199.519 Z M159.999778,199.519 L201.036514,252.050056 L201.182521,252.230527 L201.374296,252.443976 L201.443819,252.515439 C201.543309,252.616332 201.646309,252.712224 201.754738,252.804404 L201.941811,252.957205 C202.058805,253.047755 202.179159,253.132542 202.302576,253.21134 L202.54167,253.355419 L202.764724,253.473835 L202.975945,253.573074 L203.269165,253.692298 C203.393712,253.738274 203.519548,253.779043 203.646439,253.814351 L203.881235,253.874448 L204.079252,253.915435 L204.295126,253.950916 L204.502116,253.975751 L204.780202,253.995285 L204.937515,253.99979 C205.608654,254.008599 206.284324,253.88295 206.921694,253.616915 C207.043213,253.566466 207.163002,253.511104 207.280539,253.450769 L207.512592,253.324369 L207.704691,253.206931 C207.950358,253.04898 208.184313,252.867901 208.403195,252.664105 L208.497435,252.573845 C208.64189,252.432827 208.776216,252.284655 208.900288,252.130338 L249.999778,199.523 L249.999778,233.28 L204.999778,290.878 L159.999778,233.276 L159.999778,199.519 Z M359.999778,199.519 L399.999778,250.721 L399.999778,284.477 L359.999778,233.276 L359.999778,199.519 Z M149.999778,199.523 L149.999778,233.28 L109.999778,284.478 L109.999778,250.721 L149.999778,199.523 Z M159.999778,149.519 L201.036514,202.050056 L201.182521,202.230527 L201.374296,202.443976 L201.443819,202.515439 C201.543309,202.616332 201.646309,202.712224 201.754738,202.804404 L201.941811,202.957205 C202.058805,203.047755 202.179159,203.132542 202.302576,203.21134 L202.54167,203.355419 L202.764724,203.473835 L202.975945,203.573074 L203.269165,203.692298 C203.393712,203.738274 203.519548,203.779043 203.646439,203.814351 L203.881235,203.874448 L204.079252,203.915435 L204.295126,203.950916 L204.502116,203.975751 L204.780202,203.995285 L204.937515,203.99979 C205.608654,204.008599 206.284324,203.88295 206.921694,203.616915 C207.043213,203.566466 207.163002,203.511104 207.280539,203.450769 L207.512592,203.324369 L207.704691,203.206931 C207.950358,203.04898 208.184313,202.867901 208.403195,202.664105 L208.497435,202.573845 C208.64189,202.432827 208.776216,202.284655 208.900288,202.130338 L249.999778,149.523 L249.999778,183.28 L204.999778,240.878 L159.999778,183.276 L159.999778,149.519 Z M59.9997777,149.519 L101.036514,202.050056 L101.182521,202.230527 L101.374296,202.443976 L101.443819,202.515439 C101.543309,202.616332 101.646309,202.712224 101.754738,202.804404 L101.941811,202.957205 C102.059629,203.048393 102.180855,203.133737 102.305189,203.213014 L102.54167,203.355419 L102.764724,203.473835 L102.975945,203.573074 L103.269165,203.692298 C103.393712,203.738274 103.519548,203.779043 103.646439,203.814351 L103.881235,203.874448 L104.079252,203.915435 L104.295126,203.950916 L104.502116,203.975751 L104.780202,203.995285 L104.937515,203.99979 C105.608654,204.008599 106.284324,203.88295 106.921694,203.616915 C107.043213,203.566466 107.163002,203.511104 107.280539,203.450769 L107.512592,203.324369 L107.704691,203.206931 C107.866486,203.102906 108.0232,202.988849 108.17389,202.86467 L108.44677,202.622616 L108.458778,202.609 L108.472421,202.598378 L108.497435,202.573845 C108.64189,202.432827 108.776216,202.284655 108.900288,202.130338 L149.999778,149.523 L149.999778,183.28 L104.999778,240.878 L84.9997777,215.277 L85,191.5 L75,191.5 L74.9997777,202.477 L59.9997777,183.276 L59.9997777,149.519 Z M259.999778,149.519 L301.036514,202.050056 L301.182521,202.230527 L301.374296,202.443976 L301.443819,202.515439 C301.543309,202.616332 301.646309,202.712224 301.754738,202.804404 L301.941811,202.957205 C302.059629,203.048393 302.180855,203.133737 302.305189,203.213014 L302.54167,203.355419 L302.764724,203.473835 L302.975945,203.573074 L303.269165,203.692298 C303.393712,203.738274 303.519548,203.779043 303.646439,203.814351 L303.881235,203.874448 L304.079252,203.915435 L304.295126,203.950916 L304.502116,203.975751 L304.780202,203.995285 L304.937515,203.99979 C305.577979,204.008197 306.222569,203.894155 306.833656,203.653041 L307.125197,203.527061 L307.288707,203.446699 L307.512592,203.324369 L307.704691,203.206931 C307.866486,203.102906 308.0232,202.988849 308.17389,202.86467 L308.44677,202.622616 L308.458778,202.609 L308.472421,202.598378 L308.497435,202.573845 C308.64189,202.432827 308.776216,202.284655 308.900288,202.130338 L349.999778,149.523 L349.999778,183.28 L304.999778,240.878 L259.999778,183.276 L259.999778,149.519 Z M49.9997777,149.523 L49.9997777,183.28 L9.99977772,234.478 L9.99977772,200.721 L49.9997777,149.523 Z M359.999778,149.519 L399.999778,200.721 L399.999778,234.477 L359.999778,183.276 L359.999778,149.519 Z M259.999778,99.519 L301.036514,152.050056 L301.182521,152.230527 L301.374296,152.443976 L301.443819,152.515439 C301.543309,152.616332 301.646309,152.712224 301.754738,152.804404 L301.941811,152.957205 C302.059629,153.048393 302.180855,153.133737 302.305189,153.213014 L302.54167,153.355419 L302.764724,153.473835 L302.975945,153.573074 L303.269165,153.692298 C303.393712,153.738274 303.519548,153.779043 303.646439,153.814351 L303.881235,153.874448 L304.079252,153.915435 L304.295126,153.950916 L304.502116,153.975751 L304.780202,153.995285 L304.937515,153.99979 C305.577979,154.008197 306.222569,153.894155 306.833656,153.653041 L307.125197,153.527061 L307.288707,153.446699 L307.512592,153.324369 L307.704691,153.206931 C307.866486,153.102906 308.0232,152.988849 308.17389,152.86467 L308.44677,152.622616 L308.458778,152.609 L308.472421,152.598378 L308.497435,152.573845 C308.64189,152.432827 308.776216,152.284655 308.900288,152.130338 L349.999778,99.523 L349.999778,133.28 L304.999778,190.878 L259.999778,133.276 L259.999778,99.519 Z M59.9997777,99.519 L101.036514,152.050056 L101.182521,152.230527 L101.374296,152.443976 L101.443819,152.515439 C101.543309,152.616332 101.646309,152.712224 101.754738,152.804404 L101.941811,152.957205 C102.059629,153.048393 102.180855,153.133737 102.305189,153.213014 L102.54167,153.355419 L102.764724,153.473835 L102.975945,153.573074 L103.269165,153.692298 C103.393712,153.738274 103.519548,153.779043 103.646439,153.814351 L103.881235,153.874448 L104.079252,153.915435 L104.295126,153.950916 L104.502116,153.975751 L104.780202,153.995285 L104.937515,153.99979 C105.577979,154.008197 106.222569,153.894155 106.833656,153.653041 L107.125197,153.527061 L107.288707,153.446699 L107.512592,153.324369 L107.704691,153.206931 C107.866486,153.102906 108.0232,152.988849 108.17389,152.86467 L108.44677,152.622616 L108.458778,152.609 L108.472421,152.598378 L108.497435,152.573845 C108.64189,152.432827 108.776216,152.284655 108.900288,152.130338 L149.999778,99.523 L149.999778,133.28 L104.999778,190.878 L59.9997777,133.276 L59.9997777,99.519 Z M159.999778,133.276 L159.999778,99.519 L201.036514,152.050056 L201.182521,152.230527 L201.374296,152.443976 L201.443819,152.515439 C201.543309,152.616332 201.646309,152.712224 201.754738,152.804404 L201.941811,152.957205 C202.058393,153.047436 202.178311,153.131945 202.30127,153.210502 L202.54167,153.355419 L202.764724,153.473835 L202.975945,153.573074 L203.269165,153.692298 C203.393712,153.738274 203.519548,153.779043 203.646439,153.814351 L203.881235,153.874448 L204.079252,153.915435 L204.295126,153.950916 L204.502116,153.975751 L204.780202,153.995285 L204.937515,153.99979 C205.608654,154.008599 206.284324,153.88295 206.921694,153.616915 C207.04368,153.566272 207.163923,153.510678 207.281894,153.450075 L207.512592,153.324369 L207.704691,153.206931 C207.950358,153.04898 208.184313,152.867901 208.403181,152.6635 L208.497435,152.573845 C208.64189,152.432827 208.776216,152.284655 208.900288,152.130338 L249.999778,99.523 L249.999778,133.28 L204.999778,190.878 L159.999778,133.276 Z M49.9997777,99.523 L49.9997777,133.28 L9.99977772,184.478 L9.99977772,150.721 L49.9997777,99.523 Z M359.999778,99.519 L399.999778,150.721 L399.999778,184.477 L359.999778,133.276 L359.999778,99.519 Z" id="Shape" fill="#039016"></path>
        <path d="M249.999778,251.093 L250.000381,257.041284 L249.691258,258.680727 C248.508462,264.877522 247.350688,270.065303 246.217489,274.243561 C245.871913,274.890389 245.681332,275.590718 245.640596,276.294713 L245.335627,277.312285 C244.371846,280.455889 243.426637,282.851794 242.5,284.5 C240.456062,288.135546 237.318845,291.302571 233.088351,294.001075 L216.287,294 L249.999778,251.093 Z M259.999778,249.82 L294.712,294 L259.999778,294 L259.999778,271.157427 L260.002447,271.019974 L259.999778,249.82 Z" id="Shape" fill="#FF6408"></path>
        <path d="M355,275.122 L364.670778,287.501 L355.001,299.879222 L345.329778,287.5 L355,275.122 Z M355.002,243.121 L377.170778,271.499 L371.015778,279.378 L358.94135,263.921866 C356.939552,261.359449 353.063017,261.359364 351.061107,263.921694 L338.983778,279.378 L332.829778,271.5 L355.002,243.121 Z" id="Shape" fill="#CA0012"></path>
        <polygon id="Path" fill="#FFC400" points="355 275.122 364.670778 287.501 355.001 299.879222 345.329778 287.5"></polygon>
        <path d="M355.002,313.121 L399.999778,370.721 L399.999778,394.477 L358.942441,341.921866 C356.940643,339.359449 353.064107,339.359364 351.062198,341.921694 L304.999778,400.878 L258.942441,341.921866 C256.940643,339.359449 253.064107,339.359364 251.062198,341.921694 L204.999778,400.878 L158.942441,341.921866 C156.940643,339.359449 153.064107,339.359364 151.062198,341.921694 L104.999778,400.878 L58.9424413,341.921866 C56.9406433,339.359449 53.0641075,339.359364 51.0621975,341.921694 L9.99977772,394.478 L9.99977772,370.721 L55.002,313.121 L101.036514,372.050056 L101.182521,372.230527 L101.374296,372.443976 L101.443819,372.515439 C101.543309,372.616332 101.646309,372.712224 101.754738,372.804404 L101.941811,372.957205 C102.058393,373.047436 102.178311,373.131945 102.30127,373.210502 L102.54167,373.355419 L102.764724,373.473835 L102.975945,373.573074 L103.269165,373.692298 C103.393712,373.738274 103.519548,373.779043 103.646439,373.814351 L103.881235,373.874448 L104.079252,373.915435 L104.295126,373.950916 L104.502116,373.975751 L104.780202,373.995285 L104.937515,373.99979 C105.608654,374.008599 106.284324,373.88295 106.921694,373.616915 C107.043213,373.566466 107.163002,373.511104 107.280539,373.450769 L107.512592,373.324369 L107.704691,373.206931 C107.950358,373.04898 108.184313,372.867901 108.403181,372.6635 L108.497435,372.573845 C108.64189,372.432827 108.776216,372.284655 108.900288,372.130338 L155.002,313.121 L201.036514,372.050056 L201.182521,372.230527 L201.374296,372.443976 L201.443819,372.515439 C201.543309,372.616332 201.646309,372.712224 201.754738,372.804404 L201.941811,372.957205 C202.059629,373.048393 202.180855,373.133737 202.305189,373.213014 L202.54167,373.355419 L202.764724,373.473835 L202.975945,373.573074 L203.269165,373.692298 C203.393712,373.738274 203.519548,373.779043 203.646439,373.814351 L203.881235,373.874448 L204.079252,373.915435 L204.295126,373.950916 L204.502116,373.975751 L204.780202,373.995285 L204.937515,373.99979 C205.577979,374.008197 206.222569,373.894155 206.833656,373.653041 L207.125197,373.527061 L207.288707,373.446699 L207.512592,373.324369 L207.704691,373.206931 C207.866486,373.102906 208.0232,372.988849 208.17389,372.86467 L208.44677,372.622616 L208.458778,372.609 L208.472421,372.598378 L208.497435,372.573845 C208.64189,372.432827 208.776216,372.284655 208.900288,372.130338 L255.002,313.121 L301.036514,372.050056 L301.182521,372.230527 L301.374296,372.443976 L301.443819,372.515439 C301.543309,372.616332 301.646309,372.712224 301.754738,372.804404 L301.941811,372.957205 C302.058393,373.047436 302.178311,373.131945 302.30127,373.210502 L302.54167,373.355419 L302.764724,373.473835 L302.975945,373.573074 L303.269165,373.692298 C303.393712,373.738274 303.519548,373.779043 303.646439,373.814351 L303.881235,373.874448 L304.079252,373.915435 L304.295126,373.950916 L304.502116,373.975751 L304.780202,373.995285 L304.937515,373.99979 C305.644721,374.009073 306.356959,373.869056 307.023878,373.573153 L307.243005,373.469887 L307.512592,373.324369 L307.704691,373.206931 C307.866486,373.102906 308.0232,372.988849 308.17389,372.86467 L308.44677,372.622616 L308.458778,372.609 L308.472421,372.598378 L308.497435,372.573845 C308.64189,372.432827 308.776216,372.284655 308.900288,372.130338 L355.002,313.121 Z" id="Path" fill="#00AEE7"></path>
        <path d="M55.002,243.121 L94.7487777,294 L64.9997777,294 L65,269 C65,267.895431 64.1045695,267 63,267 L47,267 C45.8954305,267 45,267.895431 45,269 L44.9997777,294 L15.2507777,294 L55.002,243.121 Z M59.9997777,199.519 L99.9997777,250.721 L99.9997777,284.477 L59.9997777,233.275 L59.9997777,199.519 Z M49.9997777,199.523 L49.9997777,233.28 L9.99977772,284.478 L9.99977772,250.721 L49.9997777,199.523 Z" id="Shape" fill="#99421C"></path>
    </g>
</svg>