<?xml version="1.0" encoding="UTF-8"?>
<!--
Some icons by @fontawesome - https://fontawesome.com
License - https://fontawesome.com/license (Icons: CC BY 4.0, Fonts: SIL OFL 1.1, Code: MIT License)
-->
<svg xmlns="http://www.w3.org/2000/svg" style="display: none;">
  <symbol id="bluesky" viewBox="0 0 512 512">
    <path d="M111.8 62.2C170.2 105.9 233 194.7 256 242.4c23-47.6 85.8-136.4 144.2-180.2c42.1-31.6 110.3-56 110.3 21.8c0 15.5-8.9 130.5-14.1 149.2C478.2 298 412 314.6 353.1 304.5c102.9 17.5 129.1 75.5 72.5 133.5c-107.4 110.2-154.3-27.6-166.3-62.9l0 0c-1.7-4.9-2.6-7.8-3.3-7.8s-1.6 3-3.3 7.8l0 0c-12 35.3-59 173.1-166.3 62.9c-56.5-58-30.4-116 72.5-133.5C100 314.6 33.8 298 15.7 233.1C10.4 214.4 1.5 99.4 1.5 83.9c0-77.8 68.2-53.4 110.3-21.8z"/>
  </symbol>
  <symbol id="envelope" viewBox="0 0 512 512">
    <path d="M502.3 190.8c3.9-3.1 9.7-.2 9.7 4.7V400c0 26.5-21.5 48-48 48H48c-26.5 0-48-21.5-48-48V195.6c0-5 5.7-7.8 9.7-4.7 22.4 17.4 52.1 39.5 154.1 113.6 21.1 15.4 56.7 47.8 92.2 47.6 35.7.3 72-32.8 92.3-47.6 102-74.1 131.6-96.3 154-113.7zM256 320c23.2.4 56.6-29.2 73.4-41.4 132.7-96.3 142.8-104.7 173.4-128.7 5.8-4.5 9.2-11.5 9.2-18.9v-19c0-26.5-21.5-48-48-48H48C21.5 64 0 85.5 0 112v19c0 7.4 3.4 14.3 9.2 18.9 30.6 23.9 40.7 32.4 173.4 128.7 16.8 12.2 50.2 41.8 73.4 41.4z"></path>
  </symbol>
  <symbol id="facebook" viewBox="0 0 512 512">
    <path d="M504 256C504 119 393 8 256 8S8 119 8 256c0 123.78 90.69 226.38 209.25 245V327.69h-63V256h63v-54.64c0-62.15 37-96.48 93.67-96.48 27.14 0 55.52 4.84 55.52 4.84v61h-31.28c-30.8 0-40.41 19.12-40.41 38.73V256h68.78l-11 71.69h-57.78V501C413.31 482.38 504 379.78 504 256z"/>
  </symbol>
  <symbol id="github" viewBox="0 0 496 512">
    <path d="M165.9 397.4c0 2-2.3 3.6-5.2 3.6-3.3.3-5.6-1.3-5.6-3.6 0-2 2.3-3.6 5.2-3.6 3-.3 5.6 1.3 5.6 3.6zm-31.1-4.5c-.7 2 1.3 4.3 4.3 4.9 2.6 1 5.6 0 6.2-2s-1.3-4.3-4.3-5.2c-2.6-.7-5.5.3-6.2 2.3zm44.2-1.7c-2.9.7-4.9 2.6-4.6 4.9.3 2 2.9 3.3 5.9 2.6 2.9-.7 4.9-2.6 4.6-4.6-.3-1.9-3-3.2-5.9-2.9zM244.8 8C106.1 8 0 113.3 0 252c0 110.9 69.8 205.8 169.5 239.2 12.8 2.3 17.3-5.6 17.3-12.1 0-6.2-.3-40.4-.3-61.4 0 0-70 15-84.7-29.8 0 0-11.4-29.1-27.8-36.6 0 0-22.9-15.7 1.6-15.4 0 0 24.9 2 38.6 25.8 21.9 38.6 58.6 27.5 72.9 20.9 2.3-16 8.8-27.1 16-33.7-55.9-6.2-112.3-14.3-112.3-110.5 0-27.5 7.6-41.3 23.6-58.9-2.6-6.5-11.1-33.3 2.6-67.9 20.9-6.5 69 27 69 27 20-5.6 41.5-8.5 62.8-8.5s42.8 2.9 62.8 8.5c0 0 48.1-33.6 69-27 13.7 34.7 5.2 61.4 2.6 67.9 16 17.7 25.8 31.5 25.8 58.9 0 96.5-58.9 104.2-114.8 110.5 9.2 7.9 17 22.9 17 46.4 0 33.7-.3 75.4-.3 83.6 0 6.5 4.6 14.4 17.3 12.1C428.2 457.8 496 362.9 496 252 496 113.3 383.5 8 244.8 8zM97.2 352.9c-1.3 1-1 3.3.7 5.2 1.6 1.6 3.9 2.3 5.2 1 1.3-1 1-3.3-.7-5.2-1.6-1.6-3.9-2.3-5.2-1zm-10.8-8.1c-.7 1.3.3 2.9 2.3 3.9 1.6 1 3.6.7 4.3-.7.7-1.3-.3-2.9-2.3-3.9-2-.6-3.6-.3-4.3.7zm32.4 35.6c-1.6 1.3-1 4.3 1.3 6.2 2.3 2.3 5.2 2.6 6.5 1 1.3-1.3.7-4.3-1.3-6.2-2.2-2.3-5.2-2.6-6.5-1zm-11.4-14.7c-1.6 1-1.6 3.6 0 5.9 1.6 2.3 4.3 3.3 5.6 2.3 1.6-1.3 1.6-3.9 0-6.2-1.4-2.3-4-3.3-5.6-2z"></path>
  </symbol>
  <symbol id="instagram" viewBox="0 0 448 512">
    <path d="M224.1 141c-63.6 0-114.9 51.3-114.9 114.9s51.3 114.9 114.9 114.9S339 319.5 339 255.9 287.7 141 224.1 141zm0 189.6c-41.1 0-74.7-33.5-74.7-74.7s33.5-74.7 74.7-74.7 74.7 33.5 74.7 74.7-33.6 74.7-74.7 74.7zm146.4-194.3c0 14.9-12 26.8-26.8 26.8-14.9 0-26.8-12-26.8-26.8s12-26.8 26.8-26.8 26.8 12 26.8 26.8zm76.1 27.2c-1.7-35.9-9.9-67.7-36.2-93.9-26.2-26.2-58-34.4-93.9-36.2-37-2.1-147.9-2.1-184.9 0-35.8 1.7-67.6 9.9-93.9 36.1s-34.4 58-36.2 93.9c-2.1 37-2.1 147.9 0 184.9 1.7 35.9 9.9 67.7 36.2 93.9s58 34.4 93.9 36.2c37 2.1 147.9 2.1 184.9 0 35.9-1.7 67.7-9.9 93.9-36.2 26.2-26.2 34.4-58 36.2-93.9 2.1-37 2.1-147.8 0-184.8zM398.8 388c-7.8 19.6-22.9 34.7-42.6 42.6-29.5 11.7-99.5 9-132.1 9s-102.7 2.6-132.1-9c-19.6-7.8-34.7-22.9-42.6-42.6-11.7-29.5-9-99.5-9-132.1s-2.6-102.7 9-132.1c7.8-19.6 22.9-34.7 42.6-42.6 29.5-11.7 99.5-9 132.1-9s102.7-2.6 132.1 9c19.6 7.8 34.7 22.9 42.6 42.6 11.7 29.5 9 99.5 9 132.1s2.7 102.7-9 132.1z"></path>
  </symbol>
  <symbol id="ko-fi" viewBox="0 0 211 163">
    <path d="M101.721194,0.159451038 C127.83249,0.172910761 139.724555,0.434544115 149.622482,1.11957978 L150.294394,1.16694491 C150.963503,1.21497025 151.624634,1.26498241 152.28166,1.31703691 L152.937463,1.36977426 L153.59139,1.42388551 L154.377986,1.49092214 C156.081772,1.63836371 157.7858,1.800127 159.559,1.9772 C191.617,5.1576 210.255,24.937 210.255,53.3577 L210.255,56.9941 C210.255,83.3687 190.932,104.966 164.786,107.234 C162.74,114.058 159.559,120.874 155.238,127.698 C145.235,143.156 125.228,162.707 88.4,162.707 L81.1264,162.707 C51.1155,162.707 27.9277,149.751 14.0595,126.107 C1.7814,105.422 0.1912,82.4563 0.1912,51.7674 C0.1975,21.5285 18.3866,5.164 39.7559,2.4334 C55.3116891,0.461414545 74.4560337,0.177893455 96.9797231,0.159881323 L101.721194,0.159451038 Z M101.531157,17.2088597 L99.538,17.2084 C74.7602,17.2084 57.0272,17.4364 43.6152,19.4828 C24.7483,22.2134 17.2407,32.8951 17.2407,51.9899 C17.2469,81.3168 19.0654,100.184 28.6127,117.689 C39.5225,137.924 59.3018,145.653 81.8117,145.653 L88.857,145.653 C118.411,145.653 132.736,131.329 140.693,118.829 C144.558,112.462 147.966,105.417 149.784,96.547 L151.147,90.864 L159.332,90.864 C177.521,90.864 193.208,76.09 193.208,57.2166 L193.208,53.8082 C193.208,32.6669 180.024,21.5228 157.058,18.7987 C155.63284,18.673949 154.270915,18.5574006 152.926531,18.4487597 L152.194695,18.3902835 C152.072921,18.3806675 151.951223,18.3711165 151.829567,18.3616302 L151.099861,18.3054866 L150.79997,18.2828675 L150.199405,18.2384071 C140.478163,17.52799 130.049802,17.2222271 101.531157,17.2088597 Z M106.599,38.8115 C122.286,38.8115 133.195,51.7673 133.195,66.3198 C133.195,79.7383 125.694,91.332 115.919,100.424 C109.779,106.562 99.782,112.93 92.959,117.022 C91.134,118.157 88.866,118.841 86.136,118.841 C83.8611,118.841 81.8147,118.157 79.7685,117.022 C72.9515,112.93 62.9478,106.562 56.5807,100.424 C47.0332,91.326 39.5321,79.732 39.5321,66.3198 C39.5256,51.7673 49.9855,38.8115 65.9001,38.8115 C75.2259,38.8115 81.8147,43.582 86.136,50.1772 C90.912,43.5882 97.28,38.8115 106.599,38.8115 Z M156.841,37.2195 C168.435,37.2195 174.802,44.0427 174.802,54.9523 C174.802,65.8619 168.435,72.4572 156.841,72.4572 C153.204,72.4572 151.158,70.4107 151.158,67.6801 L151.158,41.9963 C151.158,39.2657 153.204,37.2195 156.841,37.2195 Z"></path>
  </symbol>
  <symbol id="linkedin" viewBox="0 0 448 512">
    <path d="M416 32H31.9C14.3 32 0 46.5 0 64.3v383.4C0 465.5 14.3 480 31.9 480H416c17.6 0 32-14.5 32-32.3V64.3c0-17.8-14.4-32.3-32-32.3zM135.4 416H69V202.2h66.5V416zm-33.2-243c-21.3 0-38.5-17.3-38.5-38.5S80.9 96 102.2 96c21.2 0 38.5 17.3 38.5 38.5 0 21.3-17.2 38.5-38.5 38.5zm282.1 243h-66.4V312c0-24.8-.5-56.7-34.5-56.7-34.6 0-39.9 27-39.9 54.9V416h-66.4V202.2h63.7v29.2h.9c8.9-16.8 30.6-34.5 62.9-34.5 67.2 0 79.7 44.3 79.7 101.9V416z"></path>
  </symbol>
  <symbol id="mastodon" viewBox="0 0 417.8 512">
    <path d="M417.8 179.1c0-97.2-63.7-125.7-63.7-125.7-62.5-28.7-228.5-28.4-290.4 0 0 0-63.7 28.5-63.7 125.7 0 115.7-6.6 259.4 105.6 289.1 40.5 10.7 75.3 13 103.3 11.4 50.8-2.8 79.3-18.1 79.3-18.1l-1.7-36.9s-36.3 11.4-77.1 10.1c-40.4-1.4-83-4.4-89.6-54-.6-4.4-.9-9-.9-13.9 85.6 20.9 158.6 9.1 178.7 6.7 56.1-6.7 105-41.3 111.2-72.9 9.8-49.8 9-121.5 9-121.5zm-75.1 125.2h-46.6V190.1c0-49.7-64-51.6-64 6.9v62.5h-46.3V197c0-58.5-64-56.6-64-6.9v114.2H75.1c0-122.1-5.2-147.9 18.4-175 25.9-28.9 79.8-30.8 103.8 6.1l11.6 19.5 11.6-19.5c24.1-37.1 78.1-34.8 103.8-6.1 23.7 27.3 18.4 53 18.4 175z"></path>
  </symbol>
  <symbol id="medium" viewBox="0 0 448 512">
    <path d="M0 32v448h448V32H0zm372.2 106.1l-24 23c-2.1 1.6-3.1 4.2-2.7 6.7v169.3c-.4 2.6.6 5.2 2.7 6.7l23.5 23v5.1h-118V367l24.3-23.6c2.4-2.4 2.4-3.1 2.4-6.7V199.8l-67.6 171.6h-9.1L125 199.8v115c-.7 4.8 1 9.7 4.4 13.2l31.6 38.3v5.1H71.2v-5.1l31.6-38.3c3.4-3.5 4.9-8.4 4.1-13.2v-133c.4-3.7-1-7.3-3.8-9.8L75 138.1V133h87.3l67.4 148L289 133.1h83.2v5z"></path>
  </symbol>
  <symbol id="medium-m" viewBox="0 0 512 512">
    <path d="M71.5 142.3c.6-5.9-1.7-11.8-6.1-15.8L20.3 72.1V64h140.2l108.4 237.7L364.2 64h133.7v8.1l-38.6 37c-3.3 2.5-5 6.7-4.3 10.8v272c-.7 4.1 1 8.3 4.3 10.8l37.7 37v8.1H307.3v-8.1l39.1-37.9c3.8-3.8 3.8-5 3.8-10.8V171.2L241.5 447.1h-14.7L100.4 171.2v184.9c-1.1 7.8 1.5 15.6 7 21.2l50.8 61.6v8.1h-144v-8L65 377.3c5.4-5.6 7.9-13.5 6.5-21.2V142.3z"></path>
  </symbol>
  <symbol id="openstreetmap" viewBox="0 0 311 311">
    <g transform="translate(17, 17)">
      <path d="M220.709641,162.803613 L220.055858,163.026737 L218.826569,163.429981 C218.396228,163.567457 217.964518,163.701505 217.531958,163.831974 L216.429571,164.15621 L215.054716,164.537637 L213.822334,164.85818 L212.537007,165.171271 L211.210145,165.47203 L210.259365,165.673665 L209.473771,165.831602 L208.407415,166.033532 L207.056334,166.268945 L206.257213,166.397516 L205.502096,166.511764 C204.974648,166.589119 204.446456,166.661453 203.917692,166.728752 L202.98717,166.841924 L202.146464,166.935144 L201.087484,167.040423 L200.231725,167.115642 L199.666168,167.160533 L198.66695,167.230493 L197.450387,167.299589 L196.419805,167.34434 L195.365568,167.377066 L194.55522,167.39326 L193.633707,167.402218 L192.84315,167.401887 L191.985628,167.393158 L190.712954,167.364143 L189.365469,167.312489 L188.362077,167.260017 L188.208573,167.250934 C187.818595,167.227502 187.428539,167.201346 187.038642,167.17248 L185.717611,167.064247 L184.351467,166.930314 L183.698708,166.858389 L182.865419,166.759091 C182.104093,166.66453 181.343488,166.55951 180.584151,166.444072 L179.966674,166.347858 L179.115638,166.207554 L178.054486,166.020044 L176.876423,165.795427 L175.910817,165.598309 L175.199735,165.445602 L166.124238,178.026978 C151.297733,172.436407 141.96773,164.939782 136.658549,159.476618 L136.404785,159.213875 L124.641738,170.976471 L124.641738,183.440605 L31.1605731,276.921563 L0,245.761244 L93.4812115,152.280621 L105.945658,152.280621 L117.747646,140.47869 L117.239259,140.000939 C111.74412,134.774972 103.978524,125.373236 98.2333269,110.136805 L111.242769,100.710609 C105.737654,74.0388092 113.292392,45.2209131 133.989842,24.5234977 L134.434687,24.0819011 L135.214743,23.3229429 L136.143906,22.4437135 L137.08194,21.5824346 L137.527466,21.1823451 L138.138938,20.6424 L138.539925,20.2939682 L139.252803,19.6853332 L139.846336,19.1889236 L140.256391,18.8513379 C140.865804,18.3528525 141.480314,17.8644768 142.09999,17.385978 L142.81125,16.8428021 L143.596502,16.2569298 L143.761454,16.135669 C176.519716,-7.88287909 222.78975,-5.0865558 252.399721,24.5234977 C285.097452,57.2214554 285.097678,110.235425 252.39954,142.932332 C249.859131,145.472774 247.196338,147.814952 244.430156,149.959081 C244.012903,150.282493 243.593749,150.601069 243.172463,150.91504 L242.246073,151.595561 L241.199378,152.341152 L240.063639,153.123067 L239.524284,153.484772 L238.926931,153.878296 L238.097454,154.412626 L237.305124,154.910136 L236.727682,155.264932 L235.702198,155.87917 L235.120678,156.218638 L234.556256,156.542106 L233.989602,156.860971 C233.66311,157.04301 233.335669,157.222682 233.007292,157.399993 C232.568758,157.636788 232.128189,157.869561 231.686008,158.098118 L230.471466,158.713305 L229.410723,159.230303 L228.318295,159.74341 L227.816432,159.972667 L226.554855,160.531303 L225.282579,161.069535 L224.00508,161.585117 L223.846417,161.647438 C223.409634,161.818484 222.971822,161.985668 222.532911,162.149038 L221.660599,162.46819 L220.709641,162.803613 Z M249.973707,164.503885 L250.358095,165.510471 L230.559775,217.479425 L178.590185,237.275478 L126.620723,217.479425 L102.705212,226.588228 L139.641738,189.653819 L139.641,181.3 L139.779277,181.393816 C145.876145,185.449146 152.878877,189.063517 160.831973,192.06236 L171.573549,196.112643 L181.929,181.756 L182.810768,181.854449 C206.513718,184.373174 230.375647,178.291497 249.973707,164.503885 Z M126.620262,9.60122769 L127.572102,9.96159996 C126.147127,11.2315746 124.750126,12.5500087 123.383234,13.9169023 L122.674279,14.6330449 C102.001953,35.7267941 92.2210848,64.4384661 94.9426419,93.0381801 L95.032,93.932 L80.1565029,104.711046 L84.197963,115.429117 L84.5208892,116.275716 C87.556318,124.142858 91.1903195,131.045917 95.2527168,137.045622 L95.413,137.28 L87.2680358,137.280621 L32.2882115,192.260228 L42.4794808,165.508832 L22.6812115,113.539925 L42.4794808,61.5707746 L22.6812115,9.60122769 L74.6508115,29.3995477 L126.620262,9.60122769 Z M237.442604,39.4807592 C213.005273,15.0432023 173.384515,15.0432023 148.946873,39.4807592 C124.509588,63.9183092 124.509588,103.538663 148.946873,127.975902 C173.384285,152.413175 213.005273,152.413175 237.442604,127.975902 C261.880021,103.538663 261.880021,63.9183092 237.442604,39.4807592 Z"></path>
    </g>
  </symbol>
  <symbol id="patreon" viewBox="0 0 512 512">
    <path d="M512 194.8c0 101.3-82.4 183.8-183.8 183.8-101.7 0-184.4-82.4-184.4-183.8 0-101.6 82.7-184.3 184.4-184.3C429.6 10.5 512 93.2 512 194.8zM0 501.5h90v-491H0v491z"></path>
  </symbol>
  <symbol id="paypal" viewBox="0 0 384 512">
    <path d="M111.4 295.9c-3.5 19.2-17.4 108.7-21.5 134-.3 1.8-1 2.5-3 2.5H12.3c-7.6 0-13.1-6.6-12.1-13.9L58.8 46.6c1.5-9.6 10.1-16.9 20-16.9 152.3 0 165.1-3.7 204 11.4 60.1 23.3 65.6 79.5 44 140.3-21.5 62.6-72.5 89.5-140.1 90.3-43.4.7-69.5-7-75.3 24.2zM357.1 152c-1.8-1.3-2.5-1.8-3 1.3-2 11.4-5.1 22.5-8.8 33.6-39.9 113.8-150.5 103.9-204.5 103.9-6.1 0-10.1 3.3-10.9 9.4-22.6 140.4-27.1 169.7-27.1 169.7-1 7.1 3.5 12.9 10.6 12.9h63.5c8.6 0 15.7-6.3 17.4-14.9.7-5.4-1.1 6.1 14.4-91.3 4.6-22 14.3-19.7 29.3-19.7 71 0 126.4-28.8 142.9-112.3 6.5-34.8 4.6-71.4-23.8-92.6z"></path>
  </symbol>
  <symbol id="reddit" viewBox="0 0 512 512">
    <path d="M201.5 305.5c-13.8 0-24.9-11.1-24.9-24.6 0-13.8 11.1-24.9 24.9-24.9 13.6 0 24.6 11.1 24.6 24.9 0 13.6-11.1 24.6-24.6 24.6zM504 256c0 137-111 248-248 248S8 393 8 256 119 8 256 8s248 111 248 248zm-132.3-41.2c-9.4 0-17.7 3.9-23.8 10-22.4-15.5-52.6-25.5-86.1-26.6l17.4-78.3 55.4 12.5c0 13.6 11.1 24.6 24.6 24.6 13.8 0 24.9-11.3 24.9-24.9s-11.1-24.9-24.9-24.9c-9.7 0-18 5.8-22.1 13.8l-61.2-13.6c-3-.8-6.1 1.4-6.9 4.4l-19.1 86.4c-33.2 1.4-63.1 11.3-85.5 26.8-6.1-6.4-14.7-10.2-24.1-10.2-34.9 0-46.3 46.9-14.4 62.8-1.1 5-1.7 10.2-1.7 15.5 0 52.6 59.2 95.2 132 95.2 73.1 0 132.3-42.6 132.3-95.2 0-5.3-.6-10.8-1.9-15.8 31.3-16 19.8-62.5-14.9-62.5zM302.8 331c-18.2 18.2-76.1 17.9-93.6 0-2.2-2.2-6.1-2.2-8.3 0-2.5 2.5-2.5 6.4 0 8.6 22.8 22.8 87.3 22.8 110.2 0 2.5-2.2 2.5-6.1 0-8.6-2.2-2.2-6.1-2.2-8.3 0zm7.7-75c-13.6 0-24.6 11.1-24.6 24.9 0 13.6 11.1 24.6 24.6 24.6 13.8 0 24.9-11.1 24.9-24.6 0-13.8-11-24.9-24.9-24.9z"></path>
  </symbol>
  <symbol id="rss" viewBox="64 64 512 512">
    <path d="M160 96C124.7 96 96 124.7 96 160L96 480C96 515.3 124.7 544 160 544L480 544C515.3 544 544 515.3 544 480L544 160C544 124.7 515.3 96 480 96L160 96zM192 200C192 186.7 202.7 176 216 176C353 176 464 287 464 424C464 437.3 453.3 448 440 448C426.7 448 416 437.3 416 424C416 313.5 326.5 224 216 224C202.7 224 192 213.3 192 200zM192 296C192 282.7 202.7 272 216 272C299.9 272 368 340.1 368 424C368 437.3 357.3 448 344 448C330.7 448 320 437.3 320 424C320 366.6 273.4 320 216 320C202.7 320 192 309.3 192 296zM192 416C192 398.3 206.3 384 224 384C241.7 384 256 398.3 256 416C256 433.7 241.7 448 224 448C206.3 448 192 433.7 192 416z"></path>
  </symbol>
  <symbol id="slack" viewBox="0 0 448 512">
    <path d="M94.12 315.1c0 25.9-21.16 47.06-47.06 47.06S0 341 0 315.1c0-25.9 21.16-47.06 47.06-47.06h47.06v47.06zm23.72 0c0-25.9 21.16-47.06 47.06-47.06s47.06 21.16 47.06 47.06v117.84c0 25.9-21.16 47.06-47.06 47.06s-47.06-21.16-47.06-47.06V315.1zm47.06-188.98c-25.9 0-47.06-21.16-47.06-47.06S139 32 164.9 32s47.06 21.16 47.06 47.06v47.06H164.9zm0 23.72c25.9 0 47.06 21.16 47.06 47.06s-21.16 47.06-47.06 47.06H47.06C21.16 243.96 0 222.8 0 196.9s21.16-47.06 47.06-47.06H164.9zm188.98 47.06c0-25.9 21.16-47.06 47.06-47.06 25.9 0 47.06 21.16 47.06 47.06s-21.16 47.06-47.06 47.06h-47.06V196.9zm-23.72 0c0 25.9-21.16 47.06-47.06 47.06-25.9 0-47.06-21.16-47.06-47.06V79.06c0-25.9 21.16-47.06 47.06-47.06 25.9 0 47.06 21.16 47.06 47.06V196.9zM283.1 385.88c25.9 0 47.06 21.16 47.06 47.06 0 25.9-21.16 47.06-47.06 47.06-25.9 0-47.06-21.16-47.06-47.06v-47.06h47.06zm0-23.72c-25.9 0-47.06-21.16-47.06-47.06 0-25.9 21.16-47.06 47.06-47.06h117.84c25.9 0 47.06 21.16 47.06 47.06 0 25.9-21.16 47.06-47.06 47.06H283.1z"></path>
  </symbol>
  <symbol id="threads" viewBox="64 64 512 512">
    <path d="M427.5 299.7C429.7 300.6 431.7 301.6 433.8 302.5C463 316.6 484.4 337.7 495.6 363.9C511.3 400.4 512.8 459.7 465.3 507.1C429.1 543.3 385 559.6 322.7 560.1L322.4 560.1C252.2 559.6 198.3 536 162 489.9C129.7 448.9 113.1 391.8 112.5 320.3L112.5 319.8C113 248.3 129.6 191.2 161.9 150.2C198.2 104.1 252.2 80.5 322.4 80L322.7 80C393 80.5 447.6 104 485 149.9C503.4 172.6 517 199.9 525.6 231.6L485.2 242.4C478.1 216.6 467.4 194.6 453 177C423.8 141.2 380 122.8 322.5 122.4C265.5 122.9 222.4 141.2 194.3 176.8C168.1 210.1 154.5 258.3 154 320C154.5 381.7 168.1 429.9 194.3 463.3C222.3 498.9 265.5 517.2 322.5 517.7C373.9 517.3 407.9 505.1 436.2 476.8C468.5 444.6 467.9 405 457.6 380.9C451.5 366.7 440.5 354.9 425.7 346C422 372.9 413.9 394.3 401 410.8C383.9 432.6 359.6 444.4 328.3 446.1C304.7 447.4 282 441.7 264.4 430.1C243.6 416.3 231.4 395.3 230.1 370.8C227.6 322.5 265.8 287.8 325.3 284.4C346.4 283.2 366.2 284.1 384.5 287.2C382.1 272.4 377.2 260.6 369.9 252C359.9 240.3 344.3 234.3 323.7 234.2L323 234.2C306.4 234.2 284 238.8 269.7 260.5L235.3 236.9C254.5 207.8 285.6 191.8 323.1 191.8L323.9 191.8C386.5 192.2 423.8 231.3 427.6 299.5L427.4 299.7L427.5 299.7zM271.5 368.5C272.8 393.6 299.9 405.3 326.1 403.8C351.7 402.4 380.7 392.4 385.6 330.6C372.4 327.7 357.8 326.2 342.2 326.2C337.4 326.2 332.6 326.3 327.8 326.6C284.9 329 270.6 349.8 271.6 368.4L271.5 368.5z"/></path>
  </symbol>
  <symbol id="twitch" viewBox="0 0 448 512">
    <path d="M40.1 32L10 108.9v314.3h107V480h60.2l56.8-56.8h87l117-117V32H40.1zm357.8 254.1L331 353H224l-56.8 56.8V353H76.9V72.1h321v214zM331 149v116.9h-40.1V149H331zm-107 0v116.9h-40.1V149H224z"></path>
  </symbol>
  <symbol id="wikipedia-w" viewBox="0 0 640 512">
    <path d="M640 51.2l-.3 12.2c-28.1.8-45 15.8-55.8 40.3-25 57.8-103.3 240-155.3 358.6H415l-81.9-193.1c-32.5 63.6-68.3 130-99.2 193.1-.3.3-15 0-15-.3C172 352.3 122.8 243.4 75.8 133.4 64.4 106.7 26.4 63.4.2 63.7c0-3.1-.3-10-.3-14.2h161.9v13.9c-19.2 1.1-52.8 13.3-43.3 34.2 21.9 49.7 103.6 240.3 125.6 288.6 15-29.7 57.8-109.2 75.3-142.8-13.9-28.3-58.6-133.9-72.8-160-9.7-17.8-36.1-19.4-55.8-19.7V49.8l142.5.3v13.1c-19.4.6-38.1 7.8-29.4 26.1 18.9 40 30.6 68.1 48.1 104.7 5.6-10.8 34.7-69.4 48.1-100.8 8.9-20.6-3.9-28.6-38.6-29.4.3-3.6 0-10.3.3-13.6 44.4-.3 111.1-.3 123.1-.6v13.6c-22.5.8-45.8 12.8-58.1 31.7l-59.2 122.8c6.4 16.1 63.3 142.8 69.2 156.7L559.2 91.8c-8.6-23.1-36.4-28.1-47.2-28.3V49.6l127.8 1.1.2.5z"></path>
  </symbol>
  <symbol id="youtube" viewBox="0 0 576 512">
    <path d="M549.655 124.083c-6.281-23.65-24.787-42.276-48.284-48.597C458.781 64 288 64 288 64S117.22 64 74.629 75.486c-23.497 6.322-42.003 24.947-48.284 48.597-11.412 42.867-11.412 132.305-11.412 132.305s0 89.438 11.412 132.305c6.281 23.65 24.787 41.5 48.284 47.821C117.22 448 288 448 288 448s170.78 0 213.371-11.486c23.497-6.321 42.003-24.171 48.284-47.821 11.412-42.867 11.412-132.305 11.412-132.305s0-89.438-11.412-132.305zm-317.51 213.508V175.185l142.739 81.205-142.739 81.201z"></path>
  </symbol>
</svg>
