<?xml version="1.0" encoding="UTF-8"?>
<svg width="55px" height="33px" viewBox="0 0 55 33" version="1.1" xmlns="http://www.w3.org/2000/svg" xmlns:xlink="http://www.w3.org/1999/xlink">
    <title>Group Copy 2</title>
    <g id="Page-1" stroke="none" stroke-width="1" fill="none" fill-rule="evenodd">
        <g id="Group-Copy-2" transform="translate(2, 2)">
            <path d="M51,0.5 L51,25 L51,25 L20,25 L20,28 L17,28.25 L14,29 L8.25,21.25 L7,21.75 L5.75,20.25 L7,17 L4.5,15.5 L1.5,11.5 L2,8 L0,6.20274393 L0,-5.68434189e-14 L50.5,-5.68434189e-14 C50.7761424,-5.68434189e-14 51,0.223857625 51,0.5 Z" id="path1181" stroke="#003B93" stroke-width="3" stroke-linejoin="round"></path>
            <path d="M19.0693974,17 C18.4834968,17 17.5701567,16.9426115 16.3293771,16.8278344 L16.0123654,16.7978943 C13.5607815,16.5625651 11.764152,14.3843917 11.9994812,11.9328078 C12.1781164,10.0718436 13.4963869,8.52808654 15.2883295,8.05034998 L15.4971563,8 C15.4971563,11 17.729807,12.5 22.1951083,12.5 L33.8048917,12.5 C38.270193,12.5 40.5028437,11 40.5028437,8 L40.7116705,8.05034998 C42.5036131,8.52808654 43.8218836,10.0718436 44.0005188,11.9328078 C44.235848,14.3843917 42.4392185,16.5625651 39.9876346,16.7978943 L39.6706229,16.8278344 C38.4298433,16.9426115 37.5165032,17 36.9306026,17 L19.0693974,17 Z" id="Combined-Shape" fill="#003B93" fill-rule="nonzero"></path>
        </g>
    </g>
</svg>