<?xml version="1.0" encoding="UTF-8"?>
<svg width="318px" height="343px" viewBox="0 0 318 343" version="1.1" xmlns="http://www.w3.org/2000/svg" xmlns:xlink="http://www.w3.org/1999/xlink">
    <title>musa</title>
    <defs>
        <polygon id="path-1" points="259 122.852495 220.220859 155 130 137.825485 40.5705521 155 1 122.852495 1 3.76802793e-17 40.5705521 35.2077562 130 18.033241 220.220859 35.2077562 259 3.76802793e-17"></polygon>
    </defs>
    <g id="musa" stroke="none" fill="none" fill-rule="evenodd">
        <circle id="Oval" fill="#FFFFFF" cx="142" cy="268" r="4"></circle>
        <circle id="Oval-Copy" fill="#FFFFFF" cx="251" cy="286" r="4"></circle>
        <g id="Group-6" stroke-width="1" transform="translate(29, 2)">
            <g id="Group-7" transform="translate(0, 107)">
                <path d="M261,-4.51713499 L261,123.792379 L220.77214,157.140857 L130.001655,139.861715 L40.0326688,157.139846 L-1,123.804503 L-1,-4.4565424 L41.1626273,33.0575034 L129.998345,15.9970113 L219.614984,33.0565067 L261,-4.51713499 Z" id="Line-5" stroke="#06121A" stroke-width="4" fill="#94A3CC" stroke-linecap="square" stroke-linejoin="round"></path>
                <polygon id="Line-5-Copy-2" fill="#6D7CA5" points="220 155 130 137.821317 130 18 220 35.1786834"></polygon>
                <polygon id="Line-5-Copy" fill="#6D7CA5" points="41 155 1 122.852495 1 3.76802793e-17 41 35.2077562"></polygon>
                <path d="M0,47.75 C10.7767167,56.6616479 17.7033833,62.5065446 20.78,65.2846903 C33.0035666,76.3224152 32.2941957,98.7342742 36,106.75 C38.4762511,112.106179 43.4762511,114.856179 51,115" id="Line-6" stroke="#06121A" stroke-width="4" stroke-linecap="round" stroke-dasharray="4,8"></path>
                <path d="M87.5,109.5 C102.76346,100.346588 116.85846,100.3823 129.785,109.607135 C148.281746,126.842431 166.413413,134.553816 184.18,132.741289 C210.829881,130.0225 232.985,109.607135 238.575,74.7978004 C242.301667,51.5915772 249.86,43.4923105 261.25,50.5" id="Line-6-Copy" stroke="#06121A" stroke-width="4" stroke-linecap="round" stroke-dasharray="4,8"></path>
                <g id="Line-5-Copy-3" stroke-linecap="square" stroke-linejoin="round" stroke-width="4">
                    <path stroke="#06121A" d="M261,-4.51713499 L261,123.792379 L220.77214,157.140857 L130.001655,139.861715 L40.0326688,157.139846 L-1,123.804503 L-1,-4.4565424 L41.1626273,33.0575034 L129.998345,15.9970113 L219.614984,33.0565067 L261,-4.51713499 Z"></path>
                    <path stroke="#FFFFFF" d="M3,4.4565424 L39.978477,37.3580091 L130.001655,20.0694707 L220.826734,37.3590058 L257,4.51713499 L257,121.912611 L219.669578,152.859143 L129.998345,135.789255 L41.1084355,152.860154 L3,121.900487 L3,4.4565424 Z" stroke-linejoin="square"></path>
                </g>
                <polyline id="Line-3" stroke="#06121A" stroke-width="4" stroke-linecap="round" stroke-linejoin="round" points="160 120 171.967033 104 193 110.6"></polyline>
                <polyline id="Line-3-Copy" stroke="#06121A" stroke-width="4" stroke-linecap="round" stroke-linejoin="round" points="190 116 198.703297 105 214 109.5375"></polyline>
            </g>
            <g id="Group-2" transform="translate(47, 23.5)">
                <path d="M9.47147147,28.9870968 C15.5078367,14.4639961 29.6903667,5 45.4179907,5 L121.080508,5 C136.808132,5 150.990662,14.4639961 157.027027,28.9870968 L157.027027,28.9870968 L157.027027,28.9870968 L161.39628,57.2890067 C164.448158,77.0575953 164.517162,97.1721702 161.600989,116.961232 L157.027027,148 L157.027027,148 L9.47147147,148 L4.89542314,118.581439 C1.65224149,97.7316296 1.72892952,76.4999379 5.12264196,55.6741005 L9.47147147,28.9870968 L9.47147147,28.9870968 Z" id="Path-8" stroke="#06121A" stroke-width="4" fill="#898989" fill-rule="nonzero" stroke-linejoin="round"></path>
                <path d="M28.5,10.0540651 C29.6105862,7.1724341 34.4439196,5.48300929 43,4.9857907 C51.5560804,4.48857211 65.2227471,5.10290841 84,6.82879959 L84,147.81898 L28.5,147.81898 C50.5542608,109.69439 60.3875941,81.2813366 58,62.5798185 C55.6124059,43.8783003 45.7790725,26.3697159 28.5,10.0540651 Z" id="Rectangle" fill="#D8D8D8"></path>
                <path d="M83,10.0540651 C84.1105862,7.1724341 88.9439196,5.48300929 97.5,4.9857907 C106.05608,4.48857211 120.05608,5.10290841 139.5,6.82879959 L139.5,147.81898 L83,147.81898 C105.054261,109.69439 114.887594,81.2813366 112.5,62.5798185 C110.112406,43.8783003 100.279073,26.3697159 83,10.0540651 Z" id="Rectangle-Copy-8" fill="#D8D8D8" transform="translate(111.25, 76.319) scale(-1, 1) translate(-111.25, -76.319)"></path>
                <path d="M9.47147147,28.9870968 C15.5078367,14.4639961 29.6903667,5 45.4179907,5 L121.080508,5 C136.808132,5 150.990662,14.4639961 157.027027,28.9870968 L157.027027,28.9870968 L157.027027,28.9870968 L161.39628,57.2890067 C164.448158,77.0575953 164.517162,97.1721702 161.600989,116.961232 L157.027027,148 L157.027027,148 L9.47147147,148 L4.89542314,118.581439 C1.65224149,97.7316296 1.72892952,76.4999379 5.12264196,55.6741005 L9.47147147,28.9870968 L9.47147147,28.9870968 Z" id="Path-8-Copy" stroke="#06121A" stroke-width="4" stroke-linejoin="round" fill-rule="nonzero"></path>
                <rect id="Rectangle" fill="#06121A" fill-rule="nonzero" x="21" y="146" width="23" height="32" rx="6"></rect>
                <rect id="Rectangle-Copy" fill="#06121A" fill-rule="nonzero" x="124" y="146" width="23" height="32" rx="6"></rect>
                <rect id="Rectangle" stroke="#06121A" stroke-width="3" fill="#BE0000" fill-rule="nonzero" x="9.5" y="101.5" width="11" height="11" rx="5.5"></rect>
                <rect id="Rectangle-Copy-2" stroke="#06121A" stroke-width="3" fill="#BE0000" fill-rule="nonzero" x="26.5" y="101.5" width="11" height="11" rx="5.5"></rect>
                <rect id="Rectangle-Copy-4" stroke="#06121A" stroke-width="3" fill="#BE0000" fill-rule="nonzero" x="130.5" y="101.5" width="11" height="11" rx="5.5"></rect>
                <rect id="Rectangle-Copy-3" stroke="#06121A" stroke-width="3" fill="#BE0000" fill-rule="nonzero" x="147.5" y="101.5" width="11" height="11" rx="5.5"></rect>
                <rect id="Rectangle-Copy" fill="#06121A" fill-rule="nonzero" x="50" y="0" width="8" height="13" rx="4"></rect>
                <rect id="Rectangle-Copy-5" fill="#06121A" fill-rule="nonzero" x="79" y="0" width="8" height="13" rx="4"></rect>
                <rect id="Rectangle-Copy-6" fill="#06121A" fill-rule="nonzero" x="108" y="0" width="8" height="13" rx="4"></rect>
                <rect id="Rectangle-Copy-2" fill="#06121A" fill-rule="nonzero" x="74" y="95" width="20" height="6" rx="3"></rect>
                <path d="M40.8,37 L126.2,37 C128.850967,37 131,39.1490332 131,41.8 L131,80.2 C131,82.8509668 128.850967,85 126.2,85 L40.8,85 C38.1490332,85 36,82.8509668 36,80.2 L36,61 L36,61 L36,41.8 C36,39.1490332 38.1490332,37 40.8,37 Z" id="Rectangle" stroke="#06121A" stroke-width="4" fill="#C9F2FF" fill-rule="nonzero" stroke-linejoin="round"></path>
                <path d="M8.79875422,37 L20.7996517,37 C22.8754375,47.414449 24.2737368,55.414449 24.9945497,61 C25.7153626,66.585551 26.0486094,74.585551 25.9942902,85 L8.79875422,85 C6.14847524,85 4,82.0527545 4,78.4171429 L4,43.5828571 C4,39.9472455 6.14847524,37 8.79875422,37 Z" id="Rectangle-Copy-4-Copy" stroke="#06121A" stroke-width="4" fill="#C9F2FF" fill-rule="nonzero" stroke-linejoin="round" transform="translate(15, 61) scale(-1, 1) translate(-15, -61)"></path>
                <path d="M145.798754,37 L157.799652,37 C159.875437,47.414449 161.273737,55.414449 161.99455,61 C162.715363,66.585551 163.048609,74.585551 162.99429,85 L145.798754,85 C143.148475,85 141,82.0527545 141,78.4171429 L141,43.5828571 C141,39.9472455 143.148475,37 145.798754,37 Z" id="Rectangle-Copy-4-Copy-2" stroke="#06121A" stroke-width="4" fill="#C9F2FF" fill-rule="nonzero" stroke-linejoin="round"></path>
                <rect id="Rectangle-Copy-3" stroke="#06121A" stroke-width="4" fill="#D8D8D8" fill-rule="nonzero" stroke-linejoin="round" x="2" y="148" width="163" height="12" rx="6"></rect>
                <g id="MAPPING-USA" transform="translate(46.065, 18.83)" fill="#898989" fill-rule="nonzero">
                    <path d="M0.97,7.27 C0.656666667,7.27 0.416666667,7.185 0.25,7.015 C0.0833333333,6.845 0,6.60333333 0,6.29 L0,1 C0,0.686666667 0.09,0.445 0.27,0.275 C0.45,0.105 0.703333333,0.02 1.03,0.02 C1.30333333,0.02 1.52,0.0733333333 1.68,0.18 C1.84,0.286666667 1.98666667,0.46 2.12,0.7 L3.9,3.84 L5.68,0.7 C5.81333333,0.46 5.96166667,0.286666667 6.125,0.18 C6.28833333,0.0733333333 6.50333333,0.02 6.77,0.02 C7.08333333,0.02 7.325,0.105 7.495,0.275 C7.665,0.445 7.75,0.686666667 7.75,1 L7.75,6.29 C7.75,6.60333333 7.66666667,6.845 7.5,7.015 C7.33333333,7.185 7.09333333,7.27 6.78,7.27 C6.46666667,7.27 6.22666667,7.185 6.06,7.015 C5.89333333,6.845 5.81,6.60333333 5.81,6.29 L5.81,3.85 L4.67,5.74 C4.57,5.90666667 4.45833333,6.03166667 4.335,6.115 C4.21166667,6.19833333 4.05333333,6.24 3.86,6.24 C3.66666667,6.24 3.50833333,6.19833333 3.385,6.115 C3.26166667,6.03166667 3.15,5.90666667 3.05,5.74 L1.94,3.9 L1.94,6.29 C1.94,6.60333333 1.85666667,6.845 1.69,7.015 C1.52333333,7.185 1.28333333,7.27 0.97,7.27 Z" id="Path"></path>
                    <path d="M9.79,7.27 C9.55,7.27 9.34833333,7.21333333 9.185,7.1 C9.02166667,6.98666667 8.91833333,6.83166667 8.875,6.635 C8.83166667,6.43833333 8.86666667,6.21666667 8.98,5.97 L11.39,0.89 C11.53,0.59 11.7016667,0.37 11.905,0.23 C12.1083333,0.09 12.3433333,0.02 12.61,0.02 C12.8766667,0.02 13.11,0.09 13.31,0.23 C13.51,0.37 13.68,0.59 13.82,0.89 L16.23,5.97 C16.35,6.22333333 16.3916667,6.44833333 16.355,6.645 C16.3183333,6.84166667 16.2216667,6.995 16.065,7.105 C15.9083333,7.215 15.7133333,7.27 15.48,7.27 C15.1733333,7.27 14.9366667,7.2 14.77,7.06 C14.6033333,6.92 14.4533333,6.69333333 14.32,6.38 L14.1,5.86 L11.11,5.86 L10.89,6.38 C10.7566667,6.69333333 10.6166667,6.92 10.47,7.06 C10.3233333,7.2 10.0966667,7.27 9.79,7.27 Z M12.59,2.34 L11.81,4.22 L13.4,4.22 L12.61,2.34 L12.59,2.34 Z" id="Shape"></path>
                    <path d="M18.52,7.27 C18.1733333,7.27 17.9066667,7.175 17.72,6.985 C17.5333333,6.795 17.44,6.52666667 17.44,6.18 L17.44,1.21 C17.44,0.856666667 17.535,0.586666667 17.725,0.4 C17.915,0.213333333 18.1833333,0.12 18.53,0.12 L21.02,0.12 C21.8333333,0.12 22.4616667,0.331666667 22.905,0.755 C23.3483333,1.17833333 23.57,1.75666667 23.57,2.49 C23.57,3.22333333 23.3483333,3.80166667 22.905,4.225 C22.4616667,4.64833333 21.8333333,4.86 21.02,4.86 L19.59,4.86 L19.59,6.18 C19.59,6.52666667 19.5,6.795 19.32,6.985 C19.14,7.175 18.8733333,7.27 18.52,7.27 Z M19.59,3.22 L20.62,3.22 C20.9133333,3.22 21.1383333,3.16 21.295,3.04 C21.4516667,2.92 21.53,2.73666667 21.53,2.49 C21.53,2.23666667 21.4516667,2.05166667 21.295,1.935 C21.1383333,1.81833333 20.9133333,1.76 20.62,1.76 L19.59,1.76 L19.59,3.22 Z" id="Shape"></path>
                    <path d="M25.81,7.27 C25.4633333,7.27 25.1966667,7.175 25.01,6.985 C24.8233333,6.795 24.73,6.52666667 24.73,6.18 L24.73,1.21 C24.73,0.856666667 24.825,0.586666667 25.015,0.4 C25.205,0.213333333 25.4733333,0.12 25.82,0.12 L28.31,0.12 C29.1233333,0.12 29.7516667,0.331666667 30.195,0.755 C30.6383333,1.17833333 30.86,1.75666667 30.86,2.49 C30.86,3.22333333 30.6383333,3.80166667 30.195,4.225 C29.7516667,4.64833333 29.1233333,4.86 28.31,4.86 L26.88,4.86 L26.88,6.18 C26.88,6.52666667 26.79,6.795 26.61,6.985 C26.43,7.175 26.1633333,7.27 25.81,7.27 Z M26.88,3.22 L27.91,3.22 C28.2033333,3.22 28.4283333,3.16 28.585,3.04 C28.7416667,2.92 28.82,2.73666667 28.82,2.49 C28.82,2.23666667 28.7416667,2.05166667 28.585,1.935 C28.4283333,1.81833333 28.2033333,1.76 27.91,1.76 L26.88,1.76 L26.88,3.22 Z" id="Shape"></path>
                    <path d="M33.1,7.27 C32.7533333,7.27 32.4866667,7.175 32.3,6.985 C32.1133333,6.795 32.02,6.52333333 32.02,6.17 L32.02,1.12 C32.02,0.766666667 32.1133333,0.495 32.3,0.305 C32.4866667,0.115 32.7533333,0.02 33.1,0.02 C33.4466667,0.02 33.7116667,0.115 33.895,0.305 C34.0783333,0.495 34.17,0.766666667 34.17,1.12 L34.17,6.17 C34.17,6.52333333 34.08,6.795 33.9,6.985 C33.72,7.175 33.4533333,7.27 33.1,7.27 Z" id="Path"></path>
                    <path d="M36.71,7.27 C36.3833333,7.27 36.135,7.18333333 35.965,7.01 C35.795,6.83666667 35.71,6.58666667 35.71,6.26 L35.71,1.08 C35.71,0.74 35.795,0.478333333 35.965,0.295 C36.135,0.111666667 36.3633333,0.02 36.65,0.02 C36.89,0.02 37.0816667,0.0683333333 37.225,0.165 C37.3683333,0.261666667 37.5266667,0.416666667 37.7,0.63 L40.2,3.66 L40.2,1.03 C40.2,0.703333333 40.285,0.453333333 40.455,0.28 C40.625,0.106666667 40.8733333,0.02 41.2,0.02 C41.5266667,0.02 41.775,0.106666667 41.945,0.28 C42.115,0.453333333 42.2,0.703333333 42.2,1.03 L42.2,6.31 C42.2,6.59666667 42.1216667,6.82833333 41.965,7.005 C41.8083333,7.18166667 41.5966667,7.27 41.33,7.27 C41.0633333,7.27 40.8533333,7.22166667 40.7,7.125 C40.5466667,7.02833333 40.3833333,6.87333333 40.21,6.66 L37.71,3.63 L37.71,6.26 C37.71,6.58666667 37.625,6.83666667 37.455,7.01 C37.285,7.18333333 37.0366667,7.27 36.71,7.27 Z" id="Path"></path>
                    <path d="M47.46,7.29 C46.6333333,7.29 45.9316667,7.13666667 45.355,6.83 C44.7783333,6.52333333 44.3383333,6.1 44.035,5.56 C43.7316667,5.02 43.58,4.39666667 43.58,3.69 C43.58,2.94333333 43.7416667,2.29333333 44.065,1.74 C44.3883333,1.18666667 44.8533333,0.758333333 45.46,0.455 C46.0666667,0.151666667 46.7966667,0 47.65,0 C47.9633333,0 48.2833333,0.025 48.61,0.075 C48.9366667,0.125 49.27,0.223333333 49.61,0.37 C49.81,0.456666667 49.95,0.581666667 50.03,0.745 C50.11,0.908333333 50.14,1.08333333 50.12,1.27 C50.1,1.45666667 50.0383333,1.62666667 49.935,1.78 C49.8316667,1.93333333 49.6916667,2.04 49.515,2.1 C49.3383333,2.16 49.1366667,2.14333333 48.91,2.05 C48.7433333,1.98333333 48.5516667,1.93 48.335,1.89 C48.1183333,1.85 47.8966667,1.83 47.67,1.83 C47.0366667,1.83 46.5683333,1.98666667 46.265,2.3 C45.9616667,2.61333333 45.81,3.07666667 45.81,3.69 C45.81,4.29 45.9616667,4.74166667 46.265,5.045 C46.5683333,5.34833333 47.01,5.5 47.59,5.5 C47.83,5.5 48.1133333,5.46333333 48.44,5.39 L48.44,4.59 L47.97,4.59 C47.4166667,4.59 47.14,4.34333333 47.14,3.85 C47.14,3.35666667 47.4166667,3.11 47.97,3.11 L49.35,3.11 C49.9033333,3.11 50.18,3.38666667 50.18,3.94 L50.18,6.03 C50.18,6.26333333 50.1316667,6.46 50.035,6.62 C49.9383333,6.78 49.7833333,6.89666667 49.57,6.97 C48.8966667,7.18333333 48.1933333,7.29 47.46,7.29 Z" id="Path"></path>
                    <path d="M58.25,7.29 C57.19,7.29 56.38,7.025 55.82,6.495 C55.26,5.965 54.98,5.16666667 54.98,4.1 L54.98,1.11 C54.98,0.756666667 55.0733333,0.486666667 55.26,0.3 C55.4466667,0.113333333 55.7133333,0.02 56.06,0.02 C56.4066667,0.02 56.6716667,0.113333333 56.855,0.3 C57.0383333,0.486666667 57.13,0.756666667 57.13,1.11 L57.13,4.14 C57.13,4.58666667 57.2266667,4.925 57.42,5.155 C57.6133333,5.385 57.89,5.5 58.25,5.5 C58.61,5.5 58.8866667,5.385 59.08,5.155 C59.2733333,4.925 59.37,4.58666667 59.37,4.14 L59.37,1.11 C59.37,0.756666667 59.4616667,0.486666667 59.645,0.3 C59.8283333,0.113333333 60.09,0.02 60.43,0.02 C60.77,0.02 61.03,0.113333333 61.21,0.3 C61.39,0.486666667 61.48,0.756666667 61.48,1.11 L61.48,4.1 C61.48,5.16666667 61.2066667,5.965 60.66,6.495 C60.1133333,7.025 59.31,7.29 58.25,7.29 Z" id="Path"></path>
                    <path d="M65.7,7.29 C65.4466667,7.29 65.1766667,7.27166667 64.89,7.235 C64.6033333,7.19833333 64.3283333,7.14833333 64.065,7.085 C63.8016667,7.02166667 63.5666667,6.95 63.36,6.87 C63.1466667,6.78333333 62.9966667,6.65833333 62.91,6.495 C62.8233333,6.33166667 62.79,6.15666667 62.81,5.97 C62.83,5.78333333 62.8933333,5.61666667 63,5.47 C63.1066667,5.32333333 63.25,5.22166667 63.43,5.165 C63.61,5.10833333 63.8133333,5.12666667 64.04,5.22 C64.2733333,5.31333333 64.5483333,5.39 64.865,5.45 C65.1816667,5.51 65.46,5.54 65.7,5.54 C66.0866667,5.54 66.35,5.49666667 66.49,5.41 C66.63,5.32333333 66.7,5.22333333 66.7,5.11 C66.7,5.00333333 66.6516667,4.915 66.555,4.845 C66.4583333,4.775 66.28,4.71333333 66.02,4.66 L64.82,4.4 C63.5466667,4.12666667 62.91,3.45 62.91,2.37 C62.91,1.89 63.04,1.47333333 63.3,1.12 C63.56,0.766666667 63.9233333,0.491666667 64.39,0.295 C64.8566667,0.0983333333 65.4,0 66.02,0 C66.3333333,0 66.6666667,0.0333333333 67.02,0.1 C67.3733333,0.166666667 67.6766667,0.263333333 67.93,0.39 C68.11,0.476666667 68.2416667,0.6 68.325,0.76 C68.4083333,0.92 68.4433333,1.08666667 68.43,1.26 C68.4166667,1.43333333 68.3616667,1.58833333 68.265,1.725 C68.1683333,1.86166667 68.0333333,1.955 67.86,2.005 C67.6866667,2.055 67.4766667,2.03666667 67.23,1.95 C67.0633333,1.89 66.8633333,1.84166667 66.63,1.805 C66.3966667,1.76833333 66.1833333,1.75 65.99,1.75 C65.6633333,1.75 65.4183333,1.79666667 65.255,1.89 C65.0916667,1.98333333 65.01,2.10666667 65.01,2.26 C65.01,2.34666667 65.0566667,2.425 65.15,2.495 C65.2433333,2.565 65.4233333,2.62666667 65.69,2.68 L66.89,2.94 C68.1633333,3.22 68.8,3.88333333 68.8,4.93 C68.8,5.40333333 68.6716667,5.81833333 68.415,6.175 C68.1583333,6.53166667 67.7983333,6.80666667 67.335,7 C66.8716667,7.19333333 66.3266667,7.29 65.7,7.29 Z" id="Path"></path>
                    <path d="M70.38,7.27 C70.14,7.27 69.9383333,7.21333333 69.775,7.1 C69.6116667,6.98666667 69.5083333,6.83166667 69.465,6.635 C69.4216667,6.43833333 69.4566667,6.21666667 69.57,5.97 L71.98,0.89 C72.12,0.59 72.2916667,0.37 72.495,0.23 C72.6983333,0.09 72.9333333,0.02 73.2,0.02 C73.4666667,0.02 73.7,0.09 73.9,0.23 C74.1,0.37 74.27,0.59 74.41,0.89 L76.82,5.97 C76.94,6.22333333 76.9816667,6.44833333 76.945,6.645 C76.9083333,6.84166667 76.8116667,6.995 76.655,7.105 C76.4983333,7.215 76.3033333,7.27 76.07,7.27 C75.7633333,7.27 75.5266667,7.2 75.36,7.06 C75.1933333,6.92 75.0433333,6.69333333 74.91,6.38 L74.69,5.86 L71.7,5.86 L71.48,6.38 C71.3466667,6.69333333 71.2066667,6.92 71.06,7.06 C70.9133333,7.2 70.6866667,7.27 70.38,7.27 Z M73.18,2.34 L72.4,4.22 L73.99,4.22 L73.2,2.34 L73.18,2.34 Z" id="Shape"></path>
                </g>
                <g id="Group" transform="translate(64, 115)" fill-rule="nonzero">
                    <rect id="Rectangle-Copy-6" stroke="#06121A" stroke-width="4" fill="#FFFFFF" stroke-linejoin="round" x="-2" y="-2" width="44" height="24" rx="3"></rect>
                    <g id="Mapping-USA" transform="translate(19.9375, 4.785) rotate(-360) translate(-19.9375, -4.785)translate(7.41, 1.4)" fill="#BE0000">
                        <path d="M2.08,3.065 C2.4,2.485 3.48,1.255 3.74,1.255 C3.795,1.255 3.815,1.275 3.815,1.305 C3.815,1.365 3.735,1.475 3.685,1.55 C3.44,1.925 2.68,3.1 2.68,3.495 C2.68,3.605 2.785,3.67 3.175,3.67 C3.27,3.67 3.315,3.585 3.315,3.585 C3.315,2.895 5.115,0.21 5.115,0.175 C5.12,0.16 5.12,0.15 5.12,0.14 C5.12,0.075 5.05,0.04 4.885,0.04 C4.375,0.04 4.345,0.125 4.305,0.155 C3.76,0.595 2.825,1.805 2.535,1.805 C2.505,1.805 2.495,1.775 2.495,1.72 C2.495,1.41 2.89,0.36 2.89,0.2 C2.89,0.05 2.49,0.05 2.49,0.05 C1.93,0.05 1.82,0.205 1.82,0.25 L1.82,0.31 C1.82,0.39 1.815,0.52 1.705,0.74 C0.97,2.21 -2.59625121e-16,3.56 -2.59625121e-16,3.695 L-2.59625121e-16,3.71 C-2.59625121e-16,3.785 0.135,3.785 0.195,3.785 C0.245,3.785 0.34,3.78 0.425,3.72 C0.645,3.57 0.835,2.86 1.605,1.605 C1.605,1.605 1.825,1.195 1.965,1.195 C1.995,1.195 2.005,1.225 2.005,1.275 C2.005,1.56 1.615,2.54 1.615,2.97 C1.615,3.15 1.68,3.185 1.835,3.185 C1.915,3.185 2.025,3.165 2.08,3.065 Z" id="Path"></path>
                        <path d="M5.205,3.65 C5.27,3.2 5.835,2.37 5.835,2.37 C5.84,2.36 5.845,2.355 5.845,2.345 C5.845,2.28 5.66,2.265 5.66,2.265 C5.37,2.265 5.325,2.39 5.325,2.39 C5,2.95 4.655,3.195 4.48,3.195 C4.405,3.195 4.375,3.12 4.375,3.07 C4.375,2.62 4.935,2.005 5.475,2.005 C5.92,2.005 5.925,2.155 6.035,2.155 C6.115,2.155 6.12,2.035 6.12,2.005 C6.12,1.705 5.715,1.675 5.675,1.675 C4.45,1.675 3.74,2.965 3.74,3.5 C3.74,3.565 3.74,3.805 3.945,3.805 C4.425,3.805 4.76,3.28 4.89,3.28 C4.9,3.28 4.92,3.285 4.92,3.32 C4.92,3.35 4.91,3.395 4.91,3.425 C4.91,3.525 4.945,3.71 5.155,3.71 C5.175,3.71 5.2,3.69 5.205,3.65 Z" id="Path"></path>
                        <path d="M6.16,3.785 C7.16,3.785 7.975,2.83 7.975,2.02 C7.975,1.745 7.82,1.675 7.715,1.675 C7.355,1.675 7.135,1.92 7.045,1.92 C7.015,1.92 7.005,1.905 7.005,1.88 C7.005,1.77 7.28,1.44 7.28,1.37 C7.28,1.315 7.205,1.305 7.175,1.305 C6.82,1.305 6.755,1.515 6.755,1.515 C6.13,2.71 4.15,5.825 4.15,6.22 C4.15,6.395 4.33,6.565 4.44,6.565 C4.475,6.565 4.505,6.545 4.52,6.505 C4.725,5.925 5.685,4.105 5.9,3.83 C5.935,3.785 6.14,3.785 6.16,3.785 Z M7.45,2.28 C7.45,2.675 6.89,3.455 6.45,3.455 C6.32,3.455 6.205,3.38 6.205,3.285 C6.205,3.22 6.825,2.125 7.345,2.125 C7.4,2.125 7.45,2.185 7.45,2.28 Z" id="Shape"></path>
                        <path d="M8.2,3.785 C9.2,3.785 10.015,2.83 10.015,2.02 C10.015,1.745 9.86,1.675 9.755,1.675 C9.395,1.675 9.175,1.92 9.085,1.92 C9.055,1.92 9.045,1.905 9.045,1.88 C9.045,1.77 9.32,1.44 9.32,1.37 C9.32,1.315 9.245,1.305 9.215,1.305 C8.86,1.305 8.795,1.515 8.795,1.515 C8.17,2.71 6.19,5.825 6.19,6.22 C6.19,6.395 6.37,6.565 6.48,6.565 C6.515,6.565 6.545,6.545 6.56,6.505 C6.765,5.925 7.725,4.105 7.94,3.83 C7.975,3.785 8.18,3.785 8.2,3.785 Z M9.49,2.28 C9.49,2.675 8.93,3.455 8.49,3.455 C8.36,3.455 8.245,3.38 8.245,3.285 C8.245,3.22 8.865,2.125 9.385,2.125 C9.44,2.125 9.49,2.185 9.49,2.28 Z" id="Shape"></path>
                        <path d="M9.955,3.855 C9.995,3.855 10.02,3.76 10.02,3.76 C10.255,3.265 10.86,2.215 11.125,1.88 C11.135,1.87 11.14,1.855 11.14,1.845 C11.14,1.785 11.005,1.76 10.945,1.76 C10.63,1.76 10.47,1.855 10.47,1.855 C10.47,1.855 10.385,1.905 10.38,1.985 C10.36,2.385 9.715,3.37 9.715,3.555 C9.715,3.74 9.875,3.855 9.955,3.855 Z M11.49,1.135 C11.485,1.025 11.39,0.96 11.26,0.96 C11.095,0.96 10.82,1.085 10.82,1.3 L10.82,1.305 C10.825,1.415 10.92,1.48 11.05,1.48 C11.22,1.48 11.49,1.355 11.49,1.135 Z" id="Shape"></path>
                        <path d="M12.05,3.815 C12.56,3.815 13.33,2.12 13.33,1.87 C13.33,1.675 13.205,1.655 13.145,1.655 C12.75,1.655 12.305,1.965 11.965,2.23 C11.945,2.245 11.93,2.25 11.915,2.25 C11.875,2.25 11.865,2.21 11.865,2.21 C11.865,2.105 12.105,1.86 12.105,1.755 C12.105,1.715 12.045,1.705 11.985,1.705 C11.84,1.705 11.755,1.755 11.755,1.755 C11.525,1.84 10.615,3.37 10.615,3.52 C10.615,3.54 10.63,3.585 10.745,3.585 C10.805,3.585 10.99,3.575 11.09,3.435 C11.31,3.13 12.14,2.22 12.57,2.22 C12.57,2.22 12.65,2.22 12.65,2.31 C12.65,2.59 12.02,3.57 11.92,3.72 C11.92,3.72 11.91,3.735 11.91,3.75 C11.91,3.78 11.935,3.815 12.05,3.815 Z" id="Path"></path>
                        <path d="M12.505,6.115 C12.42,6.115 12.415,6.015 12.415,5.995 L12.415,5.99 C12.415,5.37 13.295,4.285 13.665,4.1 C13.695,4.085 13.725,4.07 13.725,4.035 C13.725,4.005 13.685,4 13.665,4 L13.65,4 C13.04,4 11.795,5.495 11.795,6.395 C11.795,6.655 11.885,6.77 12.005,6.77 C13.245,6.77 15.355,2.255 15.355,2.255 C15.36,2.245 15.36,2.235 15.36,2.23 C15.36,2.175 15.23,2.155 15.17,2.155 C14.93,2.155 14.915,2.225 14.915,2.225 C14.5,2.88 14.085,3.125 13.91,3.125 C13.835,3.125 13.805,3.07 13.805,3 C13.805,2.55 14.35,1.9 14.915,1.9 C15.38,1.9 15.445,2.055 15.525,2.055 C15.595,2.055 15.61,1.935 15.61,1.905 C15.61,1.605 15.18,1.575 15.11,1.575 C13.885,1.575 13.175,2.77 13.175,3.4 C13.175,3.46 13.175,3.705 13.38,3.705 C13.865,3.705 14.2,3.205 14.325,3.205 C14.345,3.205 14.365,3.22 14.365,3.28 C14.365,3.385 12.985,6.115 12.505,6.115 Z" id="Path"></path>
                        <path d="M17.135,3.725 C17.92,3.725 18.3,3.065 18.385,2.92 C18.72,2.36 19.735,0.62 20.085,0.185 C20.135,0.13 20.16,0.09 20.16,0.06 C20.16,0.01 20.085,-4.4408921e-16 19.935,-4.4408921e-16 C19.805,-4.4408921e-16 19.645,-4.4408921e-16 19.53,0.095 C19.32,0.265 18.575,2.05 18.095,2.79 C17.995,2.95 17.82,3.24 17.365,3.24 C17.015,3.24 17.005,2.955 17.005,2.845 C17.005,2.425 18.23,0.485 18.42,0.22 C18.42,0.22 18.455,0.18 18.455,0.135 C18.455,0.085 18.405,0.03 18.185,0.03 C17.725,0.03 17.675,0.09 17.675,0.18 C17.675,0.26 17.67,0.375 17.525,0.66 C17.09,1.515 16.3,2.62 16.3,3.075 C16.3,3.505 16.675,3.725 17.135,3.725 Z" id="Path"></path>
                        <path d="M21.34,2.43 C21.34,1.715 20.525,1.37 20.525,0.9 C20.525,0.51 21,0.4 21.155,0.4 C21.5,0.4 21.55,0.625 21.55,0.695 C21.55,1.035 21.405,1.18 21.405,1.22 C21.405,1.28 21.505,1.28 21.54,1.28 C21.785,1.28 22.37,0.32 22.37,0.165 C22.37,0.085 22.24,0.08 22.19,0.08 C22.02,0.08 21.87,0.165 21.87,0.165 C21.855,0.175 21.84,0.18 21.825,0.18 C21.775,0.18 21.655,0.095 21.275,0.095 C20.845,0.095 19.9,0.275 19.9,1.005 C19.9,1.54 20.76,1.92 20.76,2.565 C20.76,3.19 20.21,3.365 19.875,3.365 C19.47,3.365 19.41,3.035 19.41,2.92 C19.41,2.5 19.68,2.175 19.68,2.13 C19.68,2.085 19.625,2.075 19.585,2.075 C19.5,2.075 19.435,2.11 19.375,2.155 C19.015,2.435 18.5,3.43 18.5,3.57 C18.5,3.66 18.665,3.665 18.695,3.665 C18.845,3.665 18.98,3.615 19.12,3.57 C19.135,3.56 19.155,3.555 19.17,3.555 C19.195,3.555 19.215,3.565 19.215,3.565 C19.33,3.63 19.5,3.675 19.785,3.675 C20.705,3.675 21.34,3.125 21.34,2.43 Z" id="Path"></path>
                        <path d="M23.435,3.885 C23.515,3.885 23.515,3.845 23.515,3.845 C23.605,3.455 24.125,2.23 24.455,1.505 C24.825,0.705 25.055,0.31 25.055,0.245 C25.055,0.105 24.845,0.08 24.71,0.08 C24.645,0.08 24.595,0.085 24.595,0.085 C24.12,0.085 23.255,0.95 22.485,1.84 L22.415,1.92 C22.19,1.925 22.005,1.93 21.965,1.95 C21.845,1.995 21.62,2.17 21.62,2.295 C21.62,2.295 21.625,2.34 21.665,2.34 C21.675,2.34 21.905,2.315 22.1,2.295 C21.505,3.015 21.045,3.655 21.045,3.725 C21.045,3.8 21.215,3.805 21.275,3.805 C21.365,3.805 21.61,3.79 21.66,3.68 C21.69,3.615 21.97,3 22.33,2.515 L22.52,2.265 C22.625,2.26 22.73,2.255 22.83,2.255 C23.245,2.255 23.51,2.295 23.51,2.43 C23.51,2.7 23.02,3.27 23.02,3.575 C23.02,3.685 23.26,3.885 23.435,3.885 Z M23.345,1.93 C23.345,1.93 23.09,1.925 22.8,1.92 C23.295,1.34 23.835,0.81 24.045,0.81 C24.095,0.81 24.13,0.835 24.13,0.88 C24.13,1.04 23.79,1.93 23.345,1.93 Z" id="Shape"></path>
                    </g>
                    <g id="05MU5" transform="translate(6.696, 7.2352)" fill="#06121A">
                        <path d="M0,2.0808 C0,1.7544 0.0566666667,1.46426667 0.17,1.2104 C0.283333333,0.956533333 0.4352,0.738933333 0.6256,0.5576 C0.816,0.376266667 1.03586667,0.238 1.2852,0.1428 C1.53453333,0.0476 1.7952,8.8817842e-16 2.0672,8.8817842e-16 C2.3392,8.8817842e-16 2.59986667,0.0476 2.8492,0.1428 C3.09853333,0.238 3.3184,0.376266667 3.5088,0.5576 C3.6992,0.738933333 3.85106667,0.956533333 3.9644,1.2104 C4.07773333,1.46426667 4.1344,1.7544 4.1344,2.0808 L4.1344,7.7656 C4.1344,8.092 4.07773333,8.38213333 3.9644,8.636 C3.85106667,8.88986667 3.6992,9.10746667 3.5088,9.2888 C3.3184,9.47013333 3.09853333,9.6084 2.8492,9.7036 C2.59986667,9.7988 2.3392,9.8464 2.0672,9.8464 C1.7952,9.8464 1.53453333,9.7988 1.2852,9.7036 C1.03586667,9.6084 0.816,9.47013333 0.6256,9.2888 C0.4352,9.10746667 0.283333333,8.88986667 0.17,8.636 C0.0566666667,8.38213333 0,8.092 0,7.7656 L0,2.0808 Z M1.3872,7.7656 C1.3872,7.96506667 1.45066667,8.13053333 1.5776,8.262 C1.70453333,8.39346667 1.86773333,8.4592 2.0672,8.4592 C2.26666667,8.4592 2.42986667,8.39346667 2.5568,8.262 C2.68373333,8.13053333 2.7472,7.96506667 2.7472,7.7656 L2.7472,2.0808 C2.7472,1.88133333 2.68373333,1.71586667 2.5568,1.5844 C2.42986667,1.45293333 2.26666667,1.3872 2.0672,1.3872 C1.86773333,1.3872 1.70453333,1.45293333 1.5776,1.5844 C1.45066667,1.71586667 1.3872,1.88133333 1.3872,2.0808 L1.3872,7.7656 Z" id="Shape"></path>
                        <path d="M9.1936,0.0816 L9.1936,1.3872 L6.4464,1.3872 L6.4464,3.9984 C6.57333333,3.87146667 6.73653333,3.76493333 6.936,3.6788 C7.13546667,3.59266667 7.3576,3.5496 7.6024,3.5496 C8.07386667,3.5496 8.45693333,3.6924 8.7516,3.978 C9.04626667,4.2636 9.1936,4.692 9.1936,5.2632 L9.1936,7.7656 C9.1936,8.092 9.13693333,8.38213333 9.0236,8.636 C8.91026667,8.88986667 8.7584,9.10746667 8.568,9.2888 C8.3776,9.47013333 8.15773333,9.6084 7.9084,9.7036 C7.65906667,9.7988 7.3984,9.8464 7.1264,9.8464 C6.8544,9.8464 6.59373333,9.7988 6.3444,9.7036 C6.09506667,9.6084 5.8752,9.47013333 5.6848,9.2888 C5.4944,9.10746667 5.34253333,8.88986667 5.2292,8.636 C5.11586667,8.38213333 5.0592,8.092 5.0592,7.7656 L5.0592,7.3576 L6.4464,7.3576 L6.4464,7.7112 C6.4464,7.94693333 6.51213333,8.13053333 6.6436,8.262 C6.77506667,8.39346667 6.94506667,8.4592 7.1536,8.4592 C7.36213333,8.4592 7.52306667,8.39573333 7.6364,8.2688 C7.74973333,8.14186667 7.8064,7.96506667 7.8064,7.7384 L7.8064,5.4672 C7.8064,5.2768 7.7452,5.1136 7.6228,4.9776 C7.5004,4.8416 7.344,4.7736 7.1536,4.7736 C7.03573333,4.7736 6.936,4.794 6.8544,4.8348 C6.7728,4.8756 6.7048,4.9232 6.6504,4.9776 C6.596,5.032 6.5552,5.09093333 6.528,5.1544 C6.48266667,5.236 6.45546667,5.28586667 6.4464,5.304 L5.2224,5.304 L5.2224,0.0816 L9.1936,0.0816 Z" id="Path"></path>
                        <polygon id="Path" points="10.3088 9.7648 10.3088 0.0816 11.6416 0.0816 13.4232 5.2088 13.4504 5.2088 15.2184 0.0816 16.5648 0.0816 16.5648 9.7648 15.1776 9.7648 15.1776 3.876 15.1504 3.876 13.7768 8.0376 13.0832 8.0376 11.7232 3.876 11.696 3.876 11.696 9.7648"></polygon>
                        <path d="M22.3584,0.0816 L22.3584,7.5888 C22.3584,7.90613333 22.3017333,8.19853333 22.1884,8.466 C22.0750667,8.73346667 21.9141333,8.97146667 21.7056,9.18 C21.4970667,9.38853333 21.2568,9.55173333 20.9848,9.6696 C20.7128,9.78746667 20.4226667,9.8464 20.1144,9.8464 C19.8061333,9.8464 19.5182667,9.78746667 19.2508,9.6696 C18.9833333,9.55173333 18.7453333,9.38853333 18.5368,9.18 C18.3282667,8.97146667 18.1650667,8.73346667 18.0472,8.466 C17.9293333,8.19853333 17.8704,7.90613333 17.8704,7.5888 L17.8704,0.0816 L19.2576,0.0816 L19.2576,7.4528 C19.2576,7.79733333 19.3392,8.0512 19.5024,8.2144 C19.6656,8.3776 19.8696,8.4592 20.1144,8.4592 C20.3592,8.4592 20.5632,8.3776 20.7264,8.2144 C20.8896,8.0512 20.9712,7.79733333 20.9712,7.4528 L20.9712,0.0816 L22.3584,0.0816 Z" id="Path"></path>
                        <path d="M27.608,0.0816 L27.608,1.3872 L24.8608,1.3872 L24.8608,3.9984 C24.9877333,3.87146667 25.1509333,3.76493333 25.3504,3.6788 C25.5498667,3.59266667 25.772,3.5496 26.0168,3.5496 C26.4882667,3.5496 26.8713333,3.6924 27.166,3.978 C27.4606667,4.2636 27.608,4.692 27.608,5.2632 L27.608,7.7656 C27.608,8.092 27.5513333,8.38213333 27.438,8.636 C27.3246667,8.88986667 27.1728,9.10746667 26.9824,9.2888 C26.792,9.47013333 26.5721333,9.6084 26.3228,9.7036 C26.0734667,9.7988 25.8128,9.8464 25.5408,9.8464 C25.2688,9.8464 25.0081333,9.7988 24.7588,9.7036 C24.5094667,9.6084 24.2896,9.47013333 24.0992,9.2888 C23.9088,9.10746667 23.7569333,8.88986667 23.6436,8.636 C23.5302667,8.38213333 23.4736,8.092 23.4736,7.7656 L23.4736,7.3576 L24.8608,7.3576 L24.8608,7.7112 C24.8608,7.94693333 24.9265333,8.13053333 25.058,8.262 C25.1894667,8.39346667 25.3594667,8.4592 25.568,8.4592 C25.7765333,8.4592 25.9374667,8.39573333 26.0508,8.2688 C26.1641333,8.14186667 26.2208,7.96506667 26.2208,7.7384 L26.2208,5.4672 C26.2208,5.2768 26.1596,5.1136 26.0372,4.9776 C25.9148,4.8416 25.7584,4.7736 25.568,4.7736 C25.4501333,4.7736 25.3504,4.794 25.2688,4.8348 C25.1872,4.8756 25.1192,4.9232 25.0648,4.9776 C25.0104,5.032 24.9696,5.09093333 24.9424,5.1544 C24.8970667,5.236 24.8698667,5.28586667 24.8608,5.304 L23.6368,5.304 L23.6368,0.0816 L27.608,0.0816 Z" id="Path"></path>
                    </g>
                </g>
            </g>
            <g id="Group-5" transform="translate(57.5, 0)" stroke="#06121A" stroke-linecap="round" stroke-linejoin="round" stroke-width="4">
                <g id="Group-4" transform="translate(48.5, 0)">
                    <line x1="0.5" y1="0.5" x2="0.5" y2="21.5" id="Line-2"></line>
                    <line x1="1" y1="17" x2="14" y2="20" id="Line-2-Copy"></line>
                    <line x1="2" y1="18" x2="11" y2="10" id="Line-2-Copy-2"></line>
                    <line x1="11" y1="21" x2="17.7577724" y2="14.9930912" id="Line-2-Copy-3"></line>
                </g>
                <g id="Group-4-Copy" transform="translate(80.5, 0)">
                    <line x1="0.5" y1="0.5" x2="0.5" y2="21.5" id="Line-2"></line>
                    <line x1="1" y1="17" x2="14" y2="20" id="Line-2-Copy"></line>
                    <line x1="2" y1="18" x2="11" y2="10" id="Line-2-Copy-2"></line>
                    <line x1="11" y1="21" x2="17.7577724" y2="14.9930912" id="Line-2-Copy-3"></line>
                </g>
                <g id="Group-3" transform="translate(0, 7.5)">
                    <path d="M49,14 L107.454544,14 C121.547604,14 135.191895,9.04429067 146,0 L146,0 L146,0" id="Line"></path>
                    <path d="M0,14 L58.4545441,14 C72.5476037,14 86.1918948,9.04429067 97,0 L97,0 L97,0" id="Line-Copy" transform="translate(48.5, 7) scale(-1, 1) translate(-48.5, -7)"></path>
                </g>
            </g>
            <g id="2025" transform="translate(130.8331, 84.442) rotate(-15) translate(-130.8331, -84.442)translate(97.1254, 74.9059)" fill="#80A4AF" fill-rule="nonzero">
                <path d="M12.6977539,18.7817383 C12.3673503,18.7817383 12.0340983,18.7333171 11.697998,18.6364746 C11.3618978,18.5396322 11.0257975,18.40861 10.6896973,18.2434082 C10.353597,18.0782064 10.0174967,17.8902181 9.68139648,17.6794434 C9.34529622,17.4686686 9.01204427,17.2436523 8.68164062,17.0043945 C8.02083333,17.5056966 7.32014974,17.9130046 6.57958984,18.2263184 C5.83902995,18.5396322 5.05289714,18.7247721 4.22119141,18.7817383 C3.62874349,18.7817383 3.07617187,18.6763509 2.56347656,18.4655762 C2.05078125,18.2548014 1.60359701,17.9756673 1.22192383,17.6281738 C0.840250651,17.2806803 0.541178385,16.879069 0.324707031,16.4233398 C0.108235677,15.9676107 -2.48456769e-13,15.5004883 -2.48456769e-13,15.0219727 C-2.48456769e-13,14.6459961 0.0626627604,14.2614746 0.187988281,13.8684082 C0.313313802,13.4753418 0.509847005,13.1164551 0.777587891,12.791748 C1.04532878,12.467041 1.38712565,12.2021484 1.80297852,11.9970703 C2.21883138,11.7919922 2.72298177,11.6894531 3.31542969,11.6894531 C4.21549479,11.6894531 5.01017253,11.8204753 5.69946289,12.0825195 C6.38875326,12.3445638 7.02392578,12.6578776 7.60498047,13.0224609 C7.94677734,12.6123047 8.26863607,12.1708171 8.57055664,11.697998 C8.87247721,11.225179 9.13736979,10.7381185 9.36523437,10.2368164 C9.59309896,9.73551432 9.77254232,9.23136393 9.90356445,8.72436523 C10.0345866,8.21736654 10.1000977,7.71891276 10.1000977,7.22900391 C10.1000977,6.39729818 10.0203451,5.71655273 9.86083984,5.18676758 C9.70133464,4.65698242 9.4934082,4.24397786 9.23706055,3.94775391 C8.98071289,3.65152995 8.69873047,3.44930013 8.39111328,3.34106445 C8.08349609,3.23282878 7.78157552,3.17871094 7.48535156,3.17871094 C7.12076823,3.17871094 6.77612305,3.2413737 6.45141602,3.36669922 C6.12670898,3.49202474 5.83618164,3.66577148 5.57983398,3.88793945 C5.32348633,4.11010742 5.12125651,4.375 4.97314453,4.68261719 C4.82503255,4.99023437 4.75097656,5.33203125 4.75097656,5.70800781 C4.75097656,5.91308594 4.91333008,6.12386068 5.23803711,6.34033203 C5.56274414,6.55680339 6.08398437,6.77897135 6.80175781,7.00683594 C6.82454427,7.07519531 6.8359375,7.13216146 6.8359375,7.17773437 C6.8359375,7.31445312 6.70491536,7.4597168 6.44287109,7.61352539 C6.18082682,7.76733398 5.85327148,7.90974935 5.46020508,8.04077148 C5.06713867,8.17179362 4.63704427,8.2800293 4.16992187,8.36547852 C3.70279948,8.45092773 3.26416016,8.49365234 2.85400391,8.49365234 C2.76285807,8.40250651 2.67456055,8.35123698 2.58911133,8.33984375 C2.50366211,8.32845052 2.42675781,8.32275391 2.35839844,8.32275391 C1.87988281,7.93538411 1.53238932,7.51668294 1.31591797,7.06665039 C1.09944661,6.61661784 0.991210937,6.15234375 0.991210937,5.67382812 C0.991210937,5.03580729 1.1706543,4.34366862 1.52954102,3.59741211 C1.88842773,2.8511556 2.37833659,2.2273763 2.99926758,1.72607422 C3.62019857,1.22477214 4.34936523,0.8203125 5.18676758,0.512695312 C6.02416992,0.205078125 6.9156901,0.0512695312 7.86132812,0.0512695312 C8.11197917,0.0512695312 8.44523112,0.0769042969 8.86108398,0.128173828 C9.27693685,0.179443359 9.7269694,0.284830729 10.2111816,0.444335937 C10.6953939,0.603841146 11.1853027,0.823160807 11.6809082,1.10229492 C12.1765137,1.38142904 12.6265462,1.74886068 13.0310059,2.20458984 C13.4354655,2.66031901 13.7658691,3.27555339 14.0222168,4.05029297 C14.2785645,4.82503255 14.4067383,5.6624349 14.4067383,6.5625 C14.4067383,7.06380208 14.3241374,7.65340169 14.1589355,8.33129883 C13.9937337,9.00919596 13.7544759,9.7269694 13.4411621,10.4846191 C13.1278483,11.2422689 12.7404785,12.0141602 12.2790527,12.800293 C11.817627,13.5864258 11.2963867,14.3269857 10.715332,15.0219727 C11.1027018,15.2156576 11.5043132,15.3723145 11.920166,15.4919434 C12.3360189,15.6115723 12.7945964,15.6713867 13.2958984,15.6713867 C13.421224,15.6713867 13.560791,15.5830892 13.7145996,15.4064941 C13.8684082,15.2298991 14.0136719,15.0333659 14.1503906,14.8168945 C14.2871094,14.6004232 14.4152832,14.40389 14.5349121,14.2272949 C14.654541,14.0506999 14.7428385,13.9624023 14.7998047,13.9624023 C14.9593099,13.9624023 15.0874837,14.0250651 15.1843262,14.1503906 C15.2811686,14.2757161 15.3295898,14.4978841 15.3295898,14.8168945 C15.3295898,15.3068034 15.238444,15.9163411 15.0561523,16.6455078 C14.9991862,16.8733724 14.9194336,17.1126302 14.8168945,17.3632812 C14.7143555,17.6139323 14.5719401,17.8446452 14.3896484,18.0554199 C14.2073568,18.2661947 13.9766439,18.4399414 13.6975098,18.5766602 C13.4183757,18.7133789 13.0851237,18.7817383 12.6977539,18.7817383 Z M3.99902344,15.534668 C4.47753906,15.534668 5.05289714,15.2954102 5.72509766,14.8168945 C5.45166016,14.6459961 5.19246419,14.5092773 4.94750977,14.4067383 C4.70255534,14.3041992 4.48323568,14.2529297 4.28955078,14.2529297 C3.77685547,14.2529297 3.41512044,14.2985026 3.2043457,14.3896484 C2.99357096,14.4807943 2.88818359,14.5947266 2.88818359,14.7314453 C2.88818359,14.8339844 2.91951497,14.9308268 2.98217773,15.0219727 C3.04484049,15.1131185 3.12744141,15.1985677 3.22998047,15.2783203 C3.33251953,15.3580729 3.45214844,15.4207357 3.58886719,15.4663086 C3.72558594,15.5118815 3.86230469,15.534668 3.99902344,15.534668 Z" id="Shape"></path>
                <path d="M24.8814453,18.7988281 C24.0041667,18.7988281 23.237972,18.6079915 22.5828613,18.2263184 C21.9277507,17.8446452 21.383724,17.3319499 20.9507813,16.6882324 C20.5178385,16.044515 20.1931315,15.2982585 19.9766602,14.4494629 C19.7601888,13.6006673 19.6519531,12.7034505 19.6519531,11.7578125 C19.6519531,10.9261068 19.7288574,10.0744629 19.882666,9.20288086 C20.0364746,8.33129883 20.2614909,7.48819987 20.5577148,6.67358398 C20.8539388,5.8589681 21.2213704,5.08992513 21.6600098,4.36645508 C22.0986491,3.64298503 22.6027995,3.01066081 23.1724609,2.46948242 C23.7421224,1.92830404 24.3772949,1.50105794 25.0779785,1.18774414 C25.7786621,0.874430339 26.5391602,0.717773438 27.3594727,0.717773438 C28.3051107,0.717773438 29.1225749,0.897216797 29.8118652,1.25610352 C30.5011556,1.61499023 31.0309408,2.10205078 31.4012207,2.71728516 C31.7715007,3.33251953 32.062028,4.04744466 32.2728027,4.86206055 C32.4835775,5.67667643 32.5889648,6.53971354 32.5889648,7.45117187 C32.5889648,8.29427083 32.5063639,9.16015625 32.3411621,10.0488281 C32.1759603,10.9375 31.9708822,11.8033854 31.7259277,12.6464844 C31.4809733,13.4895833 31.1277832,14.2842611 30.6663574,15.0305176 C30.2049316,15.7767741 29.6808431,16.4290365 29.0940918,16.9873047 C28.5073405,17.5455729 27.8607747,17.9870605 27.1543945,18.3117676 C26.4480143,18.6364746 25.6903646,18.7988281 24.8814453,18.7988281 Z M25.1548828,15.6884766 C25.4625,15.6884766 25.7644206,15.5489095 26.0606445,15.2697754 C26.3568685,14.9906413 26.6360026,14.617513 26.8980469,14.1503906 C27.1600911,13.6832682 27.4021973,13.1477865 27.6243652,12.5439453 C27.8465332,11.9401042 28.0373698,11.3163249 28.196875,10.6726074 C28.3563802,10.02889 28.4817057,9.38802083 28.5728516,8.75 C28.6639974,8.11197917 28.7095703,7.52522786 28.7095703,6.98974609 C28.7095703,6.54541016 28.6810872,6.12955729 28.6241211,5.7421875 C28.5671549,5.35481771 28.4817057,5.01871745 28.3677734,4.73388672 C28.2538411,4.44905599 28.1085775,4.22403971 27.9319824,4.05883789 C27.7553874,3.89363607 27.5417643,3.81103516 27.2911133,3.81103516 C26.9493164,3.81103516 26.6274577,3.95060221 26.3255371,4.22973633 C26.0236165,4.50887044 25.7444824,4.87630208 25.4881348,5.33203125 C25.2317871,5.78776042 25.0039225,6.31184896 24.804541,6.90429688 C24.6051595,7.49674479 24.4342611,8.10913086 24.2918457,8.74145508 C24.1494303,9.3737793 24.0411947,10.0004069 23.9671387,10.6213379 C23.8930827,11.2422689 23.8560547,11.8147786 23.8560547,12.3388672 C23.8560547,12.8173828 23.8816895,13.2588704 23.932959,13.6633301 C23.9842285,14.0677897 24.0639811,14.4209798 24.1722168,14.7229004 C24.2804525,15.024821 24.4171712,15.2612305 24.582373,15.4321289 C24.7475749,15.6030273 24.9384115,15.6884766 25.1548828,15.6884766 Z" id="Shape"></path>
                <path d="M48.6520508,18.7817383 C48.3216471,18.7817383 47.9883952,18.7333171 47.6522949,18.6364746 C47.3161947,18.5396322 46.9800944,18.40861 46.6439941,18.2434082 C46.3078939,18.0782064 45.9717936,17.8902181 45.6356934,17.6794434 C45.2995931,17.4686686 44.9663411,17.2436523 44.6359375,17.0043945 C43.9751302,17.5056966 43.2744466,17.9130046 42.5338867,18.2263184 C41.7933268,18.5396322 41.007194,18.7247721 40.1754883,18.7817383 C39.5830404,18.7817383 39.0304687,18.6763509 38.5177734,18.4655762 C38.0050781,18.2548014 37.5578939,17.9756673 37.1762207,17.6281738 C36.7945475,17.2806803 36.4954753,16.879069 36.2790039,16.4233398 C36.0625326,15.9676107 35.9542969,15.5004883 35.9542969,15.0219727 C35.9542969,14.6459961 36.0169596,14.2614746 36.1422852,13.8684082 C36.2676107,13.4753418 36.4641439,13.1164551 36.7318848,12.791748 C36.9996257,12.467041 37.3414225,12.2021484 37.7572754,11.9970703 C38.1731283,11.7919922 38.6772786,11.6894531 39.2697266,11.6894531 C40.1697917,11.6894531 40.9644694,11.8204753 41.6537598,12.0825195 C42.3430501,12.3445638 42.9782227,12.6578776 43.5592773,13.0224609 C43.9010742,12.6123047 44.2229329,12.1708171 44.5248535,11.697998 C44.8267741,11.225179 45.0916667,10.7381185 45.3195312,10.2368164 C45.5473958,9.73551432 45.7268392,9.23136393 45.8578613,8.72436523 C45.9888835,8.21736654 46.0543945,7.71891276 46.0543945,7.22900391 C46.0543945,6.39729818 45.9746419,5.71655273 45.8151367,5.18676758 C45.6556315,4.65698242 45.4477051,4.24397786 45.1913574,3.94775391 C44.9350098,3.65152995 44.6530273,3.44930013 44.3454102,3.34106445 C44.037793,3.23282878 43.7358724,3.17871094 43.4396484,3.17871094 C43.0750651,3.17871094 42.7304199,3.2413737 42.4057129,3.36669922 C42.0810059,3.49202474 41.7904785,3.66577148 41.5341309,3.88793945 C41.2777832,4.11010742 41.0755534,4.375 40.9274414,4.68261719 C40.7793294,4.99023437 40.7052734,5.33203125 40.7052734,5.70800781 C40.7052734,5.91308594 40.867627,6.12386068 41.192334,6.34033203 C41.517041,6.55680339 42.0382812,6.77897135 42.7560547,7.00683594 C42.7788411,7.07519531 42.7902344,7.13216146 42.7902344,7.17773437 C42.7902344,7.31445312 42.6592122,7.4597168 42.397168,7.61352539 C42.1351237,7.76733398 41.8075684,7.90974935 41.414502,8.04077148 C41.0214355,8.17179362 40.5913411,8.2800293 40.1242187,8.36547852 C39.6570964,8.45092773 39.218457,8.49365234 38.8083008,8.49365234 C38.7171549,8.40250651 38.6288574,8.35123698 38.5434082,8.33984375 C38.457959,8.32845052 38.3810547,8.32275391 38.3126953,8.32275391 C37.8341797,7.93538411 37.4866862,7.51668294 37.2702148,7.06665039 C37.0537435,6.61661784 36.9455078,6.15234375 36.9455078,5.67382812 C36.9455078,5.03580729 37.1249512,4.34366862 37.4838379,3.59741211 C37.8427246,2.8511556 38.3326335,2.2273763 38.9535645,1.72607422 C39.5744954,1.22477214 40.3036621,0.8203125 41.1410645,0.512695312 C41.9784668,0.205078125 42.869987,0.0512695312 43.815625,0.0512695312 C44.066276,0.0512695312 44.399528,0.0769042969 44.8153809,0.128173828 C45.2312337,0.179443359 45.6812663,0.284830729 46.1654785,0.444335937 C46.6496908,0.603841146 47.1395996,0.823160807 47.6352051,1.10229492 C48.1308105,1.38142904 48.5808431,1.74886068 48.9853027,2.20458984 C49.3897624,2.66031901 49.720166,3.27555339 49.9765137,4.05029297 C50.2328613,4.82503255 50.3610352,5.6624349 50.3610352,6.5625 C50.3610352,7.06380208 50.2784342,7.65340169 50.1132324,8.33129883 C49.9480306,9.00919596 49.7087728,9.7269694 49.395459,10.4846191 C49.0821452,11.2422689 48.6947754,12.0141602 48.2333496,12.800293 C47.7719238,13.5864258 47.2506836,14.3269857 46.6696289,15.0219727 C47.0569987,15.2156576 47.45861,15.3723145 47.8744629,15.4919434 C48.2903158,15.6115723 48.7488932,15.6713867 49.2501953,15.6713867 C49.3755208,15.6713867 49.5150879,15.5830892 49.6688965,15.4064941 C49.8227051,15.2298991 49.9679687,15.0333659 50.1046875,14.8168945 C50.2414062,14.6004232 50.3695801,14.40389 50.489209,14.2272949 C50.6088379,14.0506999 50.6971354,13.9624023 50.7541016,13.9624023 C50.9136068,13.9624023 51.0417806,14.0250651 51.138623,14.1503906 C51.2354655,14.2757161 51.2838867,14.4978841 51.2838867,14.8168945 C51.2838867,15.3068034 51.1927409,15.9163411 51.0104492,16.6455078 C50.9534831,16.8733724 50.8737305,17.1126302 50.7711914,17.3632812 C50.6686523,17.6139323 50.526237,17.8446452 50.3439453,18.0554199 C50.1616536,18.2661947 49.9309408,18.4399414 49.6518066,18.5766602 C49.3726725,18.7133789 49.0394206,18.7817383 48.6520508,18.7817383 Z M39.9533203,15.534668 C40.4318359,15.534668 41.007194,15.2954102 41.6793945,14.8168945 C41.405957,14.6459961 41.1467611,14.5092773 40.9018066,14.4067383 C40.6568522,14.3041992 40.4375326,14.2529297 40.2438477,14.2529297 C39.7311523,14.2529297 39.3694173,14.2985026 39.1586426,14.3896484 C38.9478678,14.4807943 38.8424805,14.5947266 38.8424805,14.7314453 C38.8424805,14.8339844 38.8738118,14.9308268 38.9364746,15.0219727 C38.9991374,15.1131185 39.0817383,15.1985677 39.1842773,15.2783203 C39.2868164,15.3580729 39.4064453,15.4207357 39.5431641,15.4663086 C39.6798828,15.5118815 39.8166016,15.534668 39.9533203,15.534668 Z" id="Shape"></path>
                <path d="M61.9294922,4.32373047 C61.4509766,4.27815755 61.0493652,4.22403971 60.7246582,4.16137695 C60.3999512,4.09871419 60.1179687,4.04174805 59.8787109,3.99047852 C59.6394531,3.93920898 59.4286784,3.89648437 59.2463867,3.86230469 C59.0640951,3.828125 58.8704102,3.81103516 58.665332,3.81103516 C58.5969727,3.81103516 58.5229167,3.81388346 58.4431641,3.81958008 C58.3634115,3.82527669 58.2779622,3.83382161 58.1868164,3.84521484 C58.2779622,4.36930339 58.3235352,4.65983073 58.3235352,4.71679687 C58.3918945,5.05859375 58.4431641,5.36051432 58.4773437,5.62255859 C58.5229167,6.08968099 58.5855794,6.84163411 58.665332,7.87841797 C59.3489258,7.81005859 59.9869466,7.77587891 60.5793945,7.77587891 C61.6731445,7.77587891 62.6016927,7.87556966 63.3650391,8.07495117 C64.1283854,8.27433268 64.7635579,8.53637695 65.2705566,8.86108398 C65.7775553,9.18579102 66.1734701,9.55891927 66.4583008,9.98046875 C66.7431315,10.4020182 66.9567546,10.8321126 67.0991699,11.270752 C67.2415853,11.7093913 67.3298828,12.142334 67.3640625,12.5695801 C67.3982422,12.9968262 67.415332,13.3813477 67.415332,13.7231445 C67.415332,14.3725586 67.2444336,15.016276 66.9026367,15.6542969 C66.5608398,16.2923177 66.0851725,16.8648275 65.4756348,17.3718262 C64.866097,17.8788249 64.1397786,18.2889811 63.2966797,18.6022949 C62.4535807,18.9156087 61.5307292,19.0722656 60.528125,19.0722656 C59.4685547,19.0722656 58.5599447,18.9583333 57.8022949,18.7304687 C57.0446452,18.5026042 56.4237142,18.1778971 55.939502,17.7563477 C55.4552897,17.3347982 55.1020996,16.8306478 54.8799316,16.2438965 C54.6577637,15.6571452 54.5466797,15.0105794 54.5466797,14.3041992 C54.5466797,13.8712565 54.6121908,13.5095215 54.7432129,13.2189941 C54.874235,12.9284668 55.0479818,12.6949056 55.2644531,12.5183105 C55.4809245,12.3417155 55.7315755,12.21639 56.0164062,12.142334 C56.301237,12.068278 56.5974609,12.03125 56.9050781,12.03125 C57.1671224,12.03125 57.4633464,12.0625814 57.79375,12.1252441 C58.1241536,12.1879069 58.4317708,12.2705078 58.7166016,12.3730469 C59.0014323,12.4755859 59.2406901,12.5895182 59.434375,12.7148437 C59.6280599,12.8401693 59.7249023,12.9597982 59.7249023,13.0737305 C59.7249023,13.1648763 59.6280599,13.2389323 59.434375,13.2958984 C59.2406901,13.3528646 59.0242187,13.4297689 58.7849609,13.5266113 C58.5457031,13.6234538 58.3292318,13.7487793 58.1355469,13.9025879 C57.941862,14.0563965 57.8450195,14.2700195 57.8450195,14.543457 C57.8450195,14.9308268 57.8848958,15.2612305 57.9646484,15.534668 C58.044401,15.8081055 58.155485,16.0302734 58.2979004,16.2011719 C58.4403158,16.3720703 58.6055176,16.4973958 58.7935059,16.5771484 C58.9814941,16.656901 59.1780273,16.6967773 59.3831055,16.6967773 C59.759082,16.6967773 60.1407552,16.6170247 60.528125,16.4575195 C60.9154948,16.2980143 61.2658366,16.0786947 61.5791504,15.7995605 C61.8924642,15.5204264 62.1488118,15.1871745 62.3481934,14.7998047 C62.5475749,14.4124349 62.6472656,13.9908854 62.6472656,13.5351562 C62.6472656,12.976888 62.567513,12.5069173 62.4080078,12.1252441 C62.2485026,11.743571 62.0063965,11.4331055 61.6816895,11.1938477 C61.3569824,10.9545898 60.9468262,10.7722982 60.4512207,10.6469727 C59.9556152,10.5216471 59.3774089,10.4305013 58.7166016,10.3735352 C58.3861979,10.316569 57.9361654,10.2738444 57.3665039,10.2453613 C56.7968424,10.2168783 56.4351074,10.168457 56.2812988,10.1000977 C56.1274902,10.0317383 56.0021647,9.9235026 55.9053223,9.77539062 C55.8084798,9.62727865 55.7344238,9.40795898 55.6831543,9.11743164 C55.6318848,8.8269043 55.5948568,8.24869792 55.5720703,7.3828125 C55.5492839,6.51692708 55.532194,5.73079427 55.5208008,5.02441406 C55.4980143,4.68261719 55.4780762,4.36645508 55.4609863,4.07592773 C55.4438965,3.78540039 55.4353516,3.50911458 55.4353516,3.24707031 C55.4353516,2.36979167 55.4980143,1.71183268 55.6233398,1.27319336 C55.7486654,0.834554036 55.893929,0.529785156 56.0591309,0.358886719 C56.2243327,0.187988281 56.3923828,0.102539062 56.5632812,0.102539062 C57.0531901,0.102539062 57.5374023,0.102539062 58.015918,0.102539062 C58.3463216,0.102539062 58.6795736,0.133870443 59.0156738,0.196533203 C59.3517741,0.259195964 59.6907227,0.327555339 60.0325195,0.401611328 C60.3743164,0.475667318 60.7246582,0.544026693 61.0835449,0.606689453 C61.4424316,0.669352214 61.8041667,0.700683594 62.16875,0.700683594 C62.2826823,0.700683594 62.3937663,0.697835286 62.502002,0.692138672 C62.6102376,0.686442057 62.7213216,0.672200521 62.8352539,0.649414062 C63.3479492,0.535481771 63.7125326,0.438639323 63.9290039,0.358886719 C64.1454753,0.279134115 64.2935872,0.213623047 64.3733398,0.162353516 C64.4530924,0.111083984 64.5015137,0.0712076823 64.5186035,0.0427246094 C64.5356934,0.0142415365 64.606901,-4.5364671e-14 64.7322266,-4.5364671e-14 C65.153776,-4.5364671e-14 65.4585449,0.202229818 65.6465332,0.606689453 C65.8345215,1.01114909 65.9285156,1.54378255 65.9285156,2.20458984 C65.9285156,2.19319661 65.9285156,2.21883138 65.9285156,2.28149414 C65.9285156,2.3441569 65.8971842,2.42960612 65.8345215,2.5378418 C65.7718587,2.64607747 65.663623,2.77140299 65.5098145,2.91381836 C65.3560059,3.05623372 65.1309896,3.21004232 64.8347656,3.37524414 C64.5385417,3.54044596 64.1568685,3.70279948 63.6897461,3.86230469 C63.2226237,4.0218099 62.6358724,4.17561849 61.9294922,4.32373047 Z" id="Path"></path>
            </g>
            <path d="M81.1908404,215.836567 C81.1908404,217.789098 80.3723126,220.132287 79.0596764,221.378043 L67.7445235,235 L55.953573,220.779041 C55.9462913,220.770259 55.9475078,220.757236 55.9562902,220.749955 C55.9600176,220.746864 55.9647123,220.745181 55.9695542,220.7452 L55.9695542,220.7452 L55.9695542,220.7452 C55.0050693,219.566647 54.4264076,217.478266 54.4264076,215.836567 C54.4264076,212.060835 57.4872429,209 61.2629746,209 C64.3505419,209 66.9600588,211.046777 67.8087144,213.857521 C68.6571891,211.046777 71.266706,209 74.3542733,209 C78.130005,209 81.1908404,212.060835 81.1908404,215.836567 Z" id="Path-Copy" stroke="#06121A" stroke-width="4" fill="#CA0012" stroke-linejoin="round"></path>
        </g>
        <g id="Mapping-USA" stroke-width="1" transform="translate(158.8355, 295.297) rotate(-360) translate(-158.8355, -295.297)translate(6, 254)">
            <path d="M190.442,23.241 C190.442,23.607 190.259,25.071 189.405,25.071 C188.429,25.071 187.636,23.18 181.963,23.18 C175.07,23.18 168.421,31.11 168.421,36.6 C168.421,37.454 168.787,38.125 169.702,38.125 C171.837,38.125 176.9,35.136 181.963,27.145 C181.963,27.145 181.963672,27.1418632 181.965587,27.1359698 L181.975629,27.1103999 C182.047694,26.950517 182.500909,26.291 185.074,26.291 C185.806,26.291 187.392,26.535 187.392,27.206 C187.392,27.267 187.392,27.389 187.331,27.511 C187.331,27.511 161.589,82.594 146.461,82.594 C144.997,82.594 143.899,81.191 143.899,78.019 C143.899,67.039 159.088,48.8 166.53,48.8 L166.713,48.8 C166.957,48.8 167.445,48.861 167.445,49.227 C167.445,49.654 167.079,49.837 166.713,50.02 C162.199,52.277 151.463,65.514 151.463,73.078 L151.463,73.139 C151.463,73.383 151.524,74.603 152.561,74.603 C158.417,74.603 175.253,41.297 175.253,40.016 C175.253,39.284 175.009,39.101 174.765,39.101 C173.24,39.101 169.153,45.201 163.236,45.201 C160.735,45.201 160.735,42.212 160.735,41.48 C160.735,33.794 169.397,19.215 184.342,19.215 C185.196,19.215 190.442,19.581 190.442,23.241 Z M87.535,15.921 C87.901,15.921 88.816,16.043 88.816,16.714 C88.816,17.1125333 88.0853556,18.2018578 87.3060015,19.3868302 L86.9709985,19.8987964 C86.1916444,21.0989511 85.461,22.3097333 85.461,22.936 C85.461,23.241 85.583,23.424 85.949,23.424 C87.047,23.424 89.731,20.435 94.123,20.435 C95.404,20.435 97.295,21.289 97.295,24.644 C97.295,34.526 87.352,46.177 75.152,46.177 L75.024612,46.1774742 C74.4504308,46.1819796 72.3663333,46.2292857 71.98,46.726 C70.6088864,48.47975 66.7542598,55.3838724 63.0299457,62.5853648 L62.5451195,63.5259775 C59.3207355,69.8026529 56.2808182,76.1446364 55.144,79.361 C54.961,79.849 54.595,80.093 54.168,80.093 C52.826,80.093 50.63,78.019 50.63,75.884 C50.63,73.7278861 55.4656466,64.9288638 61.4927586,54.5570982 L61.9907457,53.701187 C62.6581059,52.5555281 63.3385764,51.3926492 64.0273607,50.2192233 L64.5454328,49.3372806 C65.2380743,48.1589983 65.9378307,46.9718372 66.6399056,45.7824705 L67.4998554,44.3264132 C67.7866741,43.8409957 68.0735531,43.3556641 68.3601669,42.8708712 L69.2188869,41.4185618 C74.5054061,32.4782056 79.58975,23.87723 82.411,18.483 C82.411,18.483 83.204,15.921 87.535,15.921 Z M112.423,15.921 C112.789,15.921 113.704,16.043 113.704,16.714 C113.704,17.1125333 112.973356,18.2018578 112.194001,19.3868302 L111.858999,19.8987964 C111.079644,21.0989511 110.349,22.3097333 110.349,22.936 C110.349,23.241 110.471,23.424 110.837,23.424 C111.935,23.424 114.619,20.435 119.011,20.435 C120.292,20.435 122.183,21.289 122.183,24.644 C122.183,34.526 112.24,46.177 100.04,46.177 L99.912612,46.1774742 C99.3384308,46.1819796 97.2543333,46.2292857 96.868,46.726 C95.4968864,48.47975 91.6422598,55.3838724 87.9179457,62.5853648 L87.4331195,63.5259775 C84.2087355,69.8026529 81.1688182,76.1446364 80.032,79.361 C79.849,79.849 79.483,80.093 79.056,80.093 C77.714,80.093 75.518,78.019 75.518,75.884 C75.518,73.7278861 80.3536466,64.9288638 86.3807586,54.5570982 L86.8787457,53.701187 C87.5461059,52.5555281 88.2265764,51.3926492 88.9153607,50.2192233 L89.4334328,49.3372806 C90.1260743,48.1589983 90.8258307,46.9718372 91.5279056,45.7824705 L92.3878554,44.3264132 C92.6746741,43.8409957 92.9615531,43.3556641 93.2481669,42.8708712 L94.1068869,41.4185618 C99.3934061,32.4782056 104.47775,23.87723 107.299,18.483 C107.299,18.483 108.092,15.921 112.423,15.921 Z M133.529,21.472 C134.261,21.472 135.908,21.777 135.908,22.509 C135.908,22.631 135.847,22.814 135.725,22.936 C132.492,27.023 125.111,39.833 122.244,45.872 C122.244,45.872 121.939,47.031 121.451,47.031 C120.475,47.031 118.523,45.628 118.523,43.371 C118.523,41.114 126.392,29.097 126.636,24.217 C126.697,23.241 127.734,22.631 127.734,22.631 C127.734,22.631 129.686,21.472 133.529,21.472 Z M162.626,22.814 C162.626,25.864 153.232,46.543 147.01,46.543 C145.607,46.543 145.302,46.116 145.302,45.75 C145.302,45.6192857 145.364245,45.4885714 145.399813,45.4245481 L145.424,45.384 C146.644,43.554 154.33,31.598 154.33,28.182 C154.33,27.084 153.354,27.084 153.354,27.084 C148.108,27.084 137.982,38.186 135.298,41.907 C134.078,43.615 131.821,43.737 131.089,43.737 C129.686,43.737 129.503,43.188 129.503,42.944 C129.503,41.114 140.605,22.448 143.411,21.411 C143.411,21.411 144.448,20.801 146.217,20.801 C146.949,20.801 147.681,20.923 147.681,21.411 C147.681,22.692 144.753,25.681 144.753,26.962 L144.764296,26.9981481 C144.803833,27.1111111 144.956333,27.45 145.363,27.45 C145.546,27.45 145.729,27.389 145.973,27.206 C150.121,23.973 155.55,20.191 160.369,20.191 C161.101,20.191 162.626,20.435 162.626,22.814 Z M69.235,20.435 C69.723,20.435 74.664,20.801 74.664,24.461 C74.664,24.827 74.603,26.291 73.627,26.291 C72.285,26.291 72.224,24.461 66.795,24.461 C60.207,24.461 53.375,31.964 53.375,37.454 C53.375,38.064 53.741,38.979 54.656,38.979 C56.791,38.979 61,35.99 64.965,29.158 C64.965,29.158 65.514,27.633 69.052,27.633 C69.052,27.633 71.309,27.816 71.309,28.609 C71.309,28.731 71.248,28.792 71.187,28.914 C71.187,28.914 71.1317209,28.9952065 71.0304938,29.1470178 L70.9142965,29.3219715 C69.6278786,31.2660535 64.1993134,39.6955224 63.501,44.53 C63.44,45.018 63.135,45.262 62.891,45.262 C60.329,45.262 59.902,43.005 59.902,41.785 C59.902,41.419 60.024,40.87 60.024,40.504 C60.024,40.077 59.78,40.016 59.658,40.016 C58.072,40.016 53.985,46.421 48.129,46.421 C45.628,46.421 45.628,43.493 45.628,42.7 C45.628,36.173 54.29,20.435 69.235,20.435 Z M59.597,0.488 C61.61,0.488 62.464,0.915 62.464,1.708 C62.464,1.83 62.464,1.952 62.403,2.135 C62.403,2.562 40.443,35.319 40.443,43.737 C40.443,43.737 39.894,44.774 38.735,44.774 C33.977,44.774 32.696,43.981 32.696,42.639 C32.696,37.82 41.968,23.485 44.957,18.91 C45.567,17.995 46.543,16.653 46.543,15.921 C46.543,15.555 46.299,15.311 45.628,15.311 C42.456,15.311 29.28,30.317 25.376,37.393 C24.705,38.613 23.363,38.857 22.387,38.857 C20.496,38.857 19.703,38.43 19.703,36.234 C19.703,30.988 24.461,19.032 24.461,15.555 C24.461,14.945 24.339,14.579 23.973,14.579 C22.265,14.579 19.581,19.581 19.581,19.581 C10.187,34.892 7.869,43.554 5.185,45.384 C4.148,46.116 2.989,46.177 2.379,46.177 C1.647,46.177 5.68434189e-14,46.177 5.68434189e-14,45.262 L5.68434189e-14,45.079 C5.68434189e-14,43.432 11.834,26.962 20.801,9.028 C22.143,6.344 22.204,4.758 22.204,3.782 L22.204,3.05 C22.204,2.501 23.546,0.61 30.378,0.61 L30.4266709,0.610372481 C30.9352318,0.61633218 35.258,0.717647059 35.258,2.44 C35.258,4.392 30.439,17.202 30.439,20.984 C30.439,21.655 30.561,22.021 30.927,22.021 C33.0081765,22.021 37.8121903,16.9130415 42.7689214,11.613876 L43.6622272,10.6590232 C46.8403423,7.26420083 50.0178471,3.91189412 52.521,1.891 L52.5750239,1.84765879 C53.044144,1.44960768 53.6054444,0.488 59.597,0.488 Z M89.609,25.925 C83.265,25.925 75.701,39.284 75.701,40.077 C75.701,41.236 77.104,42.151 78.69,42.151 C84.058,42.151 90.89,32.635 90.89,27.816 C90.89,26.657 90.28,25.925 89.609,25.925 Z M114.497,25.925 C108.153,25.925 100.589,39.284 100.589,40.077 C100.589,41.236 101.992,42.151 103.578,42.151 C108.946,42.151 115.778,32.635 115.778,27.816 C115.778,26.657 115.168,25.925 114.497,25.925 Z M137.372,11.712 C138.958,11.712 140.117,12.505 140.178,13.847 C140.178,16.531 136.884,18.056 134.81,18.056 C133.224,18.056 132.065,17.263 132.004,15.921 L132.004,15.86 C132.004,13.237 135.359,11.712 137.372,11.712 Z M301.624127,0.97698899 C303.271624,0.997137357 305.671,1.33609677 305.671,2.989 C305.671,3.36661905 305.034719,4.65716327 303.880718,6.95943408 L303.64305,7.4334072 C302.379797,9.95226757 300.572175,13.5584603 298.351,18.361 C294.325,27.206 287.981,42.151 286.883,46.909 C286.883,46.909 286.883,47.397 285.907,47.397 C283.772,47.397 280.844,44.957 280.844,43.615 C280.844,39.894 286.822,32.94 286.822,29.646 C286.822,27.999 283.589,27.511 278.526,27.511 C277.306,27.511 276.025,27.572 274.744,27.633 L272.426,30.683 C268.034,36.6 264.618,44.103 264.252,44.896 C263.642,46.238 260.653,46.421 259.555,46.421 C258.823,46.421 256.749,46.36 256.749,45.445 C256.749,44.591 262.361,36.783 269.62,27.999 C269.4614,28.0152667 269.300902,28.0318044 269.139428,28.0485049 L268.653001,28.0989858 C266.540449,28.3189111 264.418733,28.548 264.313,28.548 C263.825,28.548 263.764,27.999 263.764,27.999 C263.764,26.474 266.509,24.339 267.973,23.79 C268.461,23.546 270.718,23.485 273.463,23.424 L274.317,22.448 C274.648553,22.0647765 274.98155,21.6819329 275.31573,21.2999198 L275.985591,20.5371343 C276.097472,20.4102325 276.209466,20.2834563 276.321561,20.1568224 L276.99529,19.3988608 C285.6553,9.6970328 294.809412,1.037 300.059,1.037 C300.059,1.037 300.669,0.976 301.462,0.976 Z M243.440507,0.000721952823 C245.114836,0.0115311909 245.952,0.148521739 245.952,0.732 C245.952,1.098 245.647,1.586 245.037,2.257 C242.931247,4.87415068 238.852431,11.3632503 234.768535,18.0882883 L234.088176,19.2106891 C230.123078,25.7634971 226.256521,32.3483836 224.297,35.624 C223.26,37.393 218.624,45.445 209.047,45.445 C203.435,45.445 198.86,42.761 198.86,37.515 C198.86,33.756141 203.279331,26.3611237 207.78069,18.7391814 L208.290396,17.8755338 L209.09707,16.5040418 L209.63112,15.5907073 C211.138077,13.0055877 212.585824,10.4483108 213.805,8.052 C215.574,4.575 215.635,3.172 215.635,2.196 C215.635,1.098 216.245,0.366 221.857,0.366 C224.541,0.366 225.151,1.037 225.151,1.647 C225.151,2.196 224.724,2.684 224.724,2.684 C223.661583,4.16579167 219.94662,9.94035243 216.233792,16.2547129 L215.72776,17.1187555 L215.052688,18.2827504 C214.828518,18.6715526 214.605403,19.0608763 214.38394,19.4498749 L213.943396,20.2271878 C210.439516,26.4382092 207.461,32.4215 207.461,34.709 C207.461,36.051 207.583,39.528 211.853,39.528 C217.404,39.528 219.539,35.99 220.759,34.038 C222.968071,30.6323482 225.637212,25.4124616 228.242488,20.1204179 L228.842334,18.8986891 L229.270795,18.0226288 L229.668024,17.2085315 C230.988118,14.500648 232.265785,11.8584283 233.429532,9.51958381 L233.775167,8.82726943 C235.770602,4.84463281 237.395264,1.86388171 238.266,1.159 C239.595158,0.061 241.417047,0.00321052632 242.953671,0.000168975069 L243.440507,0.000721952823 Z M272.914,2.013 C272.914,3.904 265.777,15.616 262.788,15.616 C262.361,15.616 261.141,15.616 261.141,14.884 C261.141,14.396 262.91,12.627 262.91,8.479 C262.91,7.625 262.3,4.88 258.091,4.88 C256.2,4.88 250.405,6.222 250.405,10.98 C250.405,16.714 260.348,20.923 260.348,29.646 C260.348,38.125 252.601,44.835 241.377,44.835 C238.033731,44.835 235.987614,44.3274186 234.587904,43.5833998 L234.41192,43.4877578 C234.361047,43.4644063 234.140875,43.371 233.874,43.371 C233.691,43.371 233.447,43.432 233.264,43.554 C231.556,44.103 229.909,44.713 228.079,44.713 C227.713,44.713 225.7,44.652 225.7,43.554 C225.7,41.846 231.983,29.707 236.375,26.291 C237.107,25.742 237.9,25.315 238.937,25.315 C239.425,25.315 240.096,25.437 240.096,25.986 C240.096,26.535 236.802,30.5 236.802,35.624 C236.802,37.027 237.534,41.053 242.475,41.053 C246.562,41.053 253.272,38.918 253.272,31.293 C253.272,23.424 242.78,18.788 242.78,12.261 C242.78,3.355 254.309,1.159 259.555,1.159 C264.191,1.159 265.655,2.196 266.265,2.196 C266.448,2.196 266.631,2.135 266.814,2.013 L266.841432,1.99788338 C266.861036,1.98723876 266.890918,1.97127184 266.930346,1.95094357 L267.076526,1.87783574 C267.654341,1.59693608 269.113119,0.976 270.718,0.976 C271.328,0.976 272.914,1.037 272.914,2.013 Z M293.349,9.882 C290.990333,9.882 285.219355,15.3623789 279.605944,21.7536924 L279.025955,22.4179248 L278.447968,23.0875321 L278.16,23.424 C281.698,23.485 284.809,23.546 284.809,23.546 C290.238,23.546 294.386,12.688 294.386,10.736 C294.386,10.187 293.959,9.882 293.349,9.882 Z" id="Combined-Shape" fill="#CA0012" fill-rule="nonzero"></path>
            <path d="M59.597,-5.512 C61.3546112,-5.512 62.8281787,-5.29928029 64.2138577,-4.68594696 C66.7309312,-3.57183245 68.464,-1.21663639 68.464,1.708 C68.464,2.0509794 68.4493181,2.37366049 68.4071439,2.70392026 L68.403,2.729 L68.4039077,2.74752772 C68.401072,3.67035153 68.342171,3.81770321 67.7098339,4.9571206 L67.5844244,5.18281866 C67.4998584,5.33497306 67.4052155,5.49575027 67.2877979,5.68952192 C67.1135555,5.97707031 66.8764222,6.35778212 66.535775,6.89842426 C66.3971355,7.11845956 65.8789371,7.93679235 65.3348764,8.79615897 L65.0623284,9.22668185 C64.6551859,9.86985561 64.266655,10.4838674 64.0459511,10.8336217 C63.0538367,12.4058474 62.1130819,13.9082402 61.2086075,15.3678091 L60.983,15.732 L61.0724685,15.7026171 C63.5121445,14.9214441 66.0830303,14.4851369 68.7612615,14.4390694 L69.235,14.435 C70.6451108,14.435 72.6547663,14.7807472 74.4724602,15.550594 C75.1925292,15.8555644 75.8722323,16.2203932 76.4989129,16.6438522 L76.57,16.693 L76.6122782,16.6157166 C76.7112695,16.4297365 76.8085527,16.2460016 76.904402,16.0640275 L76.941,15.993 L76.9569157,15.9560269 C77.3927254,14.9400249 78.0976469,13.8851116 79.150551,12.9087177 L79.4210723,12.666323 C81.4680954,10.8936432 84.2354968,9.921 87.535,9.921 C88.5145021,9.921 89.5694447,10.0894978 90.6204423,10.5274135 C92.2852302,11.2210751 93.7001526,12.4996196 94.3814001,14.2809717 L94.438,14.44 L94.6480681,14.4493978 C97.166527,14.5881864 99.3954818,15.7247129 100.959386,17.6130552 L100.989818,17.5665705 C101.271009,17.0470772 101.536804,16.5492917 101.792402,16.0640275 L101.829,15.993 L101.844916,15.9560269 C102.280725,14.9400249 102.985647,13.8851116 104.038551,12.9087177 L104.309072,12.666323 C106.356095,10.8936432 109.123497,9.921 112.423,9.921 C113.402502,9.921 114.457445,10.0894978 115.508442,10.5274135 C117.17323,11.2210751 118.588153,12.4996196 119.2694,14.2809717 L119.326,14.44 L119.536068,14.4493978 C121.793997,14.573829 123.819221,15.5002468 125.341101,17.051427 L125.382,17.094 L125.590188,16.9970363 C125.677968,16.9572022 125.768535,16.9174146 125.861884,16.877758 L126.058,16.797 L126.05142,16.7390857 C126.041902,16.6495339 126.033692,16.5592832 126.026813,16.4683409 L126.010189,16.193446 C126.006063,16.1026892 126.004,16.0118505 126.004,15.921 L126.004,15.86 C126.004,9.57489601 131.943722,5.712 137.372,5.712 C141.927986,5.712 145.949407,8.68166479 146.171811,13.574554 C146.175937,13.6653108 146.178,13.7561495 146.178,13.847 C146.178,14.1526347 146.164233,14.4525943 146.137408,14.7467123 L146.131,14.802 L146.217,14.801 C147.092397,14.801 147.906632,14.8793122 148.754941,15.1183666 L149.120867,15.2309002 C149.874313,15.4820489 150.58987,15.8475199 151.221314,16.3261674 L151.396,16.464 L151.535631,16.3954555 C154.395399,15.0032973 157.120451,14.2574673 159.978427,14.1952442 L160.369,14.191 C163.44805,14.191 166.312149,15.6831555 167.717959,18.5676715 L167.748,18.633 L167.914436,18.5136661 C172.518234,15.228001 177.932366,13.317278 183.860242,13.218989 L184.342,13.215 C185.910328,13.215 187.97657,13.5239707 189.878215,14.2600914 C193.673572,15.729262 196.442,18.7379687 196.442,23.241 C196.442,24.1913736 196.257909,25.3304368 195.870243,26.3771361 C195.28038,27.9697644 194.280153,29.3856806 192.781647,30.2356077 L192.645,30.309 L192.590057,30.4258957 C192.570089,30.4680085 192.548823,30.5128037 192.526269,30.5602503 L192.454754,30.7105132 C192.207271,31.2299051 191.918217,31.8301791 191.589782,32.5046561 C190.655279,34.423756 189.589801,36.5588967 188.410727,38.8568188 C185.039419,45.4272296 181.425982,52.0004244 177.703392,58.157016 C173.753242,64.689956 169.903186,70.3785531 166.204373,74.999922 C159.242134,83.6986803 153.021493,88.594 146.461,88.594 C140.782905,88.594 137.899,83.8836213 137.899,78.019 C137.899,69.9818696 143.89007,59.1688192 151.148223,51.6531595 L151.159,51.641 L151.037959,51.6971429 C149.851143,52.2140121 148.615388,52.5003173 147.311993,52.538581 L147.01,52.543 C143.167045,52.543 139.738057,50.6045691 139.340413,46.5519253 L139.33,46.427 L139.234572,46.5303941 C137.973373,47.8322008 136.428977,48.6979532 134.744528,49.2064663 C133.445194,49.5987178 132.235225,49.737 131.089,49.737 C129.821056,49.737 128.618513,49.4921588 127.56015,49.0324596 L127.466,48.989 L127.452927,49.0200181 C127.193155,49.5684262 126.886261,50.0861317 126.46985,50.5961817 L126.252229,50.8506754 C125.113252,52.1236499 123.537328,53.031 121.451,53.031 C118.439075,53.031 115.575463,51.1564486 113.936723,48.4156364 L113.814,48.204 L113.461669,48.4133796 C109.542418,50.700551 105.109249,52.0883708 100.50812,52.1728639 L100.458,52.172 L100.361221,52.3347643 C98.7737815,54.9842617 96.1276497,59.7878273 93.4518948,64.9467489 L93.2511738,65.3343062 L92.7700978,66.2676306 C89.3436575,72.9376346 86.6253771,78.7113257 85.6890411,81.3604714 L85.6499751,81.4677406 C84.6129676,84.2330938 82.0555966,86.093 79.056,86.093 C74.1200326,86.093 69.518,81.0503472 69.518,75.884 C69.518,72.2515673 72.6362796,66.2674529 81.1946749,51.5397257 L81.266,51.415 L80.8677961,51.5122884 C79.1571165,51.9121543 77.4012022,52.1401569 75.6201202,52.1728639 L75.57,52.172 L75.4732215,52.3347643 C73.8857815,54.9842617 71.2396497,59.7878273 68.5638948,64.9467489 L68.3631738,65.3343062 L67.8820978,66.2676306 C64.4556575,72.9376346 61.7373771,78.7113257 60.8010411,81.3604714 L60.7619751,81.4677406 C59.7249676,84.2330938 57.1675966,86.093 54.168,86.093 C49.2320326,86.093 44.63,81.0503472 44.63,75.884 C44.63,72.2515673 47.7482796,66.2674529 56.3066749,51.5397257 L56.8062203,50.6811379 C56.9351065,50.4598787 57.0653276,50.2365233 57.1969978,50.0108732 L57.484,49.518 L57.3656121,49.4283129 L57.293,49.369 L57.1945218,49.4374666 C54.495908,51.2633343 51.7344513,52.3297076 48.5471762,52.4154021 L48.129,52.421 C45.6492062,52.421 43.6738865,51.5120451 42.2559929,50.0632559 L42.178,49.982 L42.108639,50.0172053 C41.1971473,50.4538948 40.179056,50.7220536 39.0703231,50.7672007 L38.735,50.774 C35.7197148,50.774 33.5231738,50.5087173 31.7029059,49.7806101 C29.0971196,48.7382956 27.2939308,46.663858 26.8199347,44.0416698 L26.804,43.948 C25.5324937,44.5455811 24.1260107,44.8216193 22.6772815,44.8537939 L22.387,44.857 C18.9862072,44.857 16.3168774,43.5460259 14.8784598,41.0802343 L14.844,41.019 L14.7108549,41.2934939 C14.3372023,42.0590927 14.0048256,42.7361791 13.7053445,43.3385274 L13.456507,43.8368441 C11.6879098,47.3616546 11.1244212,48.0890436 9.68478217,49.4398837 C9.33387172,49.7691495 8.96243931,50.070397 8.64509919,50.2858072 C6.5868767,51.7386701 4.55177363,52.177 2.379,52.177 C1.7170366,52.177 1.29556687,52.1644143 0.703902028,52.0991955 C-0.370600539,51.9807539 -1.35953643,51.7362815 -2.3867162,51.1912905 C-4.48497883,50.0780147 -6,47.9700015 -6,45.262 L-6,45.079 C-6,43.1155571 -5.61128422,42.333003 -3.85116932,39.346291 L-3.701319,39.0928471 C-2.99833327,37.907868 -2.21833775,36.6499675 -0.293244444,33.5742027 C4.46766076,25.9675973 7.0342294,21.7499174 10.1132144,16.3021649 C12.0575324,12.8620169 13.8317769,9.55003827 15.4344369,6.34471843 C16.0952846,5.023023 16.204,4.51568432 16.204,3.782 L16.204,3.05 C16.204,-0.181575683 18.3344756,-2.51287475 21.2435452,-3.83687438 C23.5265126,-4.87591726 26.5319194,-5.39 30.423917,-5.3898243 L30.4969785,-5.38921557 C30.8759274,-5.38477477 31.3394084,-5.36615276 31.8634412,-5.3252127 C32.6757549,-5.2617507 33.4802447,-5.15616141 34.2714201,-4.98927284 C35.514927,-4.72697061 36.6365746,-4.34140426 37.6968422,-3.69530364 C39.7709571,-2.43138988 41.258,-0.340235856 41.258,2.44 C41.258,3.11525737 41.1806346,3.75648273 41.004155,4.56322138 L40.955,4.779 L41.001261,4.73053399 C44.4444133,1.09028421 46.5212124,-0.953973096 48.5739671,-2.63270106 L48.676,-2.716 C48.7389346,-2.77546213 48.8854333,-2.90529035 49.0393053,-3.03245331 L49.1054581,-3.08655254 C49.6114819,-3.49574085 50.1713692,-3.85284022 50.8106858,-4.15899185 C52.8160018,-5.11928402 55.4918607,-5.512 59.597,-5.512 Z M184.403823,19.215 L184.342,19.215 C169.397,19.215 160.735,33.794 160.735,41.48 C160.735,42.212 160.735,45.201 163.236,45.201 C169.153,45.201 173.24,39.101 174.765,39.101 C175.009,39.101 175.253,39.284 175.253,40.016 C175.253,41.297 158.417,74.603 152.561,74.603 C151.524,74.603 151.463,73.383 151.463,73.139 L151.463,73.078 C151.463,65.514 162.199,52.277 166.713,50.02 C167.079,49.837 167.445,49.654 167.445,49.227 C167.445,48.861 166.957,48.8 166.713,48.8 L166.53,48.8 C159.088,48.8 143.899,67.039 143.899,78.019 C143.899,81.191 144.997,82.594 146.461,82.594 C161.589,82.594 187.331,27.511 187.331,27.511 C187.392,27.389 187.392,27.267 187.392,27.206 C187.392,26.535 185.806,26.291 185.074,26.291 C182.500909,26.291 182.047694,26.950517 181.975629,27.1103999 L181.965587,27.1359698 C181.963672,27.1418632 181.963,27.145 181.963,27.145 C176.9,35.136 171.837,38.125 169.702,38.125 C168.787,38.125 168.421,37.454 168.421,36.6 C168.421,31.11 175.07,23.18 181.963,23.18 C187.636,23.18 188.429,25.071 189.405,25.071 C190.259,25.071 190.442,23.607 190.442,23.241 C190.442,19.581 185.196,19.215 184.342,19.215 L184.403823,19.215 Z M112.423,15.921 C108.092,15.921 107.299,18.483 107.299,18.483 C104.47775,23.87723 99.3934061,32.4782056 94.1068869,41.4185618 L93.2481669,42.8708712 C92.9615531,43.3556641 92.6746741,43.8409957 92.3878554,44.3264132 L91.5279056,45.7824705 C90.8258307,46.9718372 90.1260743,48.1589983 89.4334328,49.3372806 L88.9153607,50.2192233 C88.2265764,51.3926492 87.5461059,52.5555281 86.8787457,53.701187 L86.3807586,54.5570982 C80.3536466,64.9288638 75.518,73.7278861 75.518,75.884 C75.518,78.019 77.714,80.093 79.056,80.093 C79.483,80.093 79.849,79.849 80.032,79.361 C81.1688182,76.1446364 84.2087355,69.8026529 87.4331195,63.5259775 L87.9179457,62.5853648 C91.6422598,55.3838724 95.4968864,48.47975 96.868,46.726 C97.2543333,46.2292857 99.3384308,46.1819796 99.912612,46.1774742 L100.04,46.177 C112.24,46.177 122.183,34.526 122.183,24.644 C122.183,21.289 120.292,20.435 119.011,20.435 C114.619,20.435 111.935,23.424 110.837,23.424 C110.471,23.424 110.349,23.241 110.349,22.936 C110.349,22.3097333 111.079644,21.0989511 111.858999,19.8987964 L112.194001,19.3868302 C112.973356,18.2018578 113.704,17.1125333 113.704,16.714 C113.704,16.043 112.789,15.921 112.423,15.921 Z M87.535,15.921 C83.204,15.921 82.411,18.483 82.411,18.483 C79.58975,23.87723 74.5054061,32.4782056 69.2188869,41.4185618 L68.3601669,42.8708712 C68.0735531,43.3556641 67.7866741,43.8409957 67.4998554,44.3264132 L66.6399056,45.7824705 C65.9378307,46.9718372 65.2380743,48.1589983 64.5454328,49.3372806 L64.0273607,50.2192233 C63.3385764,51.3926492 62.6581059,52.5555281 61.9907457,53.701187 L61.4927586,54.5570982 C55.4656466,64.9288638 50.63,73.7278861 50.63,75.884 C50.63,78.019 52.826,80.093 54.168,80.093 C54.595,80.093 54.961,79.849 55.144,79.361 C56.2808182,76.1446364 59.3207355,69.8026529 62.5451195,63.5259775 L63.0299457,62.5853648 C66.7542598,55.3838724 70.6088864,48.47975 71.98,46.726 C72.3663333,46.2292857 74.4504308,46.1819796 75.024612,46.1774742 L75.152,46.177 C87.352,46.177 97.295,34.526 97.295,24.644 C97.295,21.289 95.404,20.435 94.123,20.435 C89.731,20.435 87.047,23.424 85.949,23.424 C85.583,23.424 85.461,23.241 85.461,22.936 C85.461,22.3097333 86.1916444,21.0989511 86.9709985,19.8987964 L87.3060015,19.3868302 C88.0853556,18.2018578 88.816,17.1125333 88.816,16.714 C88.816,16.043 87.901,15.921 87.535,15.921 Z M278.613,33.511 L278.526,33.511 C278.316968,33.511 278.113733,33.5125682 277.901372,33.5160984 L277.806,33.518 L277.243821,34.2591148 C276.652892,35.0552276 276.055621,35.9199692 275.45611,36.843669 L275.096168,37.4048865 C273.796153,39.4556893 272.549305,41.6755953 271.394397,43.9279745 C270.973672,44.7485014 270.590566,45.5240644 270.243924,46.248951 C270.023741,46.7093909 269.970757,46.8231813 269.714199,47.3788177 C268.436578,50.1895825 266.191508,51.3958889 263.388083,52.0188724 C262.098947,52.3053469 260.751589,52.421 259.555,52.421 C258.565971,52.421 257.633428,52.3582327 256.630347,52.1450781 C255.637483,51.9340943 254.718105,51.6039987 253.804765,51.0077905 C253.047419,50.5134118 252.38394,49.880479 251.870463,49.1290613 L251.811,49.038 L251.578966,49.1234227 C248.603541,50.1891461 245.303349,50.7878508 241.79855,50.8323285 L241.377,50.835 C238.421492,50.835 235.963349,50.4990729 233.845308,49.7726494 L233.697,49.719 L233.351135,49.8271705 C231.559714,50.373592 230.121182,50.666025 228.490885,50.7077814 L228.079,50.713 C227.183177,50.713 226.201842,50.6195396 225.146387,50.3263575 C223.629259,49.9049331 222.235842,49.1607859 221.238235,48.0095497 L221.093,47.835 L221.054408,47.8618239 C217.620009,50.1341195 213.613951,51.445 209.047,51.445 C200.045666,51.445 192.86,46.278447 192.86,37.515 C192.86,34.5208657 194.036616,31.2652901 196.286735,26.8509422 C197.740367,23.9991655 198.946821,21.8981832 202.613476,15.6896087 L203.11865,14.8336521 L203.917538,13.4754376 L204.447548,12.5690216 C206.167582,9.61837807 207.425972,7.35841248 208.457332,5.33125654 C209.086705,4.09421274 209.431374,3.23318617 209.577154,2.67357992 C209.632159,2.46242951 209.635,2.43491367 209.635,2.196 C209.635,-0.897177398 211.364655,-3.55993599 214.534759,-4.74872507 C216.303236,-5.41190382 218.494585,-5.634 221.857,-5.634 C223.955824,-5.634 225.6772,-5.34710391 227.193782,-4.58881315 C229.360731,-3.50533824 230.832518,-1.51435261 231.105206,0.846928552 L231.115,0.956 L231.204342,0.799596432 C232.38865,-1.28281795 233.294221,-2.49940827 234.325176,-3.36805652 L234.444711,-3.46677051 C236.973582,-5.55583761 239.310661,-5.9926319 242.960486,-5.99982715 L243.479241,-5.99915302 C244.863015,-5.99021956 245.817731,-5.91881498 246.830059,-5.65632998 C248.219937,-5.29595051 249.500422,-4.58383179 250.433438,-3.51932605 L250.454,-3.494 L250.465999,-3.49888458 C253.301833,-4.34026178 256.301877,-4.78365036 259.0161,-4.8357873 L259.555,-4.841 C262.062027,-4.841 264.106179,-4.59218914 265.895379,-4.13821319 L266.235308,-4.25888197 C267.476147,-4.68696146 268.822969,-4.96904355 270.278182,-5.01679336 L270.718,-5.024 C271.733841,-5.024 272.657277,-4.94141627 273.717611,-4.63357736 C276.541908,-3.81362035 278.914,-1.6701633 278.914,2.013 C278.914,4.6984797 276.874592,8.58448889 273.928986,12.9040166 C272.82214,14.5271311 271.695293,15.9995479 270.599486,17.2224836 L270.337,17.509 L270.390163,17.5074119 C270.450647,17.5049966 270.5122,17.5026207 270.574997,17.5002773 L270.67,17.497 L270.807378,17.340783 L271.484958,16.5692253 C271.656776,16.3744691 271.656776,16.3744691 271.837062,16.1706884 L272.519129,15.403366 C284.05173,2.48336765 292.410705,-4.60769476 299.521322,-4.94999384 L299.738,-4.957 L299.801862,-4.96240809 C299.846975,-4.96578074 299.894448,-4.96916405 299.944193,-4.97252541 L300.100155,-4.98251098 C300.52929,-5.0085192 300.985974,-5.024 301.4986,-5.02388837 L301.660727,-5.02289938 L301.697499,-5.02256237 C303.322135,-5.0026936 304.859375,-4.79922746 306.321146,-4.26611445 C309.350525,-3.16128872 311.671,-0.7126274 311.671,2.989 C311.671,4.43286489 311.420745,5.10958826 310.656988,6.76547198 C310.354527,7.4212319 310.002655,8.1357267 309.244194,9.64888213 L309.006353,10.1231987 C306.883092,14.3568699 305.576324,17.0319631 303.811908,20.8466548 C303.324497,21.9174824 302.833489,23.0088571 302.343541,24.1097449 L301.923953,25.0554353 C301.854101,25.2133529 301.784298,25.3714003 301.714557,25.5295453 L301.296969,26.4793298 C297.339057,35.5085226 293.671925,44.6458985 292.809645,47.933912 L292.779,48.048 L292.752735,48.196428 C292.539773,49.2296525 292.054921,50.25604 291.219771,51.1696492 L291.003641,51.3956407 C289.601525,52.7977564 287.803794,53.397 285.907,53.397 C280.843325,53.397 274.844,48.7257698 274.844,43.615 C274.844,40.6399286 275.834506,38.3978654 278.339628,33.9914497 C278.410819,33.8662281 278.462577,33.7754123 278.559471,33.6057247 L278.616,33.506 L278.613,33.511 Z M301.624127,0.976889213 L301.295028,0.976889213 C300.584969,0.984403061 300.059,1.037 300.059,1.037 C294.809412,1.037 285.6553,9.6970328 276.99529,19.3988608 L276.321561,20.1568224 C276.209466,20.2834563 276.097472,20.4102325 275.985591,20.5371343 L275.31573,21.2999198 C274.98155,21.6819329 274.648553,22.0647765 274.317,22.448 L273.463,23.424 C270.718,23.485 268.461,23.546 267.973,23.79 C266.509,24.339 263.764,26.474 263.764,27.999 C263.764,27.999 263.825,28.548 264.313,28.548 C264.418733,28.548 266.540449,28.3189111 268.653001,28.0989858 L269.139428,28.0485049 C269.300902,28.0318044 269.4614,28.0152667 269.62,27.999 C262.361,36.783 256.749,44.591 256.749,45.445 C256.749,46.36 258.823,46.421 259.555,46.421 C260.653,46.421 263.642,46.238 264.252,44.896 C264.618,44.103 268.034,36.6 272.426,30.683 L274.744,27.633 C276.025,27.572 277.306,27.511 278.526,27.511 C283.589,27.511 286.822,27.999 286.822,29.646 C286.822,32.94 280.844,39.894 280.844,43.615 C280.844,44.957 283.772,47.397 285.907,47.397 C286.883,47.397 286.883,46.909 286.883,46.909 C287.981,42.151 294.325,27.206 298.351,18.361 C300.315885,14.1125995 301.957148,10.8003936 303.184229,8.34891683 L303.494882,7.72887658 L303.64305,7.4334072 L303.880718,6.95943408 C303.926878,6.86734325 303.97221,6.77687118 304.016706,6.68801155 L304.400016,5.92033057 C305.224074,4.2632034 305.671,3.30548073 305.671,2.989 C305.671,1.33609677 303.271624,0.997137357 301.624127,0.976889213 Z M133.529,21.472 C129.686,21.472 127.734,22.631 127.734,22.631 C127.734,22.631 126.697,23.241 126.636,24.217 C126.392,29.097 118.523,41.114 118.523,43.371 C118.523,45.628 120.475,47.031 121.451,47.031 C121.939,47.031 122.244,45.872 122.244,45.872 C125.111,39.833 132.492,27.023 135.725,22.936 C135.847,22.814 135.908,22.631 135.908,22.509 C135.908,21.777 134.261,21.472 133.529,21.472 Z M160.442236,20.1918252 L160.369,20.191 C155.55,20.191 150.121,23.973 145.973,27.206 C145.729,27.389 145.546,27.45 145.363,27.45 C144.956333,27.45 144.803833,27.1111111 144.764296,26.9981481 L144.753,26.962 C144.753,25.681 147.681,22.692 147.681,21.411 C147.681,20.923 146.949,20.801 146.217,20.801 C144.448,20.801 143.411,21.411 143.411,21.411 C140.605,22.448 129.503,41.114 129.503,42.944 C129.503,43.188 129.686,43.737 131.089,43.737 C131.821,43.737 134.078,43.615 135.298,41.907 C137.982,38.186 148.108,27.084 153.354,27.084 C153.354,27.084 154.33,27.084 154.33,28.182 C154.33,31.598 146.644,43.554 145.424,45.384 L145.399813,45.4245481 C145.364245,45.4885714 145.302,45.6192857 145.302,45.75 C145.302,46.116 145.607,46.543 147.01,46.543 C153.232,46.543 162.626,25.864 162.626,22.814 C162.626,20.435 161.101,20.191 160.369,20.191 L160.442236,20.1918252 Z M69.235,20.435 C54.29,20.435 45.628,36.173 45.628,42.7 C45.628,43.493 45.628,46.421 48.129,46.421 C53.985,46.421 58.072,40.016 59.658,40.016 C59.78,40.016 60.024,40.077 60.024,40.504 C60.024,40.87 59.902,41.419 59.902,41.785 C59.902,43.005 60.329,45.262 62.891,45.262 C63.135,45.262 63.44,45.018 63.501,44.53 C64.1993134,39.6955224 69.6278786,31.2660535 70.9142965,29.3219715 L71.0304938,29.1470178 C71.1317209,28.9952065 71.187,28.914 71.187,28.914 C71.248,28.792 71.309,28.731 71.309,28.609 C71.309,27.816 69.052,27.633 69.052,27.633 C65.514,27.633 64.965,29.158 64.965,29.158 C61,35.99 56.791,38.979 54.656,38.979 C53.741,38.979 53.375,38.064 53.375,37.454 C53.375,31.964 60.207,24.461 66.795,24.461 C72.224,24.461 72.285,26.291 73.627,26.291 C74.603,26.291 74.664,24.827 74.664,24.461 C74.664,20.801 69.723,20.435 69.235,20.435 Z M59.597,0.488 C53.6054444,0.488 53.044144,1.44960768 52.5750239,1.84765879 L52.521,1.891 C50.0178471,3.91189412 46.8403423,7.26420083 43.6622272,10.6590232 L42.7689214,11.613876 C37.8121903,16.9130415 33.0081765,22.021 30.927,22.021 C30.561,22.021 30.439,21.655 30.439,20.984 C30.439,17.202 35.258,4.392 35.258,2.44 C35.258,0.717647059 30.9352318,0.61633218 30.4266709,0.610372481 L30.378,0.61 C23.546,0.61 22.204,2.501 22.204,3.05 L22.204,3.782 C22.204,4.758 22.143,6.344 20.801,9.028 C11.834,26.962 3.01980663e-14,43.432 3.01980663e-14,45.079 L3.01980663e-14,45.262 C3.01980663e-14,46.177 1.647,46.177 2.379,46.177 C2.989,46.177 4.148,46.116 5.185,45.384 C7.869,43.554 10.187,34.892 19.581,19.581 C19.581,19.581 22.265,14.579 23.973,14.579 C24.339,14.579 24.461,14.945 24.461,15.555 C24.461,19.032 19.703,30.988 19.703,36.234 C19.703,38.43 20.496,38.857 22.387,38.857 C23.363,38.857 24.705,38.613 25.376,37.393 C29.28,30.317 42.456,15.311 45.628,15.311 C46.299,15.311 46.543,15.555 46.543,15.921 C46.543,16.653 45.567,17.995 44.957,18.91 C41.968,23.485 32.696,37.82 32.696,42.639 C32.696,43.981 33.977,44.774 38.735,44.774 C39.894,44.774 40.443,43.737 40.443,43.737 C40.443,35.319 62.403,2.562 62.403,2.135 C62.464,1.952 62.464,1.83 62.464,1.708 C62.464,0.915 61.61,0.488 59.597,0.488 Z M243.440507,0.000721952823 L242.953671,0.000168975069 C241.417047,0.00321052632 239.595158,0.061 238.266,1.159 C237.395264,1.86388171 235.770602,4.84463281 233.775167,8.82726943 L233.429532,9.51958381 C232.265785,11.8584283 230.988118,14.500648 229.668024,17.2085315 L229.270795,18.0226288 L228.842334,18.8986891 L228.242488,20.1204179 C225.637212,25.4124616 222.968071,30.6323482 220.759,34.038 C219.539,35.99 217.404,39.528 211.853,39.528 C207.583,39.528 207.461,36.051 207.461,34.709 C207.461,32.4215 210.439516,26.4382092 213.943396,20.2271878 L214.38394,19.4498749 C214.605403,19.0608763 214.828518,18.6715526 215.052688,18.2827504 L215.72776,17.1187555 L216.233792,16.2547129 C219.94662,9.94035243 223.661583,4.16579167 224.724,2.684 C224.724,2.684 225.151,2.196 225.151,1.647 C225.151,1.037 224.541,0.366 221.857,0.366 C216.245,0.366 215.635,1.098 215.635,2.196 C215.635,3.172 215.574,4.575 213.805,8.052 C212.585824,10.4483108 211.138077,13.0055877 209.63112,15.5907073 L209.09707,16.5040418 L208.290396,17.8755338 L207.78069,18.7391814 C203.279331,26.3611237 198.86,33.756141 198.86,37.515 C198.86,42.761 203.435,45.445 209.047,45.445 C218.624,45.445 223.26,37.393 224.297,35.624 C226.256521,32.3483836 230.123078,25.7634971 234.088176,19.2106891 L234.768535,18.0882883 C238.852431,11.3632503 242.931247,4.87415068 245.037,2.257 C245.647,1.586 245.952,1.098 245.952,0.732 C245.952,0.148521739 245.114836,0.0115311909 243.440507,0.000721952823 Z M270.806991,0.976458302 L270.718,0.976 C269.113119,0.976 267.654341,1.59693608 267.076526,1.87783574 L266.930346,1.95094357 C266.890918,1.97127184 266.861036,1.98723876 266.841432,1.99788338 L266.814,2.013 C266.631,2.135 266.448,2.196 266.265,2.196 C265.655,2.196 264.191,1.159 259.555,1.159 C254.309,1.159 242.78,3.355 242.78,12.261 C242.78,18.788 253.272,23.424 253.272,31.293 C253.272,38.918 246.562,41.053 242.475,41.053 C237.534,41.053 236.802,37.027 236.802,35.624 C236.802,30.5 240.096,26.535 240.096,25.986 C240.096,25.437 239.425,25.315 238.937,25.315 C237.9,25.315 237.107,25.742 236.375,26.291 C231.983,29.707 225.7,41.846 225.7,43.554 C225.7,44.652 227.713,44.713 228.079,44.713 C229.909,44.713 231.556,44.103 233.264,43.554 C233.447,43.432 233.691,43.371 233.874,43.371 C234.140875,43.371 234.361047,43.4644063 234.41192,43.4877578 L234.587904,43.5833998 C235.987614,44.3274186 238.033731,44.835 241.377,44.835 C252.601,44.835 260.348,38.125 260.348,29.646 C260.348,20.923 250.405,16.714 250.405,10.98 C250.405,6.222 256.2,4.88 258.091,4.88 C262.3,4.88 262.91,7.625 262.91,8.479 C262.91,12.627 261.141,14.396 261.141,14.884 C261.141,15.616 262.361,15.616 262.788,15.616 C265.777,15.616 272.914,3.904 272.914,2.013 C272.914,1.037 271.328,0.976 270.718,0.976 L270.806991,0.976458302 Z M89.609,25.925 C90.28,25.925 90.89,26.657 90.89,27.816 C90.89,32.635 84.058,42.151 78.69,42.151 C77.104,42.151 75.701,41.236 75.701,40.077 C75.701,39.284 83.265,25.925 89.609,25.925 Z M114.497,25.925 C115.168,25.925 115.778,26.657 115.778,27.816 C115.778,32.635 108.946,42.151 103.578,42.151 C101.992,42.151 100.589,41.236 100.589,40.077 C100.589,39.284 108.153,25.925 114.497,25.925 Z M245.776,27.958 L245.722141,28.1161321 L245.63157,28.3525004 C245.51773,28.6377325 245.399414,28.8849785 245.262846,29.1442046 C245.128827,29.3985942 245.043998,29.5465615 244.76297,30.0279518 C244.330815,30.7682175 244.102445,31.1813977 243.849036,31.7046393 C243.281243,32.8770279 242.932663,33.977701 242.832242,35.0116196 L242.829,35.045 L242.982176,35.0398971 C245.54303,34.9045303 247.168129,33.7207655 247.267196,31.5101367 L247.272,31.293 C247.272,30.4414752 246.908306,29.5242635 245.912586,28.1450555 L245.776,27.958 Z M224.414,14.291 L224.370243,14.3631174 C223.946556,15.0546946 223.517633,15.760076 223.090741,16.4680273 L222.664794,17.1764191 C222.240063,17.8848354 221.819783,18.5920767 221.411223,19.2869088 L220.918034,20.1289131 L220.250608,21.2796873 C220.029526,21.6631337 219.811953,22.0428337 219.603881,22.4082889 L219.169185,23.1752602 C217.347074,26.4051567 215.866413,29.224855 214.834431,31.4571591 C214.622769,31.9150092 214.432363,32.3431846 214.264152,32.7388729 L214.252,32.768 L214.296298,32.7280601 C214.380855,32.6482152 214.463859,32.5618827 214.546591,32.4688385 L214.670644,32.3242106 C214.953846,31.9827386 215.150356,31.6910525 215.67101,30.8580064 L215.725232,30.7728534 C217.489662,28.0526912 219.712389,23.8629029 222.856636,17.4760672 L223.452427,16.2626119 L223.878468,15.3915043 L224.274766,14.5793168 C224.305379,14.5165215 224.34721,14.4306594 224.397961,14.3264554 L224.414,14.291 Z M293.349,9.882 C293.959,9.882 294.386,10.187 294.386,10.736 C294.386,12.688 290.238,23.546 284.809,23.546 C284.809,23.546 281.698,23.485 278.16,23.424 L278.447968,23.0875321 L279.025955,22.4179248 L279.605944,21.7536924 C285.219355,15.3623789 290.990333,9.882 293.349,9.882 Z M137.372,11.712 C136.761201,11.712 136.026847,11.8524037 135.300153,12.1212826 C135.223682,12.1012462 135.149964,12.086668 135.078946,12.0762749 L134.940602,12.0609409 L134.84,12.057 L134.812136,12.0866509 C134.773096,12.1290919 134.730268,12.1810603 134.684368,12.244065 L134.613302,12.3470377 L134.552947,12.4465733 C133.177551,13.1414197 132.004,14.3086742 132.004,15.86 L132.004,15.921 C132.065,17.263 133.224,18.056 134.81,18.056 C136.884,18.056 140.178,16.531 140.178,13.847 C140.117,12.505 138.958,11.712 137.372,11.712 Z" id="Combined-Shape" fill="#FFFFFF" fill-rule="nonzero"></path>
        </g>
        <polygon id="Oval" fill="#FFFFFF" points="221 289 234.25 270 230 266 218.5 286"></polygon>
    </g>
</svg>