<?xml version="1.0" encoding="UTF-8"?>
<svg width="44px" height="29px" viewBox="0 0 44 29" version="1.1" xmlns="http://www.w3.org/2000/svg" xmlns:xlink="http://www.w3.org/1999/xlink">
    <title>Group 2</title>
    <g id="app-signs" stroke="none" stroke-width="1" fill="none" fill-rule="evenodd">
        <g id="musa-sign-copy" transform="translate(-302, -11)">
            <g id="Group-2" transform="translate(302.7007, -15.1764)">
                <rect id="Rectangle" stroke="#BC9326" stroke-width="0.222222222" fill="#F0CC37" transform="translate(21.5628, 40.6161) rotate(1) translate(-21.5628, -40.6161)" x="0.340560694" y="27.3938828" width="42.4444444" height="26.4444444" rx="0.888888896"></rect>
                <circle id="Oval" stroke="#FDEEA7" stroke-width="4.44444444" transform="translate(21.6186, 40.4106) rotate(1) translate(-21.6186, -40.4106)" cx="21.6185767" cy="40.4105632" r="4.88888889"></circle>
                <g id="2025" transform="translate(21.7437, 40.2906) rotate(1) translate(-21.7437, -40.2906)translate(4.7437, 0.2906)" fill="#1F1F1F" fill-rule="nonzero">
                    <path d="M8.40538194,47 L0.940104167,47 L0.940104167,45.3246528 L4.38628472,40.9583333 C4.84346065,40.3101852 5.171875,39.7459491 5.37152778,39.265625 C5.57118056,38.7853009 5.67100694,38.3483796 5.67100694,37.9548611 C5.67100694,37.4166667 5.56684028,36.9826389 5.35850694,36.6527778 C5.15017361,36.3229167 4.84924769,36.1579861 4.45572917,36.1579861 C4.05063657,36.1579861 3.73958333,36.3576389 3.52256944,36.7569444 C3.30555556,37.15625 3.19704861,37.6799769 3.19704861,38.328125 L0.792534722,38.328125 L0.775173611,38.2847222 C0.752025463,37.1388889 1.07609954,36.1681134 1.74739583,35.3723958 C2.41869213,34.5766782 3.32146991,34.1788194 4.45572917,34.1788194 C5.61313657,34.1788194 6.51591435,34.5144676 7.1640625,35.1857639 C7.81221065,35.8570602 8.13628472,36.771412 8.13628472,37.9288194 C8.13628472,38.7042824 7.95543981,39.421875 7.59375,40.0815972 C7.23206019,40.7413194 6.62876157,41.603588 5.78385417,42.6684028 L4.13454861,45.0295139 L8.40538194,45.0295139 L8.40538194,47 Z" id="Path"></path>
                    <path d="M16.7196181,42.0434028 C16.7196181,43.7274306 16.3854167,45.004919 15.7170139,45.8758681 C15.0486111,46.7468171 14.1530671,47.1822917 13.0303819,47.1822917 C11.8961227,47.1822917 10.9933449,46.7468171 10.3220486,45.8758681 C9.65075231,45.004919 9.31510417,43.7274306 9.31510417,42.0434028 L9.31510417,39.3263889 C9.31510417,37.6481481 9.64930556,36.3706597 10.3177083,35.4939236 C10.9861111,34.6171875 11.8845486,34.1788194 13.0130208,34.1788194 C14.1414931,34.1788194 15.0413773,34.6171875 15.7126736,35.4939236 C16.3839699,36.3706597 16.7196181,37.6481481 16.7196181,39.3263889 L16.7196181,42.0434028 Z M14.2543403,39.109375 C14.2543403,38.0908565 14.1472801,37.3472222 13.9331597,36.8784722 C13.7190394,36.4097222 13.4210069,36.1898148 13.0390625,36.21875 L12.9869792,36.21875 C12.5992477,36.1898148 12.3012153,36.4097222 12.0928819,36.8784722 C11.8845486,37.3472222 11.7803819,38.0908565 11.7803819,39.109375 L11.7803819,42.2430556 C11.7803819,43.2731481 11.8874421,44.0240162 12.1015625,44.4956597 C12.3156829,44.9673032 12.6166088,45.1857639 13.0043403,45.1510417 L13.0564236,45.1510417 C13.4383681,45.1857639 13.7335069,44.96875 13.9418403,44.5 C14.1501736,44.03125 14.2543403,43.2789352 14.2543403,42.2430556 L14.2543403,39.109375 Z" id="Shape"></path>
                    <path d="M25.1640625,47 L17.6987847,47 L17.6987847,45.3246528 L21.1449653,40.9583333 C21.6021412,40.3101852 21.9305556,39.7459491 22.1302083,39.265625 C22.3298611,38.7853009 22.4296875,38.3483796 22.4296875,37.9548611 C22.4296875,37.4166667 22.3255208,36.9826389 22.1171875,36.6527778 C21.9088542,36.3229167 21.6079282,36.1579861 21.2144097,36.1579861 C20.8093171,36.1579861 20.4982639,36.3576389 20.28125,36.7569444 C20.0642361,37.15625 19.9557292,37.6799769 19.9557292,38.328125 L17.5512153,38.328125 L17.5338542,38.2847222 C17.510706,37.1388889 17.8347801,36.1681134 18.5060764,35.3723958 C19.1773727,34.5766782 20.0801505,34.1788194 21.2144097,34.1788194 C22.3718171,34.1788194 23.2745949,34.5144676 23.9227431,35.1857639 C24.5708912,35.8570602 24.8949653,36.771412 24.8949653,37.9288194 C24.8949653,38.7042824 24.7141204,39.421875 24.3524306,40.0815972 C23.9907407,40.7413194 23.3874421,41.603588 22.5425347,42.6684028 L20.8932292,45.0295139 L25.1640625,45.0295139 L25.1640625,47 Z" id="Path"></path>
                    <path d="M26.3342014,41.4097222 L26.9592014,34.3611111 L33.1397569,34.3611111 L33.1397569,36.3836806 L28.9730903,36.3836806 L28.7039931,39.3611111 C28.8833912,39.181713 29.1076389,39.0326968 29.3767361,38.9140625 C29.6458333,38.7954282 29.9279514,38.7303241 30.2230903,38.71875 C31.276331,38.7013889 32.0850694,39.0645255 32.6493056,39.8081597 C33.2135417,40.551794 33.4956597,41.5978009 33.4956597,42.9461806 C33.4956597,44.1498843 33.1759259,45.1568287 32.5364583,45.9670139 C31.8969907,46.7771991 30.9840856,47.1822917 29.7977431,47.1822917 C28.7907986,47.1822917 27.9212963,46.8596644 27.1892361,46.2144097 C26.4571759,45.5691551 26.1027199,44.6938657 26.1258681,43.5885417 L26.1432292,43.5451389 L28.5390625,43.4149306 C28.5390625,43.9820602 28.6548032,44.4233218 28.8862847,44.7387153 C29.1177662,45.0541088 29.4215856,45.2118056 29.7977431,45.2118056 C30.2317708,45.2118056 30.5471644,45.004919 30.7439236,44.5911458 C30.9406829,44.1773727 31.0390625,43.634838 31.0390625,42.9635417 C31.0390625,42.2170139 30.9291088,41.6267361 30.7092014,41.1927083 C30.489294,40.7586806 30.1536458,40.5416667 29.7022569,40.5416667 C29.3608218,40.5416667 29.0975116,40.6342593 28.9123264,40.8194444 C28.7271412,41.0046296 28.5998264,41.2505787 28.5303819,41.5572917 L26.3342014,41.4097222 Z" id="Path"></path>
                </g>
            </g>
        </g>
    </g>
</svg>