<?xml version="1.0" encoding="UTF-8"?>
<svg width="360px" height="160px" viewBox="0 0 360 160" version="1.1" xmlns="http://www.w3.org/2000/svg" xmlns:xlink="http://www.w3.org/1999/xlink">
    <title>musa-sign copy</title>
    <defs>
        <path d="M0,0 L360,0 L360,160 L0,160 L0,0 Z" id="path-1"></path>
    </defs>
    <g id="musa-sign-copy" stroke="none" fill="none" xlink:href="#path-1">
        <rect id="Rectangle-2" fill="#F7F7F7" fill-rule="evenodd" x="0" y="0" width="360" height="160" rx="16"></rect>
        <g id="O5M-U5" stroke-width="1" fill-rule="evenodd" transform="translate(97.6667, 61.3333)" fill="#031753">
            <path d="M3.45377778,67.9528889 C3.45377778,74.6773333 6.53911111,78 12.7097778,78 L17.6937778,78 C23.8644444,78 26.8706667,74.6773333 26.8706667,67.9528889 L26.8706667,26.1822222 C26.8706667,19.4577778 23.8644444,16.056 17.6937778,16.056 L12.7097778,16.056 C6.53911111,16.056 3.45377778,19.4577778 3.45377778,26.1822222 L3.45377778,67.9528889 Z M9.38711111,25.6284444 C9.38711111,23.176 10.4946667,21.9102222 12.7097778,21.9102222 L17.6937778,21.9102222 C19.9088889,21.9102222 21.0164444,23.176 21.0164444,25.6284444 L21.0164444,68.4275556 C21.0164444,70.9591111 19.9088889,72.1457778 17.6937778,72.1457778 L12.7097778,72.1457778 C10.4946667,72.1457778 9.38711111,70.9591111 9.38711111,68.4275556 L9.38711111,25.6284444 Z" id="Shape" fill-rule="nonzero"></path>
            <path d="M53.452,16.056 L35.3355556,16.056 C34.3071111,16.056 33.5951111,16.768 33.5951111,17.7964444 L33.5951111,46.5137778 C33.5951111,47.5422222 34.3071111,48.2542222 35.3355556,48.2542222 L37.788,48.2542222 C38.5791111,48.2542222 39.212,47.7004444 39.6075556,46.9884444 C40.5568889,44.9315556 42.5346667,43.824 45.1453333,43.824 C48.8635556,43.824 51.316,46.0391111 51.316,50.7857778 L51.316,65.8168889 C51.316,70.4844444 48.8635556,72.6995556 45.1453333,72.6995556 C43.0093333,72.6995556 41.2688889,71.9875556 40.2404444,70.4844444 C39.7657778,69.6933333 39.1328889,69.2977778 38.4208889,69.2977778 C38.1044444,69.2977778 37.7088889,69.3768889 37.3924444,69.5351111 L35.4146667,70.6426667 C34.8608889,70.9591111 34.5444444,71.4337778 34.5444444,72.0666667 C34.5444444,72.7786667 35.1773333,73.6488889 35.8102222,74.3608889 C38.2626667,77.1297778 41.5062222,78.5537778 45.1453333,78.5537778 C51.4742222,78.5537778 57.1702222,74.3608889 57.1702222,65.2631111 L57.1702222,51.2604444 C57.1702222,42.1626667 51.7906667,38.0488889 45.9364444,38.0488889 C43.8004444,38.0488889 41.5853333,39.2355556 40.4777778,39.2355556 C39.6075556,39.2355556 39.212,38.6817778 39.212,37.0995556 L39.212,23.6506667 C39.212,22.6222222 39.924,21.9102222 40.9524444,21.9102222 L53.452,21.9102222 C54.4804444,21.9102222 55.1924444,21.1982222 55.1924444,20.1697778 L55.1924444,17.7964444 C55.1924444,16.768 54.4804444,16.056 53.452,16.056 Z" id="Path" fill-rule="nonzero"></path>
            <path d="M87.628,76.2595556 L87.628,17.7964444 C87.628,16.768 86.916,16.056 85.8875556,16.056 L82.8813333,16.056 C82.0902222,16.056 81.3782222,16.6097778 81.22,17.3217778 L77.1062222,32.9066667 C76.5524444,34.8844444 76.0777778,35.8337778 75.4448889,35.8337778 C74.8911111,35.8337778 74.2582222,34.8844444 73.7835556,32.9066667 L69.7488889,17.4008889 C69.5906667,16.6097778 68.8786667,16.056 68.0875556,16.056 L65.0813333,16.056 C64.0528889,16.056 63.3408889,16.768 63.3408889,17.7964444 L63.3408889,76.2595556 C63.3408889,77.288 64.0528889,78 65.0813333,78 L67.2964444,78 C68.3248889,78 69.0368889,77.288 69.0368889,76.2595556 L69.0368889,45.7226667 C69.0368889,42.6373333 69.2742222,41.0551111 69.7488889,41.0551111 C70.2235556,41.0551111 70.8564444,42.4791111 71.6475556,45.3271111 L73.9417778,53.9502222 C74.1,54.6622222 74.7328889,55.1368889 75.524,55.1368889 C76.236,55.1368889 76.8688889,54.6622222 77.0271111,53.9502222 L79.3213333,45.3271111 C80.1124444,42.4791111 80.7453333,41.0551111 81.1408889,41.0551111 C81.6155556,41.0551111 81.932,42.6373333 81.932,45.7226667 L81.932,76.2595556 C81.932,77.288 82.644,78 83.6724444,78 L85.8875556,78 C86.916,78 87.628,77.288 87.628,76.2595556 Z" id="Path" fill-rule="nonzero"></path>
            <path d="M108.908889,65.2631111 C108.908889,74.0444444 114.842222,78.5537778 120.617333,78.5537778 C126.471556,78.5537778 132.325778,74.0444444 132.325778,65.2631111 L132.325778,17.7964444 C132.325778,16.768 131.613778,16.056 130.585333,16.056 L128.212,16.056 C127.183556,16.056 126.471556,16.768 126.471556,17.7964444 L126.471556,65.8168889 C126.471556,70.3262222 123.860889,72.6995556 120.617333,72.6995556 C117.373778,72.6995556 114.842222,70.3262222 114.842222,65.8168889 L114.842222,17.7964444 C114.842222,16.768 114.130222,16.056 113.101778,16.056 L110.649333,16.056 C109.620889,16.056 108.908889,16.768 108.908889,17.7964444 L108.908889,65.2631111 Z" id="Path" fill-rule="nonzero"></path>
            <path d="M158.907111,16.056 L140.790667,16.056 C139.762222,16.056 139.050222,16.768 139.050222,17.7964444 L139.050222,46.5137778 C139.050222,47.5422222 139.762222,48.2542222 140.790667,48.2542222 L143.243111,48.2542222 C144.034222,48.2542222 144.667111,47.7004444 145.062667,46.9884444 C146.012,44.9315556 147.989778,43.824 150.600444,43.824 C154.318667,43.824 156.771111,46.0391111 156.771111,50.7857778 L156.771111,65.8168889 C156.771111,70.4844444 154.318667,72.6995556 150.600444,72.6995556 C148.464444,72.6995556 146.724,71.9875556 145.695556,70.4844444 C145.220889,69.6933333 144.588,69.2977778 143.876,69.2977778 C143.559556,69.2977778 143.164,69.3768889 142.847556,69.5351111 L140.869778,70.6426667 C140.316,70.9591111 139.999556,71.4337778 139.999556,72.0666667 C139.999556,72.7786667 140.632444,73.6488889 141.265333,74.3608889 C143.717778,77.1297778 146.961333,78.5537778 150.600444,78.5537778 C156.929333,78.5537778 162.625333,74.3608889 162.625333,65.2631111 L162.625333,51.2604444 C162.625333,42.1626667 157.245778,38.0488889 151.391556,38.0488889 C149.255556,38.0488889 147.040444,39.2355556 145.932889,39.2355556 C145.062667,39.2355556 144.667111,38.6817778 144.667111,37.0995556 L144.667111,23.6506667 C144.667111,22.6222222 145.379111,21.9102222 146.407556,21.9102222 L158.907111,21.9102222 C159.935556,21.9102222 160.647556,21.1982222 160.647556,20.1697778 L160.647556,17.7964444 C160.647556,16.768 159.935556,16.056 158.907111,16.056 Z" id="Path" fill-rule="nonzero"></path>
        </g>
        <g id="Mapping-USA" stroke-width="1" fill-rule="evenodd" transform="translate(175.8778, 43.5556) rotate(-360) translate(-175.8778, -43.5556)translate(71.2036, 3.5556)" fill="#CA0012">
            <path d="M17.3795556,40.5297778 C20.0533333,35.6835556 29.0773333,25.4062222 31.2497778,25.4062222 C31.7093333,25.4062222 31.8764444,25.5733333 31.8764444,25.824 C31.8764444,26.3253333 31.208,27.2444444 30.7902222,27.8711111 C28.7431111,31.0044444 22.3928889,40.8222222 22.3928889,44.1226667 C22.3928889,45.0417778 23.2702222,45.5848889 26.5288889,45.5848889 C27.3226667,45.5848889 27.6986667,44.8746667 27.6986667,44.8746667 C27.6986667,39.1093333 42.7386667,16.6746667 42.7386667,16.3822222 C42.7804444,16.2568889 42.7804444,16.1733333 42.7804444,16.0897778 C42.7804444,15.5466667 42.1955556,15.2542222 40.8168889,15.2542222 C36.5555556,15.2542222 36.3048889,15.9644444 35.9706667,16.2151111 C31.4168889,19.8915556 23.6044444,30.0017778 21.1813333,30.0017778 C20.9306667,30.0017778 20.8471111,29.7511111 20.8471111,29.2915556 C20.8471111,26.7013333 24.1475556,17.928 24.1475556,16.5911111 C24.1475556,15.3377778 20.8053333,15.3377778 20.8053333,15.3377778 C16.1262222,15.3377778 15.2071111,16.6328889 15.2071111,17.0088889 L15.2071111,17.5102222 C15.2071111,18.1786667 15.1653333,19.2648889 14.2462222,21.1031111 C8.10488889,33.3857778 0,44.6657778 0,45.7937778 L0,45.9191111 C0,46.5457778 1.128,46.5457778 1.62933333,46.5457778 C2.04711111,46.5457778 2.84088889,46.504 3.55111111,46.0026667 C5.38933333,44.7493333 6.97688889,38.8168889 13.4106667,28.3306667 C13.4106667,28.3306667 15.2488889,24.9048889 16.4186667,24.9048889 C16.6693333,24.9048889 16.7528889,25.1555556 16.7528889,25.5733333 C16.7528889,27.9546667 13.4942222,36.1431111 13.4942222,39.736 C13.4942222,41.24 14.0373333,41.5324444 15.3324444,41.5324444 C16.0008889,41.5324444 16.92,41.3653333 17.3795556,40.5297778 Z" id="Path" fill-rule="nonzero"></path>
            <path d="M43.4906667,45.4177778 C44.0337778,41.6577778 48.7546667,34.7226667 48.7546667,34.7226667 C48.7964444,34.6391111 48.8382222,34.5973333 48.8382222,34.5137778 C48.8382222,33.9706667 47.2924444,33.8453333 47.2924444,33.8453333 C44.8693333,33.8453333 44.4933333,34.8897778 44.4933333,34.8897778 C41.7777778,39.5688889 38.8951111,41.616 37.4328889,41.616 C36.8062222,41.616 36.5555556,40.9893333 36.5555556,40.5715556 C36.5555556,36.8115556 41.2346667,31.6728889 45.7466667,31.6728889 C49.4648889,31.6728889 49.5066667,32.9262222 50.4257778,32.9262222 C51.0942222,32.9262222 51.136,31.9235556 51.136,31.6728889 C51.136,29.1662222 47.752,28.9155556 47.4177778,28.9155556 C37.1822222,28.9155556 31.2497778,39.6942222 31.2497778,44.1644444 C31.2497778,44.7075556 31.2497778,46.7128889 32.9626667,46.7128889 C36.9733333,46.7128889 39.7724444,42.3262222 40.8586667,42.3262222 C40.9422222,42.3262222 41.1093333,42.368 41.1093333,42.6604444 C41.1093333,42.9111111 41.0257778,43.2871111 41.0257778,43.5377778 C41.0257778,44.3733333 41.3182222,45.9191111 43.0728889,45.9191111 C43.24,45.9191111 43.4488889,45.752 43.4906667,45.4177778 Z" id="Path" fill-rule="nonzero"></path>
            <path d="M51.4702222,46.5457778 C59.8257778,46.5457778 66.6355556,38.5662222 66.6355556,31.7982222 C66.6355556,29.5004444 65.3404444,28.9155556 64.4631111,28.9155556 C61.4551111,28.9155556 59.6168889,30.9626667 58.8648889,30.9626667 C58.6142222,30.9626667 58.5306667,30.8373333 58.5306667,30.6284444 C58.5306667,29.7093333 60.8284444,26.952 60.8284444,26.3671111 C60.8284444,25.9075556 60.2017778,25.824 59.9511111,25.824 C56.9848889,25.824 56.4417778,27.5786667 56.4417778,27.5786667 C51.2195556,37.5635556 34.6755556,63.5911111 34.6755556,66.8915556 C34.6755556,68.3537778 36.1795556,69.7742222 37.0986667,69.7742222 C37.3911111,69.7742222 37.6417778,69.6071111 37.7671111,69.2728889 C39.48,64.4266667 47.5013333,49.2195556 49.2977778,46.9217778 C49.5902222,46.5457778 51.3031111,46.5457778 51.4702222,46.5457778 Z M62.2488889,33.9706667 C62.2488889,37.2711111 57.5697778,43.7884444 53.8933333,43.7884444 C52.8071111,43.7884444 51.8462222,43.1617778 51.8462222,42.368 C51.8462222,41.8248889 57.0266667,32.6755556 61.3715556,32.6755556 C61.8311111,32.6755556 62.2488889,33.1768889 62.2488889,33.9706667 Z" id="Shape" fill-rule="nonzero"></path>
            <path d="M68.5155556,46.5457778 C76.8711111,46.5457778 83.6808889,38.5662222 83.6808889,31.7982222 C83.6808889,29.5004444 82.3857778,28.9155556 81.5084444,28.9155556 C78.5004444,28.9155556 76.6622222,30.9626667 75.9102222,30.9626667 C75.6595556,30.9626667 75.576,30.8373333 75.576,30.6284444 C75.576,29.7093333 77.8737778,26.952 77.8737778,26.3671111 C77.8737778,25.9075556 77.2471111,25.824 76.9964444,25.824 C74.0302222,25.824 73.4871111,27.5786667 73.4871111,27.5786667 C68.2648889,37.5635556 51.7208889,63.5911111 51.7208889,66.8915556 C51.7208889,68.3537778 53.2248889,69.7742222 54.144,69.7742222 C54.4364444,69.7742222 54.6871111,69.6071111 54.8124444,69.2728889 C56.5253333,64.4266667 64.5466667,49.2195556 66.3431111,46.9217778 C66.6355556,46.5457778 68.3484444,46.5457778 68.5155556,46.5457778 Z M79.2942222,33.9706667 C79.2942222,37.2711111 74.6151111,43.7884444 70.9386667,43.7884444 C69.8524444,43.7884444 68.8915556,43.1617778 68.8915556,42.368 C68.8915556,41.8248889 74.072,32.6755556 78.4168889,32.6755556 C78.8764444,32.6755556 79.2942222,33.1768889 79.2942222,33.9706667 Z" id="Shape" fill-rule="nonzero"></path>
            <path d="M83.1795556,47.1306667 C83.5137778,47.1306667 83.7226667,46.3368889 83.7226667,46.3368889 C85.6862222,42.2008889 90.7413333,33.4275556 92.9555556,30.6284444 C93.0391111,30.5448889 93.0808889,30.4195556 93.0808889,30.336 C93.0808889,29.8346667 91.9528889,29.6257778 91.4515556,29.6257778 C88.8195556,29.6257778 87.4826667,30.4195556 87.4826667,30.4195556 C87.4826667,30.4195556 86.7724444,30.8373333 86.7306667,31.5057778 C86.5635556,34.848 81.1742222,43.0782222 81.1742222,44.624 C81.1742222,46.1697778 82.5111111,47.1306667 83.1795556,47.1306667 Z M96.0053333,24.4035556 C95.9635556,23.4844444 95.1697778,22.9413333 94.0835556,22.9413333 C92.7048889,22.9413333 90.4071111,23.9857778 90.4071111,25.7822222 L90.4071111,25.824 C90.4488889,26.7431111 91.2426667,27.2862222 92.3288889,27.2862222 C93.7493333,27.2862222 96.0053333,26.2417778 96.0053333,24.4035556 Z" id="Shape" fill-rule="nonzero"></path>
            <path d="M100.684444,46.7964444 C104.945778,46.7964444 111.379556,32.6337778 111.379556,30.5448889 C111.379556,28.9155556 110.335111,28.7484444 109.833778,28.7484444 C106.533333,28.7484444 102.815111,31.3386667 99.9742222,33.5528889 C99.8071111,33.6782222 99.6817778,33.72 99.5564444,33.72 C99.2222222,33.72 99.1386667,33.3857778 99.1386667,33.3857778 C99.1386667,32.5084444 101.144,30.4613333 101.144,29.584 C101.144,29.2497778 100.642667,29.1662222 100.141333,29.1662222 C98.9297778,29.1662222 98.2195556,29.584 98.2195556,29.584 C96.2977778,30.2942222 88.6942222,43.0782222 88.6942222,44.3315556 C88.6942222,44.4986667 88.8195556,44.8746667 89.7804444,44.8746667 C90.2817778,44.8746667 91.8275556,44.7911111 92.6631111,43.6213333 C94.5013333,41.0728889 101.436444,33.4693333 105.029333,33.4693333 C105.029333,33.4693333 105.697778,33.4693333 105.697778,34.2213333 C105.697778,36.5608889 100.433778,44.7493333 99.5982222,46.0026667 C99.5982222,46.0026667 99.5146667,46.128 99.5146667,46.2533333 C99.5146667,46.504 99.7235556,46.7964444 100.684444,46.7964444 Z" id="Path" fill-rule="nonzero"></path>
            <path d="M104.486222,66.0142222 C103.776,66.0142222 103.734222,65.1786667 103.734222,65.0115556 L103.734222,64.9697778 C103.734222,59.7893333 111.087111,50.7235556 114.178667,49.1777778 C114.429333,49.0524444 114.68,48.9271111 114.68,48.6346667 C114.68,48.384 114.345778,48.3422222 114.178667,48.3422222 L114.053333,48.3422222 C108.956444,48.3422222 98.5537778,60.8337778 98.5537778,68.3537778 C98.5537778,70.5262222 99.3057778,71.4871111 100.308444,71.4871111 C110.669333,71.4871111 128.299556,33.7617778 128.299556,33.7617778 C128.341333,33.6782222 128.341333,33.5946667 128.341333,33.5528889 C128.341333,33.0933333 127.255111,32.9262222 126.753778,32.9262222 C124.748444,32.9262222 124.623111,33.5111111 124.623111,33.5111111 C121.155556,38.984 117.688,41.0311111 116.225778,41.0311111 C115.599111,41.0311111 115.348444,40.5715556 115.348444,39.9866667 C115.348444,36.2266667 119.902222,30.7955556 124.623111,30.7955556 C128.508444,30.7955556 129.051556,32.0906667 129.72,32.0906667 C130.304889,32.0906667 130.430222,31.088 130.430222,30.8373333 C130.430222,28.3306667 126.837333,28.08 126.252444,28.08 C116.016889,28.08 110.084444,38.0648889 110.084444,43.3288889 C110.084444,43.8302222 110.084444,45.8773333 111.797333,45.8773333 C115.849778,45.8773333 118.648889,41.6995556 119.693333,41.6995556 C119.860444,41.6995556 120.027556,41.8248889 120.027556,42.3262222 C120.027556,43.2035556 108.496889,66.0142222 104.486222,66.0142222 Z" id="Path" fill-rule="nonzero"></path>
            <path d="M143.172444,46.0444444 C149.731556,46.0444444 152.906667,40.5297778 153.616889,39.3182222 C156.416,34.6391111 164.896889,20.1004444 167.821333,16.4657778 C168.239111,16.0062222 168.448,15.672 168.448,15.4213333 C168.448,15.0035556 167.821333,14.92 166.568,14.92 C165.481778,14.92 164.144889,14.92 163.184,15.7137778 C161.429333,17.1342222 155.204444,32.0488889 151.193778,38.232 C150.358222,39.5688889 148.896,41.992 145.094222,41.992 C142.169778,41.992 142.086222,39.6106667 142.086222,38.6915556 C142.086222,35.1822222 152.321778,18.9724444 153.909333,16.7582222 C153.909333,16.7582222 154.201778,16.424 154.201778,16.048 C154.201778,15.6302222 153.784,15.1706667 151.945778,15.1706667 C148.102222,15.1706667 147.684444,15.672 147.684444,16.424 C147.684444,17.0924444 147.642667,18.0533333 146.431111,20.4346667 C142.796444,27.5786667 136.195556,36.8115556 136.195556,40.6133333 C136.195556,44.2062222 139.328889,46.0444444 143.172444,46.0444444 Z" id="Path" fill-rule="nonzero"></path>
            <path d="M178.307556,35.224 C178.307556,29.2497778 171.497778,26.3671111 171.497778,22.44 C171.497778,19.1813333 175.466667,18.2622222 176.761778,18.2622222 C179.644444,18.2622222 180.062222,20.1422222 180.062222,20.7271111 C180.062222,23.568 178.850667,24.7795556 178.850667,25.1137778 C178.850667,25.6151111 179.686222,25.6151111 179.978667,25.6151111 C182.025778,25.6151111 186.913778,17.5937778 186.913778,16.2986667 C186.913778,15.6302222 185.827556,15.5884444 185.409778,15.5884444 C183.989333,15.5884444 182.736,16.2986667 182.736,16.2986667 C182.610667,16.3822222 182.485333,16.424 182.36,16.424 C181.942222,16.424 180.939556,15.7137778 177.764444,15.7137778 C174.171556,15.7137778 166.275556,17.2177778 166.275556,23.3173333 C166.275556,27.7875556 173.461333,30.9626667 173.461333,36.352 C173.461333,41.5742222 168.865778,43.0364444 166.066667,43.0364444 C162.682667,43.0364444 162.181333,40.2791111 162.181333,39.3182222 C162.181333,35.8088889 164.437333,33.0933333 164.437333,32.7173333 C164.437333,32.3413333 163.977778,32.2577778 163.643556,32.2577778 C162.933333,32.2577778 162.390222,32.5502222 161.888889,32.9262222 C158.880889,35.2657778 154.577778,43.5795556 154.577778,44.7493333 C154.577778,45.5013333 155.956444,45.5431111 156.207111,45.5431111 C157.460444,45.5431111 158.588444,45.1253333 159.758222,44.7493333 C159.883556,44.6657778 160.050667,44.624 160.176,44.624 C160.384889,44.624 160.552,44.7075556 160.552,44.7075556 C161.512889,45.2506667 162.933333,45.6266667 165.314667,45.6266667 C173.001778,45.6266667 178.307556,41.0311111 178.307556,35.224 Z" id="Path" fill-rule="nonzero"></path>
            <path d="M195.812444,47.3813333 C196.480889,47.3813333 196.480889,47.0471111 196.480889,47.0471111 C197.232889,43.7884444 201.577778,33.5528889 204.335111,27.4951111 C207.426667,20.8106667 209.348444,17.5102222 209.348444,16.9671111 C209.348444,15.7973333 207.593778,15.5884444 206.465778,15.5884444 C205.922667,15.5884444 205.504889,15.6302222 205.504889,15.6302222 C201.536,15.6302222 194.308444,22.8577778 187.874667,30.2942222 L187.289778,30.9626667 C185.409778,31.0044444 183.864,31.0462222 183.529778,31.2133333 C182.527111,31.5893333 180.647111,33.0515556 180.647111,34.096 C180.647111,34.096 180.688889,34.472 181.023111,34.472 C181.106667,34.472 183.028444,34.2631111 184.657778,34.096 C179.686222,40.112 175.842667,45.4595556 175.842667,46.0444444 C175.842667,46.6711111 177.263111,46.7128889 177.764444,46.7128889 C178.516444,46.7128889 180.563556,46.5875556 180.981333,45.6684444 C181.232,45.1253333 183.571556,39.9866667 186.579556,35.9342222 L188.167111,33.8453333 C189.044444,33.8035556 189.921778,33.7617778 190.757333,33.7617778 C194.224889,33.7617778 196.439111,34.096 196.439111,35.224 C196.439111,37.48 192.344889,42.2426667 192.344889,44.7911111 C192.344889,45.7102222 194.350222,47.3813333 195.812444,47.3813333 Z M195.060444,31.0462222 C195.060444,31.0462222 192.929778,31.0044444 190.506667,30.9626667 C194.642667,26.1164444 199.154667,21.688 200.909333,21.688 C201.327111,21.688 201.619556,21.8968889 201.619556,22.2728889 C201.619556,23.6097778 198.778667,31.0462222 195.060444,31.0462222 Z" id="Shape" fill-rule="nonzero"></path>
        </g>
        <circle id="Oval" fill="#1F1F1F" fill-rule="evenodd" cx="70.2222222" cy="14.6666667" r="3.11111111"></circle>
        <circle id="Oval-Copy" fill="#1F1F1F" fill-rule="evenodd" cx="291.111111" cy="14.6666667" r="3.11111111"></circle>
        <circle id="Oval" fill="#1F1F1F" fill-rule="evenodd" cx="70.2222222" cy="146.222222" r="3.11111111"></circle>
        <circle id="Oval-Copy" fill="#1F1F1F" fill-rule="evenodd" cx="291.111111" cy="146.222222" r="3.11111111"></circle>
        <g id="Group" stroke-width="1" fill-rule="evenodd" transform="translate(16.215, -14.3507)">
            <rect id="Rectangle" stroke="#C8C8C8" stroke-width="0.222222222" fill="#FFFFFF" transform="translate(21.5628, 40.3507) rotate(-1) translate(-21.5628, -40.3507)" x="0.340560694" y="27.1284903" width="42.4444444" height="26.4444444" rx="0.888888896"></rect>
            <g id="JAN" transform="translate(21.5628, 40.3507) rotate(-1) translate(-21.5628, -40.3507)translate(1.1183, 0.3507)" fill="#2A4BAC" fill-rule="nonzero">
                <path d="M8.01085069,31.9375 L11.3272569,31.9375 L11.3272569,43.796875 C11.3272569,45.46875 10.8565538,46.7949219 9.91514757,47.7753906 C8.97374132,48.7558594 7.78819444,49.2460938 6.35850694,49.2460938 C4.81163194,49.2460938 3.58702257,48.8085938 2.68467882,47.9335938 C1.78233507,47.0585938 1.34678819,45.7695312 1.37803819,44.0664062 L1.41319444,43.9960938 L4.65928819,43.9960938 C4.65928819,44.8945312 4.81749132,45.5507812 5.13389757,45.9648438 C5.45030382,46.3789062 5.85850694,46.5859375 6.35850694,46.5859375 C6.81163194,46.5859375 7.20030382,46.3398438 7.52452257,45.8476562 C7.84874132,45.3554688 8.01085069,44.671875 8.01085069,43.796875 L8.01085069,31.9375 Z" id="Path"></path>
                <path d="M21.3116319,45.3789062 L16.8116319,45.3789062 L15.8975694,49 L12.5342882,49 L17.3389757,31.9375 L20.8077257,31.9375 L25.6006944,49 L22.2374132,49 L21.3116319,45.3789062 Z M17.4913194,42.6953125 L20.6319444,42.6953125 L19.0967882,36.6601562 L19.0264757,36.6601562 L17.4913194,42.6953125 Z" id="Shape"></path>
                <polygon id="Path" points="38.8663194 49 35.5499132 49 30.3350694 38.0898438 30.2647569 38.1132812 30.2647569 49 26.9249132 49 26.9249132 31.9375 30.2647569 31.9375 35.4796007 42.8359375 35.5499132 42.8125 35.5499132 31.9375 38.8663194 31.9375"></polygon>
            </g>
        </g>
        <g id="Group-2" stroke-width="1" fill-rule="evenodd" transform="translate(302.7007, -15.1764)">
            <rect id="Rectangle" stroke="#BC9326" stroke-width="0.222222222" fill="#F0CC37" transform="translate(21.5628, 40.6161) rotate(1) translate(-21.5628, -40.6161)" x="0.340560694" y="27.3938828" width="42.4444444" height="26.4444444" rx="0.888888896"></rect>
            <circle id="Oval" stroke="#FDEEA7" stroke-width="4.44444444" transform="translate(21.6186, 40.4106) rotate(1) translate(-21.6186, -40.4106)" cx="21.6185767" cy="40.4105632" r="4.88888889"></circle>
            <g id="2025" transform="translate(21.7437, 40.2906) rotate(1) translate(-21.7437, -40.2906)translate(4.7437, 0.2906)" fill="#1F1F1F" fill-rule="nonzero">
                <path d="M8.40538194,47 L0.940104167,47 L0.940104167,45.3246528 L4.38628472,40.9583333 C4.84346065,40.3101852 5.171875,39.7459491 5.37152778,39.265625 C5.57118056,38.7853009 5.67100694,38.3483796 5.67100694,37.9548611 C5.67100694,37.4166667 5.56684028,36.9826389 5.35850694,36.6527778 C5.15017361,36.3229167 4.84924769,36.1579861 4.45572917,36.1579861 C4.05063657,36.1579861 3.73958333,36.3576389 3.52256944,36.7569444 C3.30555556,37.15625 3.19704861,37.6799769 3.19704861,38.328125 L0.792534722,38.328125 L0.775173611,38.2847222 C0.752025463,37.1388889 1.07609954,36.1681134 1.74739583,35.3723958 C2.41869213,34.5766782 3.32146991,34.1788194 4.45572917,34.1788194 C5.61313657,34.1788194 6.51591435,34.5144676 7.1640625,35.1857639 C7.81221065,35.8570602 8.13628472,36.771412 8.13628472,37.9288194 C8.13628472,38.7042824 7.95543981,39.421875 7.59375,40.0815972 C7.23206019,40.7413194 6.62876157,41.603588 5.78385417,42.6684028 L4.13454861,45.0295139 L8.40538194,45.0295139 L8.40538194,47 Z" id="Path"></path>
                <path d="M16.7196181,42.0434028 C16.7196181,43.7274306 16.3854167,45.004919 15.7170139,45.8758681 C15.0486111,46.7468171 14.1530671,47.1822917 13.0303819,47.1822917 C11.8961227,47.1822917 10.9933449,46.7468171 10.3220486,45.8758681 C9.65075231,45.004919 9.31510417,43.7274306 9.31510417,42.0434028 L9.31510417,39.3263889 C9.31510417,37.6481481 9.64930556,36.3706597 10.3177083,35.4939236 C10.9861111,34.6171875 11.8845486,34.1788194 13.0130208,34.1788194 C14.1414931,34.1788194 15.0413773,34.6171875 15.7126736,35.4939236 C16.3839699,36.3706597 16.7196181,37.6481481 16.7196181,39.3263889 L16.7196181,42.0434028 Z M14.2543403,39.109375 C14.2543403,38.0908565 14.1472801,37.3472222 13.9331597,36.8784722 C13.7190394,36.4097222 13.4210069,36.1898148 13.0390625,36.21875 L12.9869792,36.21875 C12.5992477,36.1898148 12.3012153,36.4097222 12.0928819,36.8784722 C11.8845486,37.3472222 11.7803819,38.0908565 11.7803819,39.109375 L11.7803819,42.2430556 C11.7803819,43.2731481 11.8874421,44.0240162 12.1015625,44.4956597 C12.3156829,44.9673032 12.6166088,45.1857639 13.0043403,45.1510417 L13.0564236,45.1510417 C13.4383681,45.1857639 13.7335069,44.96875 13.9418403,44.5 C14.1501736,44.03125 14.2543403,43.2789352 14.2543403,42.2430556 L14.2543403,39.109375 Z" id="Shape"></path>
                <path d="M25.1640625,47 L17.6987847,47 L17.6987847,45.3246528 L21.1449653,40.9583333 C21.6021412,40.3101852 21.9305556,39.7459491 22.1302083,39.265625 C22.3298611,38.7853009 22.4296875,38.3483796 22.4296875,37.9548611 C22.4296875,37.4166667 22.3255208,36.9826389 22.1171875,36.6527778 C21.9088542,36.3229167 21.6079282,36.1579861 21.2144097,36.1579861 C20.8093171,36.1579861 20.4982639,36.3576389 20.28125,36.7569444 C20.0642361,37.15625 19.9557292,37.6799769 19.9557292,38.328125 L17.5512153,38.328125 L17.5338542,38.2847222 C17.510706,37.1388889 17.8347801,36.1681134 18.5060764,35.3723958 C19.1773727,34.5766782 20.0801505,34.1788194 21.2144097,34.1788194 C22.3718171,34.1788194 23.2745949,34.5144676 23.9227431,35.1857639 C24.5708912,35.8570602 24.8949653,36.771412 24.8949653,37.9288194 C24.8949653,38.7042824 24.7141204,39.421875 24.3524306,40.0815972 C23.9907407,40.7413194 23.3874421,41.603588 22.5425347,42.6684028 L20.8932292,45.0295139 L25.1640625,45.0295139 L25.1640625,47 Z" id="Path"></path>
                <path d="M26.3342014,41.4097222 L26.9592014,34.3611111 L33.1397569,34.3611111 L33.1397569,36.3836806 L28.9730903,36.3836806 L28.7039931,39.3611111 C28.8833912,39.181713 29.1076389,39.0326968 29.3767361,38.9140625 C29.6458333,38.7954282 29.9279514,38.7303241 30.2230903,38.71875 C31.276331,38.7013889 32.0850694,39.0645255 32.6493056,39.8081597 C33.2135417,40.551794 33.4956597,41.5978009 33.4956597,42.9461806 C33.4956597,44.1498843 33.1759259,45.1568287 32.5364583,45.9670139 C31.8969907,46.7771991 30.9840856,47.1822917 29.7977431,47.1822917 C28.7907986,47.1822917 27.9212963,46.8596644 27.1892361,46.2144097 C26.4571759,45.5691551 26.1027199,44.6938657 26.1258681,43.5885417 L26.1432292,43.5451389 L28.5390625,43.4149306 C28.5390625,43.9820602 28.6548032,44.4233218 28.8862847,44.7387153 C29.1177662,45.0541088 29.4215856,45.2118056 29.7977431,45.2118056 C30.2317708,45.2118056 30.5471644,45.004919 30.7439236,44.5911458 C30.9406829,44.1773727 31.0390625,43.634838 31.0390625,42.9635417 C31.0390625,42.2170139 30.9291088,41.6267361 30.7092014,41.1927083 C30.489294,40.7586806 30.1536458,40.5416667 29.7022569,40.5416667 C29.3608218,40.5416667 29.0975116,40.6342593 28.9123264,40.8194444 C28.7271412,41.0046296 28.5998264,41.2505787 28.5303819,41.5572917 L26.3342014,41.4097222 Z" id="Path"></path>
            </g>
        </g>
        <rect id="Rectangle" stroke="#EDEDED" stroke-width="1" x="5" y="5" width="350" height="150" rx="13"></rect>
    </g>
</svg>