<?xml version="1.0" encoding="UTF-8"?>
<svg width="588px" height="588px" viewBox="0 0 588 588" version="1.1" xmlns="http://www.w3.org/2000/svg" xmlns:xlink="http://www.w3.org/1999/xlink">
    <title>Artboard Copy 7</title>
    <g id="Artboard-Copy-7" stroke="none" fill="none" fill-rule="evenodd" stroke-width="1">
        <g id="Group" transform="translate(31, 31)">
            <path d="M7.25409693,-14.3914171 C12.21024,-15.4503147 17.6194623,-15.2054205 23.0556779,-13.1330877 L126.967962,26.4793859 L230.881555,-13.1330874 C237.145716,-15.5210471 244.052486,-15.5800771 250.347659,-13.3115662 L354.832238,26.7253226 L458.316873,-13.1011898 C465.425882,-15.837177 472.963437,-15.4788523 479.446506,-12.6873257 C486.007809,-9.86211271 491.486545,-4.54262195 494.351486,2.5820049 L538.228485,117.090135 C540.699743,123.540102 540.699743,130.675894 538.228459,137.125929 L498.368738,241.158028 L538.210557,344.592013 C540.615587,350.835734 540.703081,357.728071 538.469228,364.021934 L494.863428,479.493736 C492.032752,486.988568 486.127184,492.911849 478.640864,495.76496 L364.685157,539.194613 C358.262803,541.642236 351.164549,541.642233 344.742162,539.194591 L240.757937,499.564768 L136.774003,539.194613 C130.462509,541.599986 123.500661,541.640615 117.170532,539.32148 L5.6032236,495.87068 C-0.925689579,493.949083 -6.6055019,489.815662 -10.2981268,484.374316 C-14.1072766,478.761262 -15.9452324,471.773206 -14.5420504,464.10414 C-14.144991,461.754223 -13.4787344,459.533605 -12.5288981,457.395881 L26.5061923,354.909147 L-13.0857957,250.914288 C-15.4622249,244.672269 -15.5269274,237.792545 -13.2801728,231.515758 L26.50683,126.991699 L-13.0858365,22.9926614 C-15.155793,17.5555684 -15.3983322,12.14624 -14.3372769,7.19055841 C-13.1929055,1.8457468 -10.4920726,-2.9952951 -6.71275117,-6.77297148 C-2.93342973,-10.5506479 1.9087876,-13.2493728 7.25409693,-14.3914171 Z" id="Path" stroke="#4A282A" stroke-width="30" fill="#4A282A" fill-rule="nonzero"></path>
            <path d="M17.7125864,0.883023497 L126.967928,42.5323279 L236.224635,0.883027946 C239.094902,-0.211145652 242.255769,-0.252211277 245.14749,0.759334673 L245.507513,0.891260233 L354.843928,42.7933279 L463.704565,0.897837528 C470.313612,-1.64573302 477.720608,1.57034226 480.396726,8.08526775 L480.513372,8.37917727 L524.221401,122.456847 C525.368771,125.451475 525.368771,128.764521 524.221401,131.759148 L482.299928,241.172328 L524.213077,349.983725 C525.31507,352.844619 525.369112,355.99883 524.373378,358.88979 L524.243443,359.249748 L480.830911,474.193882 C479.516668,477.673625 476.774797,480.423721 473.299006,481.748379 L359.343298,525.178032 C356.361491,526.314428 353.065873,526.314427 350.084067,525.178028 L240.757928,483.512328 L131.432146,525.178032 C128.540196,526.280182 125.354143,526.313035 122.44617,525.278683 L122.084163,525.143831 L10.3459282,481.620328 L10.0631079,481.552489 C3.88211489,479.972515 -1.15091727,474.002936 0.230043432,466.71385 L0.236928246,466.684328 L0.240934369,466.650905 C0.430331864,465.471243 0.786009189,464.304844 1.31678061,463.186445 L1.40092825,463.014328 L42.5569282,354.910328 L0.932627824,245.577266 C-0.156265264,242.717138 -0.199823339,239.568625 0.801954026,236.685425 L0.932620652,236.326447 L42.5569282,126.991328 L0.932608906,17.655697 C-3.06129067,7.16503998 7.22366922,-3.11544307 17.7125864,0.883023497 Z M240.842928,26.9473279 L131.599451,68.5922877 C128.61702,69.7292196 125.320555,69.7292211 122.338123,68.5922922 L35.5489282,35.5063279 L68.6174306,122.366154 C69.7063057,125.226269 69.7498569,128.374763 68.7480847,131.257947 L68.6174188,131.616923 L26.9919282,240.951328 L68.6174117,350.286221 C69.7063151,353.146376 69.7498633,356.294921 68.7480577,359.178142 L68.6173874,359.537123 L29.8659282,461.320328 L126.852928,499.098328 L236.128654,457.452971 C238.991188,456.362031 242.142931,456.318395 245.028601,457.322062 L245.387884,457.452976 L354.712928,499.118328 L458.573928,459.535328 L498.167928,354.702328 L456.24275,245.858485 C455.133383,242.978445 455.086275,239.801848 456.101934,236.896263 L456.234426,236.534517 L498.159928,127.107328 L460.891928,29.8383279 L359.523768,68.8521387 C356.644213,69.9603698 353.468542,70.0068585 350.56386,68.9912047 L350.202227,68.858716 L240.842928,26.9473279 Z M88.2648251,428.742032 L126.641347,443.53793 C133.3404,446.12072 136.67729,453.645141 134.0945,460.344194 C131.51171,467.043247 123.987289,470.380137 117.288236,467.797347 L78.9117143,453.001449 C72.2126612,450.418659 68.8757709,442.894238 71.4585611,436.195185 C74.0413514,429.496132 81.565772,426.159242 88.2648251,428.742032 Z M287.480984,418.166248 L323.815065,431.8725 L328.649226,433.696084 C335.366856,436.230166 338.758292,443.730159 336.22421,450.447789 C333.690128,457.165419 326.190135,460.556854 319.472505,458.022773 L314.638344,456.199189 L278.304263,442.492937 C271.586633,439.958855 268.195197,432.458861 270.729279,425.741232 C273.26336,419.023602 280.763354,415.632166 287.480984,418.166248 Z M437.273559,423.494249 C439.807635,430.211881 436.416193,437.711872 429.698562,440.245948 L388.530307,455.77575 C381.812675,458.309826 374.312684,454.918384 371.778608,448.200753 C369.244532,441.483121 372.635973,433.98313 379.353605,431.449054 L420.52186,415.919251 C427.239492,413.385175 434.739483,416.776617 437.273559,423.494249 Z M235.174887,413.679227 C237.708963,420.396859 234.31752,427.89685 227.599889,430.430925 L186.431632,445.960725 C179.714001,448.494801 172.21401,445.103359 169.679934,438.385727 C167.145858,431.668095 170.537301,424.168104 177.254932,421.634028 L218.423189,406.104229 C225.14082,403.570153 232.640811,406.961595 235.174887,413.679227 Z M259.251034,170.305734 C269.770002,172.934082 278.960258,179.285924 284.939461,188.211356 L300.66255,211.537946 L315.209,211.537 L312.50845,199.741717 C310.85617,192.524697 315.367283,185.334708 322.584304,183.682429 C329.801324,182.030149 336.991312,186.541262 338.643592,193.758283 L377.073159,361.615426 C378.725438,368.832446 374.214325,376.022434 366.997305,377.674714 C359.780284,379.326994 352.590296,374.81588 350.938016,367.59886 L323.232,246.582 L295.956696,246.582589 C287.098617,246.582589 278.794169,242.202009 273.866863,234.864537 L273.964219,266.392857 C284.571788,280.881789 291.840829,293.266534 295.771341,303.547094 L295.986269,304.116071 C299.910125,314.632245 304.271267,333.419447 309.069696,360.477679 C309.069696,370.169713 301.152788,378 291.353539,378 C281.55429,378 277.441769,370.857143 273.637382,360.477679 L255.763165,315.193429 L214.849916,274.727818 C206.102564,266.076172 202.559332,253.591518 205.493571,241.709194 L216.787621,195.7131 C221.382749,177.040876 240.427617,165.651367 259.251034,170.305734 Z M196.690856,280.532087 C198.351745,282.831892 200.234087,285.022182 202.282517,287.0482 L228.161539,312.598214 L210.863781,364.913016 C208.372446,374.276507 198.683923,379.861747 189.216852,377.39767 C179.749781,374.933594 174.102756,365.351074 176.59409,355.987584 L176.649453,356.042341 L196.690856,280.532087 Z M204.239508,163.514635 C205.656097,166.439604 206.001363,169.768928 205.215129,172.922339 L191.34281,228.56117 C189.739493,234.991724 183.226753,238.904973 176.796199,237.301656 L157.09931,232.39067 C150.783521,230.815967 146.874703,224.493208 148.289098,218.139597 L156.484054,181.326992 C158.076868,174.171905 162.852232,168.137036 169.449476,164.941931 L185.697801,157.072721 C192.596838,153.731456 200.898243,156.615599 204.239508,163.514635 Z M264.621244,103 C279.297788,103 291.195479,114.767516 291.195479,129.283482 C291.195479,143.799449 279.297788,155.566964 264.621244,155.566964 C249.944699,155.566964 238.047009,143.799449 238.047009,129.283482 C238.047009,114.767516 249.944699,103 264.621244,103 Z" id="Path" fill="#FFE2A8" fill-rule="nonzero"></path>
        </g>
    </g>
</svg>