<?xml version="1.0" encoding="UTF-8"?>
<svg width="34px" height="18px" viewBox="0 0 34 18" version="1.1" xmlns="http://www.w3.org/2000/svg" xmlns:xlink="http://www.w3.org/1999/xlink">
    <title>Group</title>
    <g id="Page-1" stroke="none" stroke-width="1" fill="none" fill-rule="evenodd">
        <g id="Graphic-Copy-9" transform="translate(-13, -19)">
            <g id="Group" transform="translate(13, 19)">
                <path d="M2,0 L32,0 C33.1045695,0 34,0.8954305 34,2 L34,16 C34,17.1045695 33.1045695,18 32,18 L2,18 C0.8954305,18 0,17.1045695 0,16 L0,2 C0,0.8954305 0.8954305,2.22044605e-16 2,0 Z" id="Combined-Shape" fill="#005DA9"></path>
                <path d="M16,2 L16,10 L20,10 L20,4.5 L19,5.5 L18,5.5 L18,4 L20,2 L22,2 L22,10 L26,10 L26,4.5 L25,5.5 L24,5.5 L24,4 L26,2 L28,2 L28,10 L34,10 L34,12 L16,12 L16,16 L14,16 L14,12 L7,12 L7,10 L14,2 L16,2 Z M14,5.037 L9.657,10 L14,10 L14,5.037 Z M6,2 L6,6 L2,6 L2,2 L6,2 Z M5,3 L3,3 L3,5 L5,5 L5,3 Z M2,7 L6,7 L6,8 L2.75,8 L6,9.25 L6,11 L2,11 L2,10 L5,10 L2,8.75 L2,7 Z M2,12 L3,12 L4,14 L5,12 L6,12 L6,16 L5,16 L5,14 L4,16 L3,14 L3,16 L2,16 L2,12 Z" id="Combined-Shape" fill="#FFFFFF" fill-rule="nonzero"></path>
            </g>
        </g>
    </g>
</svg>