<?xml version="1.0" encoding="UTF-8"?>
<svg width="277px" height="228px" viewBox="0 0 277 228" version="1.1" xmlns="http://www.w3.org/2000/svg" xmlns:xlink="http://www.w3.org/1999/xlink">
    <title>Group</title>
    <g id="review-requested" stroke="none" stroke-width="1" fill="none" fill-rule="evenodd">
        <g id="Artboard-Copy-17" transform="translate(-1797, -232)">
            <g id="Group" transform="translate(1796, 232.4999)">
                <path d="M233.066718,17.9373263 C241.007463,11.2305734 252.87321,12.2408781 259.569606,20.193905 C266.266002,28.146932 265.257258,40.0310317 257.316512,46.7377846 L88.3582413,198.06217 C79.9625476,205.153172 67.312104,203.561391 60.9286687,194.61076 L4.50475629,115.495106 C-1.53277142,107.029494 0.424981877,95.2648062 8.87752068,89.2179405 C17.3300595,83.1710747 29.0765793,85.131856 35.114107,93.597468 L80.9353367,144.418065 L233.066718,17.9373263 Z" id="Line-Copy" fill="#77AFFF" fill-rule="nonzero"></path>
                <path d="M214.999739,102.387 L215,167.50008 C215,200.637165 189.480231,227.50008 158,227.50008 L72,227.50008 C40.5197693,227.50008 15,200.637165 15,167.50008 L14.9997388,130.3 L21.9997388,140.115 L22,167.659171 C22,196.842399 44.3857625,220.50008 72,220.50008 L158,220.50008 C185.614237,220.50008 208,196.842399 208,167.659171 L207.999739,108.657 L214.999739,102.387 Z M272.246943,7.93960523 C280.102415,17.2692176 279.015364,31.1596308 269.872609,39.1558009 L269.628,39.3650802 L100.693319,190.669355 L100.616617,190.73607 C90.6577206,199.147353 75.6502485,197.258991 68.0791156,186.643012 L11.6552032,107.527358 C4.49668143,97.4899267 6.81775029,83.5419741 16.8411052,76.3713615 C26.7632679,69.2731408 40.512928,71.4771028 47.7376907,81.2539581 L47.9087388,81.49 L47.835,81.3880802 L91.282,129.57708 L240.829158,5.24598339 L240.808342,5.26342657 C250.227589,-2.69206861 264.304322,-1.4935103 272.246943,7.93960523 Z M245.325093,10.6112261 L245.304277,10.6286692 L93.1728964,137.109408 L90.5874262,139.258946 L88.3359114,136.761777 L42.5146817,85.9411805 L42.3807164,85.7925988 L42.264554,85.6297199 C37.3503399,78.7391793 27.7924073,77.1437267 20.9139362,82.0645195 C14.0322135,86.9876383 12.4377757,96.5690612 17.3543093,103.462854 L73.7782217,182.578508 C78.9739595,189.863791 89.2673745,191.158992 96.0998658,185.38827 L96.07,185.41208 L264.981435,34.1305997 L265.058137,34.0638848 C271.523562,28.6031867 272.345122,18.924328 266.892269,12.4482048 C261.442098,5.97526647 251.787337,5.15321537 245.325093,10.6112261 Z M158,27.5000802 C168.734717,27.5000802 178.776351,30.6237024 187.349348,36.0545752 L181.663743,40.7809863 C174.619136,36.7737994 166.56082,34.5000802 158,34.5000802 L72,34.5000802 C53.1737914,34.5000802 36.7777416,45.4960057 28.2485843,61.7422178 C25.4208659,61.8745656 22.5956405,62.3731394 19.8464826,63.2505705 C28.6961108,42.1933987 48.7179464,27.5000802 72,27.5000802 L158,27.5000802 Z" id="Rectangle" fill="#000000" fill-rule="nonzero"></path>
            </g>
        </g>
    </g>
</svg>