<?xml version="1.0" encoding="UTF-8"?>
<svg width="188px" height="253px" viewBox="0 0 188 253" version="1.1" xmlns="http://www.w3.org/2000/svg" xmlns:xlink="http://www.w3.org/1999/xlink">
    <title>Combined Shape</title>
    <g id="Page-1" stroke="none" stroke-width="1" fill="none" fill-rule="evenodd">
        <g id="Artboard-Copy-28" transform="translate(-1196, -462)" fill="#242837" fill-rule="nonzero">
            <path d="M1270.63042,468.477912 L1270.66803,468.506021 L1270.75868,468.510256 C1289.71802,469.33365 1301.62492,475.310935 1303.07792,487.276793 L1303.11993,487.652677 L1304.0171,496.437203 L1296.02425,492.68909 C1295.7227,492.547682 1295.47742,492.435417 1295.28116,492.348054 L1295.12058,492.401137 C1292.57269,493.289362 1289.10621,493.889689 1284.60622,494.36962 L1284.03833,494.428997 C1282.67902,494.568352 1280.58397,494.737411 1278.52107,494.893559 L1277.93321,494.937784 C1276.46906,495.047285 1275.05865,495.148127 1273.98181,495.22478 L1273.84869,495.23341 L1273.83383,495.285675 C1273.54665,496.286464 1273.33035,497.622315 1273.20907,499.13332 L1273.17836,499.549635 C1273.07267,501.118942 1273.07402,502.767142 1273.17137,504.179591 C1273.21467,504.80777 1273.27505,505.355439 1273.34386,505.7733 C1273.36444,505.898233 1273.38446,506.003384 1273.40228,506.084725 L1273.41509,506.141409 L1276.79838,514.269249 L1277.00989,514.355825 C1287.39323,518.637539 1294.08986,524.63736 1298.95786,532.790567 L1299.22644,533.24574 C1300.05798,534.671762 1300.83155,536.143565 1301.67096,537.862662 C1301.98883,538.513645 1302.30088,539.167674 1302.70854,540.033104 C1302.82491,540.280165 1302.95581,540.558694 1303.19772,541.073573 C1303.39153,541.4858 1303.53385,541.787538 1303.67294,542.080585 C1306.14943,547.29844 1307.74728,549.693351 1310.2101,551.494083 L1321.94794,560.076378 L1308.71,560.489569 L1308.89756,560.780372 C1311.53564,564.915478 1314.21295,569.868697 1318.07677,577.328281 L1318.42081,577.993027 C1325.03896,590.790732 1329.40011,596.927075 1337.79607,603.520994 L1348.76402,612.134868 L1339.34775,612.350027 L1339.72764,612.646366 C1347.66713,618.893239 1353.08135,624.927407 1355.67948,631.558165 L1355.85226,632.011196 L1359.69872,642.380062 L1353.21128,639.891581 L1353.24415,639.946772 C1353.49617,640.37587 1354.10311,641.30646 1354.97547,642.615758 L1355.27597,643.066048 C1357.60159,646.545895 1361.52399,652.307387 1365.645,658.431957 L1366.18718,659.238119 L1366.73092,660.047489 L1367.29157,660.882999 C1368.22633,662.276909 1369.16176,663.676336 1370.08188,665.05934 L1370.63199,665.886996 C1372.18468,668.225444 1373.68386,670.503748 1375.05099,672.614124 L1384,686.428307 L1368.88128,679.928364 C1367.21935,679.213855 1365.40958,678.743541 1361.90082,678.038595 C1361.71863,678.001992 1361.55916,677.970074 1361.21377,677.901022 C1359.89548,677.637383 1358.72459,677.391338 1357.66894,677.148118 L1357.37684,677.07908 L1357.37793,677.094709 C1357.50792,680.015206 1357.49594,683.303094 1357.36717,686.88987 L1357.34166,687.565877 C1357.33203,687.80976 1357.3218,688.054765 1357.31103,688.30047 L1357.2771,689.039266 L1357.25897,689.409449 L1357.22055,690.149808 C1356.9484,695.204563 1356.48576,700.110917 1356.15711,701.238506 L1352.33535,714.350439 L1346.78907,701.870158 C1340.6947,688.156569 1332.95362,680.092827 1316.71336,667.975346 C1316.24163,667.623374 1315.75648,667.262327 1315.1215,666.790483 C1315.06848,666.751088 1313.8717,665.862053 1313.52306,665.602843 C1308.63786,661.970832 1305.05084,659.203275 1302.01992,656.625876 L1301.70174,656.353901 L1301.61859,656.483038 C1300.97164,657.444669 1300.21817,658.287278 1299.37526,658.950272 L1299.09101,659.164535 C1299.0241,659.212812 1298.95661,659.260031 1298.88857,659.30616 L1298.86604,659.319499 L1298.86011,659.351362 C1297.59096,665.496872 1295.66999,673.033834 1292.69465,683.823189 L1292.53671,684.393555 L1292.61806,684.443276 C1293.27784,684.830872 1293.99881,684.963145 1295.76253,684.86319 L1296.03503,684.846457 L1296.54153,684.813118 L1297.04438,684.882287 C1300.51432,685.359592 1303.03258,687.438537 1303.73312,690.685851 C1304.11066,692.435863 1304.0056,693.384663 1303.47378,696.244374 C1303.35365,696.890292 1290.5,688 1282.5,687.5 C1274.5,687 1269.01003,688.722126 1262.5,686.5 C1256.18378,684.344031 1256.35352,679.217993 1248.25,678 C1243.71413,677.31824 1220.03924,686.247624 1213,686.5 C1207.46334,686.698505 1216.82417,678.336417 1221.20329,677.237125 C1221.97129,677.044333 1224.60661,676.376344 1227.36288,675.678304 L1228.08351,675.495818 C1230.00637,675.008931 1231.91429,674.526232 1233.21935,674.19758 L1233.31998,674.171494 L1233.46992,674.070508 C1233.99947,673.698409 1234.5797,673.214424 1235.20326,672.619509 L1235.47313,672.357757 C1237.75047,670.113405 1240.1165,666.997835 1243.72624,661.694167 C1248.3194,654.945588 1250.18487,652.211384 1251.57218,650.493798 L1251.58505,650.476716 L1251.5553,650.425015 C1250.02223,647.799974 1247.7202,644.513634 1243.53623,638.824927 L1243.40491,638.64633 L1244.72512,644.487312 L1232.8846,633.488752 C1230.70116,631.460581 1228.52874,627.858812 1226.2502,622.557975 L1226.22773,622.505075 L1221.05935,617.316585 C1211.94862,608.170411 1205.98654,588.523839 1205.31843,569.924817 L1205.30595,569.528392 L1196.84321,582.433076 L1200.43387,559.535559 C1201.09623,555.311745 1201.9328,550.688654 1202.96993,545.461267 L1203.30414,543.790187 C1203.81555,541.252718 1204.37258,538.574818 1204.97803,535.734695 C1205.47365,533.409807 1206.0012,530.977807 1206.59402,528.278935 C1209.09117,516.91076 1210.7767,509.241037 1211.91197,503.943566 L1212.11845,502.977766 C1212.45204,501.413352 1212.73349,500.072511 1212.97078,498.914768 L1213.01513,498.696108 L1199.67976,507.290252 L1207.68723,491.076984 C1212.87758,480.567724 1223.4166,470.902869 1235.14169,465.897873 C1247.88712,460.457331 1260.7086,460.947916 1270.63042,468.477912 Z M1275.73633,657.322227 C1273.92757,657.767547 1271.97865,658.369861 1269.9078,659.104493 C1268.61797,659.562055 1267.34819,660.046085 1265.97596,660.594524 C1265.69114,660.708362 1265.13783,660.932791 1264.6001,661.151023 L1264.49768,661.191876 L1264.27199,661.477603 C1260.95956,665.668737 1258.78305,668.958731 1257.77322,671.201531 L1257.6924,671.382931 L1257.79018,671.433753 C1262.24079,673.764518 1265.05001,677.225374 1265.82418,681.565291 L1265.87653,681.883049 L1266.47264,681.892109 C1268.82818,681.913075 1271.17137,681.841074 1273.43445,681.655379 L1274.39924,681.568774 C1275.10515,681.499847 1275.79326,681.41977 1276.46225,681.328376 L1276.73638,681.288929 L1277.06622,680.092176 C1279.09472,672.616765 1280.81908,664.87805 1282.26272,656.637577 L1282.2788,656.540938 L1282.12107,656.526009 C1280.57439,656.398032 1278.37637,656.672244 1275.73633,657.322227 Z" id="Combined-Shape"></path>
        </g>
    </g>
</svg>