<?xml version="1.0" encoding="UTF-8"?>
<svg width="400px" height="222px" viewBox="0 0 400 222" version="1.1" xmlns="http://www.w3.org/2000/svg" xmlns:xlink="http://www.w3.org/1999/xlink">
    <title>Artboard Copy 9</title>
    <defs>
        <path d="M0,0 L400,0 L400,222 L0,222 L0,0 Z" id="path-1"></path>
    </defs>
    <g id="Artboard-Copy-9" stroke="none" fill="none" xlink:href="#path-1">
        <use fill="#000000" fill-rule="evenodd" xlink:href="#path-1"></use>
        <path d="M250.837471,32.4155236 L267.660489,43.8808442 L270.399996,38.1377033 C270.777561,37.3460704 271.704437,36.9909195 272.50975,37.3161528 L272.578463,37.3457019 L281.20655,41.2855815 C281.814269,41.5630867 282.195178,42.1791457 282.171862,42.8468192 L282.028342,46.9567107 L289.416217,49.8063855 C289.556342,49.860437 289.688315,49.933283 289.808551,50.022817 L289.879255,50.0785231 L297.754291,56.6383457 C297.967112,56.8156231 298.13197,57.0435402 298.23372,57.3011579 L300.816954,63.8415767 C301.084175,64.5181463 300.877663,65.2898884 300.30826,65.7425848 L293.607075,71.0700374 L289.690826,78.5478349 L289.508945,83.7562304 L298.331546,82.3098971 C298.959635,82.2069317 299.588547,82.4738148 299.951644,82.9911313 L299.993922,83.0544037 L303.406104,88.4232508 L315.395479,91.5128378 C315.763241,91.6076051 316.086316,91.8258744 316.311347,92.129767 L316.358048,92.1961836 L319.698056,97.2027998 L330.324442,101.696969 C330.880616,101.932186 331.26234,102.450891 331.324565,103.047581 L331.330669,103.122559 L331.641642,108.425899 C331.692036,109.285308 331.074341,110.039497 330.22185,110.159428 L329.249248,110.295843 L329.933402,112.830543 C330.006111,113.099965 330.009296,113.382903 329.943378,113.653038 L329.918846,113.742572 L328.701829,117.740447 L330.124346,119.265886 C330.273645,119.42599 330.389437,119.613921 330.465317,119.818604 L330.495375,119.907319 L331.832091,124.254138 C331.886184,124.43004 331.910521,124.613741 331.904098,124.797661 L331.748348,129.257752 C331.723313,129.974681 331.238691,130.593618 330.548697,130.78989 L326.793426,131.857982 L327.703862,137.262966 L331.376059,141.517669 C331.415412,141.563263 331.452228,141.610957 331.486349,141.660533 L331.535489,141.736281 L335.921234,148.919493 L344.778315,149.228789 C345.509327,149.254317 346.133349,149.756542 346.318598,150.458062 L346.336183,150.531332 L350.396149,169.306856 C350.618823,170.33662 349.834165,171.309088 348.7806,171.309091 L152.619093,171.30966 C152.431495,171.309661 152.244187,171.309661 152.057155,171.309662 L68.8427824,171.310644 C68.4335323,171.310654 68.0220651,171.310664 67.608355,171.310674 L48.8437434,171.311167 C46.9768514,171.309967 46.5416731,168.699052 48.3076819,168.093531 L67.9058083,161.373476 L70.9075872,157.403333 C71.0900706,157.161954 71.3349403,156.975773 71.6150322,156.864334 L71.7000892,156.833163 L78.6470673,154.501179 L78.7166932,152.507353 C78.7352031,151.9773 79.0067324,151.49006 79.4437119,151.195114 L79.5104887,151.152334 L84.3199435,148.230547 L85.1404072,144.646009 C85.2455264,144.186502 85.5414279,143.795092 85.9516528,143.568226 L86.0252166,143.529919 L91.074257,141.058661 L91.074257,144.738661 L88.1869054,146.152004 L87.3870205,149.649272 C87.2936152,150.057575 87.048983,150.414126 86.7041331,150.648212 L86.633842,150.693376 L81.9893261,153.514411 L81.9108628,155.761306 C81.8876759,156.425294 81.4696661,157.008252 80.8541716,157.245643 L80.7849807,157.270585 L73.2365505,159.80418 L70.2383259,163.770282 C70.0578347,164.009027 69.8162675,164.193827 69.5398603,164.305679 L69.4559192,164.337027 L58.7607313,168.004142 L225.972548,168.003662 C226.261392,168.003661 226.548842,168.003661 226.834913,168.00366 L346.7319,168.002951 L343.376787,152.487647 L334.916819,152.192218 C334.38806,152.173754 333.901817,151.903492 333.606622,151.468217 L333.563794,151.401698 L328.785369,143.57563 L324.899534,139.07332 C324.721793,138.867386 324.597936,138.621137 324.538346,138.356662 L324.520878,138.267859 L323.287995,130.947645 C323.148076,130.116877 323.655375,129.313806 324.465698,129.083305 L328.486595,127.939148 L328.590624,124.960138 L327.447283,121.242268 L325.634187,119.297984 C325.250218,118.886228 325.103459,118.308951 325.240306,117.766571 L325.26179,117.689348 L326.617859,113.233236 L325.570271,109.350816 C325.317342,108.413598 325.922341,107.466921 326.867708,107.294377 L326.935807,107.28338 L328.252141,107.098105 L328.0904,104.341359 L317.953938,100.054498 C317.683355,99.9400623 317.448663,99.7558001 317.273489,99.5212615 L317.222746,99.4494111 L313.958163,94.5562401 L301.949115,91.461666 C301.569948,91.3639597 301.238698,91.1350991 301.013258,90.8171542 L300.966589,90.747675 L297.789262,85.7482409 L288.054091,87.3446355 C287.047155,87.5097069 286.138733,86.7332222 286.133791,85.7234839 L286.134809,85.6558303 L286.40016,78.0571562 C286.408802,77.8097056 286.472926,77.5673577 286.587795,77.3480146 L290.840746,69.2270306 C290.947636,69.0229258 291.096016,68.8434221 291.276363,68.7000389 L297.292348,63.9169387 L295.314206,58.9083225 L287.971449,52.7921398 L279.740523,49.6173078 C279.106731,49.3728305 278.68952,48.7669024 278.682572,48.0926646 L278.683499,48.0174831 L278.829592,43.8339175 L272.683786,41.0276398 L269.814661,47.0441096 C269.388552,47.9375231 268.282366,48.254363 267.450816,47.7367974 L267.3919,47.6984059 L250.790855,36.3840645 L248.138488,44.457108 L246.113747,50.3404427 C246.027093,50.5922355 245.880888,50.8193648 245.687574,51.0024996 L235.03697,61.0922887 L231.128734,66.763297 C230.658495,67.4456075 229.759098,67.671255 229.02584,67.3023879 L228.957602,67.2660606 L225.763494,65.4701589 L216.586712,83.7517208 C216.241383,84.4396495 215.469283,84.7951494 214.727002,84.6182295 L214.65289,84.5987554 L206.138075,82.1513414 C205.683888,82.0207945 205.307301,81.7020835 205.103459,81.275731 L203.625322,78.1836397 L202.063172,77.9243353 L198.11425,89.1936642 C198.070279,89.3191436 198.011369,89.4387436 197.938873,89.5499132 L197.881975,89.6316698 L192.70167,96.6159522 L192.556257,97.2176608 L190.159257,94.4956608 L195.077336,87.8634473 L199.40317,75.5193451 C199.66057,74.784804 200.393549,74.332638 201.159684,74.4247913 L201.233915,74.4354174 L205.015946,75.0636589 C205.548095,75.1520553 206.003628,75.4945677 206.236312,75.981245 L207.764997,79.1792973 L214.247385,81.0426975 L223.586594,62.4386739 C223.998681,61.6177572 224.997277,61.2942225 225.808605,61.7045947 L225.873963,61.739481 L229.263051,63.6447334 L232.413775,59.0732473 C232.462829,59.0020714 232.517365,58.9348898 232.576866,58.8723073 L232.638003,58.8112801 L243.119632,48.8809803 L245.005262,43.4032688 L248.336304,33.2654109 C248.679626,32.2205285 249.928631,31.7961212 250.837471,32.4155236 Z" id="Combined-Shape" fill="#FFFFFF" fill-rule="nonzero"></path>
        <polygon id="Path-7" stroke="#FFFFFF" stroke-width="3.30578512" stroke-linecap="round" stroke-linejoin="round" transform="translate(356.3486, 113.9086) rotate(2) translate(-356.3486, -113.9086)" points="357.753558 93.7433017 366.513888 91.7598306 358.580004 117.710244 353.456037 119.032558 351.803144 125.31355 351.803144 134.07388 349.323806 136.057351 346.18331 131.594541 346.513888 124.156525 348.001492 113.578012 352.133723 106.801153 352.133723 103.330079 356.431244 101.677186 353.456037 98.8672687"></polygon>
        <g id="Group-4" stroke-width="1" fill-rule="evenodd" transform="translate(32.7273, 32.0661)" fill="#FFFFFF">
            <polygon id="Path" fill-rule="nonzero" points="16.4198919 31.6724447 0 0.0630925193 6.26713432 0.0630925193 16.5452346 19.8741436 26.6979922 0.0630925193 33.59184 0.0630925193"></polygon>
            <path d="M70.9439606,17.2242578 C70.1292331,3.53318108 84.167614,-4.66884643 95.0097564,2.96534841 L95.0097564,9.21150781 C90.0587202,3.84864368 76.8977382,3.40699604 76.5217101,14.7636495 C76.2710247,22.965677 83.0395298,26.3726731 86.549125,26.3726731 C95.0097564,26.3726731 97.2032534,18.8015707 96.0751692,18.8015707 L89.4946782,18.8015707 L89.4946782,13.4387066 L102.279632,13.4387066 C102.718332,21.135994 101.590247,25.1739152 97.0779107,28.4547262 C87.5518665,35.4579958 71.758688,30.2213167 70.9439606,17.2242578 L70.9439606,17.2242578 L70.9439606,17.2242578 Z" id="Path" fill-rule="nonzero"></path>
            <polygon id="Path" fill-rule="nonzero" points="35.785337 0.0630925193 41.8017859 0.0630925193 41.8017859 31.6724447 35.785337 31.6724447"></polygon>
            <polygon id="Path" fill-rule="nonzero" points="106.227927 0.0630925193 112.244376 0.0630925193 112.244376 31.6724447 106.227927 31.6724447"></polygon>
            <polygon id="Path" fill-rule="nonzero" points="145.961558 0 151.978007 0 151.978007 31.6093522 145.961558 31.6093522"></polygon>
            <path d="M45.6874092,31.6724447 L51.4531728,31.6724447 L51.4531728,5.17358658 C62.6086719,3.21771848 61.7939444,16.0885924 51.4531728,14.5112794 L51.4531728,14.6374645 L68.1237501,31.6724447 L75.0802692,31.6724447 L61.1045597,16.8457026 C64.3007982,14.2589094 66.8076519,10.0948031 64.3007982,5.29977162 C62.3579865,1.38803542 57.156265,0.0630925193 54.4613973,0.0630925193 L45.6874092,0.0630925193 L45.6874092,31.6724447 Z" id="Path" fill-rule="nonzero"></path>
            <polygon id="Path" fill-rule="nonzero" points="116.255342 0 123.086518 0 135.934144 20.8836239 135.934144 0 141.950592 0 141.950592 31.6724447 135.244759 31.6724447 122.271791 10.4102657 122.271791 31.6724447 116.255342 31.6724447"></polygon>
            <path d="M170.090026,0 L185.319162,31.6093522 L179.052028,31.6093522 L175.354418,24.2275274 L163.634877,24.2275274 L160.125282,31.6093522 L153.795476,31.6093522 L169.149955,0 L170.090026,0 Z M169.588655,11.6721161 L165.765703,19.1801259 L173.348935,19.1801259 L169.588655,11.6721161 Z" id="Combined-Shape" fill-rule="nonzero"></path>
        </g>
        <path d="M201.670845,116.106666 L201.670845,110.743802 L186.629723,110.743802 L186.629723,110.743802 L186.629723,142.416246 L186.629723,142.416246 L201.670845,142.416246 L201.670845,137.053382 L192.708843,137.053382 L192.708843,129.419187 L200.730775,129.419187 L200.730775,123.740861 L192.708843,123.740861 L192.708843,116.106666 L201.670845,116.106666 Z M243.974002,126.832394 C242.219204,125.065804 240.213721,124.056323 238.584266,123.677768 C238.521595,123.677768 238.458924,123.614676 238.396252,123.614676 C238.396252,123.614676 233.695901,122.352825 234.5733,118.945829 C234.73171,118.419059 234.9868,117.92685 235.325356,117.494701 C236.014741,116.737591 236.954811,116.422128 237.83221,116.359036 C239.148308,116.232851 240.464407,116.485221 241.028449,116.674498 L242.657904,117.179239 L242.657904,111.374727 C242.156533,111.185449 237.518853,109.860506 233.63323,111.94256 C231.502404,113.078225 229.998292,114.971 229.246236,117.494701 C228.49418,120.081495 228.682194,122.415918 229.810278,124.371786 C231.75309,127.778782 235.826727,128.72517 237.393511,129.103725 C237.393511,129.103725 242.219204,130.617945 240.965777,134.403496 C240.840435,134.718959 240.715092,134.971329 240.589749,135.223699 C239.524336,136.801012 237.456182,136.801012 236.014741,136.548642 C233.570559,136.233179 231.126376,135.160607 228.995551,133.898756 L228.807537,133.835664 C226.211425,132.261343 223.830671,130.352424 221.725675,128.157337 C221.537661,127.968059 221.412318,127.778782 221.224304,127.589504 C224.420543,125.002711 226.927396,120.838605 224.420543,116.043573 C222.227046,112.131837 217.087996,110.743802 214.393128,110.743802 L205.61914,110.743802 L205.61914,142.353154 L211.384903,142.353154 L211.384903,125.255081 L211.384903,115.917388 C222.540402,113.96152 221.725675,126.832394 211.384903,125.255081 L211.384903,125.381266 L219.782863,134.024941 L221.600332,135.854624 L221.600332,135.854624 L221.97636,136.233179 L222.164374,136.422457 C222.41506,136.611735 222.665745,136.864105 222.979102,137.116475 C225.23527,139.00925 230.248978,142.479339 237.330839,142.479339 C238.584266,142.479339 240.025707,142.290061 241.404477,141.596044 C242.97126,140.902026 245.039415,139.324713 246.167499,135.917717 L246.23017,135.791532 C247.17024,132.447628 246.355513,129.293002 243.974002,126.832394 L243.974002,126.832394 Z M139.124845,142.416246 L144.890608,142.416246 L144.890608,115.917388 C156.046107,113.96152 155.23138,126.832394 144.890608,125.255081 L144.890608,125.381266 C146.812529,127.820844 148.609108,129.040632 150.280344,129.040632 C151.951579,129.040632 153.37213,128.556923 154.541995,127.589504 C157.738233,125.002711 160.245087,120.838605 157.738233,116.043573 C155.795422,112.131837 150.5937,110.806894 147.898833,110.806894 L139.124845,110.806894 L139.124845,142.416246 Z M162.939955,142.416246 L168.705719,142.416246 L168.705719,115.917388 C179.861218,113.96152 179.04649,126.832394 168.705719,125.255081 L168.705719,125.381266 C170.62764,127.820844 172.424218,129.040632 174.095454,129.040632 C175.76669,129.040632 177.18724,128.556923 178.357105,127.589504 C181.553344,125.002711 184.060198,120.838605 181.553344,116.043573 C179.610532,112.131837 174.408811,110.806894 171.713943,110.806894 L162.939955,110.806894 L162.939955,142.416246 Z M75.3426389,110.743802 L84.8060117,126.125127 L94.2693846,110.743802 L101.100561,110.743802 L101.100561,142.416246 L95.084112,142.416246 L95.084112,121.154067 L84.8060117,137.873585 L74.5279114,121.154067 L74.5279114,142.416246 L68.5114625,142.416246 L68.5114625,110.743802 L75.3426389,110.743802 Z M120.466006,110.743802 L135.695142,142.353154 L129.428008,142.353154 L125.730399,134.971329 L114.010858,134.971329 L110.501262,142.353154 L104.171457,142.353154 L119.525936,110.743802 L120.466006,110.743802 Z M119.964635,122.415918 L116.141683,129.923928 L123.724916,129.923928 L119.964635,122.415918 Z" id="Combined-Shape" fill="#FFFFFF" fill-rule="nonzero"></path>
        <g id="Group-3" stroke-width="1" fill-rule="evenodd" transform="translate(68.4327, 71.4355)" fill="#FFFFFF">
            <path d="M93.3176301,31.6419352 L99.0833937,31.6419352 L99.0833937,5.14307707 C110.238893,3.18720897 109.424165,16.0580829 99.0833937,14.4807699 L99.0833937,14.606955 L115.753971,31.6419352 L122.71049,31.6419352 L108.734781,16.8151931 C111.931019,14.2283998 114.437873,10.0642936 111.931019,5.2692621 C109.988207,1.35752591 104.786486,0.0325830051 102.091618,0.0325830051 L93.3176301,0.0325830051 L93.3176301,31.6419352 Z" id="Path" fill-rule="nonzero"></path>
            <polygon id="Path" fill-rule="nonzero" points="39.8589743 0.0325830051 54.9000967 0.0325830051 54.9000967 5.39544714 45.8754233 5.39544714 45.8754233 13.2820121 54.4613973 13.2820121 54.4613973 18.6448762 45.8754233 18.6448762 45.8754233 31.6419352 39.8589743 31.6419352"></polygon>
            <path d="M57.9083212,16.2473605 C57.7203071,8.04533295 64.1754555,-0.598342188 74.4535558,0.0325830051 C85.1703555,0.726600717 90.1213916,8.99172074 89.8707062,15.9949904 C89.5573495,25.0803132 82.4754877,31.6419352 74.1401991,31.6419352 C65.3035397,31.6419352 58.0963352,25.3957757 57.9083212,16.2473605 Z M73.7014997,5.01689203 C67.8103934,5.01689203 63.0473713,9.81192349 63.0473713,15.6795278 C63.0473713,21.5471321 67.8103934,26.3421635 73.7014997,26.3421635 C79.5926059,26.3421635 84.355628,21.5471321 84.355628,15.6795278 C84.355628,9.81192349 79.5926059,5.01689203 73.7014997,5.01689203 Z" id="Combined-Shape" fill-rule="nonzero"></path>
            <polygon id="Path" fill-rule="nonzero" points="0 0.0325830051 6.01644895 0.0325830051 6.01644895 31.6419352 0 31.6419352"></polygon>
            <path d="M25.7579221,16.0580829 C24.0031245,14.2914924 21.8096275,13.3451046 20.1801725,12.8403644 C19.5534591,12.6510869 15.4798218,11.578514 16.3572206,8.17151799 C16.5156301,7.6447478 16.7707204,7.15253893 17.1092767,6.72039005 C17.7986615,5.96327982 18.7387316,5.64781722 19.6161304,5.5847247 C20.9322286,5.45853966 22.2483269,5.71090974 22.8123689,5.9001873 L24.4418239,6.40492745 L24.4418239,0.600415678 C23.9404531,0.411138121 19.3027737,-0.913804784 15.4171504,1.16824835 C13.2863248,2.3039137 11.7822125,4.19668928 11.0301564,6.72039005 C10.2781003,9.30718334 10.4661143,11.6416065 11.5941985,13.5974746 C13.2236534,16.3735455 17.3599621,17.7615809 18.6760603,18.2032286 L18.6760603,18.2032286 C18.6760603,18.2032286 23.6897677,19.6543565 22.5616836,23.8815553 C22.4827051,24.1037376 22.3774991,24.3155637 22.2483269,24.5124805 C21.9976415,24.8910356 21.6842848,25.2064982 21.3082567,25.3957757 C21.3082567,25.3957757 21.2455854,25.3957757 21.2455854,25.4588683 C21.2455854,25.4588683 21.182914,25.4588683 21.182914,25.5219608 C19.177431,26.5945336 16.0438639,25.3957757 16.0438639,25.3957757 L9.96474358,22.872075 L9.96474358,28.9289568 L15.1664651,30.9479174 C15.4171504,31.0741025 17.1092767,31.6419352 19.2401024,31.6419352 C20.4935292,31.6419352 21.9349701,31.4526576 23.3137397,30.7586399 C24.8805233,30.0646222 26.9486776,28.4873092 28.0767618,25.0803132 L28.1394331,24.9541281 C28.9541606,21.6733171 28.1394331,18.5186911 25.7579221,16.0580829 L25.7579221,16.0580829 Z" id="Path" fill-rule="nonzero"></path>
        </g>
        <path d="M266.293536,103.024348 C267.625102,97.8312403 272.618475,95.5675781 275.215029,95.9004696 C286.400183,97.3651922 288.264376,112.545045 266.293536,129.256198 C244.322697,112.545045 246.18689,97.2986139 257.372044,95.9004696 C260.035176,95.5675781 264.96197,97.764662 266.293536,103.024348 Z" id="Path" fill="#ED1C24" fill-rule="nonzero"></path>
        <g id="State-of-the-Map-US" stroke-width="1" fill-rule="evenodd" transform="translate(45.5808, 176.6056)">
            <path d="M4.09586777,11.3573554 C6.98380165,11.3573554 8.4,9.91338843 8.4,8.21950413 C8.4,4.63735537 2.88793388,5.74809917 2.88793388,4.26247934 C2.88793388,3.77652893 3.30446281,3.3877686 4.4568595,3.3877686 C5.30380165,3.3877686 6.22016529,3.63768595 7.15041322,4.13752066 L7.99735537,2.09652893 C7.03933884,1.54115702 5.73421488,1.24958678 4.4707438,1.24958678 C1.58280992,1.24958678 0.16661157,2.66578512 0.16661157,4.40132231 C0.16661157,8.01123967 5.69256198,6.88661157 5.69256198,8.4277686 C5.69256198,8.89983471 5.24826446,9.21917355 4.10975207,9.21917355 C2.98512397,9.21917355 1.76330579,8.83041322 0.902479339,8.26115702 L0,10.2882645 C0.916363636,10.9269421 2.49917355,11.3573554 4.09586777,11.3573554 Z" id="Path" fill="#FFFFFF" fill-rule="nonzero"></path>
            <path d="M14.0786777,9.01090909 C13.8565289,9.16363636 13.5649587,9.24694215 13.2733884,9.24694215 C12.8013223,9.24694215 12.4819835,8.9414876 12.4819835,8.3861157 L12.4819835,5.88694215 L14.2036364,5.88694215 L14.2036364,3.9153719 L12.4819835,3.9153719 L12.4819835,1.95768595 L9.84396694,1.95768595 L9.84396694,3.9153719 L8.74710744,3.9153719 L8.74710744,5.88694215 L9.84396694,5.88694215 L9.84396694,8.4138843 C9.84396694,10.3438017 10.968595,11.2879339 12.8985124,11.2879339 C13.5927273,11.2879339 14.2730579,11.1490909 14.7312397,10.8575207 L14.0786777,9.01090909 Z" id="Path" fill="#FFFFFF" fill-rule="nonzero"></path>
            <path d="M18.9520661,3.51272727 C17.7719008,3.51272727 16.4945455,3.81818182 15.633719,4.38743802 L16.522314,6.1785124 C17.0360331,5.77586777 17.8413223,5.52595041 18.5633058,5.52595041 C19.6046281,5.52595041 20.1183471,5.95636364 20.16,6.72 L18.6604959,6.72 C16.3279339,6.72 15.3143802,7.58082645 15.3143802,8.9692562 C15.3143802,10.2743802 16.3140496,11.2879339 18.1190083,11.2879339 C19.2158678,11.2879339 19.9656198,10.9130579 20.3404959,10.1910744 L20.3404959,11.1629752 L22.7980165,11.1629752 L22.7980165,6.98380165 C22.7980165,4.59570248 21.3957025,3.51272727 18.9520661,3.51272727 Z M18.854876,9.62181818 C18.2300826,9.62181818 17.8690909,9.30247934 17.8690909,8.85818182 C17.8690909,8.4 18.1745455,8.09454545 19.0214876,8.09454545 L20.16,8.09454545 L20.16,8.74710744 C19.9517355,9.34413223 19.4380165,9.62181818 18.854876,9.62181818 Z" id="Shape" fill="#FFFFFF" fill-rule="nonzero"></path>
            <path d="M29.0042975,9.01090909 C28.7821488,9.16363636 28.4905785,9.24694215 28.1990083,9.24694215 C27.7269421,9.24694215 27.4076033,8.9414876 27.4076033,8.3861157 L27.4076033,5.88694215 L29.1292562,5.88694215 L29.1292562,3.9153719 L27.4076033,3.9153719 L27.4076033,1.95768595 L24.7695868,1.95768595 L24.7695868,3.9153719 L23.6727273,3.9153719 L23.6727273,5.88694215 L24.7695868,5.88694215 L24.7695868,8.4138843 C24.7695868,10.3438017 25.8942149,11.2879339 27.8241322,11.2879339 C28.5183471,11.2879339 29.1986777,11.1490909 29.6568595,10.8575207 L29.0042975,9.01090909 Z" id="Path" fill="#FFFFFF" fill-rule="nonzero"></path>
            <path d="M38.1401653,7.41421488 C38.1401653,4.92892562 36.3352066,3.51272727 34.113719,3.51272727 C31.7395041,3.51272727 29.9761983,5.12330579 29.9761983,7.38644628 C29.9761983,9.63570248 31.7117355,11.2879339 34.391405,11.2879339 C35.8214876,11.2879339 36.8766942,10.871405 37.5986777,10.0661157 L36.2102479,8.62214876 C35.6965289,9.06644628 35.2105785,9.27471074 34.4747107,9.27471074 C33.5028099,9.27471074 32.8502479,8.83041322 32.6280992,8.06677686 L38.0985124,8.06677686 C38.1123967,7.8585124 38.1401653,7.60859504 38.1401653,7.41421488 Z M34.1276033,5.38710744 C34.9467769,5.38710744 35.5299174,5.88694215 35.6687603,6.67834711 L32.5864463,6.67834711 C32.7391736,5.88694215 33.3084298,5.38710744 34.1276033,5.38710744 Z" id="Shape" fill="#FFFFFF" fill-rule="nonzero"></path>
            <path d="M47.178843,11.2879339 C49.6641322,11.2879339 51.427438,9.66347107 51.427438,7.38644628 C51.427438,5.12330579 49.6641322,3.51272727 47.178843,3.51272727 C44.7213223,3.51272727 42.9302479,5.12330579 42.9302479,7.38644628 C42.9302479,9.66347107 44.7213223,11.2879339 47.178843,11.2879339 Z M47.178843,9.19140496 C46.2902479,9.19140496 45.5960331,8.53884298 45.5960331,7.38644628 C45.5960331,6.24793388 46.2902479,5.6092562 47.178843,5.6092562 C48.0813223,5.6092562 48.7616529,6.24793388 48.7616529,7.38644628 C48.7616529,8.53884298 48.0813223,9.19140496 47.178843,9.19140496 Z" id="Shape" fill="#FFFFFF" fill-rule="nonzero"></path>
            <path d="M55.5233058,3.74876033 C55.5233058,3.08231405 55.8426446,2.76297521 56.3980165,2.76297521 C56.6757025,2.76297521 56.9672727,2.86016529 57.1894215,2.98512397 L57.8419835,1.1246281 C57.4115702,0.860826446 56.7312397,0.735867769 56.092562,0.735867769 C54.0793388,0.735867769 52.9547107,1.91603306 52.9547107,3.72099174 L52.9547107,3.9153719 L51.8578512,3.9153719 L51.8578512,5.88694215 L52.9547107,5.88694215 L52.9547107,11.1629752 L55.5927273,11.1629752 L55.5927273,5.88694215 L57.3143802,5.88694215 L57.3143802,3.9153719 L55.5233058,3.9153719 L55.5233058,3.74876033 Z" id="Path" fill="#FFFFFF" fill-rule="nonzero"></path>
            <path d="M66.8667769,9.01090909 C66.6446281,9.16363636 66.3530579,9.24694215 66.0614876,9.24694215 C65.5894215,9.24694215 65.2700826,8.9414876 65.2700826,8.3861157 L65.2700826,5.88694215 L66.9917355,5.88694215 L66.9917355,3.9153719 L65.2700826,3.9153719 L65.2700826,1.95768595 L62.6320661,1.95768595 L62.6320661,3.9153719 L61.5352066,3.9153719 L61.5352066,5.88694215 L62.6320661,5.88694215 L62.6320661,8.4138843 C62.6320661,10.3438017 63.7566942,11.2879339 65.6866116,11.2879339 C66.3808264,11.2879339 67.061157,11.1490909 67.5193388,10.8575207 L66.8667769,9.01090909 Z" id="Path" fill="#FFFFFF" fill-rule="nonzero"></path>
            <path d="M73.4340496,3.51272727 C72.5454545,3.51272727 71.7540496,3.79041322 71.1709091,4.33190083 L71.1709091,0.860826446 L68.5328926,0.860826446 L68.5328926,11.1629752 L71.1709091,11.1629752 L71.1709091,7.52528926 C71.1709091,6.27570248 71.8234711,5.74809917 72.6704132,5.74809917 C73.4340496,5.74809917 73.9061157,6.20628099 73.9061157,7.2892562 L73.9061157,11.1629752 L76.5441322,11.1629752 L76.5441322,6.85884298 C76.5441322,4.52628099 75.1973554,3.51272727 73.4340496,3.51272727 Z" id="Path" fill="#FFFFFF" fill-rule="nonzero"></path>
            <path d="M85.9993388,7.41421488 C85.9993388,4.92892562 84.1943802,3.51272727 81.9728926,3.51272727 C79.5986777,3.51272727 77.8353719,5.12330579 77.8353719,7.38644628 C77.8353719,9.63570248 79.5709091,11.2879339 82.2505785,11.2879339 C83.6806612,11.2879339 84.7358678,10.871405 85.4578512,10.0661157 L84.0694215,8.62214876 C83.5557025,9.06644628 83.0697521,9.27471074 82.3338843,9.27471074 C81.3619835,9.27471074 80.7094215,8.83041322 80.4872727,8.06677686 L85.957686,8.06677686 C85.9715702,7.8585124 85.9993388,7.60859504 85.9993388,7.41421488 Z M81.9867769,5.38710744 C82.8059504,5.38710744 83.3890909,5.88694215 83.5279339,6.67834711 L80.4456198,6.67834711 C80.5983471,5.88694215 81.1676033,5.38710744 81.9867769,5.38710744 Z" id="Shape" fill="#FFFFFF" fill-rule="nonzero"></path>
            <polygon id="Path" fill="#FFFFFF" fill-rule="nonzero" points="102.688264 11.1629752 102.660496 1.44396694 100.397355 1.44396694 97.065124 7.05322314 93.6495868 1.44396694 91.3864463 1.44396694 91.3864463 11.1629752 93.9272727 11.1629752 93.9272727 6.1507438 96.412562 10.2049587 97.6343802 10.2049587 100.133554 6.01190083 100.161322 11.1629752"></polygon>
            <path d="M107.71438,3.51272727 C106.534215,3.51272727 105.25686,3.81818182 104.396033,4.38743802 L105.284628,6.1785124 C105.798347,5.77586777 106.603636,5.52595041 107.32562,5.52595041 C108.366942,5.52595041 108.880661,5.95636364 108.922314,6.72 L107.42281,6.72 C105.090248,6.72 104.076694,7.58082645 104.076694,8.9692562 C104.076694,10.2743802 105.076364,11.2879339 106.881322,11.2879339 C107.978182,11.2879339 108.727934,10.9130579 109.10281,10.1910744 L109.10281,11.1629752 L111.560331,11.1629752 L111.560331,6.98380165 C111.560331,4.59570248 110.158017,3.51272727 107.71438,3.51272727 Z M107.61719,9.62181818 C106.992397,9.62181818 106.631405,9.30247934 106.631405,8.85818182 C106.631405,8.4 106.93686,8.09454545 107.783802,8.09454545 L108.922314,8.09454545 L108.922314,8.74710744 C108.71405,9.34413223 108.200331,9.62181818 107.61719,9.62181818 Z" id="Shape" fill="#FFFFFF" fill-rule="nonzero"></path>
            <path d="M117.960992,3.51272727 C116.975207,3.51272727 116.239339,3.79041322 115.739504,4.38743802 L115.739504,3.63768595 L113.226446,3.63768595 L113.226446,13.8565289 L115.864463,13.8565289 L115.864463,10.4965289 C116.378182,11.0241322 117.086281,11.2879339 117.960992,11.2879339 C120.001983,11.2879339 121.654215,9.78842975 121.654215,7.40033058 C121.654215,5.0122314 120.001983,3.51272727 117.960992,3.51272727 Z M117.40562,9.19140496 C116.517025,9.19140496 115.82281,8.53884298 115.82281,7.40033058 C115.82281,6.26181818 116.517025,5.6092562 117.40562,5.6092562 C118.294215,5.6092562 118.98843,6.26181818 118.98843,7.40033058 C118.98843,8.53884298 118.294215,9.19140496 117.40562,9.19140496 Z" id="Shape" fill="#FFFFFF" fill-rule="nonzero"></path>
            <path d="M131.52595,11.3573554 C134.4,11.3573554 136.093884,9.73289256 136.093884,6.83107438 L136.093884,1.44396694 L133.386446,1.44396694 L133.386446,6.7477686 C133.386446,8.4138843 132.692231,9.08033058 131.553719,9.08033058 C130.401322,9.08033058 129.707107,8.4138843 129.707107,6.7477686 L129.707107,1.44396694 L126.958017,1.44396694 L126.958017,6.83107438 C126.958017,9.73289256 128.651901,11.3573554 131.52595,11.3573554 Z" id="Path" fill="#FFFFFF" fill-rule="nonzero"></path>
            <path d="M141.369917,11.3573554 C144.257851,11.3573554 145.67405,9.91338843 145.67405,8.21950413 C145.67405,4.63735537 140.161983,5.74809917 140.161983,4.26247934 C140.161983,3.77652893 140.578512,3.3877686 141.730909,3.3877686 C142.577851,3.3877686 143.494215,3.63768595 144.424463,4.13752066 L145.271405,2.09652893 C144.313388,1.54115702 143.008264,1.24958678 141.744793,1.24958678 C138.85686,1.24958678 137.440661,2.66578512 137.440661,4.40132231 C137.440661,8.01123967 142.966612,6.88661157 142.966612,8.4277686 C142.966612,8.89983471 142.522314,9.21917355 141.383802,9.21917355 C140.259174,9.21917355 139.037355,8.83041322 138.176529,8.26115702 L137.27405,10.2882645 C138.190413,10.9269421 139.773223,11.3573554 141.369917,11.3573554 Z" id="Path" fill="#FFFFFF" fill-rule="nonzero"></path>
            <path d="M154.240661,8.9831405 L156.073388,7.2892562 C157.461818,6.01190083 157.72562,5.15107438 157.72562,4.20694215 C157.72562,2.40198347 156.184463,1.24958678 153.949091,1.24958678 C152.033058,1.24958678 150.658512,2.05487603 149.922645,3.27669421 L151.963636,4.41520661 C152.352397,3.79041322 152.991074,3.47107438 153.699174,3.47107438 C154.532231,3.47107438 154.94876,3.84595041 154.94876,4.4707438 C154.94876,4.87338843 154.837686,5.31768595 154.060165,6.03966942 L150.422479,9.44132231 L150.422479,11.1629752 L157.989421,11.1629752 L157.989421,8.9831405 L154.240661,8.9831405 Z" id="Path" fill="#FFFFFF" fill-rule="nonzero"></path>
            <path d="M163.071074,11.3573554 C165.542479,11.3573554 167.347438,9.5107438 167.347438,6.30347107 C167.347438,3.09619835 165.542479,1.24958678 163.071074,1.24958678 C160.585785,1.24958678 158.780826,3.09619835 158.780826,6.30347107 C158.780826,9.5107438 160.585785,11.3573554 163.071074,11.3573554 Z M163.071074,9.10809917 C162.182479,9.10809917 161.543802,8.34446281 161.543802,6.30347107 C161.543802,4.26247934 162.182479,3.49884298 163.071074,3.49884298 C163.945785,3.49884298 164.584463,4.26247934 164.584463,6.30347107 C164.584463,8.34446281 163.945785,9.10809917 163.071074,9.10809917 Z" id="Shape" fill="#FFFFFF" fill-rule="nonzero"></path>
            <path d="M171.94314,8.9831405 L173.775868,7.2892562 C175.164298,6.01190083 175.428099,5.15107438 175.428099,4.20694215 C175.428099,2.40198347 173.886942,1.24958678 171.65157,1.24958678 C169.735537,1.24958678 168.360992,2.05487603 167.625124,3.27669421 L169.666116,4.41520661 C170.054876,3.79041322 170.693554,3.47107438 171.401653,3.47107438 C172.234711,3.47107438 172.65124,3.84595041 172.65124,4.4707438 C172.65124,4.87338843 172.540165,5.31768595 171.762645,6.03966942 L168.124959,9.44132231 L168.124959,11.1629752 L175.691901,11.1629752 L175.691901,8.9831405 L171.94314,8.9831405 Z" id="Path" fill="#FFFFFF" fill-rule="nonzero"></path>
            <path d="M181.481653,5.33157025 L183.494876,3.16561983 L183.494876,1.44396694 L176.469421,1.44396694 L176.469421,3.56826446 L180.301488,3.56826446 L178.56595,5.44264463 L178.56595,7.17818182 L179.718347,7.17818182 C180.773554,7.17818182 181.203967,7.53917355 181.203967,8.12231405 C181.203967,8.77487603 180.593058,9.13586777 179.66281,9.13586777 C178.746446,9.13586777 177.746777,8.85818182 176.969256,8.33057851 L175.969587,10.3993388 C176.969256,11.0241322 178.399339,11.3573554 179.746116,11.3573554 C182.675702,11.3573554 183.980826,9.77454545 183.980826,8.12231405 C183.980826,6.7338843 183.12,5.67867769 181.481653,5.33157025 Z" id="Path" fill="#FFFFFF" fill-rule="nonzero"></path>
            <path d="M198.918704,6.49871901 C198.100651,6.83769112 197.448694,7.14276601 196.962834,7.4139437 C196.476974,7.68512138 196.098456,7.95403926 195.827278,8.22069731 C195.56062,8.48735537 195.291702,8.8624845 195.020524,9.34608471 C194.749347,9.82968492 194.439752,10.4918104 194.091741,11.3324613 L193.813784,11.3324613 C193.461253,10.4918104 193.149398,9.82968492 192.878221,9.34608471 C192.607043,8.8624845 192.340385,8.48735537 192.078246,8.22069731 C191.807069,7.95403926 191.42855,7.68512138 190.94269,7.4139437 C190.45683,7.14276601 189.802614,6.83769112 188.980041,6.49871901 L188.980041,6.22076188 C189.807133,5.88178977 190.463609,5.57671488 190.949469,5.30553719 C191.435329,5.0343595 191.811588,4.76544163 192.078246,4.49878357 C192.340385,4.23212552 192.607043,3.85699638 192.878221,3.37339618 C193.149398,2.88979597 193.461253,2.22767045 193.813784,1.38701963 L194.091741,1.38701963 C194.439752,2.22767045 194.749347,2.88979597 195.020524,3.37339618 C195.291702,3.85699638 195.56062,4.23212552 195.827278,4.49878357 C196.089416,4.76544163 196.463416,5.0343595 196.949276,5.30553719 C197.435136,5.57671488 198.091612,5.88178977 198.918704,6.22076188 L198.918704,6.49871901 Z" id="Path" fill="#ED1C24" fill-rule="nonzero"></path>
            <path d="M210.471632,11.1629752 L213.415103,11.1629752 L211.318574,8.10842975 C212.526508,7.52528926 213.220723,6.47008264 213.220723,5.04 C213.220723,2.8185124 211.554607,1.44396694 208.902707,1.44396694 L204.459731,1.44396694 L204.459731,11.1629752 L207.208822,11.1629752 L207.208822,8.58049587 L208.708326,8.58049587 L210.471632,11.1629752 Z M210.443864,5.04 C210.443864,5.92859504 209.874607,6.45619835 208.736095,6.45619835 L207.208822,6.45619835 L207.208822,3.60991736 L208.736095,3.60991736 C209.874607,3.60991736 210.443864,4.13752066 210.443864,5.04 Z" id="Shape" fill="#FFFFFF" fill-rule="nonzero"></path>
            <path d="M215.928161,2.8046281 C216.900062,2.8046281 217.53874,2.19371901 217.53874,1.36066116 C217.53874,0.569256198 216.900062,0 215.928161,0 C214.95626,0 214.317583,0.610909091 214.317583,1.40231405 C214.317583,2.19371901 214.95626,2.8046281 215.928161,2.8046281 Z M214.609153,11.1629752 L217.247169,11.1629752 L217.247169,3.63768595 L214.609153,3.63768595 L214.609153,11.1629752 Z" id="Shape" fill="#FFFFFF" fill-rule="nonzero"></path>
            <path d="M222.800888,11.2879339 C224.508657,11.2879339 225.813781,10.5242975 226.3275,9.21917355 L224.286508,8.17785124 C223.925517,8.88595041 223.397913,9.19140496 222.787004,9.19140496 C221.87064,9.19140496 221.148657,8.55272727 221.148657,7.38644628 C221.148657,6.24793388 221.87064,5.6092562 222.787004,5.6092562 C223.397913,5.6092562 223.925517,5.91471074 224.286508,6.62280992 L226.3275,5.5814876 C225.813781,4.27636364 224.508657,3.51272727 222.800888,3.51272727 C220.273946,3.51272727 218.482872,5.12330579 218.482872,7.38644628 C218.482872,9.67735537 220.273946,11.2879339 222.800888,11.2879339 Z" id="Path" fill="#FFFFFF" fill-rule="nonzero"></path>
            <path d="M232.200558,3.51272727 C231.311963,3.51272727 230.520558,3.79041322 229.937417,4.33190083 L229.937417,0.860826446 L227.299401,0.860826446 L227.299401,11.1629752 L229.937417,11.1629752 L229.937417,7.52528926 C229.937417,6.27570248 230.589979,5.74809917 231.436921,5.74809917 C232.200558,5.74809917 232.672624,6.20628099 232.672624,7.2892562 L232.672624,11.1629752 L235.31064,11.1629752 L235.31064,6.85884298 C235.31064,4.52628099 233.963864,3.51272727 232.200558,3.51272727 Z" id="Path" fill="#FFFFFF" fill-rule="nonzero"></path>
            <path d="M246.765186,3.51272727 C245.682211,3.51272727 244.751963,3.9431405 244.154938,4.69289256 C243.627335,3.88760331 242.752624,3.51272727 241.725186,3.51272727 C240.836591,3.51272727 240.045186,3.81818182 239.47593,4.42909091 L239.47593,3.63768595 L236.962872,3.63768595 L236.962872,11.1629752 L239.600888,11.1629752 L239.600888,7.42809917 C239.600888,6.26181818 240.15626,5.74809917 240.933781,5.74809917 C241.64188,5.74809917 242.072293,6.20628099 242.072293,7.2892562 L242.072293,11.1629752 L244.71031,11.1629752 L244.71031,7.42809917 C244.71031,6.26181818 245.265682,5.74809917 246.029318,5.74809917 C246.723533,5.74809917 247.167831,6.20628099 247.167831,7.2892562 L247.167831,11.1629752 L249.805847,11.1629752 L249.805847,6.85884298 C249.805847,4.52628099 248.514607,3.51272727 246.765186,3.51272727 Z" id="Path" fill="#FFFFFF" fill-rule="nonzero"></path>
            <path d="M255.359566,11.2879339 C257.844855,11.2879339 259.608161,9.66347107 259.608161,7.38644628 C259.608161,5.12330579 257.844855,3.51272727 255.359566,3.51272727 C252.902045,3.51272727 251.110971,5.12330579 251.110971,7.38644628 C251.110971,9.66347107 252.902045,11.2879339 255.359566,11.2879339 Z M255.359566,9.19140496 C254.470971,9.19140496 253.776756,8.53884298 253.776756,7.38644628 C253.776756,6.24793388 254.470971,5.6092562 255.359566,5.6092562 C256.262045,5.6092562 256.942376,6.24793388 256.942376,7.38644628 C256.942376,8.53884298 256.262045,9.19140496 255.359566,9.19140496 Z" id="Shape" fill="#FFFFFF" fill-rule="nonzero"></path>
            <path d="M265.731136,3.51272727 C264.787004,3.51272727 263.940062,3.83206612 263.343037,4.4568595 L263.343037,3.63768595 L260.829979,3.63768595 L260.829979,11.1629752 L263.467996,11.1629752 L263.467996,7.52528926 C263.467996,6.27570248 264.120558,5.74809917 264.9675,5.74809917 C265.731136,5.74809917 266.203202,6.20628099 266.203202,7.2892562 L266.203202,11.1629752 L268.841219,11.1629752 L268.841219,6.85884298 C268.841219,4.52628099 267.494442,3.51272727 265.731136,3.51272727 Z" id="Path" fill="#FFFFFF" fill-rule="nonzero"></path>
            <path d="M275.963864,0.860826446 L275.963864,4.29024793 C275.464029,3.76264463 274.75593,3.51272727 273.881219,3.51272727 C271.826343,3.51272727 270.174112,4.99834711 270.174112,7.38644628 C270.174112,9.78842975 271.826343,11.2879339 273.881219,11.2879339 C274.85312,11.2879339 275.588988,11.0102479 276.088822,10.4132231 L276.088822,11.1629752 L278.60188,11.1629752 L278.60188,0.860826446 L275.963864,0.860826446 Z M274.436591,9.19140496 C273.534112,9.19140496 272.853781,8.53884298 272.853781,7.38644628 C272.853781,6.24793388 273.534112,5.6092562 274.436591,5.6092562 C275.325186,5.6092562 276.005517,6.24793388 276.005517,7.38644628 C276.005517,8.53884298 275.325186,9.19140496 274.436591,9.19140496 Z" id="Shape" fill="#FFFFFF" fill-rule="nonzero"></path>
            <path d="M281.420393,8.16396694 C280.504029,8.16396694 279.837583,8.77487603 279.837583,9.71900826 C279.837583,10.3715702 280.156921,10.8436364 280.656756,11.0796694 L280.004194,13.3428099 L281.656426,13.3428099 L282.531136,11.3157025 C282.933781,10.4132231 282.989318,10.1077686 282.989318,9.71900826 C282.989318,8.77487603 282.322872,8.16396694 281.420393,8.16396694 Z" id="Path" fill="#FFFFFF" fill-rule="nonzero"></path>
            <polygon id="Path" fill="#FFFFFF" fill-rule="nonzero" points="295.526839 1.44396694 292.833285 7.77520661 290.195269 1.44396694 287.224029 1.44396694 291.375434 11.1629752 294.082872 11.1629752 298.248161 1.44396694"></polygon>
            <path d="M305.759566,11.1629752 L308.619731,11.1629752 L304.315599,1.44396694 L301.608161,1.44396694 L297.317913,11.1629752 L300.122541,11.1629752 L300.886178,9.27471074 L304.99593,9.27471074 L305.759566,11.1629752 Z M301.691467,7.24760331 L302.941054,4.13752066 L304.19064,7.24760331 L301.691467,7.24760331 Z" id="Shape" fill="#FFFFFF" fill-rule="nonzero"></path>
        </g>
    </g>
</svg>