<?xml version="1.0" encoding="UTF-8"?>
<svg width="217px" height="120px" viewBox="0 0 217 120" version="1.1" xmlns="http://www.w3.org/2000/svg" xmlns:xlink="http://www.w3.org/1999/xlink">
    <title>Shape</title>
    <g id="wayside-mapping-website" stroke="none" stroke-width="1" fill="none" fill-rule="evenodd">
        <path d="M180.267108,107.498556 L184.668602,109.585892 L181.191892,119.347098 C181.048678,119.749179 180.670566,120 180.267108,120 L180.267108,107.498556 Z M180.267276,102.09693 L185.659291,102.09693 L189.346345,109.873734 C189.529198,110.259407 189.43903,110.704329 189.153725,110.989836 L180.267276,102.09693 Z M180.267079,102.09693 L180.267079,107.492808 L172.495843,111.182505 C172.110446,111.365488 171.665843,111.275255 171.380541,110.989747 L180.267079,102.09693 Z M187.750802,97.6921791 L197.505018,101.171381 C197.906812,101.314697 198.157453,101.69308 198.157453,102.096827 L185.664961,102.096827 L187.750802,97.6921791 Z M162.376754,102.096836 L174.869247,102.096836 L172.783356,106.501533 L163.029189,103.022282 C162.627395,102.878966 162.376754,102.500583 162.376754,102.096836 Z M171.38063,93.2038269 L180.267079,102.096733 L174.875064,102.096733 L171.18801,94.3199282 C171.005157,93.9342554 171.095325,93.4893334 171.38063,93.2038269 Z M189.153814,93.2039158 L180.267276,102.096733 L180.267276,96.7008541 L188.038512,93.0111579 C188.423909,92.8281745 188.868512,92.9184071 189.153814,93.2039158 Z M180.267099,84.1936626 L180.267099,96.6951362 L175.865556,94.6077512 L179.342316,84.8465649 C179.48553,84.4444832 179.863641,84.1936626 180.267099,84.1936626 Z M42.430602,76.5849164 C45.6456879,75.7241543 52.1645149,76.9847308 53.7507314,82.8996406 C54.3214687,85.027887 54.8974196,87.7011886 55.439032,90.434549 L55.6834883,91.683421 L56.1606126,94.1964509 C56.9907674,98.6412898 57.6770842,102.639843 58.0403359,103.994388 L58.0957026,103.811091 L58.1895252,103.470071 C59.1991849,99.6362895 61.7596868,85.2961169 65.8333418,75.128732 C67.4314616,71.0938707 71.1048638,69.290632 74.7792478,68.3069038 C75.79991,68.033646 76.3139051,68.1146424 76.4506479,68.6245484 C76.5326936,68.930492 76.3122047,69.5360383 75.6670943,70.8017824 C74.3842016,73.7685211 71.402175,93.0391151 73.5627113,101.09563 C74.1917283,103.441198 75.6900085,104.1331 77.3741012,103.682225 C79.4171593,103.135245 80.7858107,100.185545 81.3571004,98.6963699 C80.4035598,91.6927543 84.2288743,83.5934024 89.3926523,82.2109247 C93.5263343,81.1042306 95.5979526,83.118228 95.5979526,83.118228 C97.1289459,82.7083412 99.3853948,82.7600499 99.8639946,84.544721 C100.274223,86.0744391 98.8731706,92.6798153 99.8030217,96.1471762 C100.02181,96.9630258 100.747266,97.4246212 101.614829,97.1923521 C103.695946,96.6351829 105.077296,93.5849414 105.628924,92.124819 L105.63374,91.0323339 C105.662117,86.5227886 105.804989,82.2029622 106.068769,79.3311901 C106.159843,78.6509884 106.574454,78.1574253 107.237884,77.9798078 L107.355667,77.9512862 C108.092491,77.7918826 109.376998,77.8730878 111.49758,79.7905608 L111.703244,79.4900209 C112.394575,78.509283 114.733381,75.4265528 117.256731,74.7509865 C120.880082,73.7809213 124.296881,76.52781 125.089989,79.4852649 C125.855749,82.3407386 125.568133,86.5712594 124.064752,90.1435444 C124.231525,90.1535463 124.384624,90.1125577 124.537724,90.071569 C127.196058,89.3598638 128.769705,86.7577933 129.360546,85.5791648 L129.364989,84.6153746 C129.393846,80.1293613 129.536613,75.836351 129.799165,72.977946 C129.890239,72.2977444 130.30485,71.8041812 130.968281,71.6265637 L131.086063,71.5980421 C131.822887,71.4386385 133.107395,71.5198437 135.227977,73.4373167 L135.462062,73.0965871 L135.606186,72.8964716 C136.459551,71.7285212 138.643761,69.0251226 140.987127,68.3977424 C144.610478,67.4276772 148.027277,70.1745659 148.820385,73.1320208 C149.586145,75.9874945 149.29853,80.2180153 147.795148,83.7903003 C147.961922,83.8003022 148.115021,83.7593136 148.26812,83.7183249 C150.73652,83.05747 152.269695,80.7667269 152.94921,79.4991451 C152.436117,75.4537353 153.091816,68.8827314 153.494885,66.0874701 C153.599633,65.4582591 154.00057,64.9137053 154.612968,64.7497507 C156.143961,64.3398639 159.218903,65.8119876 159.424017,66.5768466 C160.244474,69.6362827 158.507911,74.5826339 159.834316,79.5287223 C160.148825,80.7015061 160.966336,81.3024104 161.986998,81.0291526 C164.100306,80.4633653 165.492031,77.3267857 166.026095,75.8950221 C165.644918,70.9650285 166.244888,65.5755644 166.543005,63.1406649 C166.634079,62.4604632 167.04869,61.9669001 167.661087,61.8029454 C168.426584,61.598002 169.733424,61.5760363 171.971816,63.6000355 L172.100568,63.4152736 L172.250231,63.2117405 C173.058087,62.1367164 175.572063,59.1384559 179.108861,58.1915632 C181.354318,57.590396 184.089366,59.4267758 184.622663,61.4154093 C185.44312,64.4748454 183.804959,69.1762455 184.789507,72.8475688 C185.104016,74.0203526 185.921527,74.621257 186.94219,74.3479992 C188.897418,73.8245336 190.234978,71.10049 190.8471,69.5619904 C189.806811,62.5194034 193.652469,54.2978613 198.858674,52.9040246 C202.992356,51.7973304 205.063975,53.8113278 205.063975,53.8113278 C206.594968,53.4014411 208.851417,53.4531498 209.330017,55.2378208 L209.357741,55.3598695 C209.602247,56.6122874 209.584896,61.5091643 209.56255,67.5268187 L209.554503,69.3324745 C212.121209,66.90621 213.678686,64.6993244 214.601978,62.4644012 L214.731628,62.1449373 C214.823665,61.9371532 215.128936,61.336518 215.633264,61.2014965 C216.245661,61.0375418 216.828027,61.3734912 216.978445,61.9343878 C217.087839,62.3423126 216.745263,63.308454 216.745263,63.308454 C215.639154,66.11856 213.760221,68.6983587 209.592125,72.3282381 L209.595838,73.2680349 L209.590915,73.9895976 C209.513933,80.3475118 208.496882,87.2680817 202.539879,88.8629263 C199.426859,89.6963627 196.198818,88.2652277 195.474081,85.5627258 C194.516881,81.9933837 198.139969,77.9629014 204.002168,73.715512 C203.982866,71.8078749 203.888846,70.0295448 203.792145,68.8531 L203.649445,69.1654852 C203.103907,70.3084807 201.01331,74.2424489 197.707757,75.1274316 C195.501136,75.7182013 193.179281,74.8330946 191.913288,72.8600145 C190.791436,74.9783104 188.930629,77.4772968 186.174274,78.2152448 C182.295757,79.2536245 179.077726,77.6558549 178.311966,74.8003812 C177.190675,70.6191519 178.808816,66.2510211 177.988359,63.191585 C177.86529,62.7326696 177.310272,62.4987014 176.748908,62.6489932 C173.686922,63.4687666 170.517049,70.8209599 173.14251,80.6111554 C173.374973,81.4779957 173.007731,81.7402706 172.293268,81.9315511 C169.588513,82.6556843 167.181647,82.0430789 166.74407,80.4113797 L166.659188,80.081871 C165.517127,82.0670913 163.743773,84.220473 161.219083,84.8963983 C157.956204,85.7699558 155.160773,84.7778183 153.826339,82.4674703 C152.650499,83.9690676 150.715774,85.6862994 147.699691,86.4937831 C147.240393,86.6167492 146.665355,86.7160503 146.090316,86.8153515 C144.836472,88.4626756 143.204395,89.7193987 141.16307,90.2659143 C137.896951,91.1403393 135.362371,89.0316827 135.362371,89.0316827 C135.00337,92.2821422 135.43142,100.028999 136.448735,104.08776 L136.517427,104.352791 C136.736216,105.16864 136.563096,105.542898 135.848632,105.734179 C133.909374,106.253369 130.972156,106.110662 130.233745,103.357169 L130.180274,103.139025 C129.723927,101.11374 129.451695,95.6245485 129.37877,89.6527586 C128.182227,90.91566 126.437995,92.186092 123.969295,92.8470272 C123.509997,92.9699932 122.934958,93.0692944 122.35992,93.1685956 C121.106076,94.8159197 119.473998,96.0726428 117.432674,96.6191584 C114.166555,97.4935834 111.631974,95.3849268 111.631974,95.3849268 C111.272973,98.6353863 111.701024,106.382243 112.718339,110.441004 L112.787031,110.706035 C113.005819,111.521885 112.832699,111.896143 112.118236,112.087423 C110.178978,112.606613 107.24176,112.463906 106.503349,109.710413 L106.449455,109.490392 C106.024935,107.603902 105.759829,102.719139 105.666372,97.2379068 C104.53656,98.9034344 102.95321,100.495687 100.846913,101.059598 C98.0400918,101.811057 95.4491139,100.919834 94.3261224,98.1600002 L94.2508107,98.3287171 C93.8342344,99.2338034 91.7046956,103.507207 88.2417345,104.434332 C86.0067686,105.03269 83.6535886,104.117012 82.3990041,102.090341 C81.2840852,104.230173 79.4077028,106.799432 76.6061853,107.549471 C73.0849007,108.49221 68.5937239,106.634128 67.4724329,102.452898 C66.1186791,97.4048287 66.7713101,88.2125946 67.7804541,81.1656269 C66.6634714,83.7718599 65.5118782,88.0307538 64.4981627,92.3946997 L64.2257415,93.5841014 L63.929135,94.9162692 L63.6431705,96.2364354 C62.5921226,101.152304 61.7885947,105.608273 61.4918117,107.278508 C61.0965024,109.679708 58.6425304,112.358808 57.8260006,112.577415 C56.2439742,113.000964 53.3758467,110.872304 52.5553899,107.812868 L52.487129,107.546034 C52.1956096,106.357477 51.8166435,104.226099 51.3987608,101.773452 L50.6188936,97.1686008 C50.0455458,93.8152458 49.455851,90.543919 48.9521816,88.6657652 L48.8749761,90.8117834 L48.8255961,92.0208654 C48.3994704,101.858198 47.1614686,115.432587 40.3726768,117.250123 C34.1466374,118.916996 27.0461626,115.079563 26.1163115,111.612202 C25.022369,107.532954 30.2001347,102.976941 33.1600551,102.184494 C33.9255518,101.97955 34.5179286,102.148865 34.6409971,102.60778 C34.8050885,103.219668 34.5672612,103.556598 34.016889,104.359766 L33.8634348,104.56919 L33.7064655,104.799951 C32.8266665,106.140133 31.7153101,108.626943 32.3606711,111.033456 C32.9486651,113.226052 34.9919531,114.318558 36.9312113,113.799368 C42.6979528,112.255461 47.2461049,87.8108888 45.5504941,81.4880542 C45.2223114,80.2642798 44.1696548,79.3984205 42.2814297,79.9039475 C39.16841,80.7373838 33.8668571,87.0753879 35.1932623,92.0214763 C36.0273934,95.131903 38.9619288,95.8764953 39.1396945,96.5393731 C39.3311344,97.2532415 39.0049152,97.6684883 38.3414848,97.8461058 C35.5856968,98.5839019 29.4067634,96.9590693 28.3264952,92.9308118 C26.6308844,86.6079772 34.9797678,78.5796985 42.430602,76.5849164 Z M203.941387,76.9562266 C200.599832,80.200865 198.937005,84.1983987 199.347233,85.7281167 C199.524999,86.3909945 199.97795,86.6522885 200.539315,86.5019967 C202.886838,85.8735037 203.722143,81.4417005 203.941387,76.9562266 Z M140.028753,72.3706303 C137.375031,73.0811006 134.610741,80.9258761 135.581615,84.5462088 C136.114912,86.5348422 137.757263,88.1719015 139.441356,87.7210261 C140.00272,87.5707343 140.495713,87.1654895 140.920334,86.5052917 C140.712538,86.342318 140.5421,86.1146907 140.473729,85.8597377 C140.186569,84.7889351 141.450423,82.9749764 142.304311,82.6917166 C142.906435,79.6339796 142.871496,76.0363307 142.433919,74.4046315 C141.941645,72.5689698 141.151482,72.0700467 140.028753,72.3706303 Z M116.298357,78.7238744 C113.644635,79.4343447 110.880345,87.2791202 111.851219,90.8994529 C112.384515,92.8880863 114.026867,94.5251456 115.710959,94.0742702 C116.272323,93.9239784 116.765316,93.5187336 117.189938,92.8585358 C116.982141,92.6955621 116.811704,92.4679348 116.743332,92.2129818 C116.456172,91.1421792 117.720026,89.3282205 118.573915,89.0449607 C119.176039,85.9872237 119.141099,82.3895748 118.703522,80.7578756 C118.211248,78.9222139 117.421085,78.4232908 116.298357,78.7238744 Z M200.723478,55.5745588 C197.763558,56.3670064 196.027258,64.3737747 197.175897,68.6569852 C197.572451,70.1357127 198.199505,70.8422592 199.2712,70.5553385 C201.720789,69.8995197 204.252617,61.187904 203.199697,57.2616277 C202.803143,55.7829002 201.74414,55.301301 200.723478,55.5745588 Z M91.2574559,84.8814589 C88.2975355,85.6739066 86.5612354,93.6806748 87.709875,97.9638854 C88.1064291,99.4426128 88.7334825,100.149159 89.8051778,99.8622386 C92.2547671,99.2064199 94.7355616,90.5084671 93.682642,86.5821908 C93.2860878,85.1034633 92.2781181,84.6082011 91.2574559,84.8814589 Z M157.250981,50.927111 C158.730941,50.5308872 160.154504,51.3520968 160.605755,53.0347866 C161.330492,55.7372885 160.074948,58.8060085 157.880524,59.3935127 C156.400564,59.7897366 154.837576,59.0605062 154.345302,57.2248445 C153.647914,54.6243239 155.005524,51.5282782 157.250981,50.927111 Z M155.490989,0.104360583 C157.583347,-0.455817928 160.573561,1.31224738 161.202578,3.65781506 C162.528983,8.60390341 155.445006,27.0598916 155.445006,27.0598916 C155.524369,27.9677205 155.705799,28.8482236 155.924587,29.6640733 C156.676673,32.4685563 158.104881,34.3269019 159.993106,33.8213749 C162.105609,33.2558031 163.46709,30.1294247 163.987603,28.7006575 C163.956247,28.6033492 163.927408,28.5038418 163.900409,28.4031635 C161.808244,20.6016015 166.908346,13.7163636 171.348227,12.5276921 C174.461247,11.6942558 177.672932,13.6762855 178.397669,16.3787874 C179.054034,18.8263362 178.533237,24.4309233 172.103065,26.1524475 C171.541701,26.3027393 170.081761,26.3656938 170.081761,26.3656938 C170.888544,29.3741393 173.394794,30.5613041 175.844383,29.9054854 C180.023819,28.7865417 181.902998,24.5468555 182.341878,23.3985747 L182.488896,22.9790825 C182.578584,22.7398802 182.815373,22.2461047 183.274671,22.1231386 C183.836035,21.9728468 184.469434,22.2951334 184.619852,22.85603 C184.706723,23.1799703 184.605622,23.7176233 184.538636,24.0058673 L184.484405,24.2183953 C184.379547,24.590452 182.337672,31.5008083 174.790289,33.521439 C170.962936,34.5461209 167.456002,33.6167278 165.428073,31.2957303 L165.271523,31.6327864 C164.20815,33.866236 162.248033,36.8793272 159.174157,37.7022835 C155.346674,38.7270003 152.035605,36.1704111 151.352873,34.4403916 L151.168866,34.8150232 L151.006848,35.1247428 C150.136588,36.7510208 147.683882,40.7785289 144.323522,41.6781846 C142.018515,42.2952951 139.284203,41.311554 137.7516,39.0244768 L137.570908,39.3923155 C136.470931,41.5716185 134.563469,44.2912046 131.667311,45.0665815 C128.492018,45.9166898 125.759416,44.9999217 124.385168,42.8208457 L124.191766,43.1057223 C122.48649,45.5587796 119.201629,48.7865295 113.186979,50.3968079 C109.647938,51.3443009 105.944141,49.976068 103.765635,48.0374144 C102.535619,50.2368892 100.699053,52.6308798 97.8133197,55.2778579 L97.8052653,55.7553197 L97.7944585,56.235505 C97.6323059,62.5733599 96.651182,69.4704892 90.7737663,71.0440261 C87.6607465,71.8774625 84.432705,70.4463275 83.7079681,67.7438256 C82.778117,64.2764647 86.6810367,60.8815345 92.1996776,56.7807758 C92.2040603,54.7574947 92.0826922,52.8771834 92.009675,51.5850945 C90.8825639,53.9089593 88.6974317,56.5707353 86.0437099,57.2812056 C84.0592188,57.8125055 81.2168971,56.8940864 79.9391729,54.9339036 C78.829376,57.0906861 76.9405639,59.7183545 74.1019621,60.478322 C71.295141,61.229781 68.7041631,60.3385578 67.5811716,57.5787244 L67.5058599,57.7474413 C67.0892836,58.6525277 64.9597448,62.9259313 61.4967838,63.853056 C58.7409958,64.5908521 55.8054786,63.0267491 54.9713475,59.9163225 C53.0022511,52.5736758 57.0340594,43.1325669 62.6477016,41.629649 C66.7813835,40.5229548 68.8530018,42.5369522 68.8530018,42.5369522 C70.3839951,42.1270654 72.640444,42.1787742 73.1190438,43.9634452 C73.5292723,45.4931633 72.1282199,52.0985395 73.058071,55.5659004 C73.2768594,56.38175 74.002315,56.8433455 74.8698779,56.6110763 C77.1357745,56.0044369 78.5721247,52.4423591 79.0111936,51.1950817 C78.6505685,46.972593 79.1211688,40.73856 79.4932738,38.158031 C79.5980223,37.5288199 79.9989591,36.9842662 80.6113565,36.8203115 C82.1423498,36.4104248 85.217292,37.8825484 85.4224062,38.6474074 C86.1334688,41.2989187 84.3341618,47.8469634 85.5374985,52.3341363 C85.756287,53.1499859 86.3559918,53.7545512 87.1214885,53.5496079 C88.754548,53.1123954 90.1978681,50.5399186 90.6415283,48.7269408 C91.60407,44.8239842 91.4576905,39.0730229 91.5288917,35.3150751 L91.5370879,34.9335888 C91.5260959,34.2807129 92.0427732,33.759824 92.7062037,33.5822064 C94.1861639,33.1859826 97.2611061,34.6581062 97.4662203,35.4229653 L97.5011135,35.5736202 C97.7445022,36.7734729 97.8508962,40.542565 97.8531351,44.4973952 L97.8519265,45.3798588 L97.8443149,46.6482982 L97.8299895,47.8999527 C97.8211882,48.5186851 97.8099592,49.1246013 97.7964371,49.7079185 L97.7993824,52.1664502 C99.8948346,50.0413919 101.263524,48.0128184 102.207817,46.0756477 C102.091811,45.8410053 102.002175,45.6065202 101.939866,45.3741726 C101.146758,42.4167177 105.745102,39.983287 105.745102,39.983287 L107.527438,34.428122 C107.596868,34.213541 107.668447,33.9924664 107.742196,33.7648508 L107.929433,33.2298879 L108.119479,32.711796 C109.412901,29.2713366 110.60066,27.8623185 111.764257,27.5507936 C112.835952,27.2638729 114.634085,28.2580582 114.770827,28.7679642 C114.962267,29.4818326 114.07933,31.0845071 114.448535,32.4612533 C115.528804,36.4895108 117.970346,37.6393479 118.804477,40.7497746 C119.501866,43.3502953 118.669961,44.9393068 118.669961,44.9393068 C121.29009,43.434756 122.759359,41.0341638 123.40547,39.7281868 C122.877901,35.6885215 123.538066,29.066636 123.943113,26.2576533 C124.047862,25.6284423 124.448798,25.0838885 125.061196,24.9199338 C126.592189,24.5100471 129.667131,25.9821708 129.872245,26.7470298 C130.692702,29.8064659 128.956139,34.7528171 130.282544,39.6989054 C130.597053,40.8716893 131.414564,41.4725936 132.435227,41.1993358 C134.682931,40.597567 136.114355,37.0876268 136.565774,35.8138286 C135.120508,27.8973246 140.689067,20.7359464 145.168241,19.536755 C147.158533,19.0039023 148.602116,19.4918425 148.602116,19.4918425 L148.612203,18.885577 C148.802255,10.0941054 150.90145,1.33309964 155.490989,0.104360583 Z M92.128887,60.1881252 C89.0525074,63.1978145 87.1982401,66.4814797 87.58112,67.9092165 C87.7588857,68.5720943 88.1608043,68.8470512 88.7732016,68.6830965 C91.0186585,68.0819293 91.9023148,64.2383485 92.128887,60.1881252 Z M43.1924978,28.6393427 C45.131756,28.1201528 50.2380123,29.2123955 50.9900978,32.0168786 C54.3539709,44.5605666 50.8308637,66.7086001 40.9304402,69.3592008 C35.2657649,70.8757817 32.8766929,65.2304688 32.8766929,65.2304688 L32.764627,65.4519474 L32.6344409,65.6977027 C31.7598667,67.3186104 28.5783963,72.6661641 24.0895137,73.8679547 C20.8233947,74.7423797 17.2517956,73.4578756 16.3219445,69.9905147 C15.4933472,66.9007232 16.1919878,62.3738301 17.0817742,57.6459107 L17.8075984,53.8517863 L18.0335932,52.6355672 C18.842817,48.1921152 19.4045216,43.9561834 18.6014109,40.96143 C18.2732281,39.7376555 17.3226378,38.8444705 15.7916445,39.2543572 C11.6579625,40.3610513 6.28195506,49.8887795 7.60836029,54.8348679 C8.66127991,58.7611442 11.4627365,59.2134558 11.6405022,59.8763336 C11.8182678,60.5392114 11.5430817,60.9407953 10.8286182,61.1320757 C8.12386331,61.8562089 1.3252045,59.9600804 0.231262041,55.8808323 C-1.71048583,48.6401669 9.00031371,37.7934793 16.4511479,35.7986973 C20.5848298,34.6920032 23.9522964,36.0311588 25.0735874,40.2123882 C25.8284185,43.0271096 25.1626637,47.6431036 24.3491886,52.3831098 L23.6737145,56.2711276 L23.4859184,57.390984 C22.8366764,61.3434958 22.4094728,64.9516682 23.0026362,67.1635401 C23.3581675,68.4892958 24.5092263,69.110204 25.7850541,68.7686317 C28.3877427,68.0718243 31.3234524,61.2741866 31.3234524,61.2741866 L31.2351211,60.7055892 C30.8090746,57.7873534 29.2194848,44.5675798 35.1166443,42.9887569 C36.8007369,42.5378816 38.2890069,43.3964189 38.7129096,44.9771276 C40.0529892,49.9742065 35.4380956,61.3202725 35.4380956,61.3202725 L35.5273969,61.5179395 L35.6642599,61.7982714 C36.2192857,62.8945526 37.7426197,65.4579774 39.6387116,64.9503443 C46.2730159,63.1741685 47.5545933,44.9053446 44.6009487,33.8913746 C43.8215147,30.9849103 42.9082832,30.0270718 42.7578661,29.4661752 C42.6484719,29.0582503 42.835266,28.7349829 43.1924978,28.6393427 Z M109.354516,35.9018141 L108.744917,37.8021315 L108.347042,39.087492 C107.782081,40.9443109 107.207394,42.9885398 107.301025,43.3376838 L107.40346,43.7057004 C108.213941,46.5127904 109.599873,48.9525005 111.360515,48.4811308 C112.942542,48.0575812 113.685073,45.7273754 113.06973,43.4327984 C112.372342,40.8322777 109.915161,37.9924288 109.354516,35.9018141 Z M147.056729,22.0916451 C143.79061,22.9660701 142.003277,30.9865012 143.124568,35.1677305 C143.616842,37.0033922 144.618466,37.8829144 145.792227,37.5686679 C147.935618,36.9948265 150.270904,31.83353 150.270904,31.83353 C149.515155,28.8114216 149.079278,25.7583265 148.704445,22.5249338 L148.648823,22.4813094 C148.455902,22.3371411 147.787309,21.89605 147.056729,22.0916451 Z M64.5125052,44.3001831 C61.5525847,45.0926308 59.8162846,53.099399 60.9649242,57.3826096 C61.3614784,58.861337 61.9885317,59.5678835 63.0602271,59.2809628 C65.5098164,58.6251441 67.9906108,49.9271913 66.9376912,46.000915 C66.5411371,44.5221875 65.5331674,44.0269253 64.5125052,44.3001831 Z M173.372476,14.7729777 C170.565655,15.5244367 169.065219,21.5552534 169.776281,24.2067647 C173.501698,23.2093737 175.138878,17.6884629 174.564558,15.5468577 C174.386792,14.8839799 173.93384,14.6226859 173.372476,14.7729777 Z M157.230042,2.91786465 C155.494916,3.38240293 154.132467,13.8030533 154.739308,23.2046098 L155.076565,22.0599976 L155.450788,20.7388605 C156.698359,16.2530226 159.067535,6.91429537 158.176968,3.59342441 C158.040225,3.08351839 157.68934,2.79489864 157.230042,2.91786465 Z M127.699209,11.0972942 C129.179169,10.7010703 130.602732,11.52228 131.053983,13.2049698 C131.77872,15.9074717 130.523176,18.9761916 128.328752,19.5636959 C126.848792,19.9599198 125.285804,19.2306894 124.79353,17.3950277 C124.096142,14.794507 125.453752,11.6984613 127.699209,11.0972942 Z" id="Shape" fill="#FFFAF7"></path>
    </g>
</svg>