<?xml version="1.0" encoding="UTF-8"?>
<svg width="323px" height="214px" viewBox="0 0 323 214" version="1.1" xmlns="http://www.w3.org/2000/svg" xmlns:xlink="http://www.w3.org/1999/xlink">
    <title>Group</title>
    <g id="wayside-mapping-website" stroke="none" stroke-width="1" fill="none" fill-rule="evenodd">
        <g id="Frame-Copy-2" transform="translate(-149, -6)">
            <g id="Group" transform="translate(149, 5)">
                <g id="Shape-2" transform="translate(237.0617, 139.1539)" fill="#E37700">
                    <path d="M25.4688476,33.2169939 L31.7348489,36.1921213 L26.7853766,50.1049892 C26.5814966,50.6780854 26.0432138,51.0355858 25.4688476,51.0355858 L25.4688476,33.2169939 Z M25.4688065,25.5179329 L25.4688065,33.2088016 L14.4056135,38.4678095 C13.8569599,38.7286199 13.2240189,38.6000093 12.8178608,38.1930673 L25.4688065,25.5179329 Z M33.1452011,25.5179329 L38.3941205,36.6023895 C38.6544306,37.1520976 38.5260667,37.7862551 38.1199053,38.1931939 L25.469086,25.5179329 L33.1452011,25.5179329 Z M17.78441,25.5177991 L14.81492,31.7959137 L0.928811345,26.8368585 C0.356814571,26.6325866 0,26.0932692 0,25.5177991 L17.78441,25.5177991 Z M36.1226929,19.239742 L50.0088715,24.1987272 C50.5808682,24.4029991 50.9376828,24.9423165 50.9376828,25.5177867 L33.1532729,25.5177867 L36.1226929,19.239742 Z M12.8179871,12.8423918 L25.4688065,25.5176528 L17.7926913,25.5176528 L12.543772,14.4331963 C12.2834619,13.8834882 12.4118258,13.2493307 12.8179871,12.8423918 Z M38.1200317,12.8425185 L25.469086,25.5176528 L25.469086,17.8267841 L36.532279,12.5677763 C37.0809325,12.3069659 37.7138735,12.4355765 38.1200317,12.8425185 Z M25.4688352,0 L25.4688352,17.8186343 L19.202764,14.8434369 L24.1523062,0.930596533 C24.3561862,0.357500374 24.894469,0 25.4688352,0 Z" id="Shape"></path>
                </g>
                <g id="Wayside-Mapping" transform="translate(161.1959, 107.3766) rotate(-15) translate(-161.1959, -107.3766)translate(13, 36)" fill="#460D03" fill-rule="nonzero">
                    <path d="M69.8321242,8.98495806 C69.8321242,25.2214907 61.3380122,49.8769662 51.566025,49.8769662 C48.0330758,49.8769662 47.1310462,43.3372517 47.1310462,43.3372517 C47.1310462,43.3372517 57.6547247,29.4309621 57.6547247,22.0643871 C57.6547247,19.734144 55.9258347,18.005254 53.4452533,18.005254 C43.6732661,18.005254 41.4933612,41.7586999 41.4933612,41.7586999 C41.4933612,41.7586999 34.9536467,50.0273045 31.1200209,50.0273045 C29.2407926,50.0273045 27.8877482,48.7494292 27.8877482,46.7950318 C27.8877482,38.3760889 40.6665008,19.6589749 40.6665008,10.4883407 C40.6665008,4.32447184 36.5321985,1.2425374 30.4434987,1.2425374 C19.4688054,1.2425374 0.751691326,12.2172308 0.751691326,22.8912476 C0.751691326,28.9047782 9.39614158,34.0162792 13.3801056,34.0162792 C14.4324735,34.0162792 14.9586574,33.5652644 14.9586574,32.5880657 C14.9586574,31.610867 11.2753699,29.9571461 11.2753699,24.1691229 C11.2753699,16.877717 22.1748941,5.75268536 28.2635939,5.75268536 C30.5186679,5.75268536 31.4958666,7.33123714 31.4958666,9.13529633 C31.4958666,19.8844823 17.6647462,37.7747359 17.6647462,48.2232453 C17.6647462,53.3347463 22.099725,56.4166808 26.9105495,56.4166808 C34.7281393,56.4166808 42.1698834,47.7722305 42.1698834,47.7722305 C42.1698834,47.7722305 43.3725895,56.4166808 51.7163633,56.4166808 C66.299175,56.4166808 79.3034349,27.2510573 79.3034349,8.75945066 C79.3034349,4.62514837 72.6885513,1.2425374 69.8321242,1.2425374 C69.3059403,1.2425374 68.9300946,1.61838306 68.9300946,2.21973613 C68.9300946,3.04659658 69.8321242,4.7003175 69.8321242,8.98495806 Z" id="Path"></path>
                    <path d="M113.50539,47.1708774 C113.50539,47.1708774 114.181912,46.0433405 114.181912,45.3668183 C114.181912,44.5399578 113.430221,43.8634356 112.603361,43.8634356 C111.701331,43.8634356 111.099978,44.9158035 111.099978,44.9158035 C111.099978,44.9158035 107.116014,51.3803489 103.056881,51.3803489 C101.779006,51.3803489 100.952145,50.4783193 100.952145,49.2756132 C100.952145,44.1641121 105.311955,35.594831 105.311955,33.339757 C105.311955,30.7088374 102.23002,29.8068078 99.9749464,29.8068078 C99.9749464,29.8068078 97.8702107,26.2738586 91.7815109,26.2738586 C83.5129064,26.2738586 74.4926104,37.7747359 74.4926104,48.599091 C74.4926104,53.1844081 77.9503905,56.4166808 82.0095237,56.4166808 C87.7223778,56.4166808 92.6835405,50.0273045 92.6835405,50.0273045 C93.2097245,54.2367759 96.4419972,56.4166808 100.576299,56.4166808 C108.018044,56.4166808 113.50539,47.1708774 113.50539,47.1708774 Z M96.0661515,33.865941 C96.0661515,39.6539642 89.4512678,50.7038267 85.8431495,50.7038267 C84.2645977,50.7038267 83.6632446,49.5011206 83.6632446,47.3212157 C83.6632446,41.0070086 89.000253,30.6336683 93.3600627,30.6336683 C94.8634454,30.6336683 96.0661515,31.6860361 96.0661515,33.865941 Z" id="Shape"></path>
                    <path d="M137.108498,50.327981 C139.288403,42.8862369 141.919322,32.6632348 141.919322,30.5584991 C141.919322,29.4309621 138.236035,26.2738586 136.05613,26.2738586 C135.078931,26.2738586 134.176902,26.8000425 133.951394,27.7020721 C132.448012,32.8135731 130.493614,41.1573468 127.637187,46.344017 C126.359312,48.6742601 123.427716,51.6810254 121.022304,51.6810254 C119.894767,51.6810254 119.293413,50.6286575 119.293413,49.4259514 C119.293413,42.8110677 124.179407,34.467294 124.179407,30.5584991 C124.179407,29.4309621 120.49612,26.2738586 118.241046,26.2738586 C117.339016,26.2738586 116.587325,26.8752116 116.211479,27.7020721 C114.40742,31.9115435 110.348287,43.7130973 110.348287,49.1252749 C110.348287,53.1844081 114.708096,56.4166808 118.165877,56.4166808 C122.074671,56.4166808 126.058635,53.5602537 128.464048,50.7789958 C128.088202,52.583055 127.562018,55.2139746 126.810327,57.9952325 C117.714862,61.6033509 111.099978,64.8356236 111.099978,69.9471246 C111.099978,73.9310887 115.008773,77.0881922 119.59409,77.0881922 C128.689555,77.0881922 132.523181,67.0155285 135.078931,57.9952325 C141.994492,54.3871142 145.903286,50.7038267 148.534206,47.1708774 C148.534206,47.1708774 149.361067,46.0433405 149.361067,45.3668183 C149.361067,44.5399578 148.684544,43.8634356 147.782515,43.8634356 C146.880485,43.8634356 146.128794,44.9158035 146.128794,44.9158035 C143.948889,47.9225688 140.942124,50.9293341 136.206468,53.710592 L137.108498,50.327981 Z M117.714862,73.1042282 C116.812832,73.1042282 116.361817,72.5780443 116.361817,71.6008455 C116.361817,69.4961098 120.120274,65.6624841 125.457282,62.6557188 C123.653223,68.1430654 121.022304,73.1042282 117.714862,73.1042282 Z" id="Shape"></path>
                    <path d="M158.080686,35.594831 C158.080686,38.6767655 160.410929,43.4875899 160.410929,47.3212157 C160.410929,50.7038267 158.531701,53.6354228 156.201458,53.6354228 C153.495369,53.6354228 152.51817,49.4259514 152.51817,45.0661417 C152.51817,44.088943 158.080686,35.594831 158.080686,35.594831 Z M179.278381,47.1708774 C179.278381,47.1708774 179.954904,46.0433405 179.954904,45.3668183 C179.954904,44.5399578 179.203212,43.8634356 178.376352,43.8634356 C177.474322,43.8634356 176.872969,44.9158035 176.872969,44.9158035 C176.872969,44.9158035 173.490358,49.8769662 167.551997,51.455518 C167.551997,51.455518 169.280887,49.5762897 169.280887,45.7426639 C169.280887,41.1573468 166.349291,38.6767655 166.349291,32.738404 C166.349291,30.7088374 168.15335,28.8296091 168.15335,27.7772412 C168.15335,27.0255499 166.048614,24.9959833 164.470062,24.9959833 C162.590834,24.9959833 160.185422,26.8000425 156.652472,32.0618818 C153.194692,37.3988902 151.616141,39.8794716 151.616141,39.8794716 C151.616141,39.8794716 144.399904,41.5331925 144.399904,45.8930022 C144.399904,50.327981 150.563773,56.9428647 158.005517,56.9428647 C173.415189,56.9428647 179.278381,47.1708774 179.278381,47.1708774 Z" id="Shape"></path>
                    <path d="M196.266605,12.367569 C196.266605,9.88698765 194.612884,8.23326674 192.43298,8.23326674 C189.125538,8.23326674 186.118772,11.9917234 186.118772,15.8253491 C186.118772,18.5314379 187.998001,20.1099897 190.177906,20.1099897 C193.410178,20.1099897 196.266605,16.3515331 196.266605,12.367569 Z M185.44225,48.5239218 C185.44225,41.232516 189.651722,35.0686471 189.651722,30.5584991 C189.651722,29.4309621 185.968434,26.2738586 183.71336,26.2738586 C182.811331,26.2738586 182.059639,26.8752116 181.683794,27.7020721 C179.879734,31.9115435 175.820601,42.7358986 175.820601,48.1480762 C175.820601,53.0340698 179.654227,56.4166808 185.367081,56.4166808 C192.808825,56.4166808 198.296172,47.1708774 198.296172,47.1708774 C198.296172,47.1708774 198.972694,46.0433405 198.972694,45.3668183 C198.972694,44.5399578 198.221003,43.8634356 197.394142,43.8634356 C196.492113,43.8634356 195.89076,44.9158035 195.89076,44.9158035 C195.89076,44.9158035 191.906796,51.3803489 187.847662,51.3803489 C186.34428,51.3803489 185.44225,50.2528119 185.44225,48.5239218 Z" id="Shape"></path>
                    <path d="M217.088455,31.6860361 C216.411933,36.2713532 215.885749,40.6311629 215.81058,45.0661417 C215.81058,45.0661417 210.699079,51.3051797 207.541975,51.3051797 C205.813085,51.3051797 204.760717,49.726628 204.760717,47.0205392 C204.760717,40.8566703 210.172895,30.48333 214.983719,30.48333 C216.261595,30.48333 217.088455,31.6860361 217.088455,31.6860361 Z M225.131552,34.8431397 C227.762472,21.6885415 233.475326,7.85742107 236.031076,7.85742107 C236.707599,7.85742107 237.083444,8.383605 237.083444,9.13529633 C237.083444,15.6750109 225.131552,34.8431397 225.131552,34.8431397 Z M225.883244,56.4166808 C233.324988,56.4166808 238.812334,47.1708774 238.812334,47.1708774 C238.812334,47.1708774 239.488857,46.0433405 239.488857,45.3668183 C239.488857,44.5399578 238.737165,43.8634356 237.910305,43.8634356 C237.008275,43.8634356 236.406922,44.9158035 236.406922,44.9158035 C236.406922,44.9158035 232.498127,51.3803489 228.438994,51.3803489 C225.657736,51.3803489 224.379861,48.2984144 224.379861,44.1641121 C224.379861,42.961406 224.45503,41.6835308 224.680537,40.4056555 C224.680537,40.4056555 241.217747,17.6294083 241.217747,10.3380024 C241.217747,6.88022235 237.759967,3.34727311 234.678032,3.34727311 C227.762472,3.34727311 221.523434,15.1488269 218.065654,27.4765647 C218.065654,27.4765647 216.261595,26.2738586 213.329998,26.2738586 C206.414438,26.2738586 195.439745,34.8431397 195.439745,47.1708774 C195.439745,52.6582241 199.724385,56.4166808 204.009026,56.4166808 C210.248064,56.4166808 216.336764,49.0501058 216.336764,49.0501058 C216.63744,51.6810254 220.245559,56.4166808 225.883244,56.4166808 Z" id="Shape"></path>
                    <path d="M245.427218,41.7586999 C245.427218,37.849905 249.711859,30.1074843 253.846161,30.1074843 C254.673021,30.1074843 255.199205,30.6336683 255.199205,31.610867 C255.199205,34.7679706 250.914565,41.7586999 245.427218,41.7586999 Z M265.647715,47.1708774 C265.647715,47.1708774 266.324237,46.0433405 266.324237,45.3668183 C266.324237,44.5399578 265.572546,43.8634356 264.745685,43.8634356 C263.843656,43.8634356 263.242302,44.9158035 263.242302,44.9158035 C263.242302,44.9158035 258.807324,51.8313637 251.666256,51.8313637 C248.058138,51.8313637 245.051372,49.2756132 245.051372,44.8406343 C245.051372,44.8406343 247.080939,45.2916491 247.907799,45.2916491 C257.37911,45.2916491 260.160368,37.7747359 260.160368,34.1666175 C260.160368,30.1826535 256.477081,26.2738586 251.891763,26.2738586 C245.352049,26.2738586 235.805569,33.865941 235.805569,45.3668183 C235.805569,51.7561945 241.292916,56.4166808 248.884998,56.4166808 C260.310706,56.4166808 265.647715,47.1708774 265.647715,47.1708774 Z" id="Shape"></path>
                    <path d="M89.1505913,117.045338 C86.6700099,117.045338 84.8659507,115.541956 84.8659507,112.084176 C84.8659507,100.207453 96.0661515,74.8002858 98.9225785,71.1921674 C100.275623,69.6887847 100.801807,68.9370934 100.801807,68.4860786 C100.801807,67.7343873 100.125285,67.4337108 98.621902,67.4337108 C93.2097245,67.4337108 87.4968704,68.5612477 83.8135829,73.5224105 C73.9664265,86.6770087 64.7206232,106.822336 62.4655492,110.355285 C62.4655492,106.596829 64.3447775,89.5334358 64.3447775,79.7614485 C64.3447775,71.0418291 55.8506655,66.9075268 51.1150102,66.9075268 C40.1403168,66.9075268 25.7078434,74.8754549 25.7078434,84.1964273 C25.7078434,90.1347888 33.6006023,94.6449368 37.6597355,94.6449368 C38.6369342,94.6449368 39.2382872,94.193922 39.2382872,93.1415541 C39.2382872,92.1643554 35.4798306,90.0596197 35.4798306,85.4743026 C35.4798306,78.1828967 45.1014796,71.4176748 49.6867967,71.4176748 C52.4680546,71.4176748 53.5955916,72.9962266 53.5955916,74.8002858 C53.5955916,84.1212582 38.3362576,116.06814 29.8421457,116.06814 C26.9857186,116.06814 24.5803064,113.813066 24.5803064,110.580793 C24.5803064,106.596829 27.6622408,103.289387 29.3159617,102.011512 C30.3683296,101.109482 30.8193444,100.733637 30.8193444,99.8316069 C30.8193444,99.1550847 30.0676531,98.7040699 28.9401161,98.7040699 C24.5803064,98.7040699 15.7855179,103.06388 15.7855179,109.07741 C15.7855179,114.188911 24.1292916,122.08167 33.2999258,122.08167 C44.5001265,122.08167 51.566025,99.2302539 55.6251582,85.9253174 C55.6251582,92.3146937 53.5204224,109.07741 53.5204224,113.587558 C53.5204224,118.097706 56.677526,122.08167 59.0077691,122.08167 C60.2104752,122.08167 64.5702849,119.300412 65.9984985,116.143309 C68.1784033,111.482822 78.1758979,90.2851271 84.2645977,82.5427064 C80.2806337,91.8636789 75.9959931,104.266586 75.9959931,111.70833 C75.9959931,117.872199 81.4833398,122.08167 86.6700099,122.08167 C94.1117541,122.08167 99.5991007,112.835867 99.5991007,112.835867 C99.5991007,112.835867 100.275623,111.70833 100.275623,111.031808 C100.275623,110.204947 99.5239316,109.528425 98.6970712,109.528425 C97.7950416,109.528425 97.1936885,110.580793 97.1936885,110.580793 C97.1936885,110.580793 93.2097245,117.045338 89.1505913,117.045338 Z" id="Path"></path>
                    <path d="M135.304439,112.835867 C135.304439,112.835867 135.980961,111.70833 135.980961,111.031808 C135.980961,110.204947 135.22927,109.528425 134.402409,109.528425 C133.50038,109.528425 132.899027,110.580793 132.899027,110.580793 C132.899027,110.580793 128.915062,117.045338 124.855929,117.045338 C123.578054,117.045338 122.751194,116.143309 122.751194,114.940603 C122.751194,109.829102 127.111003,101.25982 127.111003,99.0047465 C127.111003,96.3738268 124.029069,95.4717972 121.773995,95.4717972 C121.773995,95.4717972 119.669259,91.938848 113.580559,91.938848 C105.311955,91.938848 96.2916589,103.439725 96.2916589,114.26408 C96.2916589,118.849397 99.749439,122.08167 103.808572,122.08167 C109.521426,122.08167 114.482589,115.692294 114.482589,115.692294 C115.008773,119.901765 118.241046,122.08167 122.375348,122.08167 C129.817092,122.08167 135.304439,112.835867 135.304439,112.835867 Z M117.8652,99.5309304 C117.8652,105.318954 111.250316,116.368816 107.642198,116.368816 C106.063646,116.368816 105.462293,115.16611 105.462293,112.986205 C105.462293,106.671998 110.799302,96.2986577 115.159111,96.2986577 C116.662494,96.2986577 117.8652,97.3510255 117.8652,99.5309304 Z" id="Shape"></path>
                    <path d="M170.258085,112.835867 C170.258085,112.835867 170.934608,111.70833 170.934608,111.031808 C170.934608,110.204947 170.182916,109.528425 169.356056,109.528425 C168.454026,109.528425 167.852673,110.580793 167.852673,110.580793 C167.852673,110.580793 164.094217,115.692294 158.982716,115.692294 C158.757208,115.692294 158.531701,115.692294 158.306193,115.617125 C161.688804,111.257315 163.643202,105.544461 163.643202,101.33499 C163.643202,96.9751799 159.959914,91.938848 154.622906,91.938848 C150.187927,91.938848 144.850919,96.7496725 144.850919,96.7496725 C142.520675,93.1415541 140.716616,92.6905393 139.664248,92.6905393 C138.68705,92.6905393 137.935358,93.2167233 137.559513,94.1187528 C133.650718,104.717601 126.960665,130.72612 126.960665,136.063129 C126.960665,140.122262 130.944629,141.400137 133.801056,141.400137 C134.853424,141.400137 135.22927,140.949122 135.22927,139.746416 C135.22927,133.883224 137.559513,122.683023 139.288403,118.248044 C139.288403,118.248044 141.994492,122.08167 146.805316,122.08167 C149.812081,122.08167 152.51817,120.954133 154.848413,119.150074 C155.675274,119.225243 156.502134,119.300412 157.178656,119.300412 C165.973445,119.300412 170.258085,112.835867 170.258085,112.835867 Z M141.2428,112.159345 C141.2428,106.822336 147.932853,97.050349 151.841648,97.050349 C153.495369,97.050349 154.397398,98.0275477 154.397398,100.733637 C154.397398,103.139049 153.119523,108.100212 151.165126,112.084176 C149.88725,112.159345 147.481838,114.188911 147.481838,115.767463 C147.481838,116.143309 147.632176,116.519154 147.857684,116.819831 C147.030823,117.571522 146.203963,117.947368 145.377103,117.947368 C142.896521,117.947368 141.2428,115.090941 141.2428,112.159345 Z" id="Shape"></path>
                    <path d="M205.211732,112.835867 C205.211732,112.835867 205.888254,111.70833 205.888254,111.031808 C205.888254,110.204947 205.136563,109.528425 204.309703,109.528425 C203.407673,109.528425 202.80632,110.580793 202.80632,110.580793 C202.80632,110.580793 199.047863,115.692294 193.936362,115.692294 C193.710855,115.692294 193.485347,115.692294 193.25984,115.617125 C196.642451,111.257315 198.596848,105.544461 198.596848,101.33499 C198.596848,96.9751799 194.913561,91.938848 189.576553,91.938848 C185.141574,91.938848 179.804565,96.7496725 179.804565,96.7496725 C177.474322,93.1415541 175.670263,92.6905393 174.617895,92.6905393 C173.640696,92.6905393 172.889005,93.2167233 172.513159,94.1187528 C168.604365,104.717601 161.914312,130.72612 161.914312,136.063129 C161.914312,140.122262 165.898276,141.400137 168.754703,141.400137 C169.807071,141.400137 170.182916,140.949122 170.182916,139.746416 C170.182916,133.883224 172.513159,122.683023 174.242049,118.248044 C174.242049,118.248044 176.948138,122.08167 181.758963,122.08167 C184.765728,122.08167 187.471817,120.954133 189.80206,119.150074 C190.62892,119.225243 191.455781,119.300412 192.132303,119.300412 C200.927092,119.300412 205.211732,112.835867 205.211732,112.835867 Z M176.196447,112.159345 C176.196447,106.822336 182.8865,97.050349 186.795295,97.050349 C188.449016,97.050349 189.351045,98.0275477 189.351045,100.733637 C189.351045,103.139049 188.07317,108.100212 186.118772,112.084176 C184.840897,112.159345 182.435485,114.188911 182.435485,115.767463 C182.435485,116.143309 182.585823,116.519154 182.811331,116.819831 C181.98447,117.571522 181.15761,117.947368 180.330749,117.947368 C177.850168,117.947368 176.196447,115.090941 176.196447,112.159345 Z" id="Shape"></path>
                    <path d="M222.199956,78.0325585 C222.199956,75.5519771 220.546235,73.8982562 218.36633,73.8982562 C215.058888,73.8982562 212.052123,77.6567128 212.052123,81.4903386 C212.052123,84.1964273 213.931351,85.7749791 216.111256,85.7749791 C219.343529,85.7749791 222.199956,82.0165225 222.199956,78.0325585 Z M211.375601,114.188911 C211.375601,106.897505 215.585072,100.733637 215.585072,96.2234886 C215.585072,95.0959516 211.901785,91.938848 209.646711,91.938848 C208.744681,91.938848 207.99299,92.5402011 207.617144,93.3670615 C205.813085,97.5765329 201.753952,108.400888 201.753952,113.813066 C201.753952,118.699059 205.587578,122.08167 211.300432,122.08167 C218.742176,122.08167 224.229523,112.835867 224.229523,112.835867 C224.229523,112.835867 224.906045,111.70833 224.906045,111.031808 C224.906045,110.204947 224.154354,109.528425 223.327493,109.528425 C222.425463,109.528425 221.82411,110.580793 221.82411,110.580793 C221.82411,110.580793 217.840146,117.045338 213.781013,117.045338 C212.277631,117.045338 211.375601,115.917801 211.375601,114.188911 Z" id="Shape"></path>
                    <path d="M248.133307,114.188911 C248.133307,108.776734 252.117271,102.913541 252.117271,98.4033934 C252.117271,95.4717972 249.035336,91.938848 245.727895,91.938848 C239.338518,91.938848 233.926341,96.7496725 233.926341,96.7496725 C231.596098,93.1415541 229.792038,92.6905393 228.664501,92.6905393 C227.762472,92.6905393 227.010781,93.2167233 226.634935,94.1187528 C224.906045,98.4033934 220.546235,109.603594 220.546235,117.947368 C220.546235,120.35278 223.62817,122.08167 227.612134,122.08167 C228.664501,122.08167 229.265855,121.856163 229.265855,120.578288 C229.265855,106.145814 236.331753,97.2006873 240.841901,97.2006873 C241.668761,97.2006873 242.345284,97.7268712 242.345284,98.4033934 C242.345284,102.913541 238.511658,108.325719 238.511658,114.489588 C238.511658,118.699059 242.345284,122.08167 248.058138,122.08167 C255.499882,122.08167 260.987229,112.835867 260.987229,112.835867 C260.987229,112.835867 261.663751,111.70833 261.663751,111.031808 C261.663751,110.204947 260.912059,109.528425 260.085199,109.528425 C259.183169,109.528425 258.581816,110.580793 258.581816,110.580793 C258.581816,110.580793 254.597852,117.045338 250.538719,117.045338 C249.035336,117.045338 248.133307,115.917801 248.133307,114.188911 Z" id="Path"></path>
                    <path d="M288.348793,99.0047465 C288.348793,96.3738268 285.266858,95.4717972 283.011784,95.4717972 C283.011784,95.4717972 280.907049,91.938848 274.818349,91.938848 C266.549744,91.938848 257.529448,103.439725 257.529448,114.26408 C257.529448,118.849397 260.987229,122.08167 265.046362,122.08167 C270.759216,122.08167 275.720379,115.692294 275.720379,115.692294 C275.419702,117.346015 274.893518,119.826596 274.216996,122.457516 C264.595347,126.140803 258.130801,130.350275 258.130801,135.612114 C258.130801,139.596078 262.039596,142.753182 266.624913,142.753182 C276.171393,142.753182 280.005019,131.928827 282.410431,122.607854 C289.47633,119.150074 293.009279,116.293647 295.56503,112.835867 C295.56503,112.835867 296.39189,111.633161 296.39189,111.031808 C296.39189,110.204947 295.715368,109.528425 294.813338,109.528425 C293.911309,109.528425 293.159617,110.580793 293.159617,110.580793 C291.054882,113.43722 288.048116,115.99297 283.462799,118.473552 L284.139321,115.99297 C286.469564,107.423689 288.348793,100.508129 288.348793,99.0047465 Z M279.178159,99.5309304 C279.178159,105.318954 272.488106,116.368816 268.879987,116.368816 C267.301436,116.368816 266.700083,115.16611 266.700083,112.986205 C266.700083,106.671998 272.037091,96.2986577 276.396901,96.2986577 C277.900283,96.2986577 279.178159,97.3510255 279.178159,99.5309304 Z M264.745685,138.769218 C263.918825,138.769218 263.392641,138.243034 263.392641,137.265835 C263.392641,135.010761 267.151097,130.124767 272.939121,126.892495 C270.984723,132.981194 268.203465,138.769218 264.745685,138.769218 Z" id="Shape"></path>
                </g>
            </g>
        </g>
    </g>
</svg>