<?xml version="1.0" encoding="UTF-8"?>
<svg width="50px" height="50px" viewBox="0 0 50 50" version="1.1" xmlns="http://www.w3.org/2000/svg" xmlns:xlink="http://www.w3.org/1999/xlink">
    <title>Shape 2</title>
    <g id="wayside-mapping-website" stroke="none" stroke-width="1" fill="none" fill-rule="evenodd">
        <g id="Frame-Copy-2" transform="translate(-343, -855)" fill="#FFFFFF">
            <g id="Shape-2" transform="translate(343, 855)">
                <path d="M25.0000061,32.5429731 L31.1506601,35.4577308 L26.2922999,49.0882866 C26.092173,49.6497538 25.5637991,50 25.0000061,50 L25.0000061,32.5429731 Z M24.9999657,25.0001372 L24.9999657,32.5349471 L14.1404288,37.6872421 C13.601875,37.9427602 12.9805855,37.8167593 12.581904,37.4180748 L24.9999657,25.0001372 Z M32.53505,25.0001372 L37.687345,35.8596741 C37.9428631,36.3982278 37.8168622,37.0195174 37.4181777,37.4181989 L25.0002401,25.0001372 L32.53505,25.0001372 Z M17.4570269,25.0000061 L14.5422006,31.1507287 L0.911713386,26.2922999 C0.350246175,26.092173 0,25.5637991 0,25.0000061 L17.4570269,25.0000061 Z M35.4577308,18.8493399 L49.0882866,23.7077001 C49.6497538,23.907827 50,24.4362009 50,24.9999939 L32.5429731,24.9999939 L35.4577308,18.8493399 Z M12.5820281,12.5818011 L24.9999657,24.9998628 L17.4651558,24.9998628 L12.3128608,14.1403259 C12.0573426,13.6017722 12.1833436,12.9804826 12.5820281,12.5818011 Z M37.4183017,12.5819252 L25.0002401,24.9998628 L25.0002401,17.4650529 L35.859777,12.3127579 C36.3983307,12.0572398 37.0196203,12.1832407 37.4183017,12.5819252 Z M24.9999939,0 L24.9999939,17.4570685 L18.8492713,14.5422422 L23.7077001,0.911713386 C23.907827,0.350246175 24.4362009,0 24.9999939,0 Z" id="Shape"></path>
            </g>
        </g>
    </g>
</svg>